<?xml version="1.0" encoding="UTF-8"?>
<svg version="1.1" xmlns="http://www.w3.org/2000/svg" width="512" height="512">
<path d="M0 0 C6.24886337 0.42505093 11.56917884 2.03788804 17.41015625 4.21875 C18.31354233 4.54818604 19.21692841 4.87762207 20.14768982 5.21704102 C23.12218071 6.30364993 26.09223699 7.40189272 29.0625 8.5 C31.16764193 9.27107516 33.27311685 10.04124171 35.37890625 10.81054688 C39.75276379 12.40924243 44.12516335 14.01183579 48.49658203 15.6171875 C57.52416053 18.92913773 66.56897902 22.19313585 75.61386108 25.4574585 C78.49953811 26.49983315 81.38431107 27.54467129 84.26879883 28.59033203 C93.48543658 31.93050407 102.70648375 35.25711099 111.94140625 38.54644775 C116.32339004 40.10799178 120.70315939 41.67569308 125.08276367 43.24389648 C127.18013127 43.9929217 129.27859103 44.73889629 131.37817383 45.48168945 C134.28093418 46.50884157 137.17983693 47.54624566 140.078125 48.5859375 C140.9413739 48.88829315 141.8046228 49.1906488 142.69403076 49.50216675 C143.48497131 49.78810699 144.27591187 50.07404724 145.09082031 50.36865234 C146.12061005 50.73475113 146.12061005 50.73475113 147.17120361 51.10824585 C151.167172 53.05675221 152.48646192 55.69288267 153.92260742 59.78295898 C154.27177719 60.7635881 154.62094696 61.74421722 154.98069763 62.75456238 C155.53745934 64.35912041 155.53745934 64.35912041 156.10546875 65.99609375 C156.69963341 67.67455132 156.69963341 67.67455132 157.30580139 69.38691711 C158.38289863 72.43327191 159.45261522 75.48210207 160.51954651 78.5320282 C161.64073379 81.73044063 162.77207483 84.92525116 163.90332031 88.12011719 C164.3608783 89.41262536 164.81842833 90.70513636 165.27597046 91.99765015 C165.50287945 92.6385899 165.72978844 93.27952965 165.96357346 93.93989182 C166.6546642 95.89327757 167.34464751 97.84705127 168.03433228 99.80093384 C171.72709371 110.25885439 175.4851452 120.69189356 179.28701782 131.1105957 C180.2479394 133.74435219 181.20661587 136.37891654 182.16479492 139.01367188 C185.22202663 147.41470722 188.29548875 155.80950115 191.39251709 164.19595337 C192.90254653 168.28807487 194.40661332 172.38237535 195.91003418 176.47692871 C196.63007748 178.43271437 197.35308653 180.38741101 198.07922363 182.34094238 C199.08087877 185.03589116 200.07269466 187.73427461 201.0625 190.43359375 C201.51118439 191.62875862 201.51118439 191.62875862 201.96893311 192.84806824 C204.66463184 200.25751057 204.66463184 200.25751057 204 204 C201 206 201 206 197.1875 205.4375 C192.9146324 204.37202916 188.81567335 202.90478084 184.67578125 201.41015625 C184.03145142 201.17816528 183.38712158 200.94617432 182.7232666 200.70715332 C181.14823489 200.13979141 179.57403144 199.57013108 178 199 C178.01488067 207.78006576 178.05649902 216.5594818 178.13209057 225.33923626 C178.16635603 229.41625486 178.19146976 233.49289895 178.19555664 237.57006836 C178.1998407 241.50616084 178.22831076 245.44140856 178.27343178 249.37723732 C178.28640361 250.87745045 178.29071551 252.37776469 178.28615379 253.87802696 C178.28124482 255.98300315 178.30734475 258.08551298 178.34057617 260.19018555 C178.35056892 261.98555 178.35056892 261.98555 178.36076355 263.81718445 C179.18046407 267.89854678 180.91596637 269.30193941 184 272 C186.92093712 276.53248863 187.89690353 280.67837239 187 286 C185.22081173 291.26104059 182.79791863 295.02985989 178 298 C172.91366295 300.42756995 168.37794194 300.33241649 163 299 C157.71705287 296.20900906 153.9139086 292.7417258 152 287 C151.46137713 280.98192528 151.55395959 276.16906061 155 271 C156.02812805 270.13202789 156.02812805 270.13202789 157.07702637 269.246521 C159.66673399 266.22108557 159.50688276 264.37962288 159.51757812 260.43066406 C159.52809204 259.45419922 159.52809204 259.45419922 159.53881836 258.45800781 C159.5563935 256.31011009 159.54477364 254.16353572 159.53125 252.015625 C159.5339464 250.51592762 159.53783006 249.01623194 159.54284668 247.51654053 C159.54874211 244.37251144 159.5401828 241.2289371 159.52148438 238.08496094 C159.49877274 234.07230217 159.51176687 230.06071824 159.53577423 226.04809952 C159.55029881 222.94919898 159.54559466 219.85054882 159.53526306 216.75164032 C159.53260999 215.27339295 159.53581516 213.79512224 159.54518127 212.31690216 C159.58449475 204.36344671 159.58131024 197.78435044 155 191 C152.66299102 189.17655957 152.66299102 189.17655957 150 188.375 C149.154375 188.05273438 148.30875 187.73046875 147.4375 187.3984375 C144.37487253 186.8978157 143.62482996 187.38292582 141 189 C139.22037949 190.61888023 137.496185 192.29929973 135.80761719 194.01293945 C135.05060768 194.7767392 135.05060768 194.7767392 134.27830505 195.55596924 C133.18540494 196.65980718 132.09479053 197.76591185 131.00621796 198.87401772 C129.27814986 200.63233416 127.54341663 202.38381691 125.80670166 204.1335907 C120.87082103 209.10913992 115.94763977 214.09718568 111.02783203 219.08862305 C108.0146147 222.14477046 104.99395017 225.19340134 101.96891022 228.23784447 C100.82261416 229.39464933 99.679238 230.55435569 98.53896332 231.71709633 C83.33650878 247.2184523 83.33650878 247.2184523 75 248 C75.31453125 248.8765625 75.6290625 249.753125 75.953125 250.65625 C86.79094694 282.12377458 87.69450292 318.67929421 80 351 C79.81808105 351.80050781 79.63616211 352.60101563 79.44873047 353.42578125 C71.9189238 385.88671725 54.3438392 414.66602128 32 439 C31.23171875 439.84046875 30.4634375 440.6809375 29.671875 441.546875 C-2.60189328 475.25503298 -50.59210642 494.72811908 -96.84765625 496.22265625 C-148.80905606 497.27783462 -197.34948103 479.08136307 -235.01171875 443.20703125 C-243.15270972 435.31788251 -250.45831357 427.26365526 -257 418 C-257.39316406 417.46713379 -257.78632813 416.93426758 -258.19140625 416.38525391 C-275.06012103 393.51621252 -285.28319299 365.87036425 -290 338 C-290.17571533 336.98969727 -290.17571533 336.98969727 -290.35498047 335.95898438 C-298.3798193 287.7384075 -285.3495949 237.25456135 -257.22314453 197.67529297 C-251.37471769 189.66493269 -244.74656558 182.25803806 -238 175 C-237.08347656 174.00226563 -237.08347656 174.00226563 -236.1484375 172.984375 C-230.04198016 166.59208348 -223.04163867 161.30834432 -216 156 C-215.154375 155.35933594 -214.30875 154.71867188 -213.4375 154.05859375 C-206.6208231 149.09577662 -199.29275888 145.03379627 -191.88964844 141.02392578 C-190.2569206 140.13921511 -188.63163738 139.24079098 -187.0078125 138.33984375 C-174.51613738 131.70474719 -160.83249384 127.49049545 -147.125 124.1875 C-146.31877197 123.992771 -145.51254395 123.79804199 -144.68188477 123.59741211 C-131.17004522 120.50693093 -117.92940878 119.59341708 -104.125 119.625 C-102.84240799 119.62531723 -102.84240799 119.62531723 -101.53390503 119.62564087 C-81.55466411 119.67481581 -62.85983454 122.23264761 -44 129 C-43.731875 127.7625 -43.46375 126.525 -43.1875 125.25 C-41.66804888 120.69378057 -39.34995424 117.87160102 -36.07299805 114.38769531 C-35.58616641 113.86798786 -35.09933477 113.34828041 -34.59775066 112.81282425 C-29.3887985 107.28389959 -24.02999205 101.90311909 -18.64453125 96.546875 C-17.60627972 95.51049615 -16.56825437 94.47389066 -15.53044128 93.43707275 C-12.84161754 90.75200741 -10.14980205 88.06996227 -7.45727539 85.38861084 C-4.69295196 82.63464798 -1.93157447 79.87773443 0.83007812 77.12109375 C6.21722994 71.74456093 11.60755691 66.37122644 17 61 C14.98921615 54.01066165 12.68419308 47.17899089 10.171875 40.35546875 C9.44733518 38.36023711 8.72339398 36.36478799 8 34.36914062 C6.87107215 31.26187526 5.7384571 28.15616475 4.59570312 25.05395508 C3.48481487 22.03343093 2.38960039 19.00760278 1.296875 15.98046875 C0.95114441 15.05332565 0.60541382 14.12618256 0.24920654 13.17094421 C-0.21688019 11.86852531 -0.21688019 11.86852531 -0.69238281 10.53979492 C-1.10849823 9.40256233 -1.10849823 9.40256233 -1.53302002 8.24235535 C-2.09769966 5.53086348 -1.74869755 3.64830035 -1 1 C-0.67 0.67 -0.34 0.34 0 0 Z " fill="#327EB6" transform="translate(300,8)"/>
<path d="M0 0 C6.24886337 0.42505093 11.56917884 2.03788804 17.41015625 4.21875 C18.31354233 4.54818604 19.21692841 4.87762207 20.14768982 5.21704102 C23.12218071 6.30364993 26.09223699 7.40189272 29.0625 8.5 C31.16764193 9.27107516 33.27311685 10.04124171 35.37890625 10.81054688 C39.75276379 12.40924243 44.12516335 14.01183579 48.49658203 15.6171875 C57.52416053 18.92913773 66.56897902 22.19313585 75.61386108 25.4574585 C78.49953811 26.49983315 81.38431107 27.54467129 84.26879883 28.59033203 C93.48543658 31.93050407 102.70648375 35.25711099 111.94140625 38.54644775 C116.32339004 40.10799178 120.70315939 41.67569308 125.08276367 43.24389648 C127.18013127 43.9929217 129.27859103 44.73889629 131.37817383 45.48168945 C134.28093418 46.50884157 137.17983693 47.54624566 140.078125 48.5859375 C140.9413739 48.88829315 141.8046228 49.1906488 142.69403076 49.50216675 C143.48497131 49.78810699 144.27591187 50.07404724 145.09082031 50.36865234 C145.7773468 50.6127182 146.46387329 50.85678406 147.17120361 51.10824585 C151.167172 53.05675221 152.48646192 55.69288267 153.92260742 59.78295898 C154.27177719 60.7635881 154.62094696 61.74421722 154.98069763 62.75456238 C155.3518721 63.82426773 155.72304657 64.89397308 156.10546875 65.99609375 C156.50157852 67.11506546 156.89768829 68.23403717 157.30580139 69.38691711 C158.38289863 72.43327191 159.45261522 75.48210207 160.51954651 78.5320282 C161.64073379 81.73044063 162.77207483 84.92525116 163.90332031 88.12011719 C164.3608783 89.41262536 164.81842833 90.70513636 165.27597046 91.99765015 C165.50287945 92.6385899 165.72978844 93.27952965 165.96357346 93.93989182 C166.6546642 95.89327757 167.34464751 97.84705127 168.03433228 99.80093384 C171.72709371 110.25885439 175.4851452 120.69189356 179.28701782 131.1105957 C180.2479394 133.74435219 181.20661587 136.37891654 182.16479492 139.01367188 C185.22202663 147.41470722 188.29548875 155.80950115 191.39251709 164.19595337 C192.90254653 168.28807487 194.40661332 172.38237535 195.91003418 176.47692871 C196.63007748 178.43271437 197.35308653 180.38741101 198.07922363 182.34094238 C199.08087877 185.03589116 200.07269466 187.73427461 201.0625 190.43359375 C201.51118439 191.62875862 201.51118439 191.62875862 201.96893311 192.84806824 C204.66463184 200.25751057 204.66463184 200.25751057 204 204 C201 206 201 206 197.1875 205.4375 C192.9146324 204.37202916 188.81567335 202.90478084 184.67578125 201.41015625 C184.03145142 201.17816528 183.38712158 200.94617432 182.7232666 200.70715332 C181.14823489 200.13979141 179.57403144 199.57013108 178 199 C178.01488067 207.78006576 178.05649902 216.5594818 178.13209057 225.33923626 C178.16635603 229.41625486 178.19146976 233.49289895 178.19555664 237.57006836 C178.1998407 241.50616084 178.22831076 245.44140856 178.27343178 249.37723732 C178.28640361 250.87745045 178.29071551 252.37776469 178.28615379 253.87802696 C178.28124482 255.98300315 178.30734475 258.08551298 178.34057617 260.19018555 C178.35056892 261.98555 178.35056892 261.98555 178.36076355 263.81718445 C179.18046407 267.89854678 180.91596637 269.30193941 184 272 C186.92093712 276.53248863 187.89690353 280.67837239 187 286 C185.22081173 291.26104059 182.79791863 295.02985989 178 298 C172.91366295 300.42756995 168.37794194 300.33241649 163 299 C157.71705287 296.20900906 153.9139086 292.7417258 152 287 C151.46137713 280.98192528 151.55395959 276.16906061 155 271 C155.6854187 270.42135193 156.3708374 269.84270386 157.07702637 269.246521 C159.66673399 266.22108557 159.50688276 264.37962288 159.51757812 260.43066406 C159.5245874 259.7796875 159.53159668 259.12871094 159.53881836 258.45800781 C159.5563935 256.31011009 159.54477364 254.16353572 159.53125 252.015625 C159.5339464 250.51592762 159.53783006 249.01623194 159.54284668 247.51654053 C159.54874211 244.37251144 159.5401828 241.2289371 159.52148438 238.08496094 C159.49877274 234.07230217 159.51176687 230.06071824 159.53577423 226.04809952 C159.55029881 222.94919898 159.54559466 219.85054882 159.53526306 216.75164032 C159.53260999 215.27339295 159.53581516 213.79512224 159.54518127 212.31690216 C159.58449475 204.36344671 159.58131024 197.78435044 155 191 C152.66299102 189.17655957 152.66299102 189.17655957 150 188.375 C149.154375 188.05273438 148.30875 187.73046875 147.4375 187.3984375 C144.37487253 186.8978157 143.62482996 187.38292582 141 189 C139.22037949 190.61888023 137.496185 192.29929973 135.80761719 194.01293945 C135.05060768 194.7767392 135.05060768 194.7767392 134.27830505 195.55596924 C133.18540494 196.65980718 132.09479053 197.76591185 131.00621796 198.87401772 C129.27814986 200.63233416 127.54341663 202.38381691 125.80670166 204.1335907 C120.87082103 209.10913992 115.94763977 214.09718568 111.02783203 219.08862305 C108.0146147 222.14477046 104.99395017 225.19340134 101.96891022 228.23784447 C100.82261416 229.39464933 99.679238 230.55435569 98.53896332 231.71709633 C82.54466493 248.02586491 82.54466493 248.02586491 70.6875 248.375 C47.22293275 248.13409069 25.32034096 230.32806423 9 215 C7.69300509 213.86860901 6.38090579 212.74307308 5.0625 211.625 C-4.19556647 203.54316329 -12.47049433 194.70621731 -20 185 C-20.75023437 184.05511719 -21.50046875 183.11023438 -22.2734375 182.13671875 C-30.6754987 171.31153752 -37.21358475 159.8671244 -42 147 C-42.6496875 145.2984375 -42.6496875 145.2984375 -43.3125 143.5625 C-44.74010729 136.16489861 -45.62380753 127.7194715 -41.47459412 121.06869507 C-35.28776746 112.38925057 -27.1581426 105.02091847 -19.62109375 97.5234375 C-18.55756436 96.46177904 -17.49425987 95.39989525 -16.4311676 94.33779907 C-13.66668417 91.57708776 -10.89920884 88.81939569 -8.13104248 86.06237793 C-5.29318695 83.23485229 -2.45824998 80.40440357 0.37695312 77.57421875 C5.91515859 72.0466567 11.45653644 66.52228936 17 61 C14.98921615 54.01066165 12.68419308 47.17899089 10.171875 40.35546875 C9.44733518 38.36023711 8.72339398 36.36478799 8 34.36914062 C6.87107215 31.26187526 5.7384571 28.15616475 4.59570312 25.05395508 C3.48481487 22.03343093 2.38960039 19.00760278 1.296875 15.98046875 C0.95114441 15.05332565 0.60541382 14.12618256 0.24920654 13.17094421 C-0.06151794 12.30266495 -0.37224243 11.43438568 -0.69238281 10.53979492 C-0.96979309 9.78163986 -1.24720337 9.0234848 -1.53302002 8.24235535 C-2.09769966 5.53086348 -1.74869755 3.64830035 -1 1 C-0.67 0.67 -0.34 0.34 0 0 Z " fill="#2F518D" transform="translate(300,8)"/>
<path d="M0 0 C6.9461127 -0.30890165 13.22341611 0.84899271 20 2.3125 C21.0415625 2.52583984 22.083125 2.73917969 23.15625 2.95898438 C29.0138519 4.19780801 34.45906229 5.72901471 40 8 C40.01417969 8.62003906 40.02835937 9.24007812 40.04296875 9.87890625 C41.36030493 34.33863474 56.86614789 55.7115596 73 73 C74.12982312 74.30835048 75.25504706 75.62069073 76.375 76.9375 C84.18220126 85.86001572 92.7121232 93.65105223 102 101 C102.81082031 101.67804688 103.62164062 102.35609375 104.45703125 103.0546875 C117.89062269 114.20955988 135.62776372 125.42434362 153.4375 126.625 C155.01337891 126.73714844 155.01337891 126.73714844 156.62109375 126.8515625 C157.79865234 126.92503906 157.79865234 126.92503906 159 127 C159.84809201 129.49581362 160.67846921 131.99544125 161.5 134.5 C161.73847656 135.19609375 161.97695313 135.8921875 162.22265625 136.609375 C163.84536182 141.61658076 164.61443049 145.73496633 164 151 C162.48925841 153.55160686 161.165031 155.43639315 159.25 157.625 C158.50943359 158.51832031 158.50943359 158.51832031 157.75390625 159.4296875 C156.18980536 161.30503264 154.59883101 163.15421891 153 165 C151.99435887 166.17410861 150.98914286 167.34858149 149.984375 168.5234375 C148.48762324 170.26968873 146.98834311 172.013437 145.48120117 173.75073242 C142.0474708 177.72072401 138.77408746 181.78654803 135.5625 185.9375 C131.56173613 191.0693737 127.49793972 196.14221791 123.3125 201.125 C122.80211182 201.75269287 122.29172363 202.38038574 121.76586914 203.02709961 C117.3837554 208.17119829 112.71576458 211.24408488 106.04296875 212.6015625 C99.45605407 212.65562746 93.87005626 211.53743681 87.69140625 209.46484375 C86.00145744 208.91478671 84.31108466 208.36603109 82.62036133 207.81835938 C81.71573151 207.52380859 80.81110168 207.22925781 79.87905884 206.92578125 C74.70136618 205.26085842 69.49807484 203.6794728 64.296875 202.08984375 C62.05726432 201.40308396 59.81768129 200.71623401 57.578125 200.02929688 C54.1538728 198.97996887 50.72944797 197.93121293 47.3046875 196.88354492 C23.93603703 189.73221887 23.93603703 189.73221887 12.91918945 185.96728516 C10.11051618 185.03661998 7.29113539 184.21773518 4.4375 183.4375 C-1.18167725 181.75081495 -5.26637642 179.58664129 -8.3125 174.4375 C-11.06521142 168.83012489 -11.81552641 164.18517218 -11 158 C-8.57156621 152.08510111 -4.63536927 148.25299758 0.75341797 144.91333008 C3.72025495 143.70718607 6.18333695 143.76057852 9.3828125 143.76171875 C10.63320312 143.74560547 11.88359375 143.72949219 13.171875 143.71289062 C15.78380548 143.69611439 18.3958364 143.69069627 21.0078125 143.69726562 C29.0109753 143.57016622 35.37312291 142.75786623 42 138 C47.18508415 132.48448956 47.32488006 126.39326325 47.30078125 119.1796875 C46.89898264 114.93210219 45.7427027 113.17124999 43 110 C43 109.34 43 108.68 43 108 C42.4216893 107.71331451 41.8433786 107.42662903 41.24754333 107.1312561 C39.84733756 106.42649046 38.45727794 105.70069804 37.08460999 104.94369507 C30.51002597 101.5884456 24.65042489 101.4883772 17.37109375 101.6015625 C14.93033758 101.59682865 12.48958231 101.59160554 10.04882812 101.5859375 C6.23494251 101.60069046 2.42142007 101.62514761 -1.39233398 101.66015625 C-5.09663825 101.68685909 -8.79956018 101.67721869 -12.50390625 101.6640625 C-14.20420738 101.69652573 -14.20420738 101.69652573 -15.93885803 101.72964478 C-22.47064041 101.68906498 -26.41938729 100.89982874 -31.44517517 96.61264038 C-35.0968364 92.82519356 -36.79306682 89.55600916 -37.50390625 84.2109375 C-37.35678674 76.88691221 -33.53664344 70.41308558 -30.4375 63.9375 C-29.75825256 62.48662863 -29.08054356 61.03503611 -28.40429688 59.58276367 C-26.99630115 56.56655946 -25.57830858 53.55536967 -24.15185547 50.54785156 C-22.04923233 46.11236942 -19.97677564 41.66328362 -17.91015625 37.2109375 C-12.10245206 24.72213618 -6.21520154 12.29226124 0 0 Z " fill="#52D26E" transform="translate(216,129)"/>
<path d="M0 0 C4.0164671 10.0544673 7.81046965 20.17360245 11.4375 30.375 C11.84677734 31.50848877 12.25605469 32.64197754 12.67773438 33.80981445 C15.13862483 40.65020196 17.51094012 47.50932426 19.78437805 54.41455078 C21.11585084 58.4313735 22.48533224 62.43473436 23.85964966 66.43707275 C24.5322499 68.42465085 25.18849462 70.41784482 25.8276062 72.41644287 C28.96909151 83.50530051 28.96909151 83.50530051 35.86425781 92.26855469 C38.91465105 93.56122529 41.75955298 94.33939154 45 95 C46.55239954 95.56235681 48.09551228 96.15145936 49.625 96.7734375 C51.08220246 97.31037081 52.54056512 97.8441646 54 98.375 C54.81428467 98.6733374 55.62856934 98.9716748 56.4675293 99.27905273 C61.89800902 101.25978908 67.34993866 103.17247019 72.8125 105.0625 C83.30058766 108.69409103 93.71048967 112.53883759 104.125 116.375 C104.99162262 116.69381134 105.85824524 117.01262268 106.75112915 117.34109497 C109.23306292 118.25458795 111.71432203 119.16988607 114.1953125 120.0859375 C114.95274246 120.36480301 115.71017242 120.64366852 116.49055481 120.9309845 C121.76838454 122.88419227 121.76838454 122.88419227 124 124 C122.41170473 127.85175133 119.95398905 130.30593649 117.03466797 133.23999023 C116.53028702 133.74948212 116.02590607 134.258974 115.50624084 134.78390503 C113.8400267 136.46399863 112.16650616 138.13657932 110.4921875 139.80859375 C109.32571806 140.97895268 108.15947182 142.14953411 106.99343872 143.32032776 C104.54720332 145.77402307 102.09713091 148.22380934 99.64453125 150.67114258 C96.51583478 153.79406262 93.39861048 156.9281568 90.28445244 160.06556606 C87.87720859 162.48761304 85.46299678 164.90262152 83.04678726 167.31572151 C81.8955064 168.46751287 80.7465613 169.62164424 79.60009384 170.77822685 C63.47508812 187.0279136 63.47508812 187.0279136 51.6875 187.375 C28.22293275 187.13409069 6.32034096 169.32806423 -10 154 C-11.30699491 152.86860901 -12.61909421 151.74307308 -13.9375 150.625 C-23.19556647 142.54316329 -31.47049433 133.70621731 -39 124 C-39.75023437 123.05511719 -40.50046875 122.11023438 -41.2734375 121.13671875 C-49.6754987 110.31153752 -56.21358475 98.8671244 -61 86 C-61.433125 84.865625 -61.86625 83.73125 -62.3125 82.5625 C-63.74016257 75.16461214 -64.62337925 66.720024 -60.47486877 60.06869507 C-54.29982272 51.40739072 -46.19246914 44.02993781 -38.69140625 36.5234375 C-37.63281881 35.4616278 -36.57430272 34.39974695 -35.51585388 33.33779907 C-33.32002118 31.13603842 -31.12219319 28.93629254 -28.9230957 26.73779297 C-26.10126566 23.91606572 -23.28644804 21.08744857 -20.47322178 18.25714684 C-18.30026107 16.07311048 -16.12281423 13.8935907 -13.94404411 11.7153511 C-12.90298807 10.67311392 -11.8635557 9.62925229 -10.82577705 8.58375168 C-9.3854045 7.1336434 -7.93811507 5.69041531 -6.49047852 4.24755859 C-5.66935074 3.4250058 -4.84822296 2.602453 -4.00221252 1.75497437 C-2 0 -2 0 0 0 Z " fill="#26427F" transform="translate(319,69)"/>
<path d="M0 0 C0.93497314 0.49830322 1.86994629 0.99660645 2.83325195 1.51000977 C4.36622925 2.2874353 4.36622925 2.2874353 5.93017578 3.08056641 C8.2515739 4.25840534 10.56666872 5.44503876 12.87817383 6.6418457 C17.47256924 9.007997 22.11424724 11.2758587 26.75512695 13.54907227 C29.34107425 14.82098124 31.92634402 16.09425407 34.51126099 17.36825562 C36.21643084 18.20808399 37.92237655 19.04633904 39.62911987 19.88296509 C42.04900291 21.07202386 44.46317069 22.27200028 46.8762207 23.47485352 C47.95761322 24.00249802 47.95761322 24.00249802 49.06085205 24.540802 C56.88411802 28.46864325 62.90994846 33.22014131 65.89575195 41.69750977 C66.99208197 52.68104983 65.01927928 63.12450808 62.77075195 73.82250977 C62.44932065 75.40688572 62.12919274 76.99152661 61.81030273 78.57641602 C60.85780976 83.28746742 59.879461 87.99289288 58.89575195 92.69750977 C58.61566935 94.04220828 58.33571483 95.38693348 58.0559082 96.73168945 C56.00424208 106.58428015 56.00424208 106.58428015 55.03271484 111.21630859 C52.58349293 122.98688901 50.4993653 134.81644992 48.43188477 146.65893555 C47.31027646 153.01573744 46.1067116 159.35720071 44.89575195 165.69750977 C42.43881231 166.04583539 39.98122517 166.37582245 37.52075195 166.69750977 C36.53075195 166.8405957 36.53075195 166.8405957 35.52075195 166.98657227 C27.01970731 168.0685234 18.44771097 167.78104538 9.89575195 167.69750977 C9.62480713 166.27378052 9.62480713 166.27378052 9.34838867 164.82128906 C7.2411234 153.77138693 5.08974963 142.73052089 2.89575195 131.69750977 C2.75379395 130.98201965 2.61183594 130.26652954 2.46557617 129.52935791 C1.5962502 125.16239368 0.6930376 120.80356897 -0.22924805 116.44750977 C-0.44597168 115.36816162 -0.66269531 114.28881348 -0.88598633 113.17675781 C-2.5633741 105.44830781 -4.85903727 99.28043263 -11.16674805 94.26000977 C-16.25406922 91.55398787 -20.84432074 91.55185167 -26.52612305 91.52172852 C-28.20842713 91.49852354 -29.89071883 91.47440593 -31.57299805 91.44946289 C-34.21045152 91.41443727 -36.84745024 91.38504446 -39.48510742 91.37158203 C-42.04099955 91.35600317 -44.59558195 91.31573077 -47.15112305 91.27172852 C-47.92848816 91.27363693 -48.70585327 91.27554535 -49.5067749 91.2775116 C-55.08964402 91.15430807 -59.60735748 90.14120111 -64.10424805 86.69750977 C-69.86487216 80.67568309 -70.99636279 74.99679696 -70.8659668 66.88891602 C-70.87101982 65.37877174 -70.87101982 65.37877174 -70.87617493 63.83811951 C-70.87587757 61.72112898 -70.86077012 59.60409347 -70.83154297 57.48730469 C-70.79188987 54.27151145 -70.81086044 51.05985525 -70.83666992 47.84399414 C-70.82910864 45.77561898 -70.818153 43.70725286 -70.8034668 41.63891602 C-70.8104509 40.69069473 -70.817435 39.74247345 -70.82463074 38.76551819 C-70.66455854 31.08438739 -68.67617727 24.71660461 -63.49815369 18.89035034 C-59.48662054 15.2420794 -54.94292862 12.77632218 -50.08862305 10.42797852 C-49.35097717 10.06150711 -48.6133313 9.69503571 -47.85333252 9.31745911 C-45.52486425 8.16378929 -43.18969632 7.02447082 -40.85424805 5.88500977 C-39.27308066 5.10269171 -37.69234725 4.31949589 -36.11206055 3.53540039 C-23.6967248 -2.59952974 -13.31515959 -6.63050912 0 0 Z " fill="#52D26E" transform="translate(181.104248046875,336.302490234375)"/>
<path d="M0 0 C11.55383815 11.73869956 16.10068884 23.5225733 16.23828125 39.66796875 C16.246353 40.58403397 16.25442474 41.50009918 16.26274109 42.44392395 C16.27651418 44.37608995 16.28726633 46.30827958 16.29516602 48.24047852 C16.30666979 50.19628137 16.32709612 52.15205323 16.35668945 54.10766602 C16.60660763 70.65950973 15.38316674 84.03794715 3.53857422 96.61328125 C0.22119102 99.93125108 -3.15158249 103.18455011 -6.55297852 106.41601562 C-15.92841152 115.36002098 -20.94846268 122.68908332 -23.5 135.4375 C-25.90942054 146.33780205 -28.67646182 156.05219957 -38 163 C-46.31470544 167.51997438 -53.62768192 168.70401778 -62.984375 168.48828125 C-64.16598206 168.48120651 -65.34758911 168.47413177 -66.56500244 168.46684265 C-70.29401255 168.43912599 -74.0214531 168.3764276 -77.75 168.3125 C-80.29685313 168.2873879 -82.84373008 168.26457988 -85.390625 168.24414062 C-91.59427451 168.18937404 -97.79702508 168.1059783 -104 168 C-104.12407193 159.5991049 -104.00029746 151.39331905 -102.875 143.0625 C-102.74375732 142.09014404 -102.61251465 141.11778809 -102.47729492 140.1159668 C-96.56374703 99.48522331 -77.70799202 64.80859791 -50 35 C-49.38898437 34.33484375 -48.77796875 33.6696875 -48.1484375 32.984375 C-42.04198016 26.59208348 -35.04163867 21.30834432 -28 16 C-27.154375 15.35933594 -26.30875 14.71867188 -25.4375 14.05859375 C-20.33929072 10.34689071 -14.97802064 7.17250019 -9.5 4.0625 C-8.79246582 3.66015137 -8.08493164 3.25780273 -7.35595703 2.84326172 C-2.25047488 0 -2.25047488 0 0 0 Z " fill="#52D26E" transform="translate(112,148)"/>
<path d="M0 0 C4.76741974 4.44653572 8.58291839 9.49075685 12.5 14.6875 C13.20560059 15.61868652 13.91120117 16.54987305 14.63818359 17.50927734 C19.57451167 24.04765916 24.42619079 30.64286318 29.18530273 37.3112793 C31.99631409 41.24757021 34.84964313 45.14163282 37.77734375 48.9921875 C38.40882324 49.82862793 39.04030273 50.66506836 39.69091797 51.52685547 C40.89563054 53.11878585 42.10886515 54.70432119 43.33251953 56.28173828 C49.26289183 64.15251869 53.12215733 72.66878104 53.12597656 82.59521484 C53.1278447 83.26061783 53.12971283 83.92602081 53.13163757 84.61158752 C53.13563795 86.05534859 53.13771608 87.49911598 53.13809967 88.94288254 C53.14151944 92.01425571 53.16288602 95.08541799 53.18333054 98.1567173 C53.2213334 103.87371249 53.2526144 109.5904812 53.25048828 115.30761719 C53.24970085 119.28602714 53.27307544 123.26366307 53.3123703 127.24187088 C53.32282606 128.75605412 53.32435736 130.27032675 53.31671906 131.78452682 C53.30708522 133.90586708 53.32829474 136.02486711 53.35644531 138.14599609 C53.36191376 139.95443497 53.36191376 139.95443497 53.36749268 141.79940796 C54.17760527 145.89871213 55.90258749 147.29460411 59 150 C61.92093712 154.53248863 62.89690353 158.67837239 62 164 C60.22081173 169.26104059 57.79791863 173.02985989 53 176 C47.91366295 178.42756995 43.37794194 178.33241649 38 177 C32.71705287 174.20900906 28.9139086 170.7417258 27 165 C26.46137713 158.98192528 26.55395959 154.16906061 30 149 C31.0276371 148.13104599 31.0276371 148.13104599 32.07603455 147.24453735 C34.66035219 144.22961966 34.51256663 142.40020827 34.53344727 138.46240234 C34.54637062 137.49075638 34.54637062 137.49075638 34.55955505 136.4994812 C34.5822251 134.36122449 34.57547045 132.22427872 34.56640625 130.0859375 C34.57164501 128.59103 34.57792242 127.09612582 34.58518982 125.60122681 C34.59559856 122.46560134 34.59103162 119.33042941 34.57641602 116.19482422 C34.55931008 112.20013308 34.58261679 108.20689144 34.61790562 104.21236229 C34.64001288 101.12194502 34.63840493 98.03186665 34.6301403 94.94139481 C34.62932642 93.47036789 34.63608095 91.99931465 34.65091133 90.52836227 C34.72695978 81.61278869 34.02153489 74.59777417 29 67 C28.39607422 66.08347656 27.79214844 65.16695313 27.16992188 64.22265625 C26.60853516 63.50980469 26.04714844 62.79695313 25.46875 62.0625 C24.83001953 61.24007812 24.19128906 60.41765625 23.53320312 59.5703125 C22.52676758 58.29800781 22.52676758 58.29800781 21.5 57 C20.06061307 55.14729777 18.62314024 53.29310701 17.1875 51.4375 C16.47722656 50.52097656 15.76695312 49.60445312 15.03515625 48.66015625 C12.10654534 44.83216387 9.29626051 40.92518831 6.5 37 C0.84758561 29.07979131 -5.02769677 21.34131829 -10.97265625 13.63867188 C-11.6275 12.78724609 -12.28234375 11.93582031 -12.95703125 11.05859375 C-13.54460205 10.29861084 -14.13217285 9.53862793 -14.73754883 8.75561523 C-16 7 -16 7 -16 6 C-15.34773438 5.98582031 -14.69546875 5.97164062 -14.0234375 5.95703125 C-7.60918559 5.60699095 -4.49880814 4.61719783 0 0 Z " fill="#E3A129" transform="translate(425,130)"/>
<path d="M0 0 C12.88854998 6.65432307 20.47407724 16.98082547 24.99609375 30.546875 C25.39224029 35.79581667 24.86166692 39.10029594 21.99609375 43.546875 C18.3446853 47.03869392 15.98259229 48.13433598 10.93359375 48.171875 C1.10648668 47.84949253 -7.15391708 43.21250918 -14.1953125 36.5078125 C-21.25947128 28.84861659 -26.99196186 19.65711604 -27.0078125 8.89453125 C-26.35104161 4.82526006 -25.1714982 2.28620424 -22.06640625 -0.453125 C-14.23830677 -5.56535323 -8.02663267 -3.5673923 0 0 Z " fill="#26427F" transform="translate(402.00390625,88.453125)"/>
<path d="M0 0 C3.652579 2.64832224 5.36785711 6.09575883 6.76171875 10.27734375 C7.30129245 16.64431339 6.38922226 20.9601562 2.76171875 26.27734375 C-1.03398857 30.07305107 -4.953327 32.22417003 -10.41015625 32.3125 C-17.01945994 31.85783314 -21.0639561 29.68673108 -25.55078125 24.71484375 C-28.89603449 19.8828113 -28.73442094 14.95637129 -28.23828125 9.27734375 C-26.68385927 5.08040439 -24.78253698 2.03398709 -21.23828125 -0.72265625 C-13.65789189 -3.63819062 -7.09053476 -3.91442096 0 0 Z " fill="#F4C636" transform="translate(480.23828125,275.72265625)"/>
<path d="M0 0 C0 3 0 3 -2.29492188 5.63549805 C-3.3451977 6.6852984 -4.40374234 7.72686669 -5.46875 8.76171875 C-6.02365112 9.31237503 -6.57855225 9.86303131 -7.15026855 10.43037415 C-8.92660687 12.18990125 -10.7130848 13.93872165 -12.5 15.6875 C-13.70510885 16.87756521 -14.90954483 18.06831223 -16.11328125 19.25976562 C-19.06776708 22.18114979 -22.03138969 25.09297256 -25 28 C-25 23.64369073 -22.30076044 21.73097508 -19.4375 18.75 C-18.88755371 18.16734375 -18.33760742 17.5846875 -17.77099609 16.984375 C-16.18918407 15.31450334 -14.59698384 13.65535237 -13 12 C-12.29230469 11.26265625 -11.58460937 10.5253125 -10.85546875 9.765625 C-7.41963058 6.25998425 -3.82362458 3.07755149 0 0 Z " fill="#4ABF7B" transform="translate(76,170)"/>
</svg>
