<?xml version="1.0" encoding="UTF-8"?>
<svg version="1.1" xmlns="http://www.w3.org/2000/svg" width="1600" height="800">
<path d="M0 0 C528 0 1056 0 1600 0 C1600 264 1600 528 1600 800 C1072 800 544 800 0 800 C0 536 0 272 0 0 Z " fill="#CC0001" transform="translate(0,0)"/>
<path d="M0 0 C237.6 0 475.2 0 720 0 C720 105.6 720 211.2 720 320 C482.4 320 244.8 320 0 320 C0 214.4 0 108.8 0 0 Z " fill="#FEFDFD" transform="translate(880,480)"/>
<path d="M0 0 C237.6 0 475.2 0 720 0 C720 105.6 720 211.2 720 320 C482.4 320 244.8 320 0 320 C0 214.4 0 108.8 0 0 Z " fill="#FEFDFD" transform="translate(0,480)"/>
<path d="M0 0 C237.6 0 475.2 0 720 0 C720 105.6 720 211.2 720 320 C482.4 320 244.8 320 0 320 C0 214.4 0 108.8 0 0 Z " fill="#FEFDFD" transform="translate(880,0)"/>
<path d="M0 0 C237.6 0 475.2 0 720 0 C720 105.6 720 211.2 720 320 C482.4 320 244.8 320 0 320 C0 214.4 0 108.8 0 0 Z " fill="#FEFEFE" transform="translate(0,0)"/>
<path d="M0 0 C159.72 0 319.44 0 484 0 C484 80.52 484 161.04 484 244 C480.20503535 242.73501178 477.06515685 241.65752952 473.58129883 239.91210938 C472.76216507 239.50408081 471.94303131 239.09605225 471.09907532 238.67565918 C470.22720078 238.23612915 469.35532623 237.79659912 468.45703125 237.34375 C467.07241951 236.65110046 467.07241951 236.65110046 465.65983582 235.94445801 C463.70301926 234.96454139 461.74717348 233.98268412 459.79223633 232.99902344 C456.86957666 231.5287137 453.94388708 230.06459316 451.01757812 228.6015625 C449.10137582 227.64099731 447.18535501 226.68006997 445.26953125 225.71875 C444.42397171 225.29541382 443.57841217 224.87207764 442.70722961 224.43591309 C436.75445016 221.43744608 430.85529287 218.34463169 424.96362305 215.22851562 C416.28663546 210.6451207 407.54227639 206.21052906 398.75619507 201.84051514 C396.21966153 200.57882134 393.68452048 199.31436429 391.1496582 198.04931641 C385.76758705 195.36390449 380.38392791 192.68168698 375 190 C368.74475237 186.88431636 362.49022503 183.76720303 356.23739624 180.64666748 C353.77995681 179.42110945 351.32129681 178.19802771 348.86254883 176.97509766 C340.15864136 172.63709603 331.52186178 168.1907534 322.92685223 163.64084053 C316.0411037 160.0029315 309.09299803 156.50368854 302.11426163 153.0483017 C298.20755619 151.11126331 294.30795408 149.15997767 290.40698242 147.21142578 C288.69055624 146.35476795 286.97409949 145.49817134 285.25761414 144.64163208 C278.58736229 141.31265551 271.91812738 137.98164322 265.24900341 134.65040779 C260.21723291 132.13712994 255.18508871 129.62460629 250.15209961 127.11376953 C245.22438569 124.65540989 240.29769832 122.19500366 235.37166786 119.73327255 C233.52049398 118.80859494 231.66897413 117.88460952 229.8170681 116.96139908 C219.82417389 111.97917606 209.88594451 106.91435707 200.01845837 101.68797493 C192.3226014 97.62107095 184.5494715 93.71672857 176.75619507 89.84051514 C174.21966153 88.57882134 171.68452048 87.31436429 169.1496582 86.04931641 C163.76758705 83.36390449 158.38392791 80.68168698 153 78 C146.74475237 74.88431636 140.49022503 71.76720303 134.23739624 68.64666748 C131.77995681 67.42110945 129.32129681 66.19802771 126.86254883 64.97509766 C119.10532207 61.10896663 111.39166027 57.17613504 103.7331543 53.11767578 C93.10197366 47.48661216 82.34766112 42.11051912 71.58203125 36.7421875 C69.50159522 35.70290507 67.42124924 34.66344237 65.34098816 33.62380981 C59.93506439 30.92273306 54.52794285 28.22406306 49.12054443 25.52593994 C43.5750619 22.75836569 38.03074844 19.98845145 32.48632812 17.21875 C21.65867733 11.81024466 10.82975622 6.40428815 0 1 C0 0.67 0 0.34 0 0 Z " fill="#000065" transform="translate(182,0)"/>
<path d="M0 0 C0 80.52 0 161.04 0 244 C-159.72 244 -319.44 244 -484 244 C-480.42516731 241.31887548 -476.93531126 239.35358565 -472.9543457 237.41357422 C-471.50731887 236.69931226 -470.06035072 235.98493143 -468.61343384 235.27044678 C-467.85642307 234.89833824 -467.09941231 234.52622971 -466.31946182 234.14284515 C-462.4631223 232.24274967 -458.61942769 230.31741331 -454.77416992 228.39501953 C-453.13866813 227.5787426 -451.50310253 226.76259352 -449.86747742 225.94656372 C-443.51546946 222.77671816 -437.16448564 219.60482236 -430.81360912 216.43271065 C-426.02397536 214.04050073 -421.23396792 211.64904532 -416.44311523 209.25927734 C-411.7488183 206.91763064 -407.05555128 204.57393098 -402.36293983 202.22890854 C-400.60108108 201.34888756 -398.83887678 200.46955794 -397.07628441 199.59100723 C-387.32541623 194.73017183 -377.63303102 189.77910404 -368.0041151 184.6808033 C-360.55667817 180.74595018 -353.03884052 176.96092206 -345.49697876 173.21090698 C-343.09485954 172.01643378 -340.6941428 170.81917858 -338.29370117 169.62133789 C-332.33988321 166.65099111 -326.38384906 163.68509934 -320.42785645 160.71911621 C-315.360499 158.19543584 -310.29404009 155.66996689 -305.22866821 153.14230347 C-302.90418551 151.98321827 -300.57848122 150.82661373 -298.25268555 149.67016602 C-290.76648061 145.93977506 -283.32697514 142.13746552 -275.9375 138.21875 C-265.56668208 132.7249652 -255.07527358 127.48017467 -244.57070923 122.24777222 C-241.09326342 120.51555809 -237.6171624 118.78067004 -234.14135742 117.04516602 C-226.13906908 113.04996378 -218.1347495 109.05883806 -210.13038635 105.0677948 C-202.18540557 101.10630153 -194.24127046 97.14312371 -186.29849243 93.17721558 C-182.91035971 91.48633776 -179.52101179 89.79791471 -176.1315918 88.10961914 C-165.97658746 83.04400939 -155.86494407 77.91696241 -145.83946609 72.59937477 C-138.04313895 68.47216019 -130.16126728 64.52306709 -122.26354218 60.59418869 C-119.64410079 59.29102642 -117.02604142 57.98512106 -114.40826416 56.67861938 C-108.8566567 53.9084421 -103.3034572 51.14146678 -97.75 48.375 C-91.2863826 45.1551018 -84.82347319 41.93379781 -78.36225128 38.709095 C-75.81376783 37.4380348 -73.26407085 36.16943442 -70.71429443 34.90097046 C-62.18989357 30.65203898 -53.72908091 26.31319446 -45.34893799 21.78579712 C-40.48747146 19.19345503 -35.56149118 16.73515032 -30.62109375 14.296875 C-26.97876651 12.49255498 -23.34965085 10.66306614 -19.72265625 8.828125 C-18.63331787 8.27866211 -17.54397949 7.72919922 -16.42163086 7.16308594 C-14.24518043 6.06510917 -12.0701796 4.96425366 -9.89672852 3.86035156 C-8.90213623 3.35987305 -7.90754395 2.85939453 -6.8828125 2.34375 C-5.98965332 1.89193359 -5.09649414 1.44011719 -4.17626953 0.97460938 C-2 0 -2 0 0 0 Z " fill="#000065" transform="translate(666,556)"/>
<path d="M0 0 C159.39 0 318.78 0 483 0 C480.10014247 2.17489315 477.78890044 3.7290436 474.62266541 5.30555725 C473.75272446 5.74117981 472.88278351 6.17680237 471.98648071 6.62562561 C471.03953339 7.09471848 470.09258606 7.56381134 469.11694336 8.04711914 C467.61102882 8.79909073 467.61102882 8.79909073 466.07469177 9.56625366 C462.74823016 11.22623473 459.41901374 12.88061463 456.08984375 14.53515625 C453.76432743 15.69477628 451.43901825 16.8548118 449.11390686 18.01524353 C443.60266915 20.76517109 438.08958004 23.51136319 432.5756641 26.25591606 C422.17412822 31.43329759 411.77528068 36.6160623 401.37820625 41.80239677 C397.99025117 43.49133334 394.6009112 45.17746442 391.21141052 46.86329651 C380.9859497 51.95630601 370.80411198 57.11071727 360.7120142 62.4634552 C353.46629303 66.30123715 346.14799838 69.98446016 338.80624008 73.63446236 C336.46347778 74.79925459 334.12212005 75.96683239 331.78103638 77.13499451 C326.81350923 79.61314381 321.8443888 82.08808642 316.875 84.5625 C311.09380295 87.4411568 305.31332957 90.32124923 299.53454971 93.20475578 C297.2642622 94.33673672 294.99275614 95.46624261 292.72116089 96.59559631 C285.57472096 100.15639867 278.4724299 103.78310104 271.42626953 107.53881836 C264.07238561 111.45845898 256.65025958 115.21909323 249.18298721 118.91733551 C245.13094759 120.9269668 241.08606656 122.95095601 237.03979492 124.97216797 C235.24247623 125.8692706 233.44512752 126.76631309 231.64775085 127.66329956 C224.65925478 131.15140645 217.67176912 134.64153592 210.6843977 138.13189507 C205.41049047 140.7662409 200.13620952 143.39983279 194.86108398 146.03173828 C189.6999529 148.60681054 184.53984534 151.1839236 179.38039589 153.76236343 C177.43990691 154.73169775 175.49907158 155.70033911 173.55785179 156.66820908 C163.30328567 161.78158083 153.09939083 166.96999154 142.97375011 172.3343792 C135.29315778 176.39451985 127.53455555 180.29069031 119.75619507 184.15948486 C117.21966153 185.42117866 114.68452048 186.68563571 112.1496582 187.95068359 C105.86193442 191.08797552 99.57199739 194.22081962 93.28210449 197.35375977 C87.93291065 200.01836742 82.58460983 202.68475312 77.23739624 205.35333252 C74.77995681 206.57889055 72.32129681 207.80197229 69.86254883 209.02490234 C61.05488085 213.41456709 52.30527856 217.89970083 43.61186218 222.51195526 C36.20003735 226.44320324 28.71329467 230.21944157 21.20507812 233.96264648 C18.94247478 235.09119255 16.68212071 236.22416247 14.421875 237.35742188 C12.96887863 238.08359077 11.51575869 238.80951248 10.0625 239.53515625 C9.39387939 239.87047867 8.72525879 240.20580109 8.03637695 240.55128479 C5.37922443 241.87309716 2.82011815 243.05996062 0 244 C0 163.48 0 82.96 0 0 Z " fill="#000065" transform="translate(933,0)"/>
<path d="M0 0 C4.35404288 1.74161715 8.51105234 3.68308761 12.6953125 5.78125 C13.81569412 6.34072327 13.81569412 6.34072327 14.95870972 6.91149902 C16.54441706 7.7040129 18.12962117 8.49753436 19.71435547 9.29199219 C22.06722431 10.47104779 24.422137 11.64593544 26.77734375 12.8203125 C34.49550673 16.67827129 42.17158269 20.60167333 49.79248047 24.6484375 C59.15948722 29.59788388 68.61159158 34.36523088 78.09576416 39.08546448 C80.96833577 40.51520522 83.83953566 41.94767033 86.71044922 43.3807373 C92.80582251 46.42278751 98.90278023 49.46165276 105 52.5 C112.08129919 56.02873058 119.16189007 59.55886828 126.24078369 63.09242249 C129.03061422 64.48416447 131.8216631 65.87343941 134.61279297 67.26257324 C143.7995276 71.84291152 152.92762418 76.51394753 161.9985199 81.31961823 C169.68834966 85.38474244 177.45604745 89.28601644 185.24380493 93.15948486 C187.78033847 94.42117866 190.31547952 95.68563571 192.8503418 96.95068359 C198.23241295 99.63609551 203.61607209 102.31831302 209 105 C215.25524763 108.11568364 221.50977497 111.23279697 227.76260376 114.35333252 C230.22004319 115.57889055 232.67870319 116.80197229 235.13745117 118.02490234 C243.84200198 122.36322461 252.47934399 126.81003006 261.07507038 131.36012077 C267.94823808 134.99126027 274.88342089 138.48417223 281.84923935 141.93344879 C285.8906166 143.9375471 289.92467939 145.95632066 293.96020508 147.97216797 C295.75752366 148.86927083 297.55487236 149.76631333 299.35224915 150.66329956 C306.34074522 154.15140645 313.32823088 157.64153592 320.3156023 161.13189507 C325.58950953 163.7662409 330.86379048 166.39983279 336.13891602 169.03173828 C341.3000471 171.60681054 346.46015466 174.1839236 351.61960411 176.76236343 C353.56009309 177.73169775 355.50092842 178.70033911 357.44214821 179.66820908 C367.66522787 184.76588031 377.8370844 189.93894726 387.93102074 195.28797054 C396.03635558 199.5715212 404.2326439 203.66623993 412.44306755 207.74383354 C415.17305503 209.09992814 417.90147557 210.45913199 420.62953186 211.81910706 C428.36863884 215.67659466 436.11015889 219.52922169 443.85327148 223.37866211 C448.62955179 225.75342364 453.40388324 228.13206496 458.17703438 230.51310921 C459.98438 231.41368491 461.79248251 232.31274333 463.60136223 233.21023369 C466.11489509 234.45740417 468.625934 235.70946612 471.13647461 236.96264648 C471.87770569 237.32888123 472.61893677 237.69511597 473.38262939 238.07244873 C474.06745895 238.41551559 474.75228851 238.75858246 475.45787048 239.11204529 C476.04895064 239.40601417 476.6400308 239.69998304 477.24902248 240.00286007 C479.27767847 241.15813127 481.13236463 242.59927347 483 244 C323.61 244 164.22 244 0 244 C0 163.48 0 82.96 0 0 Z " fill="#000066" transform="translate(933,556)"/>
<path d="M0 0 C1.27069163 0.00138269 1.27069163 0.00138269 2.56705379 0.00279331 C3.53605618 0.00141865 4.50505856 0.00004398 5.50342464 -0.00137234 C6.5751643 0.00222294 7.64690395 0.00581821 8.75112057 0.00952244 C10.43383053 0.0093034 10.43383053 0.0093034 12.15053463 0.00907993 C15.87866266 0.00977963 19.60674144 0.01757468 23.3348608 0.02539158 C25.91175973 0.02725556 28.48865902 0.02867955 31.06555843 0.0296793 C37.16770571 0.03311441 43.26983249 0.04100523 49.37197202 0.05102879 C56.31744705 0.06219094 63.26292291 0.06770063 70.20840466 0.07272422 C84.49926422 0.08318787 98.79010875 0.10078668 113.08095455 0.12304783 C110.15148833 3.25180424 106.83294619 4.92907456 103.01845455 6.78320408 C102.31309566 7.13257526 101.60773678 7.48194645 100.88100338 7.84190464 C98.61709598 8.96218246 96.34932032 10.07432901 94.08095455 11.18554783 C91.14177604 12.63138155 88.20447204 14.0809626 85.26845455 15.53320408 C84.14443233 16.08870441 84.14443233 16.08870441 82.9977026 16.65542698 C77.56436539 19.35353279 72.1895305 22.15085476 66.83095455 24.99414158 C55.41605329 31.04750054 43.84209217 36.77443176 32.26943111 42.51855564 C21.73291641 47.75197245 11.24309485 53.04976477 0.84853268 58.56030369 C-6.02657115 62.1990817 -12.96877578 65.69084542 -19.93937016 69.14236546 C-29.91787366 74.08547028 -39.85653 79.08179187 -49.6807642 84.32617283 C-57.02638982 88.22570248 -64.47349991 91.91943815 -71.91904545 95.62304783 C-79.96344244 99.6245875 -87.99599158 103.63443867 -95.91904545 107.87304783 C-107.05544351 113.82490303 -118.3933412 119.3864884 -129.7042017 124.99707127 C-137.63774822 128.93901115 -145.52905792 132.94276857 -153.35654545 137.09179783 C-163.95666529 142.70969751 -174.69251049 148.04324746 -185.43955326 153.37304783 C-195.32787296 158.28078308 -205.1590191 163.27157519 -214.91318607 168.44116306 C-222.43146018 172.41633351 -230.03034431 176.22001036 -237.64945316 179.99740696 C-248.455722 185.35695013 -259.24136036 190.73783502 -269.87949467 196.42553806 C-277.85019034 200.66444132 -285.94686082 204.65270276 -294.02915287 208.67297459 C-302.17139732 212.72488625 -310.27280972 216.83528031 -318.29038334 221.12988377 C-325.42455716 224.94657197 -332.67025296 228.53028597 -339.91904545 232.12304783 C-355.48563838 239.81356265 -355.48563838 239.81356265 -370.90381527 247.7949791 C-372.40852655 248.59168711 -373.91624699 249.38276259 -375.42815685 250.1657238 C-379.86556928 252.46818225 -384.2078677 254.87183092 -388.51130009 257.41655064 C-405.41654073 267.06423588 -419.14420063 268.90756967 -438.36435795 268.39257908 C-441.08484048 268.36086614 -443.8053181 268.34914278 -446.52594852 268.33683872 C-452.87661433 268.2969872 -459.22424863 268.19110899 -465.5735997 268.05929536 C-472.8215149 267.9122076 -480.06960234 267.84207528 -487.31864667 267.7772547 C-502.18711377 267.64263678 -517.05277158 267.41511989 -531.91904545 267.12304783 C-529.14402416 264.93438719 -526.38588638 263.23348304 -523.22454166 261.65890598 C-521.81432491 260.95281948 -521.81432491 260.95281948 -520.37561893 260.23246861 C-519.35072361 259.72440174 -518.32582829 259.21633488 -517.26987553 258.69287205 C-516.18469135 258.15093708 -515.09950718 257.60900211 -513.98143864 257.05064487 C-511.6229709 255.87354282 -509.26383094 254.6979237 -506.90339947 253.52477741 C-503.15361858 251.66107397 -499.40672016 249.79162597 -495.66018009 247.92141819 C-489.71448552 244.95426205 -483.76693768 241.99084272 -477.81856507 239.02905953 C-467.21877299 233.75124666 -456.62109039 228.46920607 -446.02562541 223.18271172 C-442.31937115 221.33373059 -438.611979 219.48705744 -434.90368611 217.6421687 C-423.29475128 211.86507659 -411.71877726 206.05082497 -400.29589176 199.91273594 C-395.45098467 197.3449932 -390.5130661 195.00100057 -385.54404545 192.68554783 C-377.57872839 188.92786087 -369.7536177 184.9847813 -361.99082279 180.82690525 C-356.12907385 177.70801942 -350.1781866 174.8212685 -344.16904545 171.99804783 C-336.92470957 168.59425739 -329.82902691 165.02215586 -322.79810524 161.1990757 C-319.33187548 159.33151823 -315.82940233 157.55025471 -312.30355167 155.79722691 C-310.87882325 155.0875289 -309.45413863 154.37774295 -308.02948666 153.6678915 C-307.22676413 153.26834908 -306.42404161 152.86880666 -305.59699416 152.4571569 C-300.87788265 150.10617481 -296.16260219 147.74752489 -291.44674315 145.3900273 C-288.26500287 143.79956297 -285.08300663 142.2096109 -281.90104008 140.61959934 C-280.53822301 139.93858547 -279.17540718 139.25756914 -277.81259251 138.57655048 C-277.119977 138.23044086 -276.42736149 137.88433124 -275.71375763 137.52773345 C-255.6968375 127.52494789 -235.68022939 117.5215382 -215.66426945 107.5168314 C-214.82011337 107.09489142 -213.97595729 106.67295144 -213.10622073 106.23822541 C-204.39609191 101.88457266 -195.6860016 97.53084286 -186.97595114 93.17703334 C-182.51501435 90.9471901 -178.05406876 88.71736449 -173.59311771 86.48754978 C-172.70524362 86.04374389 -171.81736952 85.599938 -170.90259015 85.14268344 C-156.46508354 77.92611482 -142.02687183 70.71095799 -127.5884077 63.49630535 C-112.74896568 56.08125164 -97.91027747 48.66469112 -83.07229513 41.24671692 C-73.92506769 36.67379006 -64.77724831 32.10205155 -55.62867378 27.53182023 C-49.37490107 24.4075664 -43.12185764 21.28185635 -36.8693983 18.15497494 C-33.25862075 16.34926448 -29.6475141 14.54422007 -26.03554249 12.74089909 C-22.73473507 11.09291311 -19.43484068 9.4431143 -16.13568788 7.79181849 C-14.36628529 6.90680308 -12.59588917 6.02377491 -10.82546765 5.14079958 C-9.78832511 4.62123279 -8.75118257 4.10166599 -7.68261147 3.56635475 C-6.78033556 3.11540666 -5.87805965 2.66445856 -4.94844204 2.19984537 C-0.91278673 0.05852724 -0.91278673 0.05852724 0 0 Z " fill="#CB0102" transform="translate(532.9190454483032,532.8769521713257)"/>
<path d="M0 0 C11.08055121 5.24868215 22.11026571 10.49347168 33.04833984 16.01611328 C35.6103611 17.30770018 38.1766452 18.59067087 40.7434082 19.87280273 C42.71862854 20.85945126 44.69356048 21.84667274 46.66838074 22.8341217 C47.38133395 23.19060822 48.09428717 23.54709475 48.82884502 23.91438389 C49.54532617 24.27263721 50.26180731 24.63089052 51 25 C52.25130096 25.62565329 53.502603 26.25130441 54.75390625 26.87695312 C119.83984375 59.41992188 119.83984375 59.41992188 121.71280766 60.35640812 C122.93703797 60.96852044 124.1612728 61.58062371 125.38551235 62.19271755 C128.69193708 63.84587566 131.99825827 65.49924048 135.30445862 67.15284729 C136.02214165 67.51176811 136.73982468 67.87068893 137.47925568 68.24048615 C138.85458001 68.92830389 140.22987682 69.61617667 141.60514069 70.3041153 C145.1807235 72.09222962 148.75854588 73.87570404 152.33984375 75.65234375 C160.05264298 79.48308562 167.7281029 83.35780625 175.3125 87.4375 C182.85327194 91.48486814 190.53968966 95.19524177 198.28051758 98.84350586 C205.82959333 102.40656134 213.29616806 106.12510135 220.75460815 109.87277222 C224.75044916 111.8787575 228.75053549 113.87625187 232.75 115.875 C234.44793506 116.72392155 236.14585157 117.5728802 237.84375 118.421875 C238.69324219 118.84662109 239.54273438 119.27136719 240.41796875 119.70898438 C242.99739583 120.99869792 245.57682292 122.28841146 248.15625 123.578125 C249.0005809 124.00026779 249.8449118 124.42241058 250.71482849 124.85734558 C252.39464022 125.69729694 254.0743795 126.5373932 255.75404358 127.37763977 C259.67735322 129.34005962 263.60166945 131.30038256 267.52905273 133.25463867 C274.08858999 136.52082556 280.62408202 139.8120009 287.0625 143.3125 C293.43693907 146.72804103 299.90082457 149.90752792 306.4375 153 C316.01849815 157.5394631 325.54436473 162.18429529 335.0383606 166.90258789 C336.59365053 167.67463668 338.15002633 168.44450196 339.70748901 169.2121582 C341.89913303 170.29307974 344.08674038 171.38176913 346.2734375 172.47265625 C346.93899155 172.7992775 347.60454559 173.12589874 348.29026794 173.4624176 C352.8856707 175.77134141 352.8856707 175.77134141 354 178 C237.18 178 120.36 178 0 178 C0 119.26 0 60.52 0 0 Z " fill="#020266" transform="translate(0,89)"/>
<path d="M0 0 C116.82 0 233.64 0 354 0 C351.06957885 2.93042115 348.91614338 4.22252037 345.25 6.0390625 C344.09363037 6.61495117 342.93726074 7.19083984 341.74584961 7.78417969 C340.49732793 8.39797944 339.24870929 9.011582 338 9.625 C336.72060312 10.25907425 335.44138875 10.89351688 334.16235352 11.52832031 C326.37856038 15.38218532 318.54819198 19.1298984 310.6784668 22.80493164 C304.31585282 25.79807999 298.10371103 29.04621628 291.89648438 32.34741211 C285.12819582 35.94672112 278.29360979 39.39190686 271.42529297 42.79541016 C267.42215646 44.78368029 263.42558627 46.78506743 259.42822266 48.78491211 C256.02428025 50.48785296 252.61957014 52.18925227 249.21484375 53.890625 C245.62094526 55.68730399 242.02876874 57.48718241 238.44140625 59.296875 C231.5687011 62.759768 224.65759106 66.1120891 217.6875 69.375 C210.31280894 72.83254142 203.08983126 76.52158231 195.89941406 80.34594727 C189.13005066 83.94556252 182.29459147 87.3914204 175.42529297 90.79541016 C171.42215646 92.78368029 167.42558627 94.78506743 163.42822266 96.78491211 C160.02428025 98.48785296 156.61957014 100.18925227 153.21484375 101.890625 C149.62094526 103.68730399 146.02876874 105.48718241 142.44140625 107.296875 C135.5687011 110.759768 128.65759106 114.1120891 121.6875 117.375 C114.31280894 120.83254142 107.08983126 124.52158231 99.89941406 128.34594727 C93.13005066 131.94556252 86.29459147 135.3914204 79.42529297 138.79541016 C75.42215646 140.78368029 71.42558627 142.78506743 67.42822266 144.78491211 C64.02428025 146.48785296 60.61957014 148.18925227 57.21484375 149.890625 C53.62094526 151.68730399 50.02876874 153.48718241 46.44140625 155.296875 C38.79606775 159.14952597 31.10480365 162.88531431 23.34594727 166.50488281 C15.48269536 170.19059036 7.77866283 174.11066858 0 178 C0 119.26 0 60.52 0 0 Z " fill="#000066" transform="translate(0,533)"/>
<path d="M0 0 C117.15 0 234.3 0 355 0 C355 58.74 355 117.48 355 178 C332.81756525 167.49253091 332.81756525 167.49253091 325.75 163.9375 C324.91831299 163.52105225 324.08662598 163.10460449 323.22973633 162.67553711 C318.33849738 160.2146281 313.49830575 157.67645606 308.6875 155.0625 C301.46235203 151.13809962 294.04146605 147.65074563 286.61010742 144.13696289 C280.82841594 141.39048165 275.12965231 138.54527976 269.5 135.5 C262.97253204 131.97009742 256.33454118 128.73187537 249.625 125.5625 C241.70890688 121.82261349 233.92855507 117.90894077 226.21240234 113.77416992 C219.0046482 109.93988725 211.6459811 106.45215861 204.265625 102.96484375 C198.9344761 100.43541423 193.6761398 97.83262628 188.5 95 C182.77843208 91.87828609 176.95572983 89.03311853 171.0625 86.25 C159.84140116 80.94128086 148.72901388 75.42348243 137.625 69.875 C136.7802713 69.45383911 135.9355426 69.03267822 135.06521606 68.59875488 C125.60331631 63.87934741 116.19946211 59.07410977 106.87077332 54.09642029 C101.13475451 51.04582734 95.32039324 48.19460817 89.4375 45.4375 C87.46436647 44.50230842 85.49171167 43.56610613 83.51953125 42.62890625 C82.57803223 42.1817627 81.6365332 41.73461914 80.66650391 41.27392578 C72.35227615 37.30179243 64.13201806 33.15772277 56.01293945 28.80102539 C47.61377906 24.2946649 39.08941456 20.11666036 30.4765625 16.03393555 C22.25794142 12.13738924 14.11740885 8.10224237 6 4 C4.00045517 2.99909019 2.00060864 1.99878179 0 1 C0 0.67 0 0.34 0 0 Z " fill="#000065" transform="translate(1245,534)"/>
<path d="M0 0 C0 58.41 0 116.82 0 177 C-116.16 177 -232.32 177 -352 177 C-349.05584657 174.05584657 -346.87969007 172.75283547 -343.19880486 170.91343403 C-342.60808888 170.61619547 -342.0173729 170.31895692 -341.40875643 170.01271114 C-339.4201624 169.01392735 -337.42738842 168.02378773 -335.43453979 167.03352356 C-333.99697676 166.31373026 -332.55967691 165.59341111 -331.12261879 164.87261027 C-327.16626931 162.89010155 -323.20620284 160.91512031 -319.24550176 158.94132292 C-314.97748506 156.81275292 -310.71292488 154.67727873 -306.44793701 152.54264832 C-298.09043768 148.36107854 -289.72975812 144.18590585 -281.36801444 140.01283101 C-271.63953934 135.15734905 -261.91427985 130.29544304 -252.18917347 125.43321832 C-234.84419803 116.76157508 -217.49640166 108.09559039 -200.14697266 99.43286133 C-183.29349018 91.01775455 -166.44183432 82.59900516 -149.59228516 74.17602539 C-148.55416427 73.65707633 -147.51604338 73.13812727 -146.44646429 72.60345248 C-144.35529753 71.55809039 -142.26413088 70.51272808 -140.17296434 69.46736554 C-139.14152543 68.95175587 -138.11008652 68.4361462 -137.04739189 67.90491199 C-135.50425889 67.13350748 -135.50425889 67.13350748 -133.92995148 66.34651904 C-117.896269 58.33152609 -101.8610547 50.3195985 -85.82562824 42.30809537 C-80.00403918 39.39952178 -74.18265146 36.49054568 -68.36140166 33.58129314 C-59.13112472 28.96836663 -49.9001864 24.3567692 -40.66787444 19.74791674 C-36.44657926 17.64058245 -32.22560176 15.53261843 -28.00547409 13.42294693 C-24.14888883 11.49504563 -20.29139291 9.5689799 -16.43313147 7.64443537 C-15.03111465 6.94468874 -13.62943955 6.24425696 -12.22812591 5.5431032 C-10.33616422 4.59658061 -8.44301149 3.65248581 -6.54951286 2.70904255 C-5.4943774 2.18209807 -4.43924194 1.65515359 -3.35213268 1.11224109 C-1 0 -1 0 0 0 Z " fill="#000066" transform="translate(1600,89)"/>
<path d="M0 0 C7.14798774 0.27561399 14.29676504 0.40199916 21.44880009 0.52088165 C36.07639197 0.76711549 50.69566227 1.18489888 65.31532192 1.72864819 C62.33225085 4.01621778 59.41595485 5.8010763 56.04579067 7.47864819 C54.98940395 8.00587475 53.93301723 8.53310131 52.8446188 9.07630444 C51.19042934 9.89421459 51.19042934 9.89421459 49.50282192 10.72864819 C47.95884731 11.50015209 47.95884731 11.50015209 46.3836813 12.28724194 C40.13126351 15.39667332 33.84737047 18.43288729 27.54049587 21.43030834 C13.03101388 28.32961704 -1.3316859 35.51082684 -15.68467808 42.72864819 C-42.32734915 56.12669353 -42.32734915 56.12669353 -54.99717808 62.13489819 C-63.94793679 66.38093257 -72.82830684 70.75886137 -81.68467808 75.19739819 C-82.6606142 75.68644634 -82.6606142 75.68644634 -83.65626621 76.18537426 C-88.33384697 78.53026022 -93.00946848 80.87903901 -97.68467808 83.22864819 C-103.01670013 85.90835006 -108.34953427 88.58641598 -113.68467808 91.25989819 C-114.33289524 91.58476711 -114.9811124 91.90963604 -115.64897251 92.24434948 C-124.91979573 96.88680049 -134.23701811 101.42191973 -143.60411167 105.86732006 C-153.37071968 110.5092904 -163.02846218 115.36222192 -172.68467808 120.22864819 C-183.32531004 125.5911889 -193.98333033 130.89830138 -204.74717808 136.00989819 C-218.159081 142.38383231 -231.41887201 149.05755013 -244.68467808 155.72864819 C-258.7257075 162.78958995 -272.77482693 169.81431133 -286.97422886 176.55237865 C-299.30428132 182.4221062 -311.48512781 188.593748 -323.68467808 194.72864819 C-350.34316369 208.13464634 -350.34316369 208.13464634 -363.10655308 214.18958569 C-371.77271615 218.30131123 -380.37534925 222.53209583 -388.95030308 226.83021069 C-389.56194813 227.13675327 -390.17359318 227.44329586 -390.80377293 227.75912762 C-395.18219156 229.95441672 -399.55863648 232.15362547 -403.93467808 234.35364819 C-408.9385843 236.86926878 -413.94329116 239.38327624 -418.95030308 241.89271069 C-419.55103201 242.19382511 -420.15176094 242.49493954 -420.77069378 242.80517864 C-429.67703668 247.26549349 -438.62870795 251.61216225 -447.6541605 255.82581615 C-454.40024464 258.9844802 -461.03822075 262.36682719 -467.68467808 265.72864819 C-470.06024102 266.91642966 -471.48891967 266.85189396 -474.13917637 266.8489027 C-475.0758968 266.85027737 -476.01261723 266.85165203 -476.97772312 266.85306835 C-478.52383526 266.84767544 -478.52383526 266.84767544 -480.10118198 266.84217358 C-481.18412037 266.8423196 -482.26705875 266.84246563 -483.38281345 266.84261608 C-486.97564261 266.84191734 -490.56842044 266.8341267 -494.16124058 266.82630444 C-496.64702927 266.82444012 -499.13281833 266.82301628 -501.61860752 266.82201672 C-507.50114205 266.81858383 -513.38365751 266.81069592 -519.26618421 266.80066723 C-526.61922054 266.7884031 -533.97225914 266.78302445 -541.32530308 266.77747631 C-554.44510417 266.76674086 -567.56488995 266.74985704 -580.68467808 266.72864819 C-577.04984396 263.90590076 -573.20615883 261.87011254 -569.08702183 259.84974194 C-568.3386858 259.47817471 -567.59034977 259.10660748 -566.81933689 258.72378063 C-564.42216135 257.53406807 -562.02240175 256.34969758 -559.62217808 255.16614819 C-550.44361125 250.63185775 -541.28667069 246.07788011 -532.25108433 241.26380444 C-523.15911862 236.43299975 -513.95895699 231.82522864 -504.74717808 227.22864819 C-503.98174246 226.84665327 -503.21630684 226.46465836 -502.4276762 226.07108784 C-496.03962305 222.88410387 -489.64898097 219.70232336 -483.25828648 216.52064037 C-477.71175318 213.75897384 -472.1661553 210.99544274 -466.62217808 208.22864819 C-465.8590814 207.84784981 -465.09598473 207.46705143 -464.30976391 207.07471371 C-455.16175768 202.50649614 -446.04963146 197.88621139 -437.02395725 193.07950878 C-428.26640075 188.41992642 -419.37832562 184.02162904 -410.49717808 179.60364819 C-408.79200313 178.75358196 -407.08692487 177.90332177 -405.3819437 177.05286694 C-391.61069527 170.18556591 -391.61069527 170.18556591 -386.83458042 167.82337475 C-378.51337621 163.69828164 -370.26587405 159.44038975 -362.02842808 155.15052319 C-352.40204277 150.14116048 -342.73940918 145.21263545 -333.02842808 140.36927319 C-332.41866123 140.06510983 -331.80889439 139.76094646 -331.18064976 139.44756603 C-326.8501143 137.28833317 -322.51760743 135.13307223 -318.18467808 132.97864819 C-313.21461798 130.50731464 -308.2453939 128.03432081 -303.27842808 125.55677319 C-302.67705021 125.2568446 -302.07567234 124.95691601 -301.4560709 124.64789867 C-294.33278574 121.09210246 -287.2441351 117.48440402 -280.21592808 113.74427319 C-272.47555987 109.62526863 -264.65557525 105.6731176 -256.80967808 101.75989819 C-255.89095669 101.30161758 -255.89095669 101.30161758 -254.95367527 100.83407879 C-249.89368296 98.3110825 -244.83108388 95.79333266 -239.76841831 93.27570629 C-235.36431834 91.08531405 -230.96119123 88.89298434 -226.55967808 86.69739819 C-225.94468449 86.39066174 -225.3296909 86.08392529 -224.69606113 85.76789379 C-217.58703669 82.21907517 -210.50889949 78.62280836 -203.49717808 74.88489819 C-194.94638027 70.3303248 -186.2905038 65.99118738 -177.62217808 61.66614819 C-176.8997794 61.30566891 -176.17738071 60.94518963 -175.43309116 60.57378674 C-169.42515447 57.57685257 -163.41462278 54.58513568 -157.40403843 51.59351635 C-152.9003524 49.35169333 -148.39757805 47.1080566 -143.89589024 44.86222363 C-141.83732164 43.83608234 -139.77752915 42.81243204 -137.71763706 41.78895092 C-133.69718379 39.78737611 -129.68735376 37.76553258 -125.68467808 35.72864819 C-124.95659946 35.35834988 -124.22852085 34.98805157 -123.47837925 34.6065321 C-115.20995938 30.38033145 -107.09217779 26.03264283 -99.19569492 21.14114666 C-66.49190451 1.04340411 -37.17082961 -1.4600201 0 0 Z " fill="#CB0102" transform="translate(1533.6846780776978,-1.7286481857299805)"/>
<path d="M0 0 C15.33613401 -0.57039716 30.67144328 -0.98843542 46.01579285 -1.24349213 C53.14769291 -1.36528825 60.27280659 -1.53058523 67.40039062 -1.81054688 C103.83699704 -3.21243175 132.33093424 -0.21760207 164.31916809 19.41236115 C172.7828173 24.60038367 181.63156502 28.74677708 190.63646126 32.89809608 C194.02467403 34.47771264 197.36900078 36.13800851 200.70678711 37.82104492 C201.64711367 38.29428586 201.64711367 38.29428586 202.60643673 38.77708721 C203.96685962 39.4624 205.32700008 40.14827363 206.68690109 40.83462143 C211.42500521 43.22175887 216.17163637 45.59191955 220.91625977 47.96606445 C223.1454998 49.08224572 225.37471144 50.19848369 227.60389709 51.31477356 C236.30645708 55.67216932 245.01000127 60.02759804 253.71368504 64.3827486 C260.28891939 67.67293633 266.8637736 70.96387952 273.43774414 74.2565918 C279.23003336 77.15777902 285.02306638 80.05747515 290.8169331 82.9555108 C293.86011738 84.47774297 296.90285563 86.00084908 299.94491768 87.52532387 C311.37989531 93.25524918 322.8248899 98.95109718 334.37866211 104.43823242 C347.21380988 110.53580858 359.91366426 116.90044251 372.61384201 123.27268982 C375.95465039 124.948205 379.29684137 126.62095775 382.63891602 128.29394531 C391.80746209 132.88415693 400.97396502 137.47844258 410.14042664 142.07281494 C418.56319027 146.29437999 426.98642232 150.51500397 435.41129589 154.73235703 C438.71046953 156.3839905 442.00922712 158.03644237 445.30691528 159.69104004 C459.45551735 166.78980739 473.63691685 173.8040743 487.94178772 180.5839386 C496.50565319 184.65205836 504.96657387 188.93030675 513.4375 193.1875 C519.233125 196.095625 525.02875 199.00375 531 202 C531 223.12 531 244.24 531 266 C519.81989259 260.70415965 508.67197239 255.40992775 497.61865234 249.86608887 C496.28769608 249.20047007 494.95665015 248.53503053 493.62552452 247.8697505 C490.03292879 246.07359791 486.44156791 244.27498937 482.8504324 242.47591949 C478.95199919 240.52347471 475.0523731 238.57341507 471.15289307 236.62306213 C464.4142244 233.25229344 457.67626569 229.88010929 450.93878174 226.50697327 C441.17737813 221.61995289 431.4146503 216.73558258 421.65157485 211.85190314 C405.77938027 203.9122825 389.90793413 195.97116704 374.03710938 188.02880859 C372.61623508 187.31775059 372.61623508 187.31775059 371.16665626 186.59232777 C363.48263718 182.74694654 355.79865464 178.90149231 348.11467361 175.05603504 C341.3974297 171.69438636 334.68017119 168.33276684 327.96289062 164.97119141 C327.01681246 164.49773826 326.07073429 164.02428511 325.09598708 163.5364849 C309.27922801 155.62124476 293.46167261 147.70759723 277.64355659 139.79506922 C267.91357372 134.9278478 258.18430044 130.05921334 248.45596457 125.1887008 C241.78434379 121.84865343 235.11199949 118.5100545 228.43910265 115.17255723 C224.60024329 113.25246028 220.7617081 111.33172294 216.9240799 109.40916634 C202.87300605 102.37037291 188.82656821 95.33655347 174.58399963 88.69025421 C170.08649558 86.56918112 165.68541497 84.30234938 161.3125 81.9375 C159.72329967 81.09123852 158.13344533 80.24620417 156.54296875 79.40234375 C155.77774902 78.99612793 155.0125293 78.58991211 154.22412109 78.17138672 C145.7144673 73.68957345 137.06697522 69.49269769 128.36938477 65.39013672 C119.74345867 61.32099252 111.23839924 57.09698842 102.81982422 52.61425781 C95.92304736 48.94234263 88.95341128 45.43433532 81.95166016 41.96777344 C79.30020344 40.65299055 76.65341065 39.32897102 74.00683594 38.00439453 C72.00377389 37.00188878 69.99993679 36.00094356 67.99609375 35 C65.33967205 33.67211334 62.68633074 32.33833014 60.03515625 31 C53.25561617 27.58395267 46.44932347 24.2572472 39.5625 21.0625 C32.99546573 18.01007864 26.58257776 14.72811076 20.20166016 11.30517578 C13.53522929 7.73069458 6.78478243 4.34400529 0 1 C0 0.67 0 0.34 0 0 Z " fill="#CB0102" transform="translate(1069,534)"/>
<path d="M0 0 C11.64141953 5.39572965 23.15448148 11.03336813 34.625 16.78125 C35.32279572 17.13086792 36.02059143 17.48048584 36.73953247 17.84069824 C42.56403703 20.75998324 48.38592633 23.68447051 54.20776367 26.60906982 C59.26233627 29.14797229 64.31792514 31.68483506 69.375 34.21875 C70.06839855 34.56629271 70.7617971 34.91383541 71.47620773 35.27190971 C80.3590594 39.72095118 89.26420496 44.11316253 98.27709961 48.29443359 C102.73138958 50.364142 107.0591488 52.59118529 111.375 54.9375 C118.09898369 58.59104385 124.95989511 61.90382483 131.89013672 65.14819336 C137.0752807 67.58156786 142.21746242 70.09220124 147.33717346 72.66015625 C148.03575393 73.0100058 148.7343344 73.35985535 149.45408398 73.7203064 C150.91555663 74.45223797 152.37692528 75.18437725 153.83819318 75.91671753 C156.53021001 77.2656885 159.2229814 78.61314828 161.91579616 79.96052551 C163.92918231 80.96797268 165.94245215 81.97565192 167.95568848 82.98339844 C184.97520969 91.50266826 201.99601349 100.01937305 219.01752377 108.53466797 C228.42458049 113.24077488 237.83125662 117.94763964 247.23706055 122.65625 C255.49259679 126.78902535 263.74885211 130.92036014 272.00594813 135.05001831 C276.35791271 137.22664703 280.70953389 139.40395556 285.06028557 141.58300781 C289.15452079 143.63355869 293.24972558 145.68216065 297.34563255 147.72937012 C298.83369852 148.47353877 300.32143143 149.21837392 301.80877304 149.96398926 C309.33840529 153.73815408 316.89149651 157.442957 324.52272034 161.0078125 C332.05781601 164.52805032 339.5022237 168.2082719 346.92670441 171.95529556 C350.55772869 173.78491754 354.19611433 175.59980787 357.83349609 177.41674805 C359.40259033 178.20121276 360.97165081 178.98574502 362.54067993 179.77033997 C363.34882771 180.17441385 364.15697548 180.57848774 364.98961258 180.99480629 C420.32640839 208.66320419 475.66320419 236.3316021 531 264 C531 264.33 531 264.66 531 265 C512.51200846 266.11128276 494.01650111 266.85068776 475.5 267.25 C474.8159215 267.2649062 474.131843 267.2798124 473.42703485 267.29517031 C424.26915886 268.3237749 387.12631678 260.66725404 345.57666016 233.21386719 C337.23278118 227.71357253 328.36405119 223.66816828 319.29177856 219.53689575 C312.49451752 216.3633282 305.81130811 212.95487587 299.109375 209.5859375 C297.60390594 208.83106296 296.09833605 208.07638949 294.59266663 207.32191467 C289.97729778 205.00855834 285.36352131 202.69203818 280.75 200.375 C274.62106954 197.29692702 268.49136423 194.22041324 262.359375 191.1484375 C261.25850304 190.596861 261.25850304 190.596861 260.13539124 190.03414154 C250.46061148 185.19022161 240.74665326 180.4517002 230.94799805 175.86254883 C225.11530463 173.12555799 219.36832527 170.21969087 213.61651611 167.31793213 C204.36855375 162.65975836 195.10470322 158.03298565 185.84564781 153.39690971 C182.29653884 151.61977347 178.74781732 149.84187215 175.19995117 148.06225586 C161.06314832 140.97183212 146.92091144 133.91256979 132.62953186 127.13739014 C124.82710361 123.42565107 117.0912808 119.58603889 109.3671875 115.71484375 C108.41988235 115.24011533 108.41988235 115.24011533 107.45343971 114.75579643 C102.92584611 112.48590956 98.40022088 110.21211255 93.875 107.9375 C88.707036 105.33983848 83.53826779 102.74379721 78.3671875 100.15234375 C77.74515505 99.84057756 77.1231226 99.52881138 76.48224068 99.20759773 C66.80884517 94.36341751 57.08255271 89.64207036 47.29418945 85.03466797 C41.29585308 82.20803701 35.3784258 79.22275909 29.45898438 76.23535156 C26.39871471 74.69792459 23.33219961 73.17324892 20.265625 71.6484375 C18.46479518 70.75199998 16.66406556 69.8553615 14.8633728 68.95864868 C13.0824301 68.0724176 11.30061908 67.18793217 9.51879883 66.3034668 C8.43107178 65.76117432 7.34334473 65.21888184 6.22265625 64.66015625 C5.24047119 64.17168213 4.25828613 63.68320801 3.24633789 63.17993164 C1 62 1 62 0 61 C-0.09391296 59.09756238 -0.11743658 57.19161541 -0.11352539 55.28686523 C-0.11344986 54.0656749 -0.11337433 52.84448456 -0.11329651 51.58628845 C-0.10818911 50.24372314 -0.10297311 48.90115825 -0.09765625 47.55859375 C-0.09579199 46.19238842 -0.09436813 44.82618243 -0.09336853 43.4599762 C-0.08954394 39.85798305 -0.07971417 36.25603 -0.06866455 32.65405273 C-0.05844916 28.98096255 -0.05387064 25.30786591 -0.04882812 21.63476562 C-0.03809184 14.42315877 -0.02101614 7.211585 0 0 Z " fill="#CB0102" transform="translate(0,0)"/>
<path d="M0 0 C116.82 0 233.64 0 354 0 C351.01923835 2.98076165 348.68078579 4.34542133 344.9375 6.1875 C343.87402344 6.71730469 342.81054688 7.24710938 341.71484375 7.79296875 C339 9 339 9 337 9 C337.33 8.01 337.66 7.02 338 6 C339.485 5.505 339.485 5.505 341 5 C341.33 4.01 341.66 3.02 342 2 C229.14 2 116.28 2 0 2 C0 1.34 0 0.68 0 0 Z " fill="#40427E" transform="translate(0,533)"/>
<path d="M0 0 C0.66 0 1.32 0 2 0 C2 79.53 2 159.06 2 241 C2.66 241.33 3.32 241.66 4 242 C2.02 242.99 2.02 242.99 0 244 C0 163.48 0 82.96 0 0 Z " fill="#3E417A" transform="translate(933,0)"/>
<path d="M0 0 C4.9723422 1.49170266 9.41845739 3.60457417 14 6 C14 6.33 14 6.66 14 7 C-1.61150446 7.04667686 -17.22299016 7.08196762 -32.83454704 7.10362434 C-40.08291834 7.11394625 -47.33124634 7.12802399 -54.57958984 7.15087891 C-60.89568298 7.17078487 -67.21174476 7.18370978 -73.52786839 7.18817699 C-76.87362811 7.19078913 -80.21929812 7.19694761 -83.56502914 7.21146011 C-87.29584923 7.22589039 -91.02648091 7.22798149 -94.75732422 7.22705078 C-95.87222229 7.23424133 -96.98712036 7.24143188 -98.13580322 7.24884033 C-99.65447495 7.24471634 -99.65447495 7.24471634 -101.2038269 7.24050903 C-102.08690458 7.24235262 -102.96998226 7.24419621 -103.87981987 7.24609566 C-106 7 -106 7 -108 5 C-54.54 4.505 -54.54 4.505 0 4 C0 2.68 0 1.36 0 0 Z " fill="#BA0708" transform="translate(517,258)"/>
<path d="M0 0 C1.03190964 0.00414917 2.06381927 0.00829834 3.1269989 0.01257324 C4.26366501 0.02237717 5.40033112 0.03218109 6.57144165 0.0422821 C8.36177574 0.05187454 8.36177574 0.05187454 10.1882782 0.06166077 C13.46729237 0.08057859 16.74622927 0.10416296 20.02519178 0.13042092 C22.76124949 0.15189409 25.49732372 0.1705621 28.23340094 0.18935269 C34.68873517 0.23389201 41.14400809 0.28418798 47.59927368 0.33769226 C54.25999922 0.3927695 60.92073519 0.43677373 67.58157384 0.47554332 C73.29803869 0.50928756 79.01441593 0.55061574 84.73078501 0.59786862 C88.14583522 0.62597728 91.56084106 0.65103817 94.97596359 0.6685276 C98.78527631 0.69004372 102.59428428 0.72395433 106.4034729 0.7610321 C108.10239937 0.76662895 108.10239937 0.76662895 109.83564758 0.77233887 C110.87319687 0.78494751 111.91074615 0.79755615 112.97973633 0.81054688 C113.88049582 0.81737645 114.7812553 0.82420603 115.70931053 0.83124256 C118.26345892 1.111856 119.91334105 1.80669425 122.11685181 3.0957489 C122.11685181 3.7557489 122.11685181 4.4157489 122.11685181 5.0957489 C121.5646484 4.93322915 121.01244499 4.7707094 120.44350815 4.60326481 C117.85612578 4.03887647 115.53886111 3.97283524 112.89035034 3.97549438 C111.83308243 3.97411972 110.77581451 3.97274506 109.68650818 3.97132874 C108.53204697 3.97492401 107.37758575 3.97851929 106.18814087 3.98222351 C104.96836044 3.98207748 103.74858002 3.98193146 102.49183655 3.98178101 C99.15124659 3.9823581 95.81071851 3.98737182 92.4701395 3.99435496 C88.97743983 4.00060819 85.48473932 4.00119386 81.99203491 4.00238037 C75.37999909 4.00548787 68.7679798 4.01369345 62.15595126 4.02372986 C54.62758807 4.03490902 47.09922409 4.04040599 39.57085466 4.0454253 C24.08617747 4.05587653 8.60151677 4.07346475 -6.88314819 4.0957489 C-6.88314819 3.1057489 -6.88314819 2.1157489 -6.88314819 1.0957489 C-4.39980139 -0.1459245 -2.77803785 -0.0175895 0 0 Z " fill="#F1BEBA" transform="translate(1074.8831481933594,530.9042510986328)"/>
<path d="M0 0 C1.26792625 0.00414807 1.26792625 0.00414807 2.56146717 0.00837994 C3.53321888 0.00425594 4.50497059 0.00013195 5.50616932 -0.00411701 C6.57071842 0.00666882 7.63526752 0.01745464 8.73207569 0.02856731 C9.85417439 0.02812923 10.97627308 0.02769115 12.13237476 0.0272398 C15.84978466 0.02933364 19.56674631 0.05269342 23.28407764 0.07617474 C25.85811587 0.08176855 28.43215728 0.08603966 31.00619984 0.0890379 C37.09418991 0.0993309 43.18199437 0.12298687 49.26991445 0.15308636 C56.20090551 0.18661075 63.13190426 0.20311142 70.06295621 0.21817267 C84.32034386 0.24953601 98.57759564 0.30230875 112.83485889 0.36914349 C110.42967345 2.89534455 108.37801196 4.19883278 105.14735889 5.55664349 C103.93499561 6.07291302 103.93499561 6.07291302 102.69814014 6.59961224 C102.08325733 6.85355755 101.46837452 7.10750286 100.83485889 7.36914349 C100.33985889 6.37914349 100.33985889 6.37914349 99.83485889 5.36914349 C100.49485889 5.36914349 101.15485889 5.36914349 101.83485889 5.36914349 C101.83485889 4.37914349 101.83485889 3.38914349 101.83485889 2.36914349 C66.52485889 2.69914349 31.21485889 3.02914349 -5.16514111 3.36914349 C-2.16514111 0.36914349 -2.16514111 0.36914349 0 0 Z " fill="#C84846" transform="translate(533.1651411056519,532.630856513977)"/>
<path d="M0 0 C-2.43052792 1.21526396 -4.00309475 1.13802724 -6.72024536 1.15821838 C-7.71586487 1.1680072 -8.71148438 1.17779602 -9.73727417 1.18788147 C-10.83347076 1.19363693 -11.92966736 1.1993924 -13.05908203 1.20532227 C-14.21029541 1.21522186 -15.36150879 1.22512146 -16.54760742 1.23532104 C-20.36765458 1.26700733 -24.1877142 1.29172165 -28.0078125 1.31640625 C-30.65054657 1.33696962 -33.29327731 1.35796592 -35.93600464 1.37937927 C-42.19037258 1.42932409 -48.44476616 1.47425626 -54.6991843 1.51740164 C-61.81883547 1.56675874 -68.93844026 1.62168252 -76.05804658 1.67708123 C-90.70532048 1.79092872 -105.35264053 1.89776173 -120 2 C-120.33 1.01 -120.66 0.02 -121 -1 C-105.51898739 -1.17716162 -90.03788364 -1.34284228 -74.55660439 -1.49477577 C-67.36872064 -1.56558681 -60.18091312 -1.64018458 -52.99316406 -1.72363281 C-46.72987196 -1.79633876 -40.46655284 -1.86200521 -34.20309865 -1.91914403 C-30.88523453 -1.94965934 -27.56752295 -1.98479914 -24.24977493 -2.02626419 C-20.55016471 -2.07190489 -16.8506431 -2.10510199 -13.15087891 -2.13525391 C-12.04533157 -2.1517952 -10.93978424 -2.16833649 -9.80073547 -2.18537903 C-8.29468498 -2.19387627 -8.29468498 -2.19387627 -6.75820923 -2.20254517 C-5.88250589 -2.2117631 -5.00680256 -2.22098103 -4.10456276 -2.23047829 C-2 -2 -2 -2 0 0 Z " fill="#FEBFBF" transform="translate(533,266)"/>
<path d="M0 0 C16.0639459 -0.07011942 32.12784206 -0.1230025 48.19190407 -0.15543652 C55.65093734 -0.17089731 63.10987546 -0.19197167 70.56884766 -0.22631836 C77.07102662 -0.25624495 83.57313666 -0.27558074 90.07538259 -0.28226548 C93.51745028 -0.28617225 96.9593208 -0.29533703 100.40132523 -0.31719017 C104.24626578 -0.34140293 108.09101445 -0.34196789 111.93603516 -0.34057617 C113.64291504 -0.35675491 113.64291504 -0.35675491 115.38427734 -0.3732605 C121.09118866 -0.35088013 125.17629007 -0.17581495 130 3 C129.34 3.66 128.68 4.32 128 5 C127.40443802 4.51391769 126.80887604 4.02783539 126.19526672 3.52702332 C121.46904139 1.26835232 117.05233935 1.56060106 111.87573242 1.56762695 C110.1921463 1.55233948 110.1921463 1.55233948 108.47454834 1.53674316 C104.76813797 1.50657167 101.06198588 1.49734057 97.35546875 1.48828125 C94.78427773 1.47143771 92.21309497 1.45328791 89.641922 1.43388367 C83.5682617 1.3912006 77.49466841 1.36168345 71.42090636 1.33856028 C64.50427673 1.31149241 57.58778591 1.26758195 50.67125547 1.22227156 C36.4475817 1.12946844 22.22385704 1.05776792 8 1 C8 1.99 8 2.98 8 4 C8.99 3.67 9.98 3.34 11 3 C11 3.99 11 4.98 11 6 C7.2089881 4.55049545 3.6125362 2.84827434 0 1 C0 0.67 0 0.34 0 0 Z " fill="#B10C0D" transform="translate(1069,534)"/>
<path d="M0 0 C0 0.99 0 1.98 0 3 C33.99 3.33 67.98 3.66 103 4 C103 4.33 103 4.66 103 5 C66.37 5 29.74 5 -8 5 C-5.21040099 2.90780074 -3.06775511 1.42431487 0 0 Z " fill="#A1120E" transform="translate(961,260)"/>
<path d="M0 0 C1.98 0 3.96 0 6 0 C2.34761937 2.80015849 0.3217653 4.12566951 -4.30264282 4.12025452 C-5.65723854 4.12231651 -5.65723854 4.12231651 -7.03919983 4.12442017 C-8.0325383 4.12082489 -9.02587677 4.11722961 -10.04931641 4.11352539 C-11.09324051 4.11367142 -12.13716461 4.11381744 -13.21272278 4.1139679 C-16.67569023 4.11326922 -20.1386044 4.10547891 -23.6015625 4.09765625 C-25.99767019 4.09579191 -28.39377827 4.09436808 -30.78988647 4.09336853 C-37.10608975 4.08954461 -43.42227014 4.07971538 -49.73846436 4.06866455 C-56.17980642 4.05844774 -62.62115217 4.05387033 -69.0625 4.04882812 C-81.70834311 4.03809302 -94.35417034 4.02120945 -107 4 C-107 3.67 -107 3.34 -107 3 C-72.02 3 -37.04 3 -1 3 C-0.67 2.01 -0.34 1.02 0 0 Z " fill="#BF0804" transform="translate(1066,260)"/>
<path d="M0 0 C-0.33 0.99 -0.66 1.98 -1 3 C-3.06640625 3.94921875 -3.06640625 3.94921875 -5.5625 4.6875 C-6.80193359 5.06455078 -6.80193359 5.06455078 -8.06640625 5.44921875 C-8.70449219 5.63097656 -9.34257812 5.81273437 -10 6 C-10 6.66 -10 7.32 -10 8 C-11.375 10.125 -11.375 10.125 -14 12 C-17.35880797 12.34746289 -20.63547028 12.2311509 -24 12 C-21.35426467 9.92684918 -18.74508203 8.24442998 -15.7421875 6.73828125 C-14.55689453 6.14370117 -14.55689453 6.14370117 -13.34765625 5.53710938 C-12.53167969 5.13298828 -11.71570313 4.72886719 -10.875 4.3125 C-10.05128906 3.89677734 -9.22757813 3.48105469 -8.37890625 3.05273438 C-7.59128906 2.66021484 -6.80367187 2.26769531 -5.9921875 1.86328125 C-5.27401855 1.50532471 -4.55584961 1.14736816 -3.81591797 0.77856445 C-2 0 -2 0 0 0 Z " fill="#FDE6E2" transform="translate(148,788)"/>
<path d="M0 0 C3.96 0 7.92 0 12 0 C9.24397822 2.75602178 7.36058656 4.00872559 3.9375 5.6875 C3.05964844 6.12449219 2.18179687 6.56148437 1.27734375 7.01171875 C-1 8 -1 8 -3 8 C-2.67 7.01 -2.34 6.02 -2 5 C-1.01 4.67 -0.02 4.34 1 4 C1.33 3.01 1.66 2.02 2 1 C1.34 0.67 0.68 0.34 0 0 Z " fill="#151360" transform="translate(340,534)"/>
<path d="M0 0 C0 0.99 0 1.98 0 3 C7.26 3.33 14.52 3.66 22 4 C22 4.33 22 4.66 22 5 C12.1 5 2.2 5 -8 5 C-5.21040099 2.90780074 -3.06775511 1.42431487 0 0 Z " fill="#A1120F" transform="translate(961,260)"/>
<path d="M0 0 C3.48670834 1.1094072 6.77484237 2.26337666 10 4 C10 4.66 10 5.32 10 6 C5.71 6 1.42 6 -3 6 C-2.01 5.34 -1.02 4.68 0 4 C0 2.68 0 1.36 0 0 Z " fill="#BE080A" transform="translate(517,258)"/>
<path d="M0 0 C0.66 0.33 1.32 0.66 2 1 C1.3125 2.9375 1.3125 2.9375 0 5 C-2.4375 5.6875 -2.4375 5.6875 -5 6 C-8.0745356 6.7763932 -8.0745356 6.7763932 -10 9 C-11.32 8.34 -12.64 7.68 -14 7 C-11.71296692 5.80274117 -9.42115138 4.61702982 -7.125 3.4375 C-6.14853516 2.92413086 -6.14853516 2.92413086 -5.15234375 2.40039062 C-3.46470143 1.53917109 -1.73420407 0.76313297 0 0 Z " fill="#FEE8E3" transform="translate(478,619)"/>
<path d="M0 0 C0 0.66 0 1.32 0 2 C-1.89948174 2.94974087 -3.7996105 3.89821158 -5.703125 4.83984375 C-7.20557897 5.59873632 -8.69610046 6.38185367 -10.171875 7.19140625 C-10.85765625 7.56136719 -11.5434375 7.93132813 -12.25 8.3125 C-13.18585937 8.83263672 -13.18585937 8.83263672 -14.140625 9.36328125 C-16.46171374 10.15810786 -17.68433864 9.66354682 -20 9 C-17.04492094 7.49352402 -14.08542659 5.99593635 -11.125 4.5 C-10.28324219 4.07074219 -9.44148437 3.64148438 -8.57421875 3.19921875 C-7.76855469 2.79316406 -6.96289062 2.38710938 -6.1328125 1.96875 C-5.38918457 1.59169922 -4.64555664 1.21464844 -3.87939453 0.82617188 C-2 0 -2 0 0 0 Z " fill="#FDD7D5" transform="translate(529,594)"/>
<path d="M0 0 C6.27 0 12.54 0 19 0 C19 0.33 19 0.66 19 1 C15.37 1 11.74 1 8 1 C8 1.99 8 2.98 8 4 C8.99 3.67 9.98 3.34 11 3 C11 3.99 11 4.98 11 6 C7.2089881 4.55049545 3.6125362 2.84827434 0 1 C0 0.67 0 0.34 0 0 Z " fill="#B51719" transform="translate(1069,534)"/>
<path d="M0 0 C4.08796509 -0.24046853 7.22372343 0.40557211 11 2 C11.99 3.485 11.99 3.485 13 5 C15.56282742 5.72965366 15.56282742 5.72965366 18 6 C18 6.99 18 7.98 18 9 C13.64029169 7.65150163 9.68658562 5.95092154 5.625 3.875 C4.56539063 3.33617187 3.50578125 2.79734375 2.4140625 2.2421875 C1.61742187 1.83226562 0.82078125 1.42234375 0 1 C0 0.67 0 0.34 0 0 Z " fill="#BD201F" transform="translate(312,215)"/>
<path d="M0 0 C0 0.66 0 1.32 0 2 C-0.66 2 -1.32 2 -2 2 C-2 2.66 -2 3.32 -2 4 C-5.22955335 6.30682382 -8.0464482 7.59450751 -12 8 C-13.34083433 7.69825144 -14.6762133 7.36942885 -16 7 C-13.71070947 5.82845707 -11.41881638 4.66261926 -9.125 3.5 C-8.47402344 3.16613281 -7.82304688 2.83226562 -7.15234375 2.48828125 C-2.2265625 0 -2.2265625 0 0 0 Z " fill="#FEE9E6" transform="translate(1520,40)"/>
<path d="M0 0 C4.95 0 9.9 0 15 0 C14.67 0.66 14.34 1.32 14 2 C12.68 2 11.36 2 10 2 C10 2.99 10 3.98 10 5 C5.84585747 3.77263971 3.56311466 2.672336 0 0 Z " fill="#13126F" transform="translate(182,0)"/>
<path d="M0 0 C4.60853797 0.72008406 8.67237409 2.31295939 13 4 C13 4.66 13 5.32 13 6 C14.32 6 15.64 6 17 6 C17 6.66 17 7.32 17 8 C18.32 8.33 19.64 8.66 21 9 C18 10 18 10 16.00708008 9.28735352 C14.89949341 8.71392212 14.89949341 8.71392212 13.76953125 8.12890625 C12.56586914 7.51499023 12.56586914 7.51499023 11.33789062 6.88867188 C10.50451172 6.45103516 9.67113281 6.01339844 8.8125 5.5625 C7.96751953 5.12873047 7.12253906 4.69496094 6.25195312 4.24804688 C4.16321229 3.17417447 2.07969374 2.09126178 0 1 C0 0.67 0 0.34 0 0 Z " fill="#BB2021" transform="translate(195,157)"/>
<path d="M0 0 C1.65 0.33 3.3 0.66 5 1 C2.10414095 3.29648357 -0.8172031 5.04347557 -4.125 6.6875 C-5.42824219 7.34298828 -5.42824219 7.34298828 -6.7578125 8.01171875 C-9 9 -9 9 -11 9 C-11 8.34 -11 7.68 -11 7 C-10.34 7 -9.68 7 -9 7 C-8.67 6.01 -8.34 5.02 -8 4 C-7.05125 3.896875 -6.1025 3.79375 -5.125 3.6875 C-1.70892499 3.31460705 -1.70892499 3.31460705 0 0 Z " fill="#BA0E0C" transform="translate(1389,100)"/>
<path d="M0 0 C1.32 0.66 2.64 1.32 4 2 C-1.61 4.64 -7.22 7.28 -13 10 C-13.66 9.34 -14.32 8.68 -15 8 C-12.69 7.01 -10.38 6.02 -8 5 C-8 4.67 -8 4.34 -8 4 C-6.35 4 -4.7 4 -3 4 C-3 3.34 -3 2.68 -3 2 C-2.01 2 -1.02 2 0 2 C0 1.34 0 0.68 0 0 Z " fill="#BD1E20" transform="translate(264,725)"/>
<path d="M0 0 C0 0.99 0 1.98 0 3 C-0.99 3 -1.98 3 -3 3 C-3.66 4.65 -4.32 6.3 -5 8 C-8 8 -11 8 -14 8 C-11.07096942 5.66635648 -8.11431797 3.95039164 -4.75 2.3125 C-3.41195312 1.65701172 -3.41195312 1.65701172 -2.046875 0.98828125 C-1.03367187 0.49908203 -1.03367187 0.49908203 0 0 Z " fill="#C22121" transform="translate(1016,232)"/>
<path d="M0 0 C0.33 0.99 0.66 1.98 1 3 C0.01 3 -0.98 3 -2 3 C-2.268125 3.639375 -2.53625 4.27875 -2.8125 4.9375 C-4 7 -4 7 -7 8 C-9.6875 7.5625 -9.6875 7.5625 -12 7 C-8.35140239 3.95950199 -4.2555467 2.03481238 0 0 Z " fill="#C01618" transform="translate(1285,96)"/>
<path d="M0 0 C0.33 0.99 0.66 1.98 1 3 C-1.71915341 4.81276894 -2.98277657 5.26838003 -6 6 C-7.43362072 6.65140796 -8.85101812 7.3396927 -10.25 8.0625 C-10.95640625 8.42472656 -11.6628125 8.78695312 -12.390625 9.16015625 C-12.92171875 9.43730469 -13.4528125 9.71445312 -14 10 C-14 9.01 -14 8.02 -14 7 C-9.38 4.69 -4.76 2.38 0 0 Z " fill="#BB1316" transform="translate(25,787)"/>
<path d="M0 0 C1.98 0 3.96 0 6 0 C3.10414095 2.29648357 0.1827969 4.04347557 -3.125 5.6875 C-4.42824219 6.34298828 -4.42824219 6.34298828 -5.7578125 7.01171875 C-8 8 -8 8 -10 8 C-10 7.34 -10 6.68 -10 6 C-9.01 6 -8.02 6 -7 6 C-7 5.01 -7 4.02 -7 3 C-5.02 3 -3.04 3 -1 3 C-0.67 2.01 -0.34 1.02 0 0 Z " fill="#B71010" transform="translate(1534,29)"/>
<path d="M0 0 C0 0.99 0 1.98 0 3 C-0.99 3 -1.98 3 -3 3 C-3 3.66 -3 4.32 -3 5 C-4.98 5.33 -6.96 5.66 -9 6 C-9.33 6.99 -9.66 7.98 -10 9 C-11.98 9 -13.96 9 -16 9 C-12.79509037 6.40962402 -9.44649547 4.62056844 -5.75 2.8125 C-4.13351562 2.01779297 -4.13351562 2.01779297 -2.484375 1.20703125 C-1.66453125 0.80871094 -0.8446875 0.41039062 0 0 Z " fill="#B91516" transform="translate(490,554)"/>
<path d="M0 0 C0 0.99 0 1.98 0 3 C-0.73605469 3.26554688 -1.47210937 3.53109375 -2.23046875 3.8046875 C-3.20628906 4.15789062 -4.18210937 4.51109375 -5.1875 4.875 C-6.15042969 5.22304687 -7.11335938 5.57109375 -8.10546875 5.9296875 C-10.75634859 6.90990488 -13.3813098 7.93720434 -16 9 C-16 8.34 -16 7.68 -16 7 C-13.71070947 5.82845707 -11.41881638 4.66261926 -9.125 3.5 C-8.47402344 3.16613281 -7.82304688 2.83226562 -7.15234375 2.48828125 C-2.2265625 0 -2.2265625 0 0 0 Z " fill="#BB1316" transform="translate(1143,169)"/>
<path d="M0 0 C0.66 0.33 1.32 0.66 2 1 C-0.62375952 3.90487661 -2.2011075 5.21787507 -6 6 C-7.485 6.804375 -7.485 6.804375 -9 7.625 C-12.24105866 9.11048522 -12.8018885 9.03387225 -16 8 C-13.37964982 6.63610475 -10.75443001 5.28367827 -8.125 3.9375 C-7.37863281 3.54755859 -6.63226563 3.15761719 -5.86328125 2.75585938 C-4.79013672 2.20961914 -4.79013672 2.20961914 -3.6953125 1.65234375 C-3.03547363 1.31195068 -2.37563477 0.97155762 -1.69580078 0.62084961 C-1.13618652 0.41596924 -0.57657227 0.21108887 0 0 Z " fill="#09075B" transform="translate(286,747)"/>
<path d="M0 0 C0.66 0.33 1.32 0.66 2 1 C1.16855469 1.48919922 1.16855469 1.48919922 0.3203125 1.98828125 C-0.40414063 2.42527344 -1.12859375 2.86226562 -1.875 3.3125 C-2.59429687 3.74175781 -3.31359375 4.17101562 -4.0546875 4.61328125 C-6.26846333 6.01752375 -6.26846333 6.01752375 -8 9 C-9.32 8.67 -10.64 8.34 -12 8 C-12 7.34 -12 6.68 -12 6 C-10.04669132 4.96958487 -8.08718472 3.9509107 -6.125 2.9375 C-5.03445313 2.36902344 -3.94390625 1.80054688 -2.8203125 1.21484375 C-1.42425781 0.61349609 -1.42425781 0.61349609 0 0 Z " fill="#B91414" transform="translate(512,543)"/>
<path d="M0 0 C3.96 0.33 7.92 0.66 12 1 C11.67 2.65 11.34 4.3 11 6 C7.37 4.35 3.74 2.7 0 1 C0 0.67 0 0.34 0 0 Z " fill="#1B186A" transform="translate(1245,534)"/>
<path d="M0 0 C0.33 0.66 0.66 1.32 1 2 C-1 4 -1 4 -4.5625 4.5 C-6.2640625 4.7475 -6.2640625 4.7475 -8 5 C-8.33 5.66 -8.66 6.32 -9 7 C-10 8 -10 8 -12.5625 8.0625 C-13.366875 8.041875 -14.17125 8.02125 -15 8 C-11.9377256 5.51372483 -8.8542946 3.90010596 -5.25 2.3125 C-4.26515625 1.87550781 -3.2803125 1.43851563 -2.265625 0.98828125 C-1.14414063 0.49908203 -1.14414063 0.49908203 0 0 Z " fill="#FAD6D7" transform="translate(1186,204)"/>
<path d="M0 0 C0 0.66 0 1.32 0 2 C-0.94875 2.45375 -1.8975 2.9075 -2.875 3.375 C-6.00313679 4.80238254 -6.00313679 4.80238254 -8 7 C-10.32275177 7.40047444 -12.65739357 7.7397104 -15 8 C-11.0826156 4.57228865 -5.47848189 0 0 0 Z " fill="#BE1D20" transform="translate(1174,153)"/>
<path d="M0 0 C4.95 2.31 9.9 4.62 15 7 C10.35887089 8.16028228 8.42361351 7.65885507 4 6 C1.5625 4 1.5625 4 0 2 C0 1.34 0 0.68 0 0 Z " fill="#BA0F0F" transform="translate(269,134)"/>
<path d="M0 0 C0 0.66 0 1.32 0 2 C-10.67870036 8.28158845 -10.67870036 8.28158845 -14.14453125 7.54296875 C-14.75683594 7.36378906 -15.36914062 7.18460938 -16 7 C-13.71070947 5.82845707 -11.41881638 4.66261926 -9.125 3.5 C-8.47402344 3.16613281 -7.82304688 2.83226562 -7.15234375 2.48828125 C-2.2265625 0 -2.2265625 0 0 0 Z " fill="#BA1519" transform="translate(53,774)"/>
<path d="M0 0 C-0.33 0.99 -0.66 1.98 -1 3 C-2.32 3 -3.64 3 -5 3 C-5 3.66 -5 4.32 -5 5 C-5.99 5 -6.98 5 -8 5 C-8 5.99 -8 6.98 -8 8 C-10.97 7.505 -10.97 7.505 -14 7 C-10.33997803 3.94998169 -4.92148529 0 0 0 Z " fill="#BD2020" transform="translate(308,646)"/>
<path d="M0 0 C-2.28929053 1.17154293 -4.58118362 2.33738074 -6.875 3.5 C-7.52597656 3.83386719 -8.17695312 4.16773437 -8.84765625 4.51171875 C-13.7734375 7 -13.7734375 7 -16 7 C-16 6.34 -16 5.68 -16 5 C-15.01 5 -14.02 5 -13 5 C-13 4.34 -13 3.68 -13 3 C-12.01 3 -11.02 3 -10 3 C-10 2.34 -10 1.68 -10 1 C-6.16112237 -0.48320272 -3.93795909 -1.22419163 0 0 Z " fill="#BC2522" transform="translate(1423,88)"/>
<path d="M0 0 C4.95 2.31 9.9 4.62 15 7 C10.59232396 8.10191901 9.1077065 7.58706842 5 6 C5 5.34 5 4.68 5 4 C4.360625 3.896875 3.72125 3.79375 3.0625 3.6875 C2.381875 3.460625 1.70125 3.23375 1 3 C0.67 2.01 0.34 1.02 0 0 Z " fill="#BD1C1F" transform="translate(139,69)"/>
<path d="M0 0 C6.12096691 1.05486051 10.75506674 2.65217026 16 6 C16 6.66 16 7.32 16 8 C10.31497465 6.35433477 5.23318364 3.70967216 0 1 C0 0.67 0 0.34 0 0 Z " fill="#B81818" transform="translate(1531,765)"/>
<path d="M0 0 C0 0.66 0 1.32 0 2 C-6.15384615 6.61538462 -6.15384615 6.61538462 -10 7 C-11.33921424 6.69114063 -12.67374198 6.36045602 -14 6 C-12.04414675 4.99515796 -10.08523763 3.99626195 -8.125 3 C-6.48917969 2.1646875 -6.48917969 2.1646875 -4.8203125 1.3125 C-2 0 -2 0 0 0 Z " fill="#BE2426" transform="translate(246,677)"/>
<path d="M0 0 C-0.61875 0.0825 -1.2375 0.165 -1.875 0.25 C-4.17972859 0.79394438 -4.17972859 0.79394438 -5.0625 3 C-5.371875 3.66 -5.68125 4.32 -6 5 C-9 6 -9 6 -11.1875 5.0625 C-11.785625 4.711875 -12.38375 4.36125 -13 4 C-11.40233897 3.13372601 -9.79660056 2.28233535 -8.1875 1.4375 C-7.29417969 0.96183594 -6.40085937 0.48617187 -5.48046875 -0.00390625 C-3 -1 -3 -1 0 0 Z " fill="#B70E0F" transform="translate(1318,82)"/>
<path d="M0 0 C0 0.99 0 1.98 0 3 C-3.16216412 5.37162309 -6.41213553 7.34406255 -10 9 C-10 7.68 -10 6.36 -10 5 C-6.7 3.35 -3.4 1.7 0 0 Z " fill="#161365" transform="translate(658,559)"/>
<path d="M0 0 C2.64 0.66 5.28 1.32 8 2 C8 2.66 8 3.32 8 4 C8.61875 4.12375 9.2375 4.2475 9.875 4.375 C12 5 12 5 14 7 C13.01 7.495 13.01 7.495 12 8 C9.1796875 6.78515625 9.1796875 6.78515625 5.875 5.0625 C4.77929688 4.49660156 3.68359375 3.93070313 2.5546875 3.34765625 C1.71164062 2.90292969 0.86859375 2.45820313 0 2 C0 1.34 0 0.68 0 0 Z " fill="#BA1D1C" transform="translate(379,247)"/>
<path d="M0 0 C0.66 0.33 1.32 0.66 2 1 C1.2884375 1.6496875 1.2884375 1.6496875 0.5625 2.3125 C-1.23686957 4.02309613 -1.23686957 4.02309613 -2 7 C-4.64 6.67 -7.28 6.34 -10 6 C-6.87511433 3.47605388 -3.68685613 1.60298093 0 0 Z " fill="#BE1214" transform="translate(1050,215)"/>
<path d="M0 0 C4.95 2.31 9.9 4.62 15 7 C14.34 7.66 13.68 8.32 13 9 C12.05125 8.505 11.1025 8.01 10.125 7.5 C7.27721834 5.85575631 7.27721834 5.85575631 5 6 C4.67 5.34 4.34 4.68 4 4 C1.98330173 2.86649466 1.98330173 2.86649466 0 2 C0 1.34 0 0.68 0 0 Z " fill="#BA171A" transform="translate(12,6)"/>
<path d="M0 0 C4.97306516 0.49730652 8.63799813 1.55302334 13 4 C12.67 4.99 12.34 5.98 12 7 C8.04 5.02 4.08 3.04 0 1 C0 0.67 0 0.34 0 0 Z " fill="#BA1618" transform="translate(1587,793)"/>
<path d="M0 0 C0.66 0.33 1.32 0.66 2 1 C-3.625 4.875 -3.625 4.875 -7 6 C-8.66710346 7.49985609 -8.66710346 7.49985609 -10 9 C-10.66 8.67 -11.32 8.34 -12 8 C-12 7.34 -12 6.68 -12 6 C-10.04669132 4.96958487 -8.08718472 3.9509107 -6.125 2.9375 C-5.03445313 2.36902344 -3.94390625 1.80054688 -2.8203125 1.21484375 C-1.42425781 0.61349609 -1.42425781 0.61349609 0 0 Z " fill="#BA1518" transform="translate(1224,127)"/>
<path d="M0 0 C6.15234375 0.5859375 6.15234375 0.5859375 8 1 C8.33 1.66 8.66 2.32 9 3 C10.64363134 3.72159424 12.31050386 4.39351421 14 5 C14 5.66 14 6.32 14 7 C10.61108678 6.31113213 7.81988387 5.01283514 4.75 3.4375 C3.85796875 2.98246094 2.9659375 2.52742188 2.046875 2.05859375 C1.37140625 1.70925781 0.6959375 1.35992187 0 1 C0 0.67 0 0.34 0 0 Z " fill="#131160" transform="translate(379,99)"/>
<path d="M0 0 C-0.33 0.99 -0.66 1.98 -1 3 C-3.32206525 3.70491267 -5.65593068 4.37212429 -8 5 C-8.33 5.66 -8.66 6.32 -9 7 C-10.65 7 -12.3 7 -14 7 C-10.33997803 3.94998169 -4.92148529 0 0 0 Z " fill="#FDDDDC" transform="translate(1534,33)"/>
<path d="M0 0 C-3.66002197 3.05001831 -9.07851471 7 -14 7 C-14 6.34 -14 5.68 -14 5 C-13.01 5 -12.02 5 -11 5 C-11 4.34 -11 3.68 -11 3 C-9.68 3 -8.36 3 -7 3 C-7 2.34 -7 1.68 -7 1 C-4.53721199 -0.231394 -2.7204945 -0.07159196 0 0 Z " fill="#B81516" transform="translate(523,596)"/>
<path d="M0 0 C0 0.99 0 1.98 0 3 C-1.57533086 3.86883706 -3.16064509 4.71959068 -4.75 5.5625 C-5.63171875 6.03816406 -6.5134375 6.51382813 -7.421875 7.00390625 C-10 8 -10 8 -14 7 C-9.38 4.69 -4.76 2.38 0 0 Z " fill="#FFE0DF" transform="translate(592,561)"/>
<path d="M0 0 C0.66 0 1.32 0 2 0 C2 0.66 2 1.32 2 2 C2.99 2.33 3.98 2.66 5 3 C-0.445 5.475 -0.445 5.475 -6 8 C-6 7.01 -6 6.02 -6 5 C-4.68 5 -3.36 5 -2 5 C-1.34 3.35 -0.68 1.7 0 0 Z " fill="#1B186F" transform="translate(1070,170)"/>
<path d="M0 0 C4.70238725 0.46101836 8.23262357 1.03176403 12 4 C12 4.99 12 5.98 12 7 C8.04 5.02 4.08 3.04 0 1 C0 0.67 0 0.34 0 0 Z " fill="#B9181A" transform="translate(1555,777)"/>
<path d="M0 0 C0.33 0.66 0.66 1.32 1 2 C0.34 2 -0.32 2 -1 2 C-1 2.66 -1 3.32 -1 4 C-2.24176695 4.70226141 -3.49385599 5.38629109 -4.75 6.0625 C-5.79414063 6.63677734 -5.79414063 6.63677734 -6.859375 7.22265625 C-9 8 -9 8 -13 7 C-8.71 4.69 -4.42 2.38 0 0 Z " fill="#BD2527" transform="translate(212,693)"/>
<path d="M0 0 C4.23429756 1.31061591 8.07407404 2.94356259 12 5 C12 5.33 12 5.66 12 6 C9.69 6 7.38 6 5 6 C5 5.01 5 4.02 5 3 C3.35 2.67 1.7 2.34 0 2 C0 1.34 0 0.68 0 0 Z " fill="#1C1B67" transform="translate(1404,794)"/>
<path d="M0 0 C-5.445 2.475 -5.445 2.475 -11 5 C-11 4.34 -11 3.68 -11 3 C-10.34 3 -9.68 3 -9 3 C-8.67 2.01 -8.34 1.02 -8 0 C-4.46504185 -2.55979728 -4.21510851 -2.10755425 0 0 Z " fill="#B50E0D" transform="translate(623,546)"/>
<path d="M0 0 C0.66 0.33 1.32 0.66 2 1 C0.68 1.99 -0.64 2.98 -2 4 C-1.67 4.66 -1.34 5.32 -1 6 C-3.64 6 -6.28 6 -9 6 C-6.45368965 3.02930459 -3.57769851 1.5224249 0 0 Z " fill="#1C1A64" transform="translate(1257,260)"/>
<path d="M0 0 C4.23429756 1.31061591 8.07407404 2.94356259 12 5 C12 5.33 12 5.66 12 6 C7.24792529 6.43200679 4.21789302 4.98489083 0 3 C0 2.01 0 1.02 0 0 Z " fill="#FCD9D8" transform="translate(339,229)"/>
<path d="M0 0 C6.435 2.97 6.435 2.97 13 6 C12.01 6.66 11.02 7.32 10 8 C6.59244728 6.07119658 3.25852365 4.1723491 0 2 C0 1.34 0 0.68 0 0 Z " fill="#BB2120" transform="translate(376,187)"/>
<path d="M0 0 C0 0.66 0 1.32 0 2 C-0.928125 2.433125 -1.85625 2.86625 -2.8125 3.3125 C-5.47184073 4.72038627 -7.08105905 5.76123556 -9 8 C-9.99 7.01 -10.98 6.02 -12 5 C-10.37750059 4.16180842 -8.75191503 3.3295884 -7.125 2.5 C-6.22007813 2.0359375 -5.31515625 1.571875 -4.3828125 1.09375 C-2 0 -2 0 0 0 Z " fill="#FEE9E7" transform="translate(1504,48)"/>
<path d="M0 0 C0.66 0.33 1.32 0.66 2 1 C-1.52127761 5.5929708 -5.57747597 6.11941917 -11 7 C-9.60623819 4.21247638 -7.82491442 3.69568885 -5.0625 2.3125 C-4.16660156 1.85488281 -3.27070313 1.39726563 -2.34765625 0.92578125 C-1.57292969 0.62027344 -0.79820312 0.31476562 0 0 Z " fill="#F9D7D6" transform="translate(226,747)"/>
<path d="M0 0 C-1.62249941 0.83819158 -3.24808497 1.6704116 -4.875 2.5 C-6.23238281 3.19609375 -6.23238281 3.19609375 -7.6171875 3.90625 C-10 5 -10 5 -12 5 C-11.67 4.01 -11.34 3.02 -11 2 C-10.34 2.33 -9.68 2.66 -9 3 C-9 2.34 -9 1.68 -9 1 C-3.375 -1.125 -3.375 -1.125 0 0 Z " fill="#B91618" transform="translate(419,650)"/>
<path d="M0 0 C4.23429756 1.31061591 8.07407404 2.94356259 12 5 C8.96083486 5.97687451 7.01586454 6.105817 4 5 C3.34 4.34 2.68 3.68 2 3 C1.34 2.67 0.68 2.34 0 2 C0 1.34 0 0.68 0 0 Z " fill="#B81011" transform="translate(1362,619)"/>
<path d="M0 0 C2.31 0 4.62 0 7 0 C7 0.66 7 1.32 7 2 C8.32 2.66 9.64 3.32 11 4 C10.67 4.66 10.34 5.32 10 6 C6.7 4.35 3.4 2.7 0 1 C0 0.67 0 0.34 0 0 Z " fill="#C22426" transform="translate(397,257)"/>
<path d="M0 0 C0.33 0.66 0.66 1.32 1 2 C2.65391846 2.39171753 4.32345271 2.72057545 6 3 C6.99 3.33 7.98 3.66 9 4 C9.33 4.99 9.66 5.98 10 7 C5.76570244 5.68938409 1.92592596 4.05643741 -2 2 C-1.34 1.34 -0.68 0.68 0 0 Z " fill="#F8CAD0" transform="translate(521,257)"/>
<path d="M0 0 C0 0.66 0 1.32 0 2 C-0.99 2 -1.98 2 -3 2 C-3.33 2.99 -3.66 3.98 -4 5 C-6.31 5.33 -8.62 5.66 -11 6 C-3.8 0 -3.8 0 0 0 Z " fill="#BD1E1F" transform="translate(1000,241)"/>
<path d="M0 0 C1.65 0 3.3 0 5 0 C1.35140239 3.04049801 -2.7444533 4.96518762 -7 7 C-7 6.01 -7 5.02 -7 4 C-4 2 -4 2 0 2 C0 1.34 0 0.68 0 0 Z " fill="#FDE6E2" transform="translate(1420,25)"/>
<path d="M0 0 C0 0.99 0 1.98 0 3 C-2.66666667 4.33333333 -5.33333333 5.66666667 -8 7 C-8.66 6.34 -9.32 5.68 -10 5 C-6.7 3.35 -3.4 1.7 0 0 Z " fill="#1F1E70" transform="translate(198,791)"/>
<path d="M0 0 C3.48670834 1.1094072 6.77484237 2.26337666 10 4 C9.67 4.66 9.34 5.32 9 6 C6.03 5.01 3.06 4.02 0 3 C0 2.01 0 1.02 0 0 Z " fill="#0A095B" transform="translate(1215,699)"/>
<path d="M0 0 C0 0.99 0 1.98 0 3 C-2.20052594 5.20052594 -3.05141896 5.3929392 -6 6 C-7.11375 6.2784375 -7.11375 6.2784375 -8.25 6.5625 C-8.8275 6.706875 -9.405 6.85125 -10 7 C-10 6.34 -10 5.68 -10 5 C-6.7 3.35 -3.4 1.7 0 0 Z " fill="#FEE5E1" transform="translate(321,699)"/>
<path d="M0 0 C4.23429756 1.31061591 8.07407404 2.94356259 12 5 C7.75279253 6.41573582 5.5689976 4.76329613 1.6875 2.875 C1.130625 2.58625 0.57375 2.2975 0 2 C0 1.34 0 0.68 0 0 Z " fill="#BF2026" transform="translate(1278,577)"/>
<path d="M0 0 C0 1.65 0 3.3 0 5 C-5.75 3.25 -5.75 3.25 -8 1 C-2.25 0 -2.25 0 0 0 Z " fill="#171567" transform="translate(636,224)"/>
<path d="M0 0 C0.66 0.33 1.32 0.66 2 1 C-1.88309282 4.64775386 -4.71201818 5.58525633 -10 6 C-6.87511433 3.47605388 -3.68685613 1.60298093 0 0 Z " fill="#FBCDD2" transform="translate(1165,214)"/>
<path d="M0 0 C0.99 0.66 1.98 1.32 3 2 C1.37750059 2.83819158 -0.24808497 3.6704116 -1.875 4.5 C-3.23238281 5.19609375 -3.23238281 5.19609375 -4.6171875 5.90625 C-7 7 -7 7 -9 7 C-9 6.34 -9 5.68 -9 5 C-6.35261084 3.5393715 -5.10551666 3 -2 3 C-2 2.34 -2 1.68 -2 1 C-1.34 0.67 -0.68 0.34 0 0 Z " fill="#BB2025" transform="translate(1586,4)"/>
<path d="M0 0 C-1 3 -1 3 -2.75 4.1875 C-5.29960574 5.10819096 -7.30923081 5.14948718 -10 5 C-3.63636364 0 -3.63636364 0 0 0 Z " fill="#1F1D6D" transform="translate(309,736)"/>
<path d="M0 0 C1.4391134 0.28359887 2.87625518 0.57721399 4.3125 0.875 C5.11300781 1.03742187 5.91351562 1.19984375 6.73828125 1.3671875 C9 2 9 2 12 4 C12 4.66 12 5.32 12 6 C7.76570244 4.68938409 3.92592596 3.05643741 0 1 C0 0.67 0 0.34 0 0 Z " fill="#FFE5E5" transform="translate(1280,577)"/>
<path d="M0 0 C3.465 1.485 3.465 1.485 7 3 C6.34 3.66 5.68 4.32 5 5 C4.01 5 3.02 5 2 5 C1.34 5.66 0.68 6.32 0 7 C0 4.69 0 2.38 0 0 Z " fill="#141067" transform="translate(935,557)"/>
<path d="M0 0 C0 0.66 0 1.32 0 2 C-1.4317616 2.69937202 -2.87067032 3.38412718 -4.3125 4.0625 C-5.51326172 4.63677734 -5.51326172 4.63677734 -6.73828125 5.22265625 C-9 6 -9 6 -12 5 C-10.37750059 4.16180842 -8.75191503 3.3295884 -7.125 2.5 C-6.22007812 2.0359375 -5.31515625 1.571875 -4.3828125 1.09375 C-2 0 -2 0 0 0 Z " fill="#B71514" transform="translate(981,251)"/>
<path d="M0 0 C-4.95 2.475 -4.95 2.475 -10 5 C-10 4.01 -10 3.02 -10 2 C-4.5 -1.125 -4.5 -1.125 0 0 Z " fill="#1A1763" transform="translate(977,222)"/>
<path d="M0 0 C3.63 1.65 7.26 3.3 11 5 C6.58830306 6.10292424 5.04131206 5.88594563 1 4 C0.67 2.68 0.34 1.36 0 0 Z " fill="#B81618" transform="translate(440,219)"/>
<path d="M0 0 C0 0.66 0 1.32 0 2 C-2.1875 4.1875 -2.1875 4.1875 -5 6 C-7.8125 5.75 -7.8125 5.75 -10 5 C-3.63636364 0 -3.63636364 0 0 0 Z " fill="#F9D5D2" transform="translate(1256,170)"/>
<path d="M0 0 C-0.33 1.32 -0.66 2.64 -1 4 C-3.31 4.33 -5.62 4.66 -8 5 C-8 4.34 -8 3.68 -8 3 C-2.25 0 -2.25 0 0 0 Z " fill="#BB191B" transform="translate(1360,59)"/>
<path d="M0 0 C1.65 0 3.3 0 5 0 C5.33 0.66 5.66 1.32 6 2 C3.03 3.32 0.06 4.64 -3 6 C-3 5.34 -3 4.68 -3 4 C-2.34 3.67 -1.68 3.34 -1 3 C-0.67 2.01 -0.34 1.02 0 0 Z " fill="#0C0A5D" transform="translate(1344,32)"/>
<path d="M0 0 C0 0.99 0 1.98 0 3 C1.32 3 2.64 3 4 3 C4.33 3.99 4.66 4.98 5 6 C1.08788267 4.84414715 -1.8745041 3.64465038 -5 1 C-2 0 -2 0 0 0 Z " fill="#B91217" transform="translate(1440,716)"/>
<path d="M0 0 C0.66 0 1.32 0 2 0 C2 1.65 2 3.3 2 5 C2.99 5 3.98 5 5 5 C5 5.66 5 6.32 5 7 C-0.75 5.25 -0.75 5.25 -3 3 C-2.01 3 -1.02 3 0 3 C0 2.01 0 1.02 0 0 Z " fill="#BA0E0F" transform="translate(1422,706)"/>
<path d="M0 0 C0.66 0 1.32 0 2 0 C2 1.65 2 3.3 2 5 C2.99 5 3.98 5 5 5 C5 5.66 5 6.32 5 7 C-0.75 5.25 -0.75 5.25 -3 3 C-2.01 3 -1.02 3 0 3 C0 2.01 0 1.02 0 0 Z " fill="#BA0E0E" transform="translate(1406,698)"/>
<path d="M0 0 C0.66 0 1.32 0 2 0 C2 1.65 2 3.3 2 5 C2.99 5 3.98 5 5 5 C5 5.66 5 6.32 5 7 C-0.75 5.25 -0.75 5.25 -3 3 C-2.01 3 -1.02 3 0 3 C0 2.01 0 1.02 0 0 Z " fill="#BA0E0F" transform="translate(1390,690)"/>
<path d="M0 0 C0.66 0 1.32 0 2 0 C2 1.65 2 3.3 2 5 C2.99 5 3.98 5 5 5 C5 5.66 5 6.32 5 7 C-0.75 5.25 -0.75 5.25 -3 3 C-2.01 3 -1.02 3 0 3 C0 2.01 0 1.02 0 0 Z " fill="#BA0E0E" transform="translate(1374,682)"/>
<path d="M0 0 C0.66 0 1.32 0 2 0 C2 1.65 2 3.3 2 5 C2.99 5 3.98 5 5 5 C5 5.66 5 6.32 5 7 C-0.75 5.25 -0.75 5.25 -3 3 C-2.01 3 -1.02 3 0 3 C0 2.01 0 1.02 0 0 Z " fill="#BA0F0F" transform="translate(1358,674)"/>
<path d="M0 0 C-0.375 1.9375 -0.375 1.9375 -1 4 C-3.6666419 5.33332095 -5.16680303 4.67102033 -8 4 C-2.7826087 0 -2.7826087 0 0 0 Z " fill="#BF2020" transform="translate(258,671)"/>
<path d="M0 0 C0.66 0 1.32 0 2 0 C2 1.65 2 3.3 2 5 C2.99 5 3.98 5 5 5 C5 5.66 5 6.32 5 7 C-0.75 5.25 -0.75 5.25 -3 3 C-2.01 3 -1.02 3 0 3 C0 2.01 0 1.02 0 0 Z " fill="#BA0E0E" transform="translate(1342,666)"/>
<path d="M0 0 C0.66 0 1.32 0 2 0 C2 1.65 2 3.3 2 5 C2.99 5 3.98 5 5 5 C5 5.66 5 6.32 5 7 C-0.75 5.25 -0.75 5.25 -3 3 C-2.01 3 -1.02 3 0 3 C0 2.01 0 1.02 0 0 Z " fill="#BA0F0F" transform="translate(1326,658)"/>
<path d="M0 0 C0.66 0 1.32 0 2 0 C2 1.65 2 3.3 2 5 C2.99 5 3.98 5 5 5 C5 5.66 5 6.32 5 7 C-0.75 5.25 -0.75 5.25 -3 3 C-2.01 3 -1.02 3 0 3 C0 2.01 0 1.02 0 0 Z " fill="#BA0E0E" transform="translate(1310,650)"/>
<path d="M0 0 C3.63 1.65 7.26 3.3 11 5 C8 6 8 6 4.375 4.75 C1 3 1 3 0 0 Z " fill="#C22629" transform="translate(1408,641)"/>
<path d="M0 0 C0.66 0 1.32 0 2 0 C2 1.65 2 3.3 2 5 C2.99 5 3.98 5 5 5 C5 5.66 5 6.32 5 7 C-0.75 5.25 -0.75 5.25 -3 3 C-2.01 3 -1.02 3 0 3 C0 2.01 0 1.02 0 0 Z " fill="#BA0F0F" transform="translate(1294,642)"/>
<path d="M0 0 C0.66 0 1.32 0 2 0 C2 1.65 2 3.3 2 5 C2.99 5 3.98 5 5 5 C5 5.66 5 6.32 5 7 C-0.75 5.25 -0.75 5.25 -3 3 C-2.01 3 -1.02 3 0 3 C0 2.01 0 1.02 0 0 Z " fill="#B90D0D" transform="translate(1278,634)"/>
<path d="M0 0 C4.99911924 0.47610659 7.97832683 2.03162219 12 5 C11.01 5.495 11.01 5.495 10 6 C7.6171875 5.00390625 7.6171875 5.00390625 4.875 3.5625 C3.96492188 3.08941406 3.05484375 2.61632812 2.1171875 2.12890625 C1.41851563 1.75636719 0.71984375 1.38382813 0 1 C0 0.67 0 0.34 0 0 Z " fill="#B7171A" transform="translate(1157,578)"/>
<path d="M0 0 C1.32 0.33 2.64 0.66 4 1 C0.8745041 3.64465038 -2.08788267 4.84414715 -6 6 C-6 5.34 -6 4.68 -6 4 C-5.01 4 -4.02 4 -3 4 C-3 3.34 -3 2.68 -3 2 C-2.01 2 -1.02 2 0 2 C0 1.34 0 0.68 0 0 Z " fill="#C32026" transform="translate(1332,129)"/>
<path d="M0 0 C2.31 0.33 4.62 0.66 7 1 C4.37801226 3.15377564 2.35595828 4.40072174 -1 5 C-0.67 3.35 -0.34 1.7 0 0 Z " fill="#0A0A60" transform="translate(1232,88)"/>
<path d="M0 0 C0.33 0.66 0.66 1.32 1 2 C0.34 2 -0.32 2 -1 2 C-1 2.99 -1 3.98 -1 5 C-3.31 5 -5.62 5 -8 5 C-5.44008376 2.98863724 -2.95409701 1.37154504 0 0 Z " fill="#B6171B" transform="translate(9,795)"/>
<path d="M0 0 C0 0.66 0 1.32 0 2 C-1.62626404 3.38232443 -3.2925002 4.71937515 -5 6 C-7 5 -7 5 -8 3 C-2.25 0 -2.25 0 0 0 Z " fill="#FBDEDF" transform="translate(240,741)"/>
<path d="M0 0 C0 0.66 0 1.32 0 2 C-3.375 2.625 -3.375 2.625 -7 3 C-7.66 2.34 -8.32 1.68 -9 1 C-5.92677456 0.08941469 -3.19902639 -0.08886184 0 0 Z " fill="#C5080C" transform="translate(1440,714)"/>
<path d="M0 0 C-2.85306797 2.32472205 -5.54074837 3.7508258 -9 5 C-9 4.01 -9 3.02 -9 2 C-5.86501708 0.14223235 -3.62528568 -0.20140476 0 0 Z " fill="#21206E" transform="translate(303,559)"/>
<path d="M0 0 C1.65 0 3.3 0 5 0 C4.67 0.99 4.34 1.98 4 3 C1.4375 4.1875 1.4375 4.1875 -1 5 C-1.33 4.34 -1.66 3.68 -2 3 C-1.34 3 -0.68 3 0 3 C0 2.01 0 1.02 0 0 Z " fill="#C20F11" transform="translate(635,535)"/>
<path d="M0 0 C0 3 0 3 -1 5 C-3.31 5 -5.62 5 -8 5 C-5.44008376 2.98863724 -2.95409701 1.37154504 0 0 Z " fill="#AB2224" transform="translate(961,260)"/>
<path d="M0 0 C-4.95 2.475 -4.95 2.475 -10 5 C-10.33 4.34 -10.66 3.68 -11 3 C-10.01 3 -9.02 3 -8 3 C-7.67 2.01 -7.34 1.02 -7 0 C-4.05610218 -1.17755913 -3.10046087 -1.03348696 0 0 Z " fill="#FEE5E0" transform="translate(1008,237)"/>
<path d="M0 0 C4.455 1.98 4.455 1.98 9 4 C9 4.33 9 4.66 9 5 C5.625 4.75 5.625 4.75 2 4 C1.34 2.68 0.68 1.36 0 0 Z " fill="#B81519" transform="translate(80,40)"/>
<path d="M0 0 C-3.1254959 2.64465038 -6.08788267 3.84414715 -10 5 C-10 4.34 -10 3.68 -10 3 C-9.01 3 -8.02 3 -7 3 C-7 2.34 -7 1.68 -7 1 C-4.53721199 -0.231394 -2.7204945 -0.07159196 0 0 Z " fill="#B81C1B" transform="translate(1599,0)"/>
<path d="M0 0 C0.86625 0.556875 0.86625 0.556875 1.75 1.125 C-4 4.125 -4 4.125 -6.25 4.125 C-6.25 3.135 -6.25 2.145 -6.25 1.125 C-2.80384615 -1.09038462 -2.80384615 -1.09038462 0 0 Z " fill="#0E0B67" transform="translate(244.25,769.875)"/>
<path d="M0 0 C0.86625 0.556875 0.86625 0.556875 1.75 1.125 C-4 4.125 -4 4.125 -6.25 4.125 C-6.25 3.135 -6.25 2.145 -6.25 1.125 C-2.80384615 -1.09038462 -2.80384615 -1.09038462 0 0 Z " fill="#B30D0D" transform="translate(181.25,768.875)"/>
<path d="M0 0 C0 0.66 0 1.32 0 2 C-1.64333504 3.03789581 -3.31243867 4.03567924 -5 5 C-5.66 5.66 -6.32 6.32 -7 7 C-7 6.34 -7 5.68 -7 5 C-7.66 4.67 -8.32 4.34 -9 4 C-2.25 0 -2.25 0 0 0 Z " fill="#FADAD7" transform="translate(334,693)"/>
<path d="M0 0 C-2.62198774 2.15377564 -4.64404172 3.40072174 -8 4 C-8 3.01 -8 2.02 -8 1 C-5.29120665 -0.35439668 -2.99066732 -0.06501451 0 0 Z " fill="#BC1515" transform="translate(470,623)"/>
<path d="M0 0 C0.66 0.99 1.32 1.98 2 3 C-0.375 4.5625 -0.375 4.5625 -3 6 C-5 5 -5 5 -6 3 C-4.02 2.01 -2.04 1.02 0 0 Z " fill="#1A136E" transform="translate(630,573)"/>
<path d="M0 0 C0.66 0.33 1.32 0.66 2 1 C1.01 1.33 0.02 1.66 -1 2 C-2.20882096 4.00016466 -2.20882096 4.00016466 -3 6 C-3.66 6 -4.32 6 -5 6 C-5.33 5.01 -5.66 4.02 -6 3 C-4.03533587 1.93224776 -2.03144641 0.93446535 0 0 Z " fill="#1E1A68" transform="translate(1273,252)"/>
<path d="M0 0 C3.48539917 0.64544429 6.02819057 2.10134397 9 4 C8.67 4.66 8.34 5.32 8 6 C5.36 4.68 2.72 3.36 0 2 C0 1.34 0 0.68 0 0 Z " fill="#10105D" transform="translate(567,193)"/>
<path d="M0 0 C0.66 0 1.32 0 2 0 C2 1.65 2 3.3 2 5 C-0.4375 4.625 -0.4375 4.625 -3 4 C-3.33 3.34 -3.66 2.68 -4 2 C-2.68 2 -1.36 2 0 2 C0 1.34 0 0.68 0 0 Z " fill="#BD1715" transform="translate(230,170)"/>
<path d="M0 0 C-0.66 1.65 -1.32 3.3 -2 5 C-4.97 4.505 -4.97 4.505 -8 4 C-2.7826087 0 -2.7826087 0 0 0 Z " fill="#B91311" transform="translate(1305,87)"/>
<path d="M0 0 C1.65 0.33 3.3 0.66 5 1 C2.37801226 3.15377564 0.35595828 4.40072174 -3 5 C-3 4.01 -3 3.02 -3 2 C-2.01 2 -1.02 2 0 2 C0 1.34 0 0.68 0 0 Z " fill="#B70B09" transform="translate(1555,18)"/>
<path d="M0 0 C1.625 1.375 1.625 1.375 3 3 C3 3.66 3 4.32 3 5 C-2.75 3.25 -2.75 3.25 -5 1 C-2 0 -2 0 0 0 Z " fill="#B81110" transform="translate(1336,664)"/>
<path d="M0 0 C1.625 1.375 1.625 1.375 3 3 C3 3.66 3 4.32 3 5 C-2.75 3.25 -2.75 3.25 -5 1 C-2 0 -2 0 0 0 Z " fill="#B81110" transform="translate(1304,648)"/>
<path d="M0 0 C0 0.66 0 1.32 0 2 C1.32 2.33 2.64 2.66 4 3 C4 3.66 4 4.32 4 5 C-1.75 3.25 -1.75 3.25 -4 1 C-2 0 -2 0 0 0 Z " fill="#DCE0EF" transform="translate(1110,642)"/>
<path d="M0 0 C-2.97 1.32 -5.94 2.64 -9 4 C-8.67 2.68 -8.34 1.36 -8 0 C-4.71303767 -0.79953138 -3.28976808 -1.09658936 0 0 Z " fill="#BA211E" transform="translate(480,619)"/>
<path d="M0 0 C0 0.66 0 1.32 0 2 C-2.90548882 4.04169485 -4.40142046 5 -8 5 C-8 4.34 -8 3.68 -8 3 C-2.25 0 -2.25 0 0 0 Z " fill="#FEE3E0" transform="translate(529,594)"/>
<path d="M0 0 C0.66 0.33 1.32 0.66 2 1 C1.34 2.32 0.68 3.64 0 5 C-2.97 4.505 -2.97 4.505 -6 4 C-4.03617993 2.49440461 -2.21736634 1.10868317 0 0 Z " fill="#BB1A18" transform="translate(472,563)"/>
<path d="M0 0 C0.99 0.33 1.98 0.66 3 1 C0.64031256 3.09749995 -0.54616994 3.96905704 -3.75 4.1875 C-4.86375 4.0946875 -4.86375 4.0946875 -6 4 C-4.03617993 2.49440461 -2.21736634 1.10868317 0 0 Z " fill="#201C6D" transform="translate(1297,240)"/>
<path d="M0 0 C0.99 0.33 1.98 0.66 3 1 C0.64031256 3.09749995 -0.54616994 3.96905704 -3.75 4.1875 C-4.86375 4.0946875 -4.86375 4.0946875 -6 4 C-4.03617993 2.49440461 -2.21736634 1.10868317 0 0 Z " fill="#201C6D" transform="translate(1329,224)"/>
<path d="M0 0 C0.99 0.33 1.98 0.66 3 1 C0.64031256 3.09749995 -0.54616994 3.96905704 -3.75 4.1875 C-4.86375 4.0946875 -4.86375 4.0946875 -6 4 C-4.03617993 2.49440461 -2.21736634 1.10868317 0 0 Z " fill="#201C6D" transform="translate(1361,208)"/>
<path d="M0 0 C2.97 0.495 2.97 0.495 6 1 C3.82575883 3.50037734 2.26954202 4.43628586 -1 5 C-0.67 3.35 -0.34 1.7 0 0 Z " fill="#BC1517" transform="translate(1185,200)"/>
<path d="M0 0 C0.99 0.33 1.98 0.66 3 1 C0.64031256 3.09749995 -0.54616994 3.96905704 -3.75 4.1875 C-4.86375 4.0946875 -4.86375 4.0946875 -6 4 C-4.03617993 2.49440461 -2.21736634 1.10868317 0 0 Z " fill="#201C6D" transform="translate(1393,192)"/>
<path d="M0 0 C0.99 0.33 1.98 0.66 3 1 C0.64031256 3.09749995 -0.54616994 3.96905704 -3.75 4.1875 C-4.86375 4.0946875 -4.86375 4.0946875 -6 4 C-4.03617993 2.49440461 -2.21736634 1.10868317 0 0 Z " fill="#201C6D" transform="translate(1425,176)"/>
<path d="M0 0 C0.99 0.33 1.98 0.66 3 1 C0.64031256 3.09749995 -0.54616994 3.96905704 -3.75 4.1875 C-4.86375 4.0946875 -4.86375 4.0946875 -6 4 C-4.03617993 2.49440461 -2.21736634 1.10868317 0 0 Z " fill="#201C6D" transform="translate(1457,160)"/>
<path d="M0 0 C0.99 0.33 1.98 0.66 3 1 C0.64031256 3.09749995 -0.54616994 3.96905704 -3.75 4.1875 C-4.86375 4.0946875 -4.86375 4.0946875 -6 4 C-4.03617993 2.49440461 -2.21736634 1.10868317 0 0 Z " fill="#201C6D" transform="translate(1489,144)"/>
<path d="M0 0 C0.99 0.33 1.98 0.66 3 1 C0.64031256 3.09749995 -0.54616994 3.96905704 -3.75 4.1875 C-4.86375 4.0946875 -4.86375 4.0946875 -6 4 C-4.03617993 2.49440461 -2.21736634 1.10868317 0 0 Z " fill="#201C6D" transform="translate(1521,128)"/>
<path d="M0 0 C0.99 0.33 1.98 0.66 3 1 C0.64031256 3.09749995 -0.54616994 3.96905704 -3.75 4.1875 C-4.86375 4.0946875 -4.86375 4.0946875 -6 4 C-4.03617993 2.49440461 -2.21736634 1.10868317 0 0 Z " fill="#201C6D" transform="translate(1553,112)"/>
<path d="M0 0 C0.99 0.33 1.98 0.66 3 1 C0.64031256 3.09749995 -0.54616994 3.96905704 -3.75 4.1875 C-4.86375 4.0946875 -4.86375 4.0946875 -6 4 C-4.03617993 2.49440461 -2.21736634 1.10868317 0 0 Z " fill="#201C6D" transform="translate(1585,96)"/>
<path d="M0 0 C0 0.99 0 1.98 0 3 C-3.465 4.485 -3.465 4.485 -7 6 C-7.33 5.34 -7.66 4.68 -8 4 C-5.36 2.68 -2.72 1.36 0 0 Z " fill="#BE242A" transform="translate(1350,63)"/>
<path d="M0 0 C-0.33 1.32 -0.66 2.64 -1 4 C-3.31 4 -5.62 4 -8 4 C-2.7826087 0 -2.7826087 0 0 0 Z " fill="#BA1518" transform="translate(1376,51)"/>
<path d="M0 0 C2.31 0 4.62 0 7 0 C7.33 1.32 7.66 2.64 8 4 C2.25 2.25 2.25 2.25 0 0 Z " fill="#FEE0DC" transform="translate(1,0)"/>
</svg>
