<svg xmlns="http://www.w3.org/2000/svg" width="960" height="264" viewBox="0 0 960 264">
<g>
<path d="M 124.56 241.91 C119.65,245.26 115.14,248.00 114.54,248.00 C112.37,248.00 97.31,238.76 88.37,231.95 C61.82,211.73 40.04,181.86 28.25,149.50 C18.30,122.19 16.00,104.15 16.00,53.26 L 16.00 16.00 L 212.00 16.00 L 212.00 59.01 C212.00,105.28 211.47,112.27 206.53,131.27 C195.25,174.70 166.79,213.11 124.56,241.91 ZM 105.50 240.83 C109.35,243.12 113.18,244.99 114.00,244.99 C116.05,244.99 120.51,242.17 131.74,233.77 C167.47,207.03 193.13,170.85 203.47,132.64 C208.92,112.50 209.19,109.41 209.71,62.25 L 210.19 18.00 L 18.00 18.00 L 18.00 51.75 C18.01,70.31 18.48,90.68 19.06,97.00 C22.51,134.80 35.60,169.59 56.87,197.50 C68.86,213.22 88.52,230.74 105.50,240.83 ZM 135.86 204.10 C125.21,204.46 115.38,205.05 114.00,205.40 C112.62,205.76 110.82,205.59 110.00,205.04 C109.12,204.45 100.36,204.02 88.80,204.02 L 69.10 204.00 L 68.80 197.76 L 68.50 191.53 L 64.65 190.90 C60.71,190.27 59.04,188.78 59.02,185.87 C58.99,183.27 61.83,181.61 67.25,181.07 C67.66,181.03 68.00,175.60 68.00,169.00 L 68.00 157.00 L 65.00 157.00 C61.88,157.00 58.00,154.02 58.00,151.62 C58.00,149.70 60.31,147.99 63.66,147.42 C68.74,146.56 69.00,146.26 69.00,141.14 C69.00,135.83 69.80,135.00 74.96,135.00 C76.50,135.00 78.31,134.34 78.98,133.53 C80.05,132.23 80.58,132.25 83.35,133.68 C86.64,135.39 101.58,135.65 129.00,134.47 C156.97,133.28 158.00,133.51 158.00,141.04 C158.00,145.82 158.10,146.00 160.85,146.00 C162.42,146.00 164.50,146.89 165.50,148.00 C167.97,150.73 166.44,153.94 161.95,155.38 L 158.50 156.50 L 157.94 180.73 L 160.36 180.27 C164.42,179.50 167.16,181.64 166.81,185.32 C166.54,188.09 165.95,188.67 162.25,189.84 C158.14,191.15 158.00,191.32 158.00,195.40 C158.00,203.25 157.76,203.34 135.86,204.10 ZM 911.00 128.47 C907.25,129.63 901.21,130.26 892.00,130.44 C874.53,130.78 854.99,130.13 855.04,129.22 C855.06,128.82 856.52,127.59 858.29,126.48 L 861.50 124.46 L 861.76 87.31 C861.99,54.53 861.84,49.98 860.44,48.58 C859.57,47.71 857.99,47.00 856.93,47.00 C855.87,47.00 855.00,46.40 855.00,45.66 C855.00,43.84 896.56,42.53 905.91,44.05 C931.73,48.26 945.30,64.65 943.74,89.73 C943.30,96.81 942.62,99.39 939.59,105.52 C934.01,116.80 924.76,124.23 911.00,128.47 ZM 69.56 112.53 C67.22,114.30 67.15,114.30 64.00,112.50 C62.24,111.49 57.79,111.03 49.00,110.94 C31.80,110.75 31.62,110.68 31.00,104.00 C30.52,98.77 30.38,98.55 27.12,97.89 C23.58,97.17 22.04,95.64 22.02,92.81 C22.00,90.67 25.73,88.00 28.72,88.00 C30.95,88.00 31.00,87.78 31.00,77.08 C31.00,64.48 30.63,63.00 27.47,63.00 C23.52,63.00 22.00,61.91 22.00,59.09 C22.00,55.64 23.68,54.00 27.20,54.00 C29.85,54.00 30.00,53.76 30.00,49.57 C30.00,44.21 31.90,42.00 36.51,42.00 C38.37,42.00 40.18,41.52 40.54,40.93 C40.91,40.34 41.94,40.19 42.85,40.59 C45.13,41.58 64.43,42.92 76.40,42.91 C83.29,42.90 87.19,42.43 89.24,41.38 C91.89,40.01 92.36,40.01 93.92,41.43 C94.88,42.29 97.07,43.00 98.79,43.00 C102.40,43.00 104.30,45.56 103.86,49.81 C103.48,53.40 104.61,55.00 107.52,55.00 C109.75,55.00 112.00,57.45 112.00,59.86 C112.00,61.65 108.91,64.00 106.57,64.00 C104.51,64.00 104.22,64.60 103.64,70.15 C103.29,73.53 103.00,78.71 103.00,81.67 C103.00,86.60 103.23,87.13 105.75,88.13 C110.84,90.14 111.50,90.69 111.81,93.25 C112.15,96.14 108.97,99.00 105.42,99.00 C103.60,99.00 103.19,99.74 102.68,104.02 C102.36,106.79 101.82,109.49 101.49,110.02 C101.14,110.58 94.63,111.01 86.19,111.03 C74.86,111.06 71.06,111.40 69.56,112.53 ZM 163.57 112.03 C162.33,113.27 157.94,113.26 156.00,112.00 C155.18,111.47 148.51,111.02 141.18,111.02 C133.86,111.01 127.00,110.53 125.93,109.96 C124.38,109.14 124.00,107.84 124.00,103.46 C124.00,98.08 123.96,98.00 121.06,98.00 C119.19,98.00 117.57,97.22 116.63,95.88 C114.43,92.73 115.98,89.69 120.36,88.57 L 124.00 87.65 L 124.00 63.00 L 121.19 63.00 C116.75,63.00 115.09,61.10 116.16,57.25 C116.95,54.38 117.46,54.00 120.53,54.00 L 124.00 54.00 L 124.00 49.20 C124.00,43.42 125.21,42.00 130.14,42.00 C132.20,42.00 134.18,41.52 134.54,40.93 C134.91,40.34 135.94,40.19 136.85,40.59 C142.01,42.88 177.65,43.59 182.63,41.51 C185.34,40.38 186.13,40.38 187.67,41.55 C188.68,42.31 190.94,42.95 192.69,42.97 C196.60,43.01 197.33,44.08 197.25,49.66 C197.21,52.05 197.59,54.00 198.09,54.00 C198.59,54.00 199.00,54.49 199.00,55.08 C199.00,55.68 198.44,55.98 197.75,55.76 C197.06,55.53 196.27,53.13 196.00,50.43 C195.62,46.67 195.07,45.43 193.64,45.16 C191.93,44.84 191.82,45.36 192.35,51.66 C192.67,55.42 192.56,65.03 192.12,73.00 L 191.32 87.50 L 191.16 68.33 C190.99,48.36 190.70,46.00 188.39,46.00 C186.24,46.00 186.34,97.21 188.50,99.00 C189.80,100.08 190.00,99.62 190.00,95.62 C190.00,93.08 190.45,91.00 191.00,91.00 C192.08,91.00 192.39,100.82 191.39,103.42 C190.89,104.73 188.87,105.00 179.47,105.00 C167.95,105.00 164.58,105.51 165.56,107.10 C166.47,108.58 192.57,108.23 193.81,106.72 C194.40,106.02 195.01,103.21 195.19,100.47 C195.50,95.51 195.51,95.50 199.25,95.19 C201.31,95.02 203.00,94.46 203.00,93.94 C203.00,93.42 203.03,92.68 203.06,92.29 C203.09,91.89 201.41,91.09 199.31,90.50 L 195.50 89.44 L 195.50 61.50 L 199.49 61.00 C204.21,60.41 205.56,57.56 201.82,56.06 L 199.50 55.13 L 201.71 55.06 C204.31,54.99 206.28,58.07 205.32,60.68 C204.45,63.02 203.03,63.97 200.36,63.98 C197.41,64.01 197.00,65.63 197.00,77.42 L 197.00 87.68 L 200.99 88.88 C203.99,89.78 205.14,90.73 205.64,92.71 C206.42,95.81 203.27,99.00 199.41,99.00 C196.90,99.00 196.28,100.36 195.77,107.00 L 195.50 110.50 L 180.02 110.78 C171.51,110.93 164.11,111.49 163.57,112.03 ZM 838.88 131.38 C826.53,133.84 818.51,129.45 807.35,114.09 C793.03,94.37 790.47,91.92 782.73,90.56 L 778.95 89.90 L 779.23 107.20 L 779.50 124.50 L 783.25 126.50 C785.31,127.60 786.88,128.86 786.73,129.29 C786.37,130.39 757.64,130.43 757.28,129.33 C757.11,128.84 758.33,127.94 759.98,127.31 C761.70,126.67 763.41,125.04 763.99,123.53 C765.45,119.68 765.34,53.84 763.86,50.60 C763.24,49.22 761.44,47.65 759.86,47.10 C752.87,44.67 757.26,44.00 780.32,44.00 C807.77,44.00 811.61,44.74 818.43,51.30 C827.52,60.05 827.10,73.44 817.48,81.88 C814.02,84.92 811.57,86.26 805.54,88.40 C803.69,89.06 803.72,89.21 806.18,91.30 C807.61,92.51 813.50,99.83 819.28,107.57 C830.23,122.23 833.63,125.78 838.87,127.94 C842.83,129.59 842.84,130.58 838.88,131.38 ZM 565.75 131.37 C562.76,132.17 556.11,132.01 552.99,131.07 C545.58,128.81 541.24,124.88 532.53,112.50 C519.80,94.43 517.26,92.08 508.75,90.57 L 505.00 89.91 L 505.00 122.82 L 508.08 125.41 C509.77,126.83 511.61,128.00 512.16,128.00 C512.71,128.00 513.00,128.50 512.80,129.11 C512.30,130.59 483.68,130.53 483.18,129.04 C482.99,128.47 483.57,128.00 484.46,128.00 C485.36,128.00 487.20,126.90 488.55,125.55 L 491.00 123.09 L 491.00 87.48 C491.00,66.16 490.61,51.13 490.02,50.04 C489.48,49.03 487.68,47.74 486.02,47.16 C484.36,46.58 483.00,45.60 483.00,44.99 C483.00,44.19 490.17,43.96 508.25,44.19 C531.51,44.48 533.86,44.67 538.09,46.62 C546.81,50.66 551.00,57.11 551.00,66.51 C551.00,77.31 545.05,84.04 531.58,88.44 C529.72,89.05 529.73,89.12 531.80,90.57 C532.97,91.39 538.07,97.57 543.12,104.28 C556.94,122.67 558.78,124.71 563.58,127.04 C568.53,129.43 569.06,130.48 565.75,131.37 ZM 878.75 124.28 C884.50,125.15 895.11,124.96 900.20,123.88 C912.48,121.30 920.82,114.87 925.86,104.12 C928.23,99.07 928.50,97.34 928.50,87.00 C928.50,76.70 928.23,74.92 925.90,69.95 C920.95,59.40 913.12,52.94 902.15,50.36 C896.18,48.96 884.36,48.58 879.12,49.62 L 876.00 50.25 L 876.00 123.87 ZM 302.00 129.25 C302.00,130.77 275.16,131.07 274.23,129.56 C273.91,129.04 274.15,128.45 274.77,128.24 C275.39,128.04 277.05,126.96 278.45,125.86 L 281.00 123.85 L 281.00 87.08 C281.00,53.30 280.86,50.19 279.25,48.81 C278.29,47.98 276.71,47.02 275.75,46.68 C274.79,46.34 274.00,45.60 274.00,45.03 C274.00,44.37 279.05,44.00 288.00,44.00 C301.77,44.00 305.12,44.86 299.56,46.98 C295.45,48.54 294.93,50.94 295.22,66.73 L 295.50 81.50 L 320.27 81.77 L 345.05 82.04 L 344.77 65.28 L 344.50 48.52 L 341.75 47.21 C336.48,44.69 338.89,44.00 353.00,44.00 C365.95,44.00 370.14,44.87 365.01,46.50 C364.03,46.81 363.25,47.03 362.62,47.48 C360.00,49.32 360.00,54.89 360.00,85.46 L 360.00 87.11 L 360.00 124.07 L 363.50 126.13 C365.42,127.27 367.00,128.60 367.00,129.10 C367.00,129.59 360.70,130.00 353.00,130.00 C345.30,130.00 339.00,129.66 339.01,129.25 C339.01,128.84 340.36,127.73 342.01,126.80 L 345.00 125.09 L 345.00 89.00 L 295.00 89.00 L 295.00 106.05 C295.00,122.81 295.04,123.13 297.45,125.55 C298.80,126.90 300.38,128.00 300.95,128.00 C301.53,128.00 302.00,128.56 302.00,129.25 ZM 680.00 129.57 C680.00,130.73 677.76,131.00 668.06,131.00 C659.90,131.00 655.88,130.62 655.38,129.81 C654.96,129.13 655.26,128.42 656.07,128.15 C656.86,127.90 659.10,126.07 661.06,124.10 C663.96,121.16 667.39,113.78 679.68,84.00 C687.97,63.92 695.02,46.71 695.34,45.75 C695.77,44.48 697.02,44.00 699.89,44.00 C703.57,44.00 703.93,44.26 705.08,47.75 C706.07,50.78 723.17,90.09 735.22,117.03 C737.48,122.08 742.80,128.00 745.08,128.00 C745.58,128.00 746.00,128.56 746.00,129.25 C746.00,130.20 742.49,130.46 731.27,130.32 C717.50,130.15 712.79,129.15 717.95,127.52 C722.94,125.93 722.73,122.29 716.86,109.36 L 713.96 102.95 L 680.72 103.50 L 677.30 112.97 C673.63,123.15 673.76,126.15 677.94,127.48 C679.07,127.84 680.00,128.78 680.00,129.57 ZM 404.66 129.50 C404.48,130.07 399.18,130.62 392.29,130.78 C382.75,131.00 380.13,130.77 379.71,129.67 C379.37,128.80 380.42,127.69 382.54,126.68 C384.39,125.80 386.63,123.97 387.52,122.62 C389.20,120.04 416.79,54.29 418.93,47.75 C420.09,44.19 420.37,44.00 424.45,44.00 C428.38,44.00 428.80,44.24 429.32,46.87 C429.91,49.82 455.75,109.19 460.72,119.00 C462.70,122.91 464.58,125.08 467.25,126.50 C469.31,127.60 470.85,128.93 470.68,129.45 C470.38,130.35 442.00,130.32 441.10,129.43 C440.88,129.21 441.89,128.09 443.35,126.94 C446.87,124.17 446.73,122.11 442.31,111.75 L 438.59 103.00 L 405.44 103.00 L 402.21 111.75 C398.17,122.70 398.14,124.60 401.99,126.80 C403.64,127.73 404.84,128.95 404.66,129.50 ZM 621.83 121.25 L 617.75 131.00 L 614.13 130.99 C610.59,130.97 610.42,130.80 607.34,123.74 C595.95,97.71 574.47,52.11 572.67,50.14 C571.47,48.85 569.49,47.40 568.25,46.92 C562.78,44.80 566.43,44.00 581.50,44.00 C590.89,44.00 597.00,44.38 597.00,44.97 C597.00,45.51 595.65,46.65 594.00,47.50 C592.11,48.47 591.00,49.83 591.00,51.15 C591.00,53.32 616.09,110.99 617.04,111.00 C617.33,111.00 620.89,103.01 624.95,93.25 C642.99,49.85 643.03,49.72 637.75,47.20 C632.59,44.74 634.85,44.00 647.50,44.00 C657.51,44.00 660.00,44.28 660.00,45.39 C660.00,46.16 658.90,47.06 657.54,47.40 C656.19,47.74 653.94,49.52 652.54,51.35 C650.39,54.18 639.50,78.95 621.83,121.25 ZM 97.50 191.00 C104.65,191.27 110.84,191.36 111.25,191.19 C111.66,191.02 112.00,185.73 112.00,179.44 C112.00,169.94 111.75,168.00 110.50,168.00 C109.11,168.00 108.88,168.62 108.60,173.16 C108.46,175.43 107.37,176.36 105.62,175.68 C104.37,175.21 104.44,174.56 106.08,171.35 C107.13,169.27 108.00,166.77 108.00,165.79 C108.00,164.80 108.45,164.00 109.00,164.00 C109.55,164.00 110.00,164.45 110.00,165.00 C110.00,165.55 111.12,166.00 112.50,166.00 C115.33,166.00 115.45,165.58 113.88,161.09 C113.11,158.88 112.30,158.06 111.27,158.45 C110.16,158.88 109.96,158.58 110.51,157.26 C111.75,154.32 112.17,140.61 111.08,139.00 C110.28,137.81 107.60,137.49 98.28,137.45 C91.80,137.42 85.49,137.03 84.25,136.58 L 82.00 135.77 L 82.00 162.32 C82.00,182.47 82.30,189.08 83.25,189.69 C83.94,190.14 90.35,190.73 97.50,191.00 ZM 113.82 182.25 L 114.00 191.50 L 128.24 191.17 C136.14,190.99 143.05,190.38 143.74,189.80 C144.69,189.01 145.00,182.31 145.00,162.27 C145.00,137.41 144.89,135.84 143.25,136.59 C142.29,137.03 135.43,137.64 128.00,137.95 L 114.50 138.50 L 114.18 142.91 C113.99,145.65 114.83,150.39 116.41,155.41 C117.81,159.86 119.42,165.36 119.99,167.63 C120.55,169.91 121.69,172.32 122.51,173.01 C124.80,174.91 124.29,176.00 121.13,176.00 C118.54,176.00 118.19,175.59 117.60,171.93 C117.10,168.80 116.56,167.94 115.23,168.19 C114.18,168.40 113.53,169.40 113.57,170.76 C113.61,171.99 113.72,177.16 113.82,182.25 ZM 67.91 98.00 C68.07,98.87 89.46,97.88 90.42,96.95 C90.92,96.47 91.54,84.42 91.80,70.19 L 92.26 44.32 L 81.38 44.76 C75.19,45.02 69.99,45.71 69.32,46.36 C68.48,47.17 68.09,54.78 67.98,72.50 C67.89,86.25 67.86,97.72 67.91,98.00 ZM 161.63 72.55 L 160.96 98.60 L 171.75 98.50 C177.68,98.45 183.09,98.06 183.77,97.64 C184.69,97.07 185.00,90.30 185.00,70.33 C185.00,46.54 184.84,43.85 183.42,44.39 C182.55,44.73 177.94,45.01 173.17,45.02 C168.40,45.02 164.01,45.36 163.40,45.77 C162.68,46.25 162.07,55.43 161.63,72.55 ZM 44.53 96.65 C45.77,97.55 49.43,98.00 55.58,98.00 L 64.78 98.00 L 65.51 73.66 C65.91,60.27 65.95,48.41 65.60,47.31 C65.03,45.53 63.80,45.23 54.78,44.68 C49.19,44.34 44.50,44.17 44.36,44.30 C44.23,44.44 43.80,55.96 43.40,69.92 C42.73,93.91 42.79,95.37 44.53,96.65 ZM 138.75 97.31 C139.71,97.56 144.37,97.82 149.10,97.88 L 157.71 98.00 L 158.35 90.35 C159.23,79.94 159.15,46.77 158.23,45.39 C157.78,44.69 153.64,44.27 147.25,44.25 L 137.00 44.23 L 137.00 70.54 C137.00,94.76 137.14,96.89 138.75,97.31 ZM 673.44 217.10 C670.58,218.22 669.90,218.14 665.38,216.08 C662.32,214.70 659.78,212.15 655.54,206.23 C650.19,198.76 646.93,196.00 643.45,196.00 C642.29,196.00 642.00,197.78 642.00,204.88 C642.00,212.95 642.20,213.90 644.25,215.33 C646.38,216.81 646.06,216.90 638.50,216.92 C631.15,216.93 630.66,216.81 632.50,215.43 C634.34,214.04 634.53,212.54 634.82,196.73 C635.17,177.89 634.68,173.00 632.45,173.00 C631.65,173.00 631.00,172.65 631.00,172.21 C631.00,171.04 656.09,171.54 659.12,172.78 C662.95,174.35 666.00,178.73 666.00,182.68 C666.00,187.76 663.59,191.50 658.79,193.88 C656.43,195.04 655.00,196.00 655.62,196.00 C656.23,196.00 659.61,199.79 663.12,204.43 C666.63,209.07 670.82,213.64 672.44,214.60 C675.14,216.20 675.22,216.40 673.44,217.10 ZM 507.25 85.29 C516.55,87.09 527.90,84.80 532.23,80.27 C537.56,74.69 538.62,65.43 534.73,58.56 C530.89,51.77 522.54,48.69 510.88,49.74 L 505.00 50.28 L 505.00 67.57 C505.00,84.71 505.02,84.86 507.25,85.29 ZM 781.25 85.35 C786.50,86.50 797.54,85.30 801.79,83.12 C811.75,78.01 814.03,64.47 806.36,55.98 C801.57,50.67 797.11,49.47 783.75,49.86 L 779.00 50.00 L 779.00 67.43 C779.00,84.69 779.02,84.87 781.25,85.35 ZM 457.86 217.04 C455.21,217.37 445.74,217.40 445.43,217.09 C445.20,216.87 445.91,216.05 447.01,215.28 C448.88,213.97 449.00,212.73 449.00,194.07 C449.00,174.64 448.95,174.21 446.75,172.67 C444.58,171.16 444.68,171.10 449.67,171.05 L 454.84 171.00 L 469.15 188.00 C477.02,197.35 483.80,205.00 484.23,205.00 C484.65,205.00 485.00,198.48 485.00,190.50 C485.00,177.33 484.82,175.82 483.00,174.00 C481.90,172.90 481.00,171.88 481.00,171.73 C481.00,171.59 483.70,171.47 487.00,171.47 C493.03,171.47 494.71,172.32 491.00,173.50 C489.08,174.11 489.00,175.01 489.00,196.07 C489.00,208.13 488.65,218.00 488.22,218.00 C485.98,218.00 479.81,211.96 467.82,198.02 L 454.50 182.55 L 454.22 198.02 C453.94,212.81 454.03,213.58 456.08,215.25 C457.26,216.21 458.06,217.02 457.86,217.04 ZM 618.30 212.77 L 617.74 217.00 L 583.85 217.00 L 585.93 214.37 C587.84,211.93 588.00,210.43 587.99,194.62 C587.97,176.35 587.57,173.00 585.38,173.00 C584.62,173.00 584.00,172.55 584.00,172.00 C584.00,171.37 590.17,171.00 600.50,171.00 C616.97,171.00 617.00,171.00 616.93,173.25 C616.89,174.49 616.54,176.32 616.14,177.32 C615.47,179.03 615.33,179.02 613.56,177.07 C611.95,175.29 610.51,175.00 603.35,175.00 L 595.00 175.00 L 595.00 191.00 L 601.96 191.00 C607.83,191.00 609.24,190.66 610.96,188.81 L 613.00 186.62 L 613.00 192.47 C613.00,198.06 612.92,198.24 611.17,196.65 C609.83,195.44 607.44,195.00 602.13,195.00 L 594.92 195.00 L 595.50 213.50 L 604.34 213.50 C612.83,213.50 613.27,213.39 615.64,210.63 C616.99,209.06 618.28,207.94 618.49,208.15 C618.70,208.37 618.62,210.44 618.30,212.77 ZM 422.06 215.39 C417.82,217.87 406.83,218.53 401.68,216.61 C392.42,213.16 391.00,209.58 391.00,189.65 C391.00,175.20 390.87,174.16 388.94,172.87 C387.09,171.65 387.67,171.49 394.44,171.40 C398.60,171.34 402.00,171.45 402.00,171.65 C402.00,171.84 401.05,172.95 399.89,174.11 C397.90,176.10 397.81,177.04 398.15,191.04 C398.47,204.06 398.76,206.20 400.55,208.60 C406.54,216.62 422.38,214.48 424.93,205.30 C425.51,203.21 425.99,195.56 425.99,188.29 C426.00,176.46 425.80,174.89 424.04,173.25 C422.13,171.48 422.23,171.43 428.04,171.47 C434.45,171.50 435.07,171.85 432.07,173.73 C430.31,174.82 430.11,176.40 429.82,191.40 C429.47,209.65 428.91,211.38 422.06,215.39 ZM 564.07 196.02 C557.24,211.99 554.87,216.57 553.33,216.80 C551.64,217.05 549.98,214.01 542.11,196.30 C536.36,183.35 531.94,174.72 530.39,173.43 L 527.91 171.35 L 535.95 171.42 C540.38,171.46 544.00,171.83 544.00,172.24 C544.00,172.66 543.54,173.00 542.97,173.00 C542.40,173.00 541.70,173.62 541.41,174.38 C540.67,176.29 554.10,206.30 555.19,205.21 C556.99,203.41 567.88,175.85 567.34,174.45 C567.04,173.65 566.16,173.00 565.39,173.00 C564.63,173.00 564.00,172.61 564.00,172.13 C564.00,171.65 567.13,171.32 570.95,171.38 L 577.90 171.50 L 575.37 173.52 C573.65,174.89 569.98,182.21 564.07,196.02 ZM 704.99 216.51 C701.01,218.56 693.96,219.02 688.22,217.59 C685.32,216.87 682.79,216.10 682.61,215.89 C682.43,215.67 681.99,213.59 681.63,211.25 C680.96,206.87 682.32,205.29 683.52,209.07 C685.27,214.57 697.17,217.01 702.37,212.93 C705.37,210.57 705.84,206.64 703.51,203.32 C702.69,202.15 698.58,199.30 694.36,196.99 C684.33,191.49 682.00,188.93 682.00,183.43 C682.00,174.44 689.19,170.22 702.40,171.46 L 710.00 172.17 L 710.00 176.59 C710.00,181.49 708.90,182.27 707.21,178.55 C704.65,172.94 692.11,172.73 689.03,178.25 C686.62,182.59 689.01,185.66 699.04,191.07 C709.38,196.66 712.41,200.41 711.71,206.79 C711.21,211.34 709.11,214.38 704.99,216.51 ZM 774.33 216.34 C773.32,217.34 760.00,217.13 760.00,216.11 C760.00,215.62 760.67,214.95 761.50,214.64 C762.76,214.15 763.00,210.97 763.00,194.53 L 763.00 175.00 L 756.57 175.00 C750.82,175.00 749.93,175.28 748.07,177.63 L 746.00 180.27 L 746.00 175.88 L 746.00 171.50 L 788.00 171.50 L 787.97 176.00 L 787.94 180.50 L 785.88 177.75 C784.02,175.25 783.25,175.00 777.42,175.00 L 771.00 175.00 L 771.00 193.94 C771.00,211.73 771.12,212.97 772.99,214.28 C774.09,215.05 774.69,215.98 774.33,216.34 ZM 818.07 214.37 L 820.15 217.00 L 812.32 216.95 C804.92,216.90 804.62,216.81 806.75,215.33 C808.78,213.91 809.00,212.93 809.00,205.43 L 809.00 197.10 L 802.88 187.30 C799.51,181.91 795.48,176.15 793.92,174.50 L 791.09 171.50 L 798.54 171.50 C805.37,171.50 807.88,172.21 804.76,173.25 C803.79,173.57 803.80,174.28 804.83,176.58 C806.48,180.29 814.18,193.16 814.52,192.78 C814.66,192.63 816.89,188.91 819.47,184.53 C822.84,178.81 824.02,175.85 823.66,174.03 C823.17,171.58 823.32,171.50 828.58,171.45 C831.56,171.42 834.00,171.58 834.00,171.80 C834.00,172.03 832.87,173.10 831.49,174.18 C830.11,175.27 826.06,181.11 822.49,187.16 C816.22,197.79 816.00,198.40 816.00,204.95 C816.00,210.30 816.44,212.29 818.07,214.37 ZM 683.71 95.25 C684.37,96.46 709.00,96.16 709.00,94.95 C709.00,93.95 704.34,82.70 698.47,69.50 L 695.80 63.50 L 689.55 79.00 C686.11,87.53 683.48,94.84 683.71,95.25 ZM 408.66 95.25 C409.32,96.33 434.00,96.18 434.00,95.10 C434.00,94.09 421.58,65.25 420.83,64.49 C420.16,63.83 408.10,94.32 408.66,95.25 ZM 737.25 215.33 C739.37,216.81 739.02,216.90 731.03,216.95 C723.08,217.00 722.69,216.90 724.78,215.44 C726.94,213.93 727.00,213.40 727.00,194.48 C727.00,176.37 726.87,174.95 725.00,173.22 C723.04,171.39 723.15,171.36 731.00,171.42 C738.83,171.49 740.99,172.23 737.00,173.50 C735.09,174.11 735.00,175.01 735.00,193.95 C735.00,213.36 735.05,213.79 737.25,215.33 ZM 118.72 200.38 C119.42,201.08 152.25,200.23 154.75,199.45 C155.55,199.20 156.00,197.08 156.00,193.53 C156.00,188.14 156.07,188.00 158.81,188.00 C162.20,188.00 165.58,185.75 164.59,184.15 C164.20,183.52 162.82,183.00 161.52,183.00 C156.04,183.00 156.00,182.89 156.00,167.48 L 156.00 153.18 L 160.00 152.50 C164.19,151.79 165.73,149.00 161.93,149.00 C157.49,149.00 156.00,147.23 156.00,141.96 C156.00,137.32 155.84,137.00 153.46,137.00 C151.19,137.00 151.05,137.22 152.07,139.13 C152.87,140.62 153.10,149.33 152.85,168.21 C152.52,193.51 152.38,195.25 150.56,196.58 C149.08,197.66 144.95,198.00 133.31,198.00 C119.22,198.00 116.74,198.41 118.72,200.38 ZM 127.69 107.36 C128.08,107.74 134.15,107.93 141.20,107.78 C157.35,107.43 158.47,105.61 142.77,105.22 C136.59,105.06 131.09,104.49 130.56,103.96 C129.50,102.90 129.50,50.15 130.56,46.80 C131.06,45.25 130.79,44.89 129.35,45.17 C127.98,45.43 127.37,46.67 127.00,49.91 C126.48,54.44 125.51,55.46 120.75,56.46 C115.77,57.51 117.88,61.00 123.50,61.00 C124.78,61.00 125.98,61.44 126.17,61.98 C126.35,62.52 126.28,69.16 126.00,76.73 L 125.50 90.50 L 122.01 91.00 C117.03,91.71 116.68,94.66 121.46,95.56 C125.54,96.32 127.00,98.36 127.00,103.27 C127.00,105.14 127.31,106.98 127.69,107.36 ZM 518.00 212.83 L 523.50 216.94 L 515.00 216.92 C506.99,216.90 506.63,216.81 508.75,215.33 C510.95,213.79 511.00,213.34 511.00,194.39 C511.00,176.10 510.89,174.95 509.00,173.77 C507.90,173.08 507.00,172.23 507.00,171.88 C507.00,171.53 510.61,171.30 515.03,171.37 L 523.05 171.49 L 520.53 173.33 L 518.00 175.17 ZM 33.67 107.33 C34.66,108.32 62.00,108.14 62.00,107.14 C62.00,106.21 51.58,105.02 43.37,105.01 C40.14,105.00 37.80,104.47 37.05,103.56 C35.64,101.87 36.00,49.74 37.43,46.65 C38.12,45.16 37.93,44.87 36.42,45.16 C35.10,45.41 34.34,46.76 33.83,49.77 C32.87,55.39 32.53,55.81 28.45,56.57 C26.54,56.93 24.76,57.57 24.50,58.00 C23.74,59.22 26.23,60.79 29.50,61.16 L 32.50 61.50 L 32.78 75.77 C32.99,86.67 32.75,90.14 31.78,90.44 C31.07,90.65 29.26,91.10 27.75,91.44 C26.24,91.77 25.00,92.70 25.00,93.50 C25.00,94.30 26.24,95.23 27.75,95.56 C32.91,96.70 33.00,96.80 33.00,101.80 C33.00,104.48 33.30,106.97 33.67,107.33 ZM 72.00 107.11 C72.00,107.60 78.25,108.00 85.89,108.00 C86.20,108.00 86.50,108.00 86.79,108.00 C95.69,108.00 99.02,108.00 100.26,106.39 C101.00,105.43 101.00,103.90 101.00,101.45 C101.00,101.32 101.00,101.18 101.00,101.04 C101.00,96.71 102.23,95.32 106.49,94.84 C110.61,94.37 111.33,91.01 107.32,90.98 C102.07,90.96 101.92,90.48 102.22,75.42 L 102.50 61.50 L 106.25 61.19 C109.17,60.95 110.00,60.46 110.00,58.96 C110.00,57.68 109.09,56.84 107.25,56.44 C102.07,55.30 102.00,55.21 102.00,50.03 C102.00,45.91 101.68,45.00 100.25,45.00 C98.65,45.00 98.53,46.19 98.85,58.75 C99.04,66.31 98.88,79.81 98.49,88.75 L 97.79 105.00 L 86.48 105.00 C75.11,105.00 72.00,105.45 72.00,107.11 ZM 79.26 201.26 C85.50,201.62 107.19,200.99 107.85,200.43 C108.04,200.27 107.89,199.63 107.50,199.00 C107.02,198.23 101.93,197.94 91.27,198.08 C78.38,198.25 75.60,198.03 74.90,196.79 C73.81,194.85 74.24,142.04 75.36,139.75 C75.98,138.48 75.80,138.00 74.72,138.00 C73.12,138.00 72.04,140.88 72.01,145.21 C72.00,147.72 69.01,150.68 67.76,149.43 C67.07,148.74 62.00,151.13 62.00,152.14 C62.00,152.98 64.49,153.72 69.00,154.22 L 71.50 154.50 L 71.78 168.92 C72.08,184.70 72.00,184.96 66.25,184.98 C64.05,185.00 63.00,185.48 63.00,186.48 C63.00,187.86 64.46,188.47 69.50,189.22 C71.00,189.44 71.57,190.40 71.77,193.01 C72.37,200.80 72.44,200.87 79.26,201.26 ZM 643.75 193.31 C646.40,193.99 652.21,192.96 654.79,191.34 C660.50,187.75 659.69,178.02 653.47,175.42 C649.85,173.91 646.18,173.61 643.58,174.61 C642.30,175.10 642.00,176.91 642.00,184.03 C642.00,191.59 642.25,192.92 643.75,193.31 ZM 147.55 84.91 C146.87,86.03 145.82,86.11 142.75,85.31 C140.81,84.80 140.45,83.46 142.00,82.50 C142.55,82.16 143.00,77.68 143.00,72.50 C143.00,67.32 142.55,62.84 142.00,62.50 C139.59,61.01 141.41,60.00 146.50,60.00 C150.67,60.00 152.48,60.48 154.00,62.00 C156.77,64.77 156.55,69.13 153.51,71.99 L 151.02 74.33 L 153.51 78.79 C154.88,81.25 156.00,83.65 156.00,84.13 C156.00,86.21 153.87,84.67 151.00,80.50 C149.30,78.03 147.48,76.00 146.95,76.00 C145.63,76.00 145.76,81.36 147.11,82.71 C147.72,83.32 147.92,84.31 147.55,84.91 ZM 148.04 191.07 C150.56,195.79 151.00,192.24 150.97,167.25 C150.94,147.42 150.63,141.10 149.61,139.75 C148.88,138.79 147.99,138.00 147.64,138.00 C146.53,138.00 146.91,188.97 148.04,191.07 ZM 94.02 98.03 C94.60,99.11 95.44,100.00 95.90,100.00 C97.03,100.00 97.94,51.06 96.86,48.17 C96.38,46.89 95.43,46.02 94.74,46.25 C93.10,46.80 92.43,95.06 94.02,98.03 ZM 131.00 76.07 C131.00,99.29 131.46,102.74 133.96,98.07 C135.37,95.44 135.38,47.00 133.98,47.00 C131.65,47.00 131.00,53.34 131.00,76.07 ZM 76.07 170.83 C76.02,188.28 76.27,193.08 77.25,192.75 C78.93,192.20 79.71,181.92 79.87,158.17 C79.97,143.10 79.72,138.92 78.75,139.25 C76.75,139.91 76.15,146.99 76.07,170.83 ZM 38.00 75.02 C38.00,94.69 38.27,100.08 39.25,99.75 C41.30,99.08 43.01,50.15 41.09,47.11 C38.77,43.45 38.00,50.42 38.00,75.02 ZM 83.07 84.96 C82.00,85.53 80.99,85.93 80.82,85.85 C80.64,85.77 78.55,85.43 76.18,85.10 L 71.85 84.50 L 71.68 72.71 C71.51,61.62 71.62,60.89 73.50,60.59 C78.56,59.76 82.12,60.14 82.67,61.58 C83.49,63.72 82.32,64.51 80.54,63.03 C78.08,60.99 76.00,62.55 76.00,66.41 C76.00,70.18 77.52,71.88 79.29,70.11 C80.98,68.42 82.00,68.77 82.00,71.04 C82.00,72.66 81.44,73.02 79.25,72.79 C76.59,72.51 76.49,72.68 76.20,77.75 C75.90,82.87 75.96,83.00 78.62,83.00 C80.12,83.00 82.17,82.26 83.17,81.35 C84.89,79.79 85.00,79.82 85.00,81.81 C85.00,82.98 84.13,84.40 83.07,84.96 ZM 58.37 79.25 C57.53,81.86 56.24,84.00 55.50,84.00 C54.70,84.00 52.89,80.12 50.95,74.25 C49.19,68.89 47.12,63.79 46.37,62.92 C44.25,60.47 44.68,60.00 49.08,60.00 C53.01,60.00 53.14,60.10 52.56,62.75 C51.88,65.84 55.16,76.71 56.60,76.14 C58.00,75.58 60.22,66.94 59.76,63.81 C59.44,61.60 59.74,61.00 61.17,61.00 C62.18,61.00 63.00,61.27 63.00,61.61 C63.00,62.71 59.93,74.43 58.37,79.25 ZM 138.42 173.80 C137.09,175.71 136.08,176.01 131.84,175.78 C126.52,175.48 126.28,175.35 126.53,173.00 C126.84,170.19 126.94,169.10 127.25,169.04 C127.45,169.00 127.72,169.35 128.17,169.95 C128.21,169.99 128.24,170.04 128.28,170.09 C130.46,172.92 133.94,174.29 135.56,172.95 C137.82,171.07 137.25,168.20 134.25,166.34 C128.86,162.99 127.00,160.73 127.00,157.53 C127.00,153.31 128.59,152.00 133.70,152.00 C137.62,152.00 138.00,152.22 138.00,154.50 C138.00,157.03 136.64,157.84 135.50,156.00 C134.56,154.47 130.29,154.81 129.65,156.46 C129.31,157.35 130.28,158.82 132.12,160.21 C140.09,166.22 141.54,169.36 138.42,173.80 ZM 99.55 175.91 C98.80,177.13 94.06,177.41 93.89,176.25 C93.60,174.30 94.12,161.08 94.62,157.75 C95.08,154.63 94.88,154.00 93.42,154.00 C92.45,154.00 90.83,154.74 89.83,155.65 C88.12,157.20 88.00,157.19 88.02,155.40 C88.04,152.08 89.33,151.50 96.75,151.50 C102.89,151.50 104.00,151.76 104.00,153.19 C104.00,155.42 102.12,156.52 100.71,155.11 C100.10,154.50 99.24,154.00 98.80,154.00 C97.55,154.00 97.84,172.44 99.11,173.71 C99.72,174.32 99.92,175.31 99.55,175.91 ZM 173.50 73.49 C173.50,85.34 173.39,86.00 171.50,85.98 C170.40,85.98 168.85,85.56 168.06,85.06 C166.90,84.32 166.86,83.87 167.90,82.63 C168.78,81.57 169.08,78.04 168.89,71.07 C168.74,65.56 168.90,60.77 169.24,60.43 C169.57,60.09 170.67,60.08 171.67,60.40 C173.31,60.92 173.50,62.25 173.50,73.49 ZM 116.25 194.75 C115.93,195.72 119.60,196.00 132.42,196.00 C148.05,196.00 150.73,195.53 147.75,193.32 C145.82,191.88 116.76,193.20 116.25,194.75 ZM 50.25 103.27 C64.20,103.73 64.50,103.71 64.50,102.00 C64.50,100.79 62.36,100.39 53.50,99.94 C43.25,99.42 40.00,99.94 40.00,102.09 C40.00,102.55 44.61,103.08 50.25,103.27 ZM 78.00 194.62 C78.00,195.74 81.08,196.00 94.00,196.00 C104.00,196.00 110.00,195.62 110.00,195.00 C110.00,194.39 105.66,194.00 98.97,194.00 C91.40,194.00 86.80,193.53 84.33,192.49 C80.52,190.90 78.00,191.75 78.00,194.62 ZM 70.03 103.04 C71.69,104.09 93.31,104.36 94.32,103.34 C94.69,102.98 94.52,102.13 93.96,101.45 C93.22,100.56 89.98,100.35 82.22,100.69 C69.86,101.23 67.80,101.63 70.03,103.04 ZM 145.50 103.00 C151.55,103.28 156.93,103.16 157.45,102.75 C159.60,101.06 155.97,100.18 145.50,99.85 C136.24,99.55 134.50,99.74 134.50,101.00 C134.50,102.21 136.61,102.60 145.50,103.00 ZM 163.65 102.75 C165.64,104.05 189.18,103.05 188.73,101.69 C188.46,100.87 184.75,100.48 176.70,100.42 C165.42,100.34 161.14,101.11 163.65,102.75 ZM 147.25 72.32 C148.48,72.81 153.00,68.67 153.00,67.06 C153.00,65.05 149.23,61.70 147.66,62.30 C145.62,63.08 145.28,71.55 147.25,72.32 ZM 159.23 108.83 C160.99,110.59 163.45,109.83 163.80,107.40 C164.22,104.49 161.50,102.34 159.50,104.00 C157.68,105.51 157.59,107.19 159.23,108.83 ZM 111.04 201.07 C112.40,203.62 114.63,203.53 115.31,200.90 C116.07,198.01 115.12,196.00 113.00,196.00 C110.71,196.00 109.71,198.59 111.04,201.07 ZM 65.59 109.44 C67.08,110.93 67.47,110.96 68.75,109.68 C70.67,107.75 69.48,104.00 66.93,104.00 C65.87,104.00 65.00,104.19 65.00,104.42 C65.00,104.65 64.75,105.49 64.44,106.29 C64.14,107.09 64.65,108.51 65.59,109.44 Z" fill="rgb(30,25,25)"/>
<path d="M 111.30 153.17 C111.10,155.00 110.84,156.49 110.51,157.26 C109.96,158.58 110.16,158.88 111.27,158.45 C111.63,158.31 111.96,158.32 112.28,158.49 C112.04,158.63 111.75,158.99 111.36,159.52 C109.32,162.31 108.93,160.88 110.50,156.46 C110.82,155.57 111.09,154.43 111.30,153.17 ZM 111.02 139.00 C110.70,138.49 110.03,138.14 108.63,137.90 C110.05,138.14 110.74,138.49 111.08,139.00 C111.19,139.16 111.29,139.45 111.37,139.83 C111.27,139.49 111.15,139.21 111.02,139.00 Z" fill="rgb(134,133,133)"/>
<path d="M 105.50 240.83 C88.52,230.74 68.86,213.22 56.87,197.50 C35.60,169.59 22.51,134.80 19.06,97.00 C18.48,90.68 18.01,70.31 18.00,51.75 L 18.00 18.00 L 210.19 18.00 L 209.71 62.25 C209.19,109.41 208.92,112.50 203.47,132.64 C193.13,170.85 167.47,207.03 131.74,233.77 C120.51,242.17 116.05,244.99 114.00,244.99 C113.18,244.99 109.35,243.12 105.50,240.83 ZM 135.86 204.10 C157.76,203.34 158.00,203.25 158.00,195.40 C158.00,191.32 158.14,191.15 162.25,189.84 C165.95,188.67 166.54,188.09 166.81,185.32 C167.16,181.64 164.42,179.50 160.36,180.27 L 157.94 180.73 L 158.50 156.50 L 161.95 155.38 C166.44,153.94 167.97,150.73 165.50,148.00 C164.50,146.89 162.42,146.00 160.85,146.00 C158.10,146.00 158.00,145.82 158.00,141.04 C158.00,133.51 156.97,133.28 129.00,134.47 C101.58,135.65 86.64,135.39 83.35,133.68 C80.58,132.25 80.05,132.23 78.98,133.53 C78.31,134.34 76.50,135.00 74.96,135.00 C69.80,135.00 69.00,135.83 69.00,141.14 C69.00,146.26 68.74,146.56 63.66,147.42 C60.31,147.99 58.00,149.70 58.00,151.62 C58.00,154.02 61.88,157.00 65.00,157.00 L 68.00 157.00 L 68.00 169.00 C68.00,175.60 67.66,181.03 67.25,181.07 C61.83,181.61 58.99,183.27 59.02,185.87 C59.04,188.78 60.71,190.27 64.65,190.90 L 68.50 191.53 L 68.80 197.76 L 69.10 204.00 L 88.80 204.02 C100.36,204.02 109.12,204.45 110.00,205.04 C110.82,205.59 112.62,205.76 114.00,205.40 C115.38,205.05 125.21,204.46 135.86,204.10 ZM 163.57 112.03 C164.11,111.49 171.51,110.93 180.02,110.78 L 195.50 110.50 L 195.77 107.00 C196.28,100.36 196.90,99.00 199.41,99.00 C203.27,99.00 206.42,95.81 205.64,92.71 C205.14,90.73 203.99,89.78 200.99,88.88 L 197.00 87.68 L 197.00 77.42 C197.00,65.63 197.41,64.01 200.36,63.98 C203.03,63.97 204.45,63.02 205.32,60.68 C206.28,58.07 204.31,54.99 201.71,55.06 L 199.50 55.13 L 201.82 56.06 C204.16,57.00 204.51,58.47 203.28,59.58 C203.44,59.28 203.50,58.93 203.50,58.50 C203.50,56.98 202.67,56.38 200.00,56.00 C199.44,55.92 198.96,55.85 198.56,55.76 C198.83,55.65 199.00,55.41 199.00,55.08 C199.00,54.49 198.59,54.00 198.09,54.00 C197.59,54.00 197.21,52.05 197.25,49.66 C197.33,44.08 196.60,43.01 192.69,42.97 C190.94,42.95 188.68,42.31 187.67,41.55 C186.13,40.38 185.34,40.38 182.63,41.51 C177.65,43.59 142.01,42.88 136.85,40.59 C135.94,40.19 134.91,40.34 134.54,40.93 C134.18,41.52 132.20,42.00 130.14,42.00 C125.21,42.00 124.00,43.42 124.00,49.20 L 124.00 54.00 L 120.53 54.00 C117.46,54.00 116.95,54.38 116.16,57.25 C115.09,61.10 116.75,63.00 121.19,63.00 L 124.00 63.00 L 124.00 87.65 L 120.36 88.57 C115.98,89.69 114.43,92.73 116.63,95.88 C117.57,97.22 119.19,98.00 121.06,98.00 C123.96,98.00 124.00,98.08 124.00,103.46 C124.00,107.84 124.38,109.14 125.93,109.96 C127.00,110.53 133.86,111.01 141.18,111.02 C148.51,111.02 155.18,111.47 156.00,112.00 C157.94,113.26 162.33,113.27 163.57,112.03 ZM 69.56 112.53 C71.06,111.40 74.86,111.06 86.19,111.03 C94.63,111.01 101.14,110.58 101.49,110.02 C101.82,109.49 102.36,106.79 102.68,104.02 C103.19,99.74 103.60,99.00 105.42,99.00 C108.97,99.00 112.15,96.14 111.81,93.25 C111.50,90.69 110.84,90.14 105.75,88.13 C103.23,87.13 103.00,86.60 103.00,81.67 C103.00,78.71 103.29,73.53 103.64,70.15 C104.22,64.60 104.51,64.00 106.57,64.00 C108.91,64.00 112.00,61.65 112.00,59.86 C112.00,57.45 109.75,55.00 107.52,55.00 C104.61,55.00 103.48,53.40 103.86,49.81 C104.30,45.56 102.40,43.00 98.79,43.00 C97.07,43.00 94.88,42.29 93.92,41.43 C92.36,40.01 91.89,40.01 89.24,41.38 C87.19,42.43 83.29,42.90 76.40,42.91 C64.43,42.92 45.13,41.58 42.85,40.59 C41.94,40.19 40.91,40.34 40.54,40.93 C40.18,41.52 38.37,42.00 36.51,42.00 C31.90,42.00 30.00,44.21 30.00,49.57 C30.00,53.76 29.85,54.00 27.20,54.00 C23.68,54.00 22.00,55.64 22.00,59.09 C22.00,61.91 23.52,63.00 27.47,63.00 C30.63,63.00 31.00,64.48 31.00,77.08 C31.00,87.78 30.95,88.00 28.72,88.00 C25.73,88.00 22.00,90.67 22.02,92.81 C22.04,95.64 23.58,97.17 27.12,97.89 C30.38,98.55 30.52,98.77 31.00,104.00 C31.62,110.68 31.80,110.75 49.00,110.94 C57.79,111.03 62.24,111.49 64.00,112.50 C67.15,114.30 67.22,114.30 69.56,112.53 ZM 197.23 55.21 C196.45,54.58 196.28,53.35 196.00,50.51 C195.71,47.64 195.34,46.23 194.57,45.58 C195.33,46.22 195.71,47.62 196.00,50.43 C196.21,52.46 196.70,54.32 197.23,55.21 Z" fill="rgb(160,28,48)"/>
<path d="M 0.00 132.00 L 0.00 0.00 L 480.00 0.00 L 960.00 0.00 L 960.00 132.00 L 960.00 264.00 L 480.00 264.00 L 0.00 264.00 L 0.00 132.00 ZM 124.56 241.91 C166.79,213.11 195.25,174.70 206.53,131.27 C211.47,112.27 212.00,105.28 212.00,59.01 L 212.00 16.00 L 114.00 16.00 L 16.00 16.00 L 16.00 53.26 C16.00,104.15 18.30,122.19 28.25,149.50 C40.04,181.86 61.82,211.73 88.37,231.95 C97.31,238.76 112.37,248.00 114.54,248.00 C115.14,248.00 119.65,245.26 124.56,241.91 ZM 704.99 216.51 C709.11,214.38 711.21,211.34 711.71,206.79 C712.41,200.41 709.38,196.66 699.04,191.07 C689.01,185.66 686.62,182.59 689.03,178.25 C692.11,172.73 704.65,172.94 707.21,178.55 C708.90,182.27 710.00,181.49 710.00,176.59 L 710.00 172.17 L 702.40 171.46 C689.19,170.22 682.00,174.44 682.00,183.43 C682.00,188.93 684.33,191.49 694.36,196.99 C698.58,199.30 702.69,202.15 703.51,203.32 C705.84,206.64 705.37,210.57 702.37,212.93 C697.17,217.01 685.27,214.57 683.52,209.07 C682.32,205.29 680.96,206.87 681.63,211.25 C681.99,213.59 682.43,215.67 682.61,215.89 C682.79,216.10 685.32,216.87 688.22,217.59 C693.96,219.02 701.01,218.56 704.99,216.51 ZM 422.06 215.39 C428.91,211.38 429.47,209.65 429.82,191.40 C430.11,176.40 430.31,174.82 432.07,173.73 C435.07,171.85 434.45,171.50 428.04,171.47 C422.23,171.43 422.13,171.48 424.04,173.25 C425.80,174.89 426.00,176.46 425.99,188.29 C425.99,195.56 425.51,203.21 424.93,205.30 C422.38,214.48 406.54,216.62 400.55,208.60 C398.76,206.20 398.47,204.06 398.15,191.04 C397.81,177.04 397.90,176.10 399.89,174.11 C401.05,172.95 402.00,171.84 402.00,171.65 C402.00,171.45 398.60,171.34 394.44,171.40 C387.67,171.49 387.09,171.65 388.94,172.87 C390.87,174.16 391.00,175.20 391.00,189.65 C391.00,209.58 392.42,213.16 401.68,216.61 C406.83,218.53 417.82,217.87 422.06,215.39 ZM 457.86 217.04 C458.06,217.02 457.26,216.21 456.08,215.25 C454.03,213.58 453.94,212.81 454.22,198.02 L 454.50 182.55 L 467.82 198.02 C479.81,211.96 485.98,218.00 488.22,218.00 C488.65,218.00 489.00,208.13 489.00,196.07 C489.00,175.01 489.08,174.11 491.00,173.50 C494.71,172.32 493.03,171.47 487.00,171.47 C483.70,171.47 481.00,171.59 481.00,171.73 C481.00,171.88 481.90,172.90 483.00,174.00 C484.82,175.82 485.00,177.33 485.00,190.50 C485.00,198.48 484.65,205.00 484.23,205.00 C483.80,205.00 477.02,197.35 469.15,188.00 L 454.84 171.00 L 449.67 171.05 C444.68,171.10 444.58,171.16 446.75,172.67 C448.95,174.21 449.00,174.64 449.00,194.07 C449.00,212.73 448.88,213.97 447.01,215.28 C445.91,216.05 445.20,216.87 445.43,217.09 C445.74,217.40 455.21,217.37 457.86,217.04 ZM 673.44 217.10 C675.22,216.40 675.14,216.20 672.44,214.60 C670.82,213.64 666.63,209.07 663.12,204.43 C659.61,199.79 656.23,196.00 655.62,196.00 C655.00,196.00 656.43,195.04 658.79,193.88 C663.59,191.50 666.00,187.76 666.00,182.68 C666.00,178.73 662.95,174.35 659.12,172.78 C656.09,171.54 631.00,171.04 631.00,172.21 C631.00,172.65 631.65,173.00 632.45,173.00 C634.68,173.00 635.17,177.89 634.82,196.73 C634.53,212.54 634.34,214.04 632.50,215.43 C630.66,216.81 631.15,216.93 638.50,216.92 C646.06,216.90 646.38,216.81 644.25,215.33 C642.20,213.90 642.00,212.95 642.00,204.88 C642.00,197.78 642.29,196.00 643.45,196.00 C646.93,196.00 650.19,198.76 655.54,206.23 C659.78,212.15 662.32,214.70 665.38,216.08 C669.90,218.14 670.58,218.22 673.44,217.10 ZM 520.75 214.88 L 518.00 212.83 L 518.00 194.00 L 518.00 175.17 L 520.53 173.33 L 523.05 171.49 L 515.03 171.37 C510.61,171.30 507.00,171.53 507.00,171.88 C507.00,172.23 507.90,173.08 509.00,173.77 C510.89,174.95 511.00,176.10 511.00,194.39 C511.00,213.34 510.95,213.79 508.75,215.33 C506.63,216.81 506.99,216.90 515.00,216.92 L 523.50 216.94 L 520.75 214.88 ZM 564.07 196.02 C569.98,182.21 573.65,174.89 575.37,173.52 L 577.90 171.50 L 570.95 171.38 C567.13,171.32 564.00,171.65 564.00,172.13 C564.00,172.61 564.63,173.00 565.39,173.00 C566.16,173.00 567.04,173.65 567.34,174.45 C567.88,175.85 556.99,203.41 555.19,205.21 C554.10,206.30 540.67,176.29 541.41,174.38 C541.70,173.62 542.40,173.00 542.97,173.00 C543.54,173.00 544.00,172.66 544.00,172.24 C544.00,171.83 540.38,171.46 535.95,171.42 L 527.91 171.35 L 530.39 173.43 C531.94,174.72 536.36,183.35 542.11,196.30 C549.98,214.01 551.64,217.05 553.33,216.80 C554.87,216.57 557.24,211.99 564.07,196.02 ZM 618.30 212.77 C618.62,210.44 618.70,208.37 618.49,208.15 C618.28,207.94 616.99,209.06 615.64,210.63 C613.27,213.39 612.83,213.50 604.34,213.50 L 595.50 213.50 L 595.21 204.25 L 594.92 195.00 L 602.13 195.00 C607.44,195.00 609.83,195.44 611.17,196.65 C612.92,198.24 613.00,198.06 613.00,192.47 L 613.00 186.62 L 610.96 188.81 C609.24,190.66 607.83,191.00 601.96,191.00 L 595.00 191.00 L 595.00 183.00 L 595.00 175.00 L 603.35 175.00 C610.51,175.00 611.95,175.29 613.56,177.07 C615.33,179.02 615.47,179.03 616.14,177.32 C616.54,176.32 616.89,174.49 616.93,173.25 C617.00,171.00 616.97,171.00 600.50,171.00 C590.17,171.00 584.00,171.37 584.00,172.00 C584.00,172.55 584.62,173.00 585.38,173.00 C587.57,173.00 587.97,176.35 587.99,194.62 C588.00,210.43 587.84,211.93 585.93,214.37 L 583.85 217.00 L 600.80 217.00 L 617.74 217.00 L 618.30 212.77 ZM 737.25 215.33 C735.05,213.79 735.00,213.36 735.00,193.95 C735.00,175.01 735.09,174.11 737.00,173.50 C740.99,172.23 738.83,171.49 731.00,171.42 C723.15,171.36 723.04,171.39 725.00,173.22 C726.87,174.95 727.00,176.37 727.00,194.48 C727.00,213.40 726.94,213.93 724.78,215.44 C722.69,216.90 723.08,217.00 731.03,216.95 C739.02,216.90 739.37,216.81 737.25,215.33 ZM 774.33 216.34 C774.69,215.98 774.09,215.05 772.99,214.28 C771.12,212.97 771.00,211.73 771.00,193.94 L 771.00 175.00 L 777.42 175.00 C783.25,175.00 784.02,175.25 785.88,177.75 L 787.94 180.50 L 787.97 176.00 L 788.00 171.50 L 767.00 171.50 L 746.00 171.50 L 746.00 175.88 L 746.00 180.27 L 748.07 177.63 C749.93,175.28 750.82,175.00 756.57,175.00 L 763.00 175.00 L 763.00 194.53 C763.00,210.97 762.76,214.15 761.50,214.64 C760.67,214.95 760.00,215.62 760.00,216.11 C760.00,217.13 773.32,217.34 774.33,216.34 ZM 818.07 214.37 C816.44,212.29 816.00,210.30 816.00,204.95 C816.00,198.40 816.22,197.79 822.49,187.16 C826.06,181.11 830.11,175.27 831.49,174.18 C832.87,173.10 834.00,172.03 834.00,171.80 C834.00,171.58 831.56,171.42 828.58,171.45 C823.32,171.50 823.17,171.58 823.66,174.03 C824.02,175.85 822.84,178.81 819.47,184.53 C816.89,188.91 814.66,192.63 814.52,192.78 C814.18,193.16 806.48,180.29 804.83,176.58 C803.80,174.28 803.79,173.57 804.76,173.25 C807.88,172.21 805.37,171.50 798.54,171.50 L 791.09 171.50 L 793.92 174.50 C795.48,176.15 799.51,181.91 802.88,187.30 L 809.00 197.10 L 809.00 205.43 C809.00,212.93 808.78,213.91 806.75,215.33 C804.62,216.81 804.92,216.90 812.32,216.95 L 820.15 217.00 L 818.07 214.37 ZM 565.75 131.37 C569.06,130.48 568.53,129.43 563.58,127.04 C558.78,124.71 556.94,122.67 543.12,104.28 C538.07,97.57 532.97,91.39 531.80,90.57 C529.73,89.12 529.72,89.05 531.58,88.44 C545.05,84.04 551.00,77.31 551.00,66.51 C551.00,57.11 546.81,50.66 538.09,46.62 C533.86,44.67 531.51,44.48 508.25,44.19 C490.17,43.96 483.00,44.19 483.00,44.99 C483.00,45.60 484.36,46.58 486.02,47.16 C487.68,47.74 489.48,49.03 490.02,50.04 C490.61,51.13 491.00,66.16 491.00,87.48 L 491.00 123.09 L 488.55 125.55 C487.20,126.90 485.36,128.00 484.46,128.00 C483.57,128.00 482.99,128.47 483.18,129.04 C483.68,130.53 512.30,130.59 512.80,129.11 C513.00,128.50 512.71,128.00 512.16,128.00 C511.61,128.00 509.77,126.83 508.08,125.41 L 505.00 122.82 L 505.00 106.37 L 505.00 89.91 L 508.75 90.57 C517.26,92.08 519.80,94.43 532.53,112.50 C541.24,124.88 545.58,128.81 552.99,131.07 C556.11,132.01 562.76,132.17 565.75,131.37 ZM 838.88 131.38 C842.84,130.58 842.83,129.59 838.87,127.94 C833.63,125.78 830.23,122.23 819.28,107.57 C813.50,99.83 807.61,92.51 806.18,91.30 C803.72,89.21 803.69,89.06 805.54,88.40 C811.57,86.26 814.02,84.92 817.48,81.88 C827.10,73.44 827.52,60.05 818.43,51.30 C811.61,44.74 807.77,44.00 780.32,44.00 C757.26,44.00 752.87,44.67 759.86,47.10 C761.44,47.65 763.24,49.22 763.86,50.60 C765.34,53.84 765.45,119.68 763.99,123.53 C763.41,125.04 761.70,126.67 759.98,127.31 C758.33,127.94 757.11,128.84 757.28,129.33 C757.64,130.43 786.37,130.39 786.73,129.29 C786.88,128.86 785.31,127.60 783.25,126.50 L 779.50 124.50 L 779.23 107.20 L 778.95 89.90 L 782.73 90.56 C790.47,91.92 793.03,94.37 807.35,114.09 C818.51,129.45 826.53,133.84 838.88,131.38 ZM 302.00 129.25 C302.00,128.56 301.53,128.00 300.95,128.00 C300.38,128.00 298.80,126.90 297.45,125.55 C295.04,123.13 295.00,122.81 295.00,106.05 L 295.00 89.00 L 320.00 89.00 L 345.00 89.00 L 345.00 107.05 L 345.00 125.09 L 342.01 126.80 C340.36,127.73 339.01,128.84 339.01,129.25 C339.00,129.66 345.30,130.00 353.00,130.00 C360.70,130.00 367.00,129.59 367.00,129.10 C367.00,128.60 365.42,127.27 363.50,126.13 L 360.00 124.07 L 360.00 87.11 C360.00,47.52 359.93,48.11 365.01,46.50 C370.14,44.87 365.95,44.00 353.00,44.00 C338.89,44.00 336.48,44.69 341.75,47.21 L 344.50 48.52 L 344.77 65.28 L 345.05 82.04 L 320.27 81.77 L 295.50 81.50 L 295.22 66.73 C294.93,50.94 295.45,48.54 299.56,46.98 C305.12,44.86 301.77,44.00 288.00,44.00 C279.05,44.00 274.00,44.37 274.00,45.03 C274.00,45.60 274.79,46.34 275.75,46.68 C276.71,47.02 278.29,47.98 279.25,48.81 C280.86,50.19 281.00,53.30 281.00,87.08 L 281.00 123.85 L 278.45 125.86 C277.05,126.96 275.39,128.04 274.77,128.24 C274.15,128.45 273.91,129.04 274.23,129.56 C275.16,131.07 302.00,130.77 302.00,129.25 ZM 404.66 129.50 C404.84,128.95 403.64,127.73 401.99,126.80 C398.14,124.60 398.17,122.70 402.21,111.75 L 405.44 103.00 L 422.02 103.00 L 438.59 103.00 L 442.31 111.75 C446.73,122.11 446.87,124.17 443.35,126.94 C441.89,128.09 440.88,129.21 441.10,129.43 C442.00,130.32 470.38,130.35 470.68,129.45 C470.85,128.93 469.31,127.60 467.25,126.50 C464.58,125.08 462.70,122.91 460.72,119.00 C455.75,109.19 429.91,49.82 429.32,46.87 C428.80,44.24 428.38,44.00 424.45,44.00 C420.37,44.00 420.09,44.19 418.93,47.75 C416.79,54.29 389.20,120.04 387.52,122.62 C386.63,123.97 384.39,125.80 382.54,126.68 C380.42,127.69 379.37,128.80 379.71,129.67 C380.13,130.77 382.75,131.00 392.29,130.78 C399.18,130.62 404.48,130.07 404.66,129.50 ZM 621.83 121.25 C639.50,78.95 650.39,54.18 652.54,51.35 C653.94,49.52 656.19,47.74 657.54,47.40 C658.90,47.06 660.00,46.16 660.00,45.39 C660.00,44.28 657.51,44.00 647.50,44.00 C634.85,44.00 632.59,44.74 637.75,47.20 C643.03,49.72 642.99,49.85 624.95,93.25 C620.89,103.01 617.33,111.00 617.04,111.00 C616.09,110.99 591.00,53.32 591.00,51.15 C591.00,49.83 592.11,48.47 594.00,47.50 C595.65,46.65 597.00,45.51 597.00,44.97 C597.00,44.38 590.89,44.00 581.50,44.00 C566.43,44.00 562.78,44.80 568.25,46.92 C569.49,47.40 571.47,48.85 572.67,50.14 C574.47,52.11 595.95,97.71 607.34,123.74 C610.42,130.80 610.59,130.97 614.13,130.99 L 617.75 131.00 L 621.83 121.25 ZM 680.00 129.57 C680.00,128.78 679.07,127.84 677.94,127.48 C673.76,126.15 673.63,123.15 677.30,112.97 L 680.72 103.50 L 697.34 103.23 L 713.96 102.95 L 716.86 109.36 C722.73,122.29 722.94,125.93 717.95,127.52 C712.79,129.15 717.50,130.15 731.27,130.32 C742.49,130.46 746.00,130.20 746.00,129.25 C746.00,128.56 745.58,128.00 745.08,128.00 C742.80,128.00 737.48,122.08 735.22,117.03 C723.17,90.09 706.07,50.78 705.08,47.75 C703.93,44.26 703.57,44.00 699.89,44.00 C697.02,44.00 695.77,44.48 695.34,45.75 C695.02,46.71 687.97,63.92 679.68,84.00 C667.39,113.78 663.96,121.16 661.06,124.10 C659.10,126.07 656.86,127.90 656.07,128.15 C655.26,128.42 654.96,129.13 655.38,129.81 C655.88,130.62 659.90,131.00 668.06,131.00 C677.76,131.00 680.00,130.73 680.00,129.57 ZM 911.00 128.47 C924.76,124.23 934.01,116.80 939.59,105.52 C942.62,99.39 943.30,96.81 943.74,89.73 C945.30,64.65 931.73,48.26 905.91,44.05 C896.56,42.53 855.00,43.84 855.00,45.66 C855.00,46.40 855.87,47.00 856.93,47.00 C857.99,47.00 859.57,47.71 860.44,48.58 C861.84,49.98 861.99,54.53 861.76,87.31 L 861.50 124.46 L 858.29 126.48 C856.52,127.59 855.06,128.82 855.04,129.22 C854.99,130.13 874.53,130.78 892.00,130.44 C901.21,130.26 907.25,129.63 911.00,128.47 ZM 111.04 201.07 C109.71,198.59 110.71,196.00 113.00,196.00 C115.12,196.00 116.07,198.01 115.31,200.90 C114.63,203.53 112.40,203.62 111.04,201.07 ZM 79.26 201.26 C72.44,200.87 72.37,200.80 71.77,193.01 C71.57,190.40 71.00,189.44 69.50,189.22 C64.46,188.47 63.00,187.86 63.00,186.48 C63.00,185.48 64.05,185.00 66.25,184.98 C72.00,184.96 72.08,184.70 71.78,168.92 L 71.50 154.50 L 69.00 154.22 C64.49,153.72 62.00,152.98 62.00,152.14 C62.00,151.13 67.07,148.74 67.76,149.43 C69.01,150.68 72.00,147.72 72.01,145.21 C72.04,140.88 73.12,138.00 74.72,138.00 C75.80,138.00 75.98,138.48 75.36,139.75 C74.24,142.04 73.81,194.85 74.90,196.79 C75.60,198.03 78.38,198.25 91.27,198.08 C101.93,197.94 107.02,198.23 107.50,199.00 C107.89,199.63 108.04,200.27 107.85,200.43 C107.19,200.99 85.50,201.62 79.26,201.26 ZM 118.72 200.38 C116.74,198.41 119.22,198.00 133.31,198.00 C144.95,198.00 149.08,197.66 150.56,196.58 C152.38,195.25 152.52,193.51 152.85,168.21 C153.10,149.33 152.87,140.62 152.07,139.13 C151.05,137.22 151.19,137.00 153.46,137.00 C155.84,137.00 156.00,137.32 156.00,141.96 C156.00,147.23 157.49,149.00 161.93,149.00 C165.73,149.00 164.19,151.79 160.00,152.50 L 156.00 153.18 L 156.00 167.48 C156.00,182.89 156.04,183.00 161.52,183.00 C162.82,183.00 164.20,183.52 164.59,184.15 C165.58,185.75 162.20,188.00 158.81,188.00 C156.07,188.00 156.00,188.14 156.00,193.53 C156.00,197.08 155.55,199.20 154.75,199.45 C152.25,200.23 119.42,201.08 118.72,200.38 ZM 78.00 194.62 C78.00,191.75 80.52,190.90 84.33,192.49 C86.80,193.53 91.40,194.00 98.97,194.00 C105.66,194.00 110.00,194.39 110.00,195.00 C110.00,195.62 104.00,196.00 94.00,196.00 C81.08,196.00 78.00,195.74 78.00,194.62 ZM 116.25 194.75 C116.76,193.20 145.82,191.88 147.75,193.32 C150.73,195.53 148.05,196.00 132.42,196.00 C119.60,196.00 115.93,195.72 116.25,194.75 ZM 76.07 170.83 C76.15,146.99 76.75,139.91 78.75,139.25 C79.72,138.92 79.97,143.10 79.87,158.17 C79.71,181.92 78.93,192.20 77.25,192.75 C76.27,193.08 76.02,188.28 76.07,170.83 ZM 148.04 191.07 C146.91,188.97 146.53,138.00 147.64,138.00 C147.99,138.00 148.88,138.79 149.61,139.75 C150.63,141.10 150.94,147.42 150.97,167.25 C151.00,192.24 150.56,195.79 148.04,191.07 ZM 97.50 191.00 C90.35,190.73 83.94,190.14 83.25,189.69 C82.30,189.08 82.00,182.47 82.00,162.32 L 82.00 135.77 L 84.25 136.58 C85.49,137.03 91.80,137.42 98.28,137.45 C107.63,137.49 110.26,137.81 111.02,139.00 C112.43,141.23 112.12,151.93 110.50,156.46 C108.93,160.88 109.32,162.31 111.36,159.52 C112.60,157.82 112.78,157.93 113.85,161.00 C115.45,165.59 115.34,166.00 112.50,166.00 C111.12,166.00 110.00,165.55 110.00,165.00 C110.00,164.45 109.55,164.00 109.00,164.00 C108.45,164.00 108.00,164.80 108.00,165.79 C108.00,166.77 107.13,169.27 106.08,171.35 C104.44,174.56 104.37,175.21 105.62,175.68 C107.37,176.36 108.46,175.43 108.60,173.16 C108.88,168.62 109.11,168.00 110.50,168.00 C111.75,168.00 112.00,169.94 112.00,179.44 C112.00,185.73 111.66,191.02 111.25,191.19 C110.84,191.36 104.65,191.27 97.50,191.00 ZM 99.55 175.91 C99.92,175.31 99.72,174.32 99.11,173.71 C97.84,172.44 97.55,154.00 98.80,154.00 C99.24,154.00 100.10,154.50 100.71,155.11 C102.12,156.52 104.00,155.42 104.00,153.19 C104.00,151.76 102.89,151.50 96.75,151.50 C89.33,151.50 88.04,152.08 88.02,155.40 C88.00,157.19 88.12,157.20 89.83,155.65 C90.83,154.74 92.45,154.00 93.42,154.00 C94.88,154.00 95.08,154.63 94.62,157.75 C94.12,161.08 93.60,174.30 93.89,176.25 C94.06,177.41 98.80,177.13 99.55,175.91 ZM 113.82 182.25 C113.72,177.16 113.61,171.99 113.57,170.76 C113.53,169.40 114.18,168.40 115.23,168.19 C116.56,167.94 117.10,168.80 117.60,171.93 C118.19,175.59 118.54,176.00 121.13,176.00 C124.29,176.00 124.80,174.91 122.51,173.01 C121.69,172.32 120.55,169.91 119.99,167.63 C119.42,165.36 117.81,159.86 116.41,155.41 C114.83,150.39 113.99,145.65 114.18,142.91 L 114.50 138.50 L 128.00 137.95 C135.43,137.64 142.29,137.03 143.25,136.59 C144.89,135.84 145.00,137.41 145.00,162.27 C145.00,182.31 144.69,189.01 143.74,189.80 C143.05,190.38 136.14,190.99 128.24,191.17 L 114.00 191.50 L 113.82 182.25 ZM 138.42 173.80 C141.54,169.36 140.09,166.22 132.12,160.21 C130.28,158.82 129.31,157.35 129.65,156.46 C130.29,154.81 134.56,154.47 135.50,156.00 C136.64,157.84 138.00,157.03 138.00,154.50 C138.00,152.22 137.62,152.00 133.70,152.00 C128.59,152.00 127.00,153.31 127.00,157.53 C127.00,160.73 128.86,162.99 134.25,166.34 C137.25,168.20 137.82,171.07 135.56,172.95 C133.94,174.29 130.46,172.92 128.28,170.09 C126.99,168.40 127.04,168.32 126.53,173.00 C126.28,175.35 126.52,175.48 131.84,175.78 C136.08,176.01 137.09,175.71 138.42,173.80 ZM 65.59 109.44 C64.65,108.51 64.14,107.09 64.44,106.29 C64.75,105.49 65.00,104.65 65.00,104.42 C65.00,104.19 65.87,104.00 66.93,104.00 C69.48,104.00 70.67,107.75 68.75,109.68 C67.47,110.96 67.08,110.93 65.59,109.44 ZM 159.23 108.83 C157.59,107.19 157.68,105.51 159.50,104.00 C161.50,102.34 164.22,104.49 163.80,107.40 C163.45,109.83 160.99,110.59 159.23,108.83 ZM 33.67 107.33 C33.30,106.97 33.00,104.48 33.00,101.80 C33.00,96.80 32.91,96.70 27.75,95.56 C26.24,95.23 25.00,94.30 25.00,93.50 C25.00,92.70 26.24,91.77 27.75,91.44 C29.26,91.10 31.07,90.65 31.78,90.44 C32.75,90.14 32.99,86.67 32.78,75.77 L 32.50 61.50 L 29.50 61.16 C26.23,60.79 23.74,59.22 24.50,58.00 C24.76,57.57 26.54,56.93 28.45,56.57 C32.53,55.81 32.87,55.39 33.83,49.77 C34.34,46.76 35.10,45.41 36.42,45.16 C37.93,44.87 38.12,45.16 37.43,46.65 C36.00,49.74 35.64,101.87 37.05,103.56 C37.80,104.47 40.14,105.00 43.37,105.01 C51.58,105.02 62.00,106.21 62.00,107.14 C62.00,108.14 34.66,108.32 33.67,107.33 ZM 72.00 107.11 C72.00,105.45 75.11,105.00 86.48,105.00 L 97.79 105.00 L 98.49 88.75 C98.88,79.81 99.04,66.31 98.85,58.75 C98.53,46.19 98.65,45.00 100.25,45.00 C101.68,45.00 102.00,45.91 102.00,50.03 C102.00,55.21 102.07,55.30 107.25,56.44 C109.09,56.84 110.00,57.68 110.00,58.96 C110.00,60.46 109.17,60.95 106.25,61.19 L 102.50 61.50 L 102.22 75.42 C101.92,90.48 102.07,90.96 107.32,90.98 C111.33,91.01 110.61,94.37 106.49,94.84 C102.23,95.32 101.00,96.71 101.00,101.04 C101.00,108.14 101.31,108.00 85.89,108.00 C78.25,108.00 72.00,107.60 72.00,107.11 ZM 127.69 107.36 C127.31,106.98 127.00,105.14 127.00,103.27 C127.00,98.36 125.54,96.32 121.46,95.56 C116.68,94.66 117.03,91.71 122.01,91.00 L 125.50 90.50 L 126.00 76.73 C126.28,69.16 126.35,62.52 126.17,61.98 C125.98,61.44 124.78,61.00 123.50,61.00 C117.88,61.00 115.77,57.51 120.75,56.46 C125.51,55.46 126.48,54.44 127.00,49.91 C127.37,46.67 127.98,45.43 129.35,45.17 C130.79,44.89 131.06,45.25 130.56,46.80 C129.50,50.15 129.50,102.90 130.56,103.96 C131.09,104.49 136.59,105.06 142.77,105.22 C158.47,105.61 157.35,107.43 141.20,107.78 C134.15,107.93 128.08,107.74 127.69,107.36 ZM 165.56 107.10 C164.58,105.51 167.95,105.00 179.47,105.00 C188.87,105.00 190.89,104.73 191.39,103.42 C192.39,100.82 192.08,91.00 191.00,91.00 C190.45,91.00 190.00,93.08 190.00,95.62 C190.00,99.62 189.80,100.08 188.50,99.00 C186.34,97.21 186.24,46.00 188.39,46.00 C190.70,46.00 190.99,48.36 191.16,68.33 L 191.32 87.50 L 192.12 73.00 C192.56,65.03 192.67,55.42 192.35,51.66 C191.82,45.36 191.93,44.84 193.64,45.16 C195.07,45.44 195.62,46.67 196.00,50.51 C196.48,55.33 196.62,55.52 200.00,56.00 C202.67,56.38 203.50,56.98 203.50,58.50 C203.50,60.08 202.67,60.60 199.50,61.00 L 195.50 61.50 L 195.50 75.47 L 195.50 89.44 L 199.50 90.56 C201.70,91.18 203.39,91.98 203.25,92.34 C203.11,92.70 203.00,93.42 203.00,93.94 C203.00,94.46 201.31,95.02 199.25,95.19 C195.51,95.50 195.50,95.51 195.19,100.47 C195.01,103.21 194.40,106.02 193.81,106.72 C192.57,108.23 166.47,108.58 165.56,107.10 ZM 50.25 103.27 C44.61,103.08 40.00,102.55 40.00,102.09 C40.00,99.94 43.25,99.42 53.50,99.94 C62.36,100.39 64.50,100.79 64.50,102.00 C64.50,103.71 64.20,103.73 50.25,103.27 ZM 70.03 103.04 C67.80,101.63 69.86,101.23 82.22,100.69 C89.98,100.35 93.22,100.56 93.96,101.45 C94.52,102.13 94.69,102.98 94.32,103.34 C93.31,104.36 71.69,104.09 70.03,103.04 ZM 145.50 103.00 C136.61,102.60 134.50,102.21 134.50,101.00 C134.50,99.74 136.24,99.55 145.50,99.85 C155.97,100.18 159.60,101.06 157.45,102.75 C156.93,103.16 151.55,103.28 145.50,103.00 ZM 163.65 102.75 C161.14,101.11 165.42,100.34 176.70,100.42 C184.75,100.48 188.46,100.87 188.73,101.69 C189.18,103.05 165.64,104.05 163.65,102.75 ZM 38.00 75.02 C38.00,50.42 38.77,43.45 41.09,47.11 C43.01,50.15 41.30,99.08 39.25,99.75 C38.27,100.08 38.00,94.69 38.00,75.02 ZM 94.02 98.03 C92.43,95.06 93.10,46.80 94.74,46.25 C95.43,46.02 96.38,46.89 96.86,48.17 C97.94,51.06 97.03,100.00 95.90,100.00 C95.44,100.00 94.60,99.11 94.02,98.03 ZM 131.00 76.07 C131.00,53.34 131.65,47.00 133.98,47.00 C135.38,47.00 135.37,95.44 133.96,98.07 C131.46,102.74 131.00,99.29 131.00,76.07 ZM 67.91 98.00 C67.86,97.72 67.89,86.25 67.98,72.50 C68.09,54.78 68.48,47.17 69.32,46.36 C69.99,45.71 75.19,45.02 81.38,44.76 L 92.26 44.32 L 91.80 70.19 C91.54,84.42 90.92,96.47 90.42,96.95 C89.46,97.88 68.07,98.87 67.91,98.00 ZM 83.07 84.96 C84.13,84.40 85.00,82.98 85.00,81.81 C85.00,79.82 84.89,79.79 83.17,81.35 C82.17,82.26 80.12,83.00 78.62,83.00 C75.96,83.00 75.90,82.87 76.20,77.75 C76.49,72.68 76.59,72.51 79.25,72.79 C81.44,73.02 82.00,72.66 82.00,71.04 C82.00,68.77 80.98,68.42 79.29,70.11 C77.52,71.88 76.00,70.18 76.00,66.41 C76.00,62.55 78.08,60.99 80.54,63.03 C82.32,64.51 83.49,63.72 82.67,61.58 C82.12,60.14 78.56,59.76 73.50,60.59 C71.62,60.89 71.51,61.62 71.68,72.71 L 71.85 84.50 L 76.18 85.10 C78.55,85.43 80.64,85.77 80.82,85.85 C80.99,85.93 82.00,85.53 83.07,84.96 ZM 161.63 72.55 C162.07,55.43 162.68,46.25 163.40,45.77 C164.01,45.36 168.40,45.02 173.17,45.02 C177.94,45.01 182.55,44.73 183.42,44.39 C184.84,43.85 185.00,46.54 185.00,70.33 C185.00,90.30 184.69,97.07 183.77,97.64 C183.09,98.06 177.68,98.45 171.75,98.50 L 160.96 98.60 L 161.63 72.55 ZM 173.50 73.49 C173.50,62.25 173.31,60.92 171.67,60.40 C170.67,60.08 169.57,60.09 169.24,60.43 C168.90,60.77 168.74,65.56 168.89,71.07 C169.08,78.04 168.78,81.57 167.90,82.63 C166.86,83.87 166.90,84.32 168.06,85.06 C168.85,85.56 170.40,85.98 171.50,85.98 C173.39,86.00 173.50,85.34 173.50,73.49 ZM 44.53 96.65 C42.79,95.37 42.73,93.91 43.40,69.92 C43.80,55.96 44.23,44.44 44.36,44.30 C44.50,44.17 49.19,44.34 54.78,44.68 C63.80,45.23 65.03,45.53 65.60,47.31 C65.95,48.41 65.91,60.27 65.51,73.66 L 64.78 98.00 L 55.58 98.00 C49.43,98.00 45.77,97.55 44.53,96.65 ZM 58.37 79.25 C59.93,74.43 63.00,62.71 63.00,61.61 C63.00,61.27 62.18,61.00 61.17,61.00 C59.74,61.00 59.44,61.60 59.76,63.81 C60.22,66.94 58.00,75.58 56.60,76.14 C55.16,76.71 51.88,65.84 52.56,62.75 C53.14,60.10 53.01,60.00 49.08,60.00 C44.68,60.00 44.25,60.47 46.37,62.92 C47.12,63.79 49.19,68.89 50.95,74.25 C52.89,80.12 54.70,84.00 55.50,84.00 C56.24,84.00 57.53,81.86 58.37,79.25 ZM 138.75 97.31 C137.14,96.89 137.00,94.76 137.00,70.54 L 137.00 44.23 L 147.25 44.25 C153.64,44.27 157.78,44.69 158.23,45.39 C159.15,46.77 159.23,79.94 158.35,90.35 L 157.71 98.00 L 149.10 97.88 C144.37,97.82 139.71,97.56 138.75,97.31 ZM 147.55 84.91 C147.92,84.31 147.72,83.32 147.11,82.71 C145.76,81.36 145.63,76.00 146.95,76.00 C147.48,76.00 149.30,78.03 151.00,80.50 C153.87,84.67 156.00,86.21 156.00,84.13 C156.00,83.65 154.88,81.25 153.51,78.79 L 151.02 74.33 L 153.51 71.99 C156.55,69.13 156.77,64.77 154.00,62.00 C152.48,60.48 150.67,60.00 146.50,60.00 C141.41,60.00 139.59,61.01 142.00,62.50 C142.55,62.84 143.00,67.32 143.00,72.50 C143.00,77.68 142.55,82.16 142.00,82.50 C140.45,83.46 140.81,84.80 142.75,85.31 C145.82,86.11 146.87,86.03 147.55,84.91 ZM 643.75 193.31 C642.25,192.92 642.00,191.59 642.00,184.03 C642.00,176.91 642.30,175.10 643.58,174.61 C646.18,173.61 649.85,173.91 653.47,175.42 C659.69,178.02 660.50,187.75 654.79,191.34 C652.21,192.96 646.40,193.99 643.75,193.31 ZM 507.25 85.29 C505.02,84.86 505.00,84.71 505.00,67.57 L 505.00 50.28 L 510.88 49.74 C522.54,48.69 530.89,51.77 534.73,58.56 C538.62,65.43 537.56,74.69 532.23,80.27 C527.90,84.80 516.55,87.09 507.25,85.29 ZM 781.25 85.35 C779.02,84.87 779.00,84.69 779.00,67.43 L 779.00 50.00 L 783.75 49.86 C797.11,49.47 801.57,50.67 806.36,55.98 C814.03,64.47 811.75,78.01 801.79,83.12 C797.54,85.30 786.50,86.50 781.25,85.35 ZM 408.66 95.25 C408.10,94.32 420.16,63.83 420.83,64.49 C421.58,65.25 434.00,94.09 434.00,95.10 C434.00,96.18 409.32,96.33 408.66,95.25 ZM 683.71 95.25 C683.48,94.84 686.11,87.53 689.55,79.00 L 695.80 63.50 L 698.47 69.50 C704.34,82.70 709.00,93.95 709.00,94.95 C709.00,96.16 684.37,96.46 683.71,95.25 ZM 878.75 124.28 L 876.00 123.87 L 876.00 87.06 L 876.00 50.25 L 879.12 49.62 C884.36,48.58 896.18,48.96 902.15,50.36 C913.12,52.94 920.95,59.40 925.90,69.95 C928.23,74.92 928.50,76.70 928.50,87.00 C928.50,97.34 928.23,99.07 925.86,104.12 C920.82,114.87 912.48,121.30 900.20,123.88 C895.11,124.96 884.50,125.15 878.75,124.28 ZM 147.25 72.32 C145.28,71.55 145.62,63.08 147.66,62.30 C149.23,61.70 153.00,65.05 153.00,67.06 C153.00,68.67 148.48,72.81 147.25,72.32 Z" fill="rgb(254,254,254)"/>
</g>
</svg>