<?xml version="1.0" encoding="UTF-8"?>
<svg version="1.1" xmlns="http://www.w3.org/2000/svg" width="900" height="500">
<path d="M0 0 C297 0 594 0 900 0 C900 165 900 330 900 500 C603 500 306 500 0 500 C0 335 0 170 0 0 Z " fill="#FEFEFE" transform="translate(0,0)"/>
<path d="M0 0 C20.79 0 41.58 0 63 0 C63.33 64.02 63.66 128.04 64 194 C78.35045471 185.96374536 92.63398748 177.92874454 106.81640625 169.6171875 C113.06875177 165.95366415 119.33982989 162.32310842 125.61672974 158.70187378 C127.34495781 157.70483181 129.07275136 156.70703679 130.80053711 155.70922852 C131.84346924 155.10780029 132.88640137 154.50637207 133.9609375 153.88671875 C134.88696777 153.35264404 135.81299805 152.81856934 136.76708984 152.26831055 C138.1590113 151.4776882 139.56820979 150.71589511 141 150 C141.495 75.75 141.495 75.75 142 0 C162.79 0 183.58 0 205 0 C205 67.98 205 135.96 205 206 C137.35 206 69.7 206 0 206 C0 138.02 0 70.04 0 0 Z " fill="#002D72" transform="translate(19,161)"/>
<path d="M0 0 C0.30381466 22.41779928 0.53298904 44.83525873 0.67355824 67.25469971 C0.74056553 77.66480362 0.83189774 88.07362778 0.98071289 98.48291016 C1.11037497 107.55681239 1.19417587 116.6297879 1.22315043 125.7045908 C1.24008683 130.50931603 1.27981309 135.31139044 1.37449074 140.11526489 C1.46294944 144.64038964 1.48991469 149.16178158 1.47039986 153.68768883 C1.47396753 155.34546929 1.49971877 157.00337838 1.54967117 158.66040993 C1.69496581 163.73015942 1.63233518 168.16346856 0 173 C-3.94681275 176.81047749 -7.96417354 178.79838368 -13 181 C-14.82122427 181.98402156 -16.63558845 182.98104415 -18.4375 184 C-19.32695312 184.47695313 -20.21640625 184.95390625 -21.1328125 185.4453125 C-24.38608966 187.20935107 -27.60222746 189.03435512 -30.8125 190.875 C-31.39427002 191.20838379 -31.97604004 191.54176758 -32.57543945 191.88525391 C-34.38410326 192.92267429 -36.19213668 193.96118535 -38 195 C-40.54089776 196.45967839 -43.08270301 197.91776032 -45.625 199.375 C-46.75164062 200.02210938 -47.87828125 200.66921875 -49.0390625 201.3359375 C-51.32492832 202.62060615 -53.65469727 203.82734864 -56 205 C-56 147.58 -56 90.16 -56 31 C-46.76 25.72 -37.52 20.44 -28 15 C-16.98577117 8.58445785 -16.98577117 8.58445785 -5.98583984 2.14477539 C-2.26530177 0 -2.26530177 0 0 0 Z " fill="#033074" transform="translate(150,130)"/>
<path d="M0 0 C8.91 0 17.82 0 27 0 C37.02475248 11.13861386 37.02475248 11.13861386 40.3125 15.25 C43.76842359 19.51731435 47.29386904 23.71303684 50.875 27.875 C59.71172539 38.14892254 68.43147238 48.50053658 77 59 C81.95 64.94 81.95 64.94 87 71 C87.33 47.57 87.66 24.14 88 0 C94.6 0 101.2 0 108 0 C108 35.31 108 70.62 108 107 C90 107 90 107 85.125 102.375 C83.73738915 100.25821325 82.36338352 98.13247166 81 96 C79.07326172 93.6014631 77.03747605 91.30462375 75 89 C70.67133582 83.99025467 66.44499628 78.90798641 62.26953125 73.76953125 C57.91494206 68.45558334 53.44921565 63.23473234 49 58 C39.48536504 46.80553984 30.17935872 35.4741984 21 24 C20.67 51.39 20.34 78.78 20 107 C13.4 107 6.8 107 0 107 C0 71.69 0 36.38 0 0 Z " fill="#032F73" transform="translate(317,161)"/>
<path d="M0 0 C28.71 0 57.42 0 87 0 C87 5.94 87 11.88 87 18 C62.58 18.33 38.16 18.66 13 19 C14.98 20.98 16.96 22.96 19 25 C19 30.94 19 36.88 19 43 C38.47 43 57.94 43 78 43 C78 49.27 78 55.54 78 62 C58.53 62 39.06 62 19 62 C19 70.91 19 79.82 19 89 C42.43 89 65.86 89 90 89 C90 94.94 90 100.88 90 107 C60.3 107 30.6 107 0 107 C0 71.69 0 36.38 0 0 Z " fill="#022F73" transform="translate(666,161)"/>
<path d="M0 0 C28.71 0 57.42 0 87 0 C87 5.94 87 11.88 87 18 C62.58 18.33 38.16 18.66 13 19 C14.98 20.98 16.96 22.96 19 25 C19 30.94 19 36.88 19 43 C38.47 43 57.94 43 78 43 C78 49.27 78 55.54 78 62 C58.53 62 39.06 62 19 62 C19 70.91 19 79.82 19 89 C42.43 89 65.86 89 90 89 C90 94.94 90 100.88 90 107 C60.3 107 30.6 107 0 107 C0 71.69 0 36.38 0 0 Z " fill="#022F73" transform="translate(556,161)"/>
<path d="M0 0 C-4.26587874 4.54109672 -9.03612328 8.24735246 -14 12 C-14.73863281 11.52949219 -15.47726562 11.05898437 -16.23828125 10.57421875 C-27.04663726 3.94088209 -35.54698908 1.76140711 -48.125 1.5625 C-49.05554199 1.54002197 -49.98608398 1.51754395 -50.94482422 1.49438477 C-57.26400061 1.51626013 -62.61911381 2.5191609 -68 6 C-70.14291019 9.21436529 -70.30025791 11.17426609 -70.4609375 14.96484375 C-69.78308248 17.95774599 -68.36918477 19.10465219 -66 21 C-63.52858566 22.01754978 -63.52858566 22.01754978 -60.75 22.5625 C-59.69167969 22.7996875 -58.63335937 23.036875 -57.54296875 23.28125 C-48.81960919 25.05092824 -40.14202055 26.73398708 -31.3125 27.875 C-19.98154877 29.60416501 -9.72314015 33.41934946 -2.6640625 42.76953125 C1.47049189 49.73376293 1.78535516 58.85048648 0.4375 66.6875 C-1.69863021 74.38322738 -5.94995521 81.17204398 -12.58203125 85.6875 C-29.7178402 94.98900534 -49.26562042 95.32411252 -67.86328125 90.33203125 C-79.16650896 86.90545183 -90.00760832 81.49994294 -96 71 C-93.76063752 69.29652774 -91.51040913 67.61262463 -89.25 65.9375 C-88.61578125 65.45216797 -87.9815625 64.96683594 -87.328125 64.46679688 C-86.709375 64.01240234 -86.090625 63.55800781 -85.453125 63.08984375 C-84.88754883 62.66566162 -84.32197266 62.24147949 -83.73925781 61.80444336 C-82 61 -82 61 -79.90039062 61.29003906 C-77.63482897 62.13642309 -76.1221038 63.28464669 -74.25 64.8125 C-62.83591899 73.59903014 -50.29146254 76.16987636 -36 75 C-30.45743587 73.92573897 -26.04816247 72.04816247 -22 68 C-19.31322103 63.56967298 -19.17616441 59.04389134 -20 54 C-24.37628147 48.99853546 -30.17429852 47.80656336 -36.55859375 47.0703125 C-38.46995117 46.83634766 -38.46995117 46.83634766 -40.41992188 46.59765625 C-43.06250769 46.28434175 -45.70586662 45.9793563 -48.34960938 45.67578125 C-63.47048054 43.81125278 -77.5563898 41.25706102 -87.58984375 28.9609375 C-91.72505226 23.21059214 -91.58082679 16.82709517 -91 10 C-89.74476223 2.3815767 -85.73914861 -2.96997189 -80 -8 C-73.75529002 -12.30415945 -67.49916836 -14.97018463 -60 -16 C-58.90171875 -16.18175781 -58.90171875 -16.18175781 -57.78125 -16.3671875 C-37.57075557 -19.1292884 -15.21804698 -13.98415128 0 0 Z " fill="#043074" transform="translate(537,177)"/>
<path d="M0 0 C4.6249762 4.59694604 8.89586889 9.22825621 12 15 C12 15.66 12 16.32 12 17 C10.10435574 17.79211929 8.20847629 18.58367576 6.3125 19.375 C5.25675781 19.81585938 4.20101562 20.25671875 3.11328125 20.7109375 C0.41643343 21.82757462 -2.28716264 22.92291801 -5 24 C-5.67804688 23.19175781 -6.35609375 22.38351563 -7.0546875 21.55078125 C-14.51823706 12.88857726 -22.13967364 6.41526583 -34 5 C-48.26670165 4.20458484 -59.22813886 5.87415619 -70.25 15.25 C-77.53201166 22.10759994 -80.11922053 29.08106807 -81 39 C-81.14008428 50.14448262 -77.83985105 58.96481449 -70.1328125 67.02734375 C-60.95680722 75.51430834 -50.87674887 77.52254887 -38.60546875 77.21484375 C-28.5667957 76.6166563 -18.58260549 74.09531924 -10.94140625 67.12109375 C-9.0014713 64.89272723 -7.3241643 62.6483286 -6 60 C-1.57676318 60.58265272 1.5155864 62.26766211 5.3125 64.5625 C6.38113281 65.20316406 7.44976563 65.84382813 8.55078125 66.50390625 C9.35902344 66.99761719 10.16726563 67.49132812 11 68 C8.49451438 77.02499531 1.44268914 83.86205422 -6.4375 88.69140625 C-24.11399626 97.71827553 -43.7715096 98.97218565 -62.84375 94.0625 C-79.14324626 88.57554086 -89.90372006 78.03783196 -97.5390625 62.9609375 C-100.72784238 55.49669855 -101.45201678 48.80374692 -101.5 40.75 C-101.50636475 39.83951904 -101.51272949 38.92903809 -101.51928711 37.9909668 C-101.25169886 23.72605708 -95.1978851 11.59697167 -85.5 1.29296875 C-81.38938049 -2.47724008 -76.85048003 -5.2815991 -72 -8 C-71.01 -8.5775 -70.02 -9.155 -69 -9.75 C-46.12357984 -19.28184173 -18.91304201 -16.50592757 0 0 Z " fill="#033074" transform="translate(869,174)"/>
<path d="M0 0 C9.466875 -0.0928125 9.466875 -0.0928125 19.125 -0.1875 C21.1064502 -0.21481201 23.08790039 -0.24212402 25.12939453 -0.27026367 C26.713861 -0.27903203 28.29833427 -0.28667514 29.8828125 -0.29296875 C30.69419678 -0.30831665 31.50558105 -0.32366455 32.34155273 -0.33947754 C38.16092185 -0.34214453 42.39902548 0.64985321 46.86328125 4.68359375 C47.34152344 5.26238281 47.81976562 5.84117187 48.3125 6.4375 C49.04919922 7.30181641 49.04919922 7.30181641 49.80078125 8.18359375 C52.65757151 12.51065391 52.64726493 17.9900013 52 23 C50.9068822 25.61584521 49.60811371 27.63808299 48 30 C48.42152344 30.47050781 48.84304688 30.94101562 49.27734375 31.42578125 C49.82519531 32.04839844 50.37304688 32.67101562 50.9375 33.3125 C51.48277344 33.92738281 52.02804687 34.54226563 52.58984375 35.17578125 C55.28686774 38.66472919 55.40216542 42.27473315 55.33984375 46.51953125 C54.73610041 50.92616368 52.90942842 54.6557559 50 58 C44.20850683 62.08696868 39.89564213 62.55076882 32.91015625 62.390625 C31.65277649 62.38458252 31.65277649 62.38458252 30.36999512 62.37841797 C27.26727102 62.35764049 24.16486131 62.30179579 21.0625 62.25 C10.6365625 62.12625 10.6365625 62.12625 0 62 C0 41.54 0 21.08 0 0 Z " fill="#093477" transform="translate(682,304)"/>
<path d="M0 0 C3.18186679 2.84815881 4.74563688 5.45131126 5.44140625 9.6875 C5.69397389 15.68394457 5.09944575 19.53883845 1 24 C0.34 24 -0.32 24 -1 24 C-1 24.66 -1 25.32 -1 26 C0.83700789 26.77242269 0.83700789 26.77242269 3 27 C3.391875 26.5153125 3.78375 26.030625 4.1875 25.53125 C7.00905468 23.14752277 9.58120466 23.71324417 13.1875 23.8125 C14.45980469 23.83957031 15.73210938 23.86664063 17.04296875 23.89453125 C18.50669922 23.94673828 18.50669922 23.94673828 20 24 C19.10635485 25.20995254 18.20994221 26.41786111 17.3125 27.625 C16.77109375 28.35460937 16.2296875 29.08421875 15.671875 29.8359375 C14.20795633 31.73082289 12.67517338 33.48330725 11.0625 35.25 C8.73963896 37.69382483 8.73963896 37.69382483 9.21679688 39.96264648 C10.04961556 42.12906541 10.99816472 43.55874306 12.46875 45.34765625 C12.95730469 45.95287109 13.44585938 46.55808594 13.94921875 47.18164062 C14.71685547 48.11266602 14.71685547 48.11266602 15.5 49.0625 C16.51423059 50.30027008 17.52480786 51.54104505 18.53125 52.78515625 C18.98048828 53.33051025 19.42972656 53.87586426 19.89257812 54.43774414 C21 56 21 56 22 59 C9.40717489 59.76681614 9.40717489 59.76681614 5.95703125 57.88671875 C4.625 56.5 4.625 56.5 3 54 C1.700625 54.928125 1.700625 54.928125 0.375 55.875 C-7.97996258 61.13553199 -17.81390145 61.16380946 -27.375 59.4375 C-32.67223321 57.33687304 -37.07834393 53.96983212 -40.203125 49.140625 C-41.88536767 44.6216594 -41.51988113 39.72965029 -41 35 C-38.9667971 30.93359419 -36.31770687 28.08072781 -33 25 C-33.9590625 24.13375 -33.9590625 24.13375 -34.9375 23.25 C-38.53424697 19.32627603 -38.41180784 14.68675222 -38.3359375 9.53515625 C-37.78485282 5.37638934 -36.07981969 2.79039086 -33 0 C-23.31633703 -6.52205637 -9.59783872 -7.10066349 0 0 Z " fill="#073376" transform="translate(542,308)"/>
<path d="M0 0 C6.27 0 12.54 0 19 0 C20.74267758 3.87319142 22.48455543 7.74672527 24.22460938 11.62109375 C24.81369498 12.93216062 25.40319654 14.24304069 25.99316406 15.55371094 C29.70063918 23.79113858 33.32950861 32.05325971 36.83154297 40.38037109 C37.75796955 42.87721508 37.75796955 42.87721508 39 44 C39.39791748 43.05793701 39.79583496 42.11587402 40.20581055 41.14526367 C41.70464038 37.59791783 43.20543922 34.05140772 44.70678711 30.50512695 C45.35216826 28.97995811 45.99703898 27.45457317 46.64135742 25.92895508 C50.31508712 17.23132151 54.04237412 8.57359487 58 0 C64.27 0 70.54 0 77 0 C77 20.46 77 40.92 77 62 C73.04 62 69.08 62 65 62 C64.67 46.49 64.34 30.98 64 15 C62.35 19.29 60.7 23.58 59 28 C57.929806 30.39050075 56.8314774 32.7689175 55.6875 35.125 C51.46732988 43.94509603 47.7425047 52.96938475 44 62 C40.7 62 37.4 62 34 62 C29.00341122 51.4313645 24.22465504 40.78247273 19.5625 30.0625 C17.396875 25.091875 15.23125 20.12125 13 15 C12.67 30.51 12.34 46.02 12 62 C8.04 62 4.08 62 0 62 C0 41.54 0 21.08 0 0 Z " fill="#0B3678" transform="translate(276,304)"/>
<path d="M0 0 C6.27 0 12.54 0 19 0 C21.06464648 4.65829443 23.12816369 9.31705819 25.18896484 13.97705078 C25.88852425 15.55806147 26.58870534 17.13879725 27.28955078 18.71923828 C34.75578604 35.55820824 34.75578604 35.55820824 38 44 C42.64130477 35.21583094 46.42258546 26.09426342 50.25 16.9375 C51.20306369 14.66038946 52.15712485 12.38372059 53.11419678 10.10829163 C53.7053616 8.70259902 54.29419001 7.29592106 54.88043213 5.88816833 C56.88759953 1.11240047 56.88759953 1.11240047 58 0 C63.94 0 69.88 0 76 0 C76 20.46 76 40.92 76 62 C72.37 62 68.74 62 65 62 C64.67 46.49 64.34 30.98 64 15 C61.31126529 21.21084975 58.623286 27.42201493 55.93725586 33.6340332 C55.02299109 35.74783413 54.10827971 37.86144195 53.19311523 39.97485352 C51.87887396 43.01007415 50.56623267 46.0459823 49.25390625 49.08203125 C48.84346573 50.02899368 48.43302521 50.97595612 48.01014709 51.95161438 C47.62982834 52.83230087 47.24950958 53.71298737 46.85766602 54.62036133 C46.52235367 55.39535477 46.18704132 56.17034821 45.84156799 56.96882629 C45.1579857 58.61869224 44.56474263 60.30577211 44 62 C40.37 62 36.74 62 33 62 C32.32195313 60.38996094 31.64390625 58.77992188 30.9453125 57.12109375 C24.72456079 42.37169256 18.40641359 27.66975864 12 13 C11.67 29.17 11.34 45.34 11 62 C7.37 62 3.74 62 0 62 C0 41.54 0 21.08 0 0 Z " fill="#043074" transform="translate(594,304)"/>
<path d="M0 0 C6.93 0 13.86 0 21 0 C21 35.31 21 70.62 21 107 C14.07 107 7.14 107 0 107 C0 71.69 0 36.38 0 0 Z " fill="#032F73" transform="translate(277,161)"/>
<path d="M0 0 C5.61 0 11.22 0 17 0 C23.6799155 14.82453008 30.32860207 29.66274746 36.871521 44.54833984 C37.49887172 45.97451797 38.12749377 47.40013753 38.75738525 48.82519531 C39.64007649 50.82329208 40.51796628 52.82342829 41.39453125 54.82421875 C42.15020386 56.54257935 42.15020386 56.54257935 42.92114258 58.2956543 C44 61 44 61 44 63 C40.04 63 36.08 63 32 63 C30.02 59.04 28.04 55.08 26 51 C14.12 50.67 2.24 50.34 -10 50 C-10.99 52.97 -11.98 55.94 -13 59 C-13.66 60.32 -14.32 61.64 -15 63 C-18.96 63 -22.92 63 -27 63 C-25.11620366 57.12664986 -23.02733994 51.49648837 -20.48828125 45.87890625 C-20.15636276 45.13527328 -19.82444427 44.39164032 -19.48246765 43.62547302 C-18.42977383 41.2693516 -17.37131318 38.91587679 -16.3125 36.5625 C-15.62265205 35.02166108 -14.93319653 33.4806464 -14.24414062 31.93945312 C-12.86858344 28.86389765 -11.4909183 25.78929951 -10.11181641 22.71533203 C-6.72130264 15.15242877 -3.36189174 7.5756579 0 0 Z " fill="#093477" transform="translate(767,304)"/>
<path d="M0 0 C2.90625 2.171875 2.90625 2.171875 5 4 C3.6190998 7.33717549 2.1798762 9.22301036 -1 11 C-3.9767137 10.53354589 -6.19771566 9.37640499 -8.8125 7.9375 C-15.1459297 5.05004619 -22.18795811 5.1446418 -29 6 C-31.92926533 7.13732888 -31.92926533 7.13732888 -34 9 C-34.41725678 12.62599422 -34.41725678 12.62599422 -34 16 C-29.39129325 18.18749976 -24.8075226 18.70193608 -19.8125 19.375 C-2.31790494 21.97375044 -2.31790494 21.97375044 3.0625 28.0625 C6.62005186 33.45620765 6.64931296 38.70527162 6 45 C2.76762229 51.58447312 -1.95960011 54.89680225 -8.76171875 57.36938477 C-12.46894485 58.41386175 -16.0452667 58.4455866 -19.875 58.375 C-20.66293945 58.36629883 -21.45087891 58.35759766 -22.26269531 58.34863281 C-32.24993743 58.09761437 -39.97931991 55.75643377 -47.375 48.75 C-48.179375 47.88375 -48.179375 47.88375 -49 47 C-47.64486335 42.93459004 -45.69203082 42.02699731 -42 40 C-38.99389131 40 -38.00248988 40.99791388 -35.6875 42.9375 C-30.54015536 46.88778775 -24.71063151 47.32782002 -18.375 47.4375 C-17.10398437 47.47746094 -15.83296875 47.51742187 -14.5234375 47.55859375 C-10.12181967 46.86077629 -8.70321226 45.47047739 -6 42 C-5.16600125 38.91318914 -5.16600125 38.91318914 -6 36 C-10.27668864 32.54640421 -14.85887585 32.22167026 -20.125 31.5625 C-38.90173804 28.865022 -38.90173804 28.865022 -44.125 22.9375 C-47.04425241 18.36400455 -47.54729989 14.33110631 -47 9 C-45.25796523 4.06423481 -42.53466332 0.61508191 -38 -2 C-25.13724233 -7.28027819 -12.37339924 -5.93673196 0 0 Z " fill="#053175" transform="translate(412,309)"/>
<path d="M0 0 C4.61190484 3.12344726 8.63812515 6.38226626 10 12 C6.7 12.99 3.4 13.98 0 15 C-0.721875 14.21625 -1.44375 13.4325 -2.1875 12.625 C-5.92706925 9.13473537 -8.31429975 8.15608336 -13.375 7.6875 C-18.31199503 8.11310302 -22.25932848 9.31735086 -25.875 12.8125 C-27.99758306 16.93974483 -28.16022312 20.0707059 -27.375 24.625 C-25.82131633 28.43858719 -24.44170258 29.8174569 -21 32 C-15.48562306 33.83812565 -9.92827647 33.72310368 -4.5 31.6875 C-1.78077469 30.08207479 -1.78077469 30.08207479 0 27 C3.34373475 27.55728913 6.03312999 28.35173889 9 30 C8.50413604 34.17531828 7.50925368 35.97787069 4.3125 38.6875 C3.64863281 39.26886719 2.98476563 39.85023438 2.30078125 40.44921875 C-4.69710676 45.1659616 -12.89013903 44.70482697 -21 44 C-27.99496023 42.03929145 -33.06979828 36.98887881 -37 31 C-39.70051909 25.15053615 -40.21291732 18.88789174 -38.27734375 12.68359375 C-34.93597691 5.55444264 -29.85081939 1.55227672 -23 -2 C-15.49854026 -4.50048658 -7.09129047 -3.29155991 0 0 Z " fill="#073376" transform="translate(464,324)"/>
<path d="M0 0 C5.21436012 2.52247024 5.21436012 2.52247024 6.5390625 5.171875 C7.46296703 13.86566515 7.46296703 13.86566515 4.7265625 17.734375 C-0.92710778 21.44964404 -7.95857189 20.7311381 -14.4609375 20.171875 C-17.75472391 18.94830294 -19.8534543 17.3868414 -21.4609375 14.171875 C-22.03885288 7.1213074 -22.03885288 7.1213074 -19.7109375 3.296875 C-14.23864901 -1.87139747 -7.0511904 -2.37278153 0 0 Z " fill="#FBFCFD" transform="translate(532.4609375,338.828125)"/>
<path d="M0 0 C4.39685683 -0.13487291 8.7895828 -0.23408579 13.1875 -0.3125 C14.43337891 -0.35439453 15.67925781 -0.39628906 16.96289062 -0.43945312 C27.27039166 -0.57762338 27.27039166 -0.57762338 30.328125 2.296875 C32.5237494 5.84680978 32.67122893 7.89804545 32 12 C29.80298001 14.95615827 28.65660814 15.90141337 24.97558594 16.45410156 C23.82348633 16.4331543 22.67138672 16.41220703 21.484375 16.390625 C20.23398437 16.37773437 18.98359375 16.36484375 17.6953125 16.3515625 C15.74238281 16.30128906 15.74238281 16.30128906 13.75 16.25 C12.43257812 16.23195313 11.11515625 16.21390625 9.7578125 16.1953125 C6.50489844 16.14816882 3.25235783 16.07642616 0 16 C0 10.72 0 5.44 0 0 Z " fill="#FEFEFE" transform="translate(693,340)"/>
<path d="M0 0 C4.25067453 -0.10776358 8.49862759 -0.18721602 12.75 -0.25 C13.9565625 -0.28351563 15.163125 -0.31703125 16.40625 -0.3515625 C18.14648438 -0.37089844 18.14648438 -0.37089844 19.921875 -0.390625 C20.99018555 -0.41157227 22.05849609 -0.43251953 23.15917969 -0.45410156 C26.7010941 0.11206901 27.84846015 1.18174999 30 4 C30.5 7 30.5 7 30 10 C27.84846015 12.81825001 26.7010941 13.88793099 23.15917969 14.45410156 C21.55671387 14.42268066 21.55671387 14.42268066 19.921875 14.390625 C18.76171875 14.37773437 17.6015625 14.36484375 16.40625 14.3515625 C15.1996875 14.31804687 13.993125 14.28453125 12.75 14.25 C10.91695312 14.22292969 10.91695312 14.22292969 9.046875 14.1953125 C6.03091545 14.14818813 3.01535881 14.07644572 0 14 C0 9.38 0 4.76 0 0 Z " fill="#FDFDFE" transform="translate(693,315)"/>
<path d="M0 0 C0.66 0 1.32 0 2 0 C2.43699219 1.05574219 2.43699219 1.05574219 2.8828125 2.1328125 C4.78497215 6.71474424 6.68666946 11.29537597 8.66796875 15.84375 C9.07861572 16.78903564 9.07861572 16.78903564 9.49755859 17.75341797 C10.28339604 19.55816029 11.07326193 21.36114686 11.86328125 23.1640625 C13 26 13 26 13 28 C5.08 28 -2.84 28 -11 28 C-9.87464206 21.24785237 -9.87464206 21.24785237 -8.4765625 18.125 C-8.1775 17.44953125 -7.8784375 16.7740625 -7.5703125 16.078125 C-7.25835938 15.39234375 -6.94640625 14.7065625 -6.625 14 C-6.32078125 13.31421875 -6.0165625 12.6284375 -5.703125 11.921875 C-3.9043504 7.89384983 -2.00268864 3.93165869 0 0 Z " fill="#F7F8FA" transform="translate(775,314)"/>
<path d="M0 0 C2.65683189 1.49748707 4.84652751 2.84652751 7 5 C7.375 8.25 7.375 8.25 7 12 C4.8272578 14.63016161 3.05326212 16.47336894 0 18 C-5.9568931 18.40385716 -9.71687452 17.80329107 -15 15 C-16.60368502 11.79262995 -16.62520727 8.46955684 -16 5 C-11.51102833 0.26838121 -6.38580391 -0.91570018 0 0 Z " fill="#F9FAFB" transform="translate(530,312)"/>
</svg>
