<?xml version="1.0" encoding="UTF-8"?>
<svg version="1.1" xmlns="http://www.w3.org/2000/svg" width="409" height="123">
<path d="M0 0 C134.97 0 269.94 0 409 0 C409 40.59 409 81.18 409 123 C274.03 123 139.06 123 0 123 C0 82.41 0 41.82 0 0 Z " fill="#FBFBFB" transform="translate(0,0)"/>
<path d="M0 0 C0 17.82 0 35.64 0 54 C-2.31 53.67 -4.62 53.34 -7 53 C-8.93473203 52.86709899 -10.87346996 52.78183086 -12.8125 52.75 C-14.21435547 52.71132812 -14.21435547 52.71132812 -15.64453125 52.671875 C-18.64572768 52.96535637 -20.84193603 53.55266016 -23.671875 54.5 C-29.31975491 56.28772656 -34.55412562 56.37746647 -40.4375 56.25 C-41.90606445 56.24226563 -41.90606445 56.24226563 -43.40429688 56.234375 C-50.53201626 56.15599458 -50.53201626 56.15599458 -54 55 C-54 37.18 -54 19.36 -54 1 C-46.74 1 -39.48 1 -32 1 C-27.4094677 -0.05809608 -27.4094677 -0.05809608 -22.875 -1.32421875 C-15.27346666 -3.11099221 -7.20624284 -2.88249714 0 0 Z " fill="#BF2D37" transform="translate(56,63)"/>
<path d="M0 0 C3.63 0 7.26 0 11 0 C11 1.98 11 3.96 11 6 C12.98 6 14.96 6 17 6 C17 4.02 17 2.04 17 0 C18.98 0 20.96 0 23 0 C23 1.98 23 3.96 23 6 C25.31 6 27.62 6 30 6 C30 4.02 30 2.04 30 0 C31.98 0 33.96 0 36 0 C36 1.98 36 3.96 36 6 C38.31 6 40.62 6 43 6 C43 4.02 43 2.04 43 0 C46.63 0 50.26 0 54 0 C54 17.82 54 35.64 54 54 C52.35 53.67 50.7 53.34 49 53 C39.76960379 52.30658354 31.88094344 53.26774704 23.00927734 55.5637207 C14.25384115 57.79048426 8.68753135 57.48215181 0 55 C0 36.85 0 18.7 0 0 Z " fill="#BF2C36" transform="translate(2,3)"/>
<path d="M0 0 C0.8154126 0.00128906 1.6308252 0.00257812 2.47094727 0.00390625 C7.61904348 0.08608677 11.7032715 0.82771182 16.52734375 2.6484375 C21.59418059 3.83000439 26.77526094 3.49856026 31.95288086 3.37695312 C33.15182983 3.34891602 33.15182983 3.34891602 34.375 3.3203125 C35.096875 3.29598145 35.81875 3.27165039 36.5625 3.24658203 C38.375 3.3125 38.375 3.3125 40.375 4.3125 C40.375 8.6025 40.375 12.8925 40.375 17.3125 C37.405 17.8075 37.405 17.8075 34.375 18.3125 C32.375 15.3125 32.375 15.3125 32.75 12.625 C32.95625 11.861875 33.1625 11.09875 33.375 10.3125 C34.695 10.6425 36.015 10.9725 37.375 11.3125 C36.88 10.3225 36.88 10.3225 36.375 9.3125 C32.65763359 8.96349442 32.65763359 8.96349442 29.5625 10.8125 C28.9746875 11.555 28.9746875 11.555 28.375 12.3125 C27.88 11.3225 27.88 11.3225 27.375 10.3125 C26.92453829 16.05588681 27.81967143 17.9543553 31.375 22.3125 C31.125 25.125 31.125 25.125 30.375 27.3125 C32.76064077 26.73665568 35.04182784 26.09022405 37.375 25.3125 C37.560625 24.1059375 37.560625 24.1059375 37.75 22.875 C37.95625 22.029375 38.1625 21.18375 38.375 20.3125 C39.035 19.9825 39.695 19.6525 40.375 19.3125 C40.42435824 24.54523331 40.46069949 29.77783176 40.48486328 35.01074219 C40.49493431 36.79169067 40.50859185 38.57262257 40.52587891 40.35351562 C40.55007913 42.91019783 40.56147184 45.46666185 40.5703125 48.0234375 C40.58063507 48.82244476 40.59095764 49.62145203 40.60159302 50.44467163 C40.60199226 52.4020722 40.49741069 54.35893077 40.375 56.3125 C37.56104747 59.12645253 35.49372903 58.59928853 31.64648438 58.640625 C30.75251953 58.63546875 29.85855469 58.6303125 28.9375 58.625 C28.02677734 58.62371094 27.11605469 58.62242188 26.17773438 58.62109375 C20.37625609 58.53827465 15.41002097 57.82258547 9.88671875 55.984375 C2.58162149 54.03028989 -5.27152278 55.39331535 -12.625 56.3125 C-12.625 38.4925 -12.625 20.6725 -12.625 2.3125 C-8.18917912 0.09458956 -4.82027314 -0.03160511 0 0 Z " fill="#BF2E38" transform="translate(74.625,60.6875)"/>
<path d="M0 0 C0.66 0.33 1.32 0.66 2 1 C1.49082031 1.53238281 0.98164062 2.06476562 0.45703125 2.61328125 C-1.503932 5.82547574 -0.92985069 7.52280122 -0.3125 11.1875 C0.23776478 16.2363212 0.06579312 18.87725778 -2.875 23.0625 C-3.42929688 23.73410156 -3.98359375 24.40570312 -4.5546875 25.09765625 C-6.07262484 27.09559 -6.57464282 28.55146956 -7 31 C1.6256298 24.45692808 10.0861209 17.73432443 18.46875 10.8828125 C19.37753906 10.14272949 19.37753906 10.14272949 20.3046875 9.38769531 C21.82674467 8.14181787 23.33610226 6.88046376 24.84375 5.6171875 C27 4 27 4 29 4 C27.38860208 7.61707406 25.18105107 10.5097127 22.75 13.625 C22.11312256 14.4442395 22.11312256 14.4442395 21.46337891 15.2800293 C20.51449918 16.49984934 19.56404751 17.71844767 18.61230469 18.93603516 C16.81300426 21.23937947 15.01946479 23.54714099 13.2265625 25.85546875 C9.82089768 30.23946629 6.41155296 34.62058341 3 39 C8.50713084 38.46822253 8.50713084 38.46822253 13.0625 35.4375 C16 33 16 33 19 32.625 C21.06993125 32.88374141 23.1332022 33.19997686 25.1875 33.5625 C28.07073971 34.23102517 28.07073971 34.23102517 31 33 C31.33 32.01 31.66 31.02 32 30 C33 33 33 33 31.625 36.0625 C28.14536066 39.95638212 25.05298418 40.43422185 20 41 C19.34 41 18.68 41 18 41 C17.835 41.7425 17.67 42.485 17.5 43.25 C15.32325258 47.2407036 12.083477 48.30013399 8 50 C15.93840199 52.90830856 23.58557044 53.64838839 32 54 C28.66732693 57.33267307 24.68043405 56.94512629 20.125 57.3125 C12.80809167 57.12552619 5.65315528 56.07950137 -1 53 C-3.35401293 49.96336469 -4.60322272 47.29775991 -5.859375 43.6796875 C-6.75672309 40.87175927 -6.75672309 40.87175927 -9.140625 39.6328125 C-9.75421875 39.42398438 -10.3678125 39.21515625 -11 39 C-10.360625 39.78375 -9.72125 40.5675 -9.0625 41.375 C-5.67127679 45.69110227 -6 45.83363714 -6 52 C-13.92 52.99 -13.92 52.99 -22 54 C-22 37.17 -22 20.34 -22 3 C-19.72002437 5.27997563 -19.54789543 6.26052284 -18.9296875 9.3515625 C-18.75566406 10.20234375 -18.58164063 11.053125 -18.40234375 11.9296875 C-18.22832031 12.81914062 -18.05429688 13.70859375 -17.875 14.625 C-17.69324219 15.5221875 -17.51148437 16.419375 -17.32421875 17.34375 C-16.8760054 19.5612266 -16.4349076 21.77988214 -16 24 C-15.56042969 23.03835937 -15.12085937 22.07671875 -14.66796875 21.0859375 C-13 18 -13 18 -10.3125 16.625 C-9.549375 16.41875 -8.78625 16.2125 -8 16 C-7.97873047 15.00419922 -7.97873047 15.00419922 -7.95703125 13.98828125 C-7.56381014 6.70837684 -7.56381014 6.70837684 -4.5625 2.9375 C-2 1 -2 1 0 0 Z " fill="#BF2E38" transform="translate(84,3)"/>
<path d="M0 0 C2.459158 2.69893985 2.9721479 3.77718324 3.4375 7.5 C3 11 3 11 1.1875 13.4375 C-1 15 -1 15 -4 15 C-4 15.66 -4 16.32 -4 17 C-2.88625 17.0928125 -2.88625 17.0928125 -1.75 17.1875 C1.99810061 18.29489336 3.0092057 19.65830956 5 23 C6.41612807 27.41178359 6.43705129 30.10908775 4.375 34.3125 C1.5418236 37.51846277 -1.23422799 39.117114 -5 41 C-7.17824961 41.08559118 -9.35915255 41.10713412 -11.5390625 41.09765625 C-12.84101563 41.09443359 -14.14296875 41.09121094 -15.484375 41.08789062 C-16.86458399 41.07953466 -18.24479232 41.07106971 -19.625 41.0625 C-21.01301926 41.05748501 -22.40104022 41.0529221 -23.7890625 41.04882812 C-27.19275132 41.03700976 -30.59635439 41.02053434 -34 41 C-34 40.34 -34 39.68 -34 39 C-31.69 38.34 -29.38 37.68 -27 37 C-27 25.12 -27 13.24 -27 1 C-29.31 0.34 -31.62 -0.32 -34 -1 C-34 -1.33 -34 -1.66 -34 -2 C-24.28425867 -4.44371587 -8.87327347 -5.12508037 0 0 Z " fill="#1D1D1D" transform="translate(167,77)"/>
<path d="M0 0 C5.71854831 1.69549941 9.16876538 5.95759454 12 11 C14.05029989 17.15089966 14.27930664 25.5151687 12.0234375 31.66015625 C9.20843252 36.27987301 6.18670862 39.27109713 1 41 C-5.41649311 41.79778778 -10.01294368 41.22558881 -15.3125 37.421875 C-20.44306729 33.098897 -22.58976719 28.48050155 -23.37109375 21.8515625 C-23.5196273 14.63457947 -23.07648604 9.40238391 -18 4 C-12.49434159 -1.27901038 -7.27769057 -0.87152591 0 0 Z " fill="#FCFCFC" transform="translate(350,76)"/>
<path d="M0 0 C2.40861104 2.40861104 2.89259849 3.76602523 3.18359375 7.109375 C3.09250616 10.72858853 2.75844359 13.11303733 0.36328125 15.9140625 C-1.36669 17.39488981 -3.13491007 18.69811196 -5 20 C-2.96458886 22.0897693 -0.92210832 24.17174003 1.125 26.25 C1.69476563 26.83652344 2.26453125 27.42304687 2.8515625 28.02734375 C8.711389 34.19065835 8.711389 34.19065835 16.3359375 37.390625 C18.22395833 37.26041667 20.11197917 37.13020833 22 37 C23.58645357 33.82709287 23.12078213 30.41174616 23.09765625 26.9296875 C23.0962413 26.13345978 23.09482635 25.33723206 23.09336853 24.51687622 C23.08776345 21.9695462 23.07521014 19.42230353 23.0625 16.875 C23.05748565 15.14974085 23.05292263 13.42448033 23.04882812 11.69921875 C23.03779237 7.46611209 23.02052436 3.23307086 23 -1 C20.525 -1.495 20.525 -1.495 18 -2 C18 -2.33 18 -2.66 18 -3 C23.61 -3 29.22 -3 35 -3 C33.68 -2.34 32.36 -1.68 31 -1 C29.60476145 0.16748999 29.60476145 0.16748999 29.88647461 3.41821289 C29.88663372 4.93636988 29.89232774 6.45453229 29.90234375 7.97265625 C29.90446617 9.16912025 29.90446617 9.16912025 29.90663147 10.38975525 C29.91224684 12.94737435 29.92480188 15.50490718 29.9375 18.0625 C29.94251302 19.79231645 29.94707627 21.52213426 29.95117188 23.25195312 C29.96222125 27.50133553 29.97949614 31.75065312 30 36 C31.65 36.66 33.3 37.32 35 38 C35 38.66 35 39.32 35 40 C31.16692831 40.11719175 27.33432392 40.18758077 23.5 40.25 C22.42234375 40.28351563 21.3446875 40.31703125 20.234375 40.3515625 C11.54635806 40.45751393 6.01345887 39.02124973 -0.3359375 33.01953125 C-1.35959907 31.96070573 -2.37271543 30.891583 -3.375 29.8125 C-8.7386474 24.16970208 -8.7386474 24.16970208 -16.125 22.4375 C-17.03507813 22.35371094 -17.94515625 22.26992187 -18.8828125 22.18359375 C-19.58148438 22.12300781 -20.28015625 22.06242187 -21 22 C-20.85930804 24.12534659 -20.71229079 26.25027529 -20.5625 28.375 C-20.48128906 29.55835938 -20.40007812 30.74171875 -20.31640625 31.9609375 C-20.18915064 34.91518901 -20.18915064 34.91518901 -19 37 C-15.97065509 37.65772428 -15.97065509 37.65772428 -13 38 C-13 38.66 -13 39.32 -13 40 C-19.6 40 -26.2 40 -33 40 C-33 39.34 -33 38.68 -33 38 C-31.02 37.34 -29.04 36.68 -27 36 C-27 24.12 -27 12.24 -27 0 C-28.98 -0.66 -30.96 -1.32 -33 -2 C-33 -2.33 -33 -2.66 -33 -3 C-22.46095169 -5.03821217 -9.38785011 -6.08508834 0 0 Z " fill="#232323" transform="translate(208,78)"/>
<path d="M0 0 C0.66 0.33 1.32 0.66 2 1 C2 1.66 2 2.32 2 3 C4.97 3.99 7.94 4.98 11 6 C9 7 9 7 8 7 C8.54269531 7.24234375 9.08539063 7.4846875 9.64453125 7.734375 C17.43664122 11.38473282 17.43664122 11.38473282 19 15 C19.77746471 19.11976146 19.93668617 22.51216226 17.65234375 26.140625 C16.17323274 27.86100944 14.66432755 29.45950635 13 31 C14.12534105 32.35618499 14.12534105 32.35618499 17.0625 32.0625 C18.031875 32.041875 19.00125 32.02125 20 32 C20 30.68 20 29.36 20 28 C21.32 28.66 22.64 29.32 24 30 C23.45276317 33.37462715 22.9451 35.08235 21 38 C18.125 38.125 18.125 38.125 15 38 C12.73433657 38.43941523 12.73433657 38.43941523 11 39 C10.67 38.01 10.34 37.02 10 36 C9.34 36 8.68 36 8 36 C7.67 37.32 7.34 38.64 7 40 C5 38.8125 5 38.8125 3 37 C2.875 34.38671875 2.875 34.38671875 3 32 C3.63808594 31.72027344 4.27617187 31.44054687 4.93359375 31.15234375 C7.47961808 29.91706518 9.7470777 28.71732191 12 27 C13.2180773 23.33515719 13.2180773 23.33515719 13 20 C12.030625 19.731875 11.06125 19.46375 10.0625 19.1875 C9.051875 18.795625 8.04125 18.40375 7 18 C6.67 17.01 6.34 16.02 6 15 C6 15.33 6 15.66 6 16 C5 19 5 19 2.97265625 20.30859375 C0.70956641 21.88727115 0.70956641 21.88727115 0.49609375 24.84765625 C0.47675781 25.90855469 0.45742188 26.96945313 0.4375 28.0625 C0.37109375 31.28515625 0.37109375 31.28515625 0 34 C-0.99 34.66 -1.98 35.32 -3 36 C-3 33.69 -3 31.38 -3 29 C-4.98 31.97 -4.98 31.97 -7 35 C-7.99 34.67 -8.98 34.34 -10 34 C-9.67 33.01 -9.34 32.02 -9 31 C-9.6496875 30.608125 -10.299375 30.21625 -10.96875 29.8125 C-13 28 -13 28 -13.53125 25.6875 C-13.43696345 17.57885654 -12.36574612 9.44988977 -6.5 3.4375 C-5.675 2.963125 -4.85 2.48875 -4 2 C-2.9171875 1.3503125 -2.9171875 1.3503125 -1.8125 0.6875 C-0.9153125 0.3471875 -0.9153125 0.3471875 0 0 Z " fill="#FBF5F5" transform="translate(25,70)"/>
<path d="M0 0 C0 0.66 0 1.32 0 2 C1.98 1.34 3.96 0.68 6 0 C5.67 1.32 5.34 2.64 5 4 C8.3 4 11.6 4 15 4 C14.505 4.845625 14.01 5.69125 13.5 6.5625 C11.82768173 10.39489604 11.60966055 12.86240181 12 17 C13.62078662 20.17009472 13.62078662 20.17009472 16.1640625 20.51171875 C16.97617187 20.56972656 17.78828125 20.62773438 18.625 20.6875 C19.44226562 20.75324219 20.25953125 20.81898437 21.1015625 20.88671875 C21.72804687 20.92410156 22.35453125 20.96148437 23 21 C23 21.99 23 22.98 23 24 C22.34 24 21.68 24 21 24 C20.855625 24.78375 20.71125 25.5675 20.5625 26.375 C20 29 20 29 19 31 C20.65 31.33 22.3 31.66 24 32 C24 32.33 24 32.66 24 33 C23.20078125 33.02578125 22.4015625 33.0515625 21.578125 33.078125 C14.39164544 33.44925775 8.4220198 34.66757363 1.6796875 37.14453125 C-1.75875678 38.24222702 -4.43126895 38.3244301 -8 38 C-4.93024413 35.95349609 -2.30915848 35.00295435 1.1875 33.875 C2.27417969 33.52179687 3.36085938 33.16859375 4.48046875 32.8046875 C5.31191406 32.53914063 6.14335937 32.27359375 7 32 C4.03 32.66 1.06 33.32 -2 34 C-4.32472205 31.14693203 -5.7508258 28.45925163 -7 25 C-2.32538149 24.67386382 0.16674383 25.29417212 4 28 C4 26.68 4 25.36 4 24 C4.66 24 5.32 24 6 24 C6 25.32 6 26.64 6 28 C7.65 27.01 9.3 26.02 11 25 C10.67 24.01 10.34 23.02 10 22 C6.20640675 20.10320337 1.95604392 20.78275572 -2 22 C-2.66 20.68 -3.32 19.36 -4 18 C-4 19.32 -4 20.64 -4 22 C-5.65 22.33 -7.3 22.66 -9 23 C-8.67 24.65 -8.34 26.3 -8 28 C-10.375 28.125 -10.375 28.125 -13 28 C-13.66 27.34 -14.32 26.68 -15 26 C-14.625 23.875 -14.625 23.875 -14 22 C-13.01 22 -12.02 22 -11 22 C-11.33 21.34 -11.66 20.68 -12 20 C-12.375 17.125 -12.375 17.125 -12 14 C-8.74557407 10.55413726 -5.4496216 9.38432672 -1 8 C-0.34 7.34 0.32 6.68 1 6 C-2.50776784 4.39644899 -5.14354879 3.77963136 -9 4 C-9.33 3.34 -9.66 2.68 -10 2 C-8.7090864 1.66376204 -7.41723903 1.33110751 -6.125 1 C-5.40570313 0.814375 -4.68640625 0.62875 -3.9453125 0.4375 C-2 0 -2 0 0 0 Z " fill="#FBF5F6" transform="translate(23,15)"/>
<path d="M0 0 C6.26721763 -0.48209366 6.26721763 -0.48209366 9.375 1.5625 C12.17841616 5.76762424 12 10.06904808 12 15 C12.74765625 15.02578125 13.4953125 15.0515625 14.265625 15.078125 C22.26558497 15.53885568 22.26558497 15.53885568 25.6875 17.6875 C27.36686537 20.64638185 27.3721845 22.65033948 27 26 C26.67 26.33 26.34 26.66 26 27 C25.86419707 29.51235428 25.84287074 31.53976932 26.66015625 33.93359375 C27 36 27 36 26.00390625 37.921875 C25.52824219 38.52515625 25.05257812 39.1284375 24.5625 39.75 C24.08941406 40.36359375 23.61632812 40.9771875 23.12890625 41.609375 C22.57009766 42.29773438 22.57009766 42.29773438 22 43 C20.68 42.67 19.36 42.34 18 42 C18.680625 41.278125 19.36125 40.55625 20.0625 39.8125 C22.2618152 37.20866355 22.2618152 37.20866355 21.9375 34.375 C20.95736021 31.8919792 19.94189178 30.77303163 18 29 C18 28.34 18 27.68 18 27 C17.01 27.33 16.02 27.66 15 28 C7.98113208 28.73584906 7.98113208 28.73584906 5 26.5 C4.67 26.005 4.34 25.51 4 25 C3.67 25.33 3.34 25.66 3 26 C1.33382885 26.04063832 -0.33388095 26.042721 -2 26 C-1.2884375 26.86625 -1.2884375 26.86625 -0.5625 27.75 C0.9484867 29.92582084 1.54036151 31.42602448 2 34 C-1.82868919 32.54773858 -3.2538953 30.66681987 -5 27 C-5 25.68 -5 24.36 -5 23 C-4.01 22.67 -3.02 22.34 -2 22 C-1.08131178 19.48359313 -0.53849114 16.95755563 0.05859375 14.34765625 C1 12 1 12 3.09765625 10.68359375 C4.03931641 10.34521484 4.03931641 10.34521484 5 10 C3.35 9.67 1.7 9.34 0 9 C-0.33 9.99 -0.66 10.98 -1 12 C-2.32 11.34 -3.64 10.68 -5 10 C-4.6390625 9.36191406 -4.278125 8.72382812 -3.90625 8.06640625 C-3.4421875 7.24011719 -2.978125 6.41382812 -2.5 5.5625 C-2.0359375 4.73878906 -1.571875 3.91507812 -1.09375 3.06640625 C0.07796849 1.24236475 0.07796849 1.24236475 0 0 Z " fill="#FBF5F6" transform="translate(78,71)"/>
<path d="M0 0 C5.51420779 3.21057493 9.17565282 7.10821285 11.875 12.875 C13.39561416 20.3260094 12.6796639 24.96236321 9.046875 31.60546875 C5.05198237 37.62807203 -0.43850353 41.3923986 -7.5 42.9375 C-16.11604067 44.08347585 -23.1135763 41.70285407 -30.375 37.125 C-35.14296936 32.21679625 -37.18100206 27.02114677 -37.875 20.3125 C-37.75836095 14.06064698 -35.00432603 8.39133559 -30.5625 4.0390625 C-21.65065614 -2.88111929 -10.53714151 -4.86083614 0 0 Z M-26.19921875 4.25390625 C-31.24269841 10.7816532 -31.19831432 16.9019676 -30.5 24.9375 C-29.44819881 30.7839985 -26.90475971 34.03614882 -22.31640625 37.7109375 C-17.06754038 41.25533295 -12.74822697 41.57023185 -6.5 40.9375 C-1.04474476 39.01805834 1.54142893 36.01626101 4.5859375 31.23046875 C6.8702952 25.50005007 6.38805116 17.27778335 4.8125 11.3515625 C2.67424018 6.70084738 -0.34457898 3.85513604 -4.5 0.9375 C-12.01804869 -1.56851623 -20.55109209 -1.81467649 -26.19921875 4.25390625 Z " fill="#161616" transform="translate(357.5,76.0625)"/>
<path d="M0 0 C13.53 0 27.06 0 41 0 C41.495 5.445 41.495 5.445 42 11 C40 8 40 8 38 4 C31.07 3.505 31.07 3.505 24 3 C24.33 15.54 24.66 28.08 25 41 C28.465 41.495 28.465 41.495 32 42 C32 42.66 32 43.32 32 44 C24.74 44 17.48 44 10 44 C10 43.34 10 42.68 10 42 C13.465 41.505 13.465 41.505 17 41 C17.33 28.46 17.66 15.92 18 3 C13.38 3.33 8.76 3.66 4 4 C3.01 6.31 2.02 8.62 1 11 C0.67 11 0.34 11 0 11 C0 7.37 0 3.74 0 0 Z " fill="#131313" transform="translate(277,74)"/>
<path d="M0 0 C11.84470327 -0.56905158 11.84470327 -0.56905158 17 3 C19.81725233 7.2258785 19.79958384 11.03624688 19 16 C16.80977082 18.82424288 15.16982793 20.41508603 12 22 C9.94140625 22.203125 9.94140625 22.203125 7.5625 22.25 C6.78003906 22.27578125 5.99757812 22.3015625 5.19140625 22.328125 C2.42017401 21.91318113 1.71485273 21.18190612 0 19 C-0.34057617 16.9152832 -0.34057617 16.9152832 -0.29296875 14.55078125 C-0.28330078 13.70322266 -0.27363281 12.85566406 -0.26367188 11.98242188 C-0.23853516 11.10134766 -0.21339844 10.22027344 -0.1875 9.3125 C-0.17396484 8.41982422 -0.16042969 7.52714844 -0.14648438 6.60742188 C-0.11114079 4.40433834 -0.06180493 2.20247418 0 0 Z " fill="#FBFBFB" transform="translate(147,94)"/>
<path d="M0 0 C0.33 2.64 0.66 5.28 1 8 C0.5875 7.57847656 0.175 7.15695313 -0.25 6.72265625 C-4.76605964 2.43844789 -7.7148167 0.89696421 -14 1 C-16.59869315 1.86424561 -16.59869315 1.86424561 -18 4 C-19.00309237 6.82340774 -19.00309237 6.82340774 -18 10 C-14.42374804 14.18959332 -9.84111956 17.15561919 -5.25 20.125 C-1.78635131 22.39222427 0.93184477 24.3132885 3 28 C3.47873189 31.82985513 3.34360486 34.20428349 1.8125 37.75 C-0.68969179 40.85616912 -3.00659459 42.77259413 -7.09301758 43.23876953 C-9.50630688 43.29483968 -11.8997695 43.26176716 -14.3125 43.1875 C-15.56643555 43.16719727 -15.56643555 43.16719727 -16.84570312 43.14648438 C-18.89741498 43.11131217 -20.94879275 43.05751048 -23 43 C-24.20272819 40.59454362 -24.10071472 39.05003047 -24.0625 36.375 C-24.05347656 35.55773437 -24.04445312 34.74046875 -24.03515625 33.8984375 C-24.02355469 33.27195313 -24.01195312 32.64546875 -24 32 C-23.34 32.99 -22.68 33.98 -22 35 C-17.65593802 39.81842706 -17.65593802 39.81842706 -11.625 41.125 C-8.77697915 41.02679238 -6.68951272 40.74642864 -4 40 C-3.33421768 36.97431598 -2.91057442 34.10359377 -3 31 C-4.66468005 28.56243278 -5.65281098 27.64697717 -8 26 C-21.07008182 16.64745642 -21.07008182 16.64745642 -24 12 C-24.54457007 8.11021377 -24.32849047 5.21553446 -22 2 C-16.32306533 -3.12755389 -6.94393624 -1.50139162 0 0 Z " fill="#070707" transform="translate(271,75)"/>
<path d="M0 0 C11.57142857 0 11.57142857 0 15 3 C17.57068659 6.42758212 17.35867594 9.83935914 17 14 C15.23097156 18.68792537 14.60241139 19.69879431 10 22 C6.7 22 3.4 22 0 22 C0 14.74 0 7.48 0 0 Z " fill="#FBFBFB" transform="translate(188,76)"/>
<path d="M0 0 C6.93 0 13.86 0 21 0 C21 0.33 21 0.66 21 1 C19.2984375 1.2165625 19.2984375 1.2165625 17.5625 1.4375 C14.19222799 1.61171478 14.19222799 1.61171478 13 3 C12.91144839 5.6662603 12.88475327 8.30647114 12.90234375 10.97265625 C12.90446617 12.16912025 12.90446617 12.16912025 12.90663147 13.38975525 C12.91224684 15.94737435 12.92480188 18.50490718 12.9375 21.0625 C12.94251302 22.79231645 12.94707627 24.52213426 12.95117188 26.25195312 C12.96222125 30.50133553 12.97949614 34.75065312 13 39 C15.54348425 39.13593443 18.07961496 39.23448907 20.625 39.3125 C21.69427734 39.3753418 21.69427734 39.3753418 22.78515625 39.43945312 C26.92295233 39.5343567 29.28665858 39.17778452 32.5234375 36.48046875 C33.34070313 35.66191406 34.15796875 34.84335938 35 34 C33.94124926 37.40312738 32.99097846 40.01353231 31 43 C27.92724609 43.34057617 27.92724609 43.34057617 24.0234375 43.29296875 C23.33819 43.28872391 22.6529425 43.28447906 21.94692993 43.28010559 C19.75588871 43.26329753 17.56576368 43.22564405 15.375 43.1875 C13.89063827 43.17245579 12.40626215 43.15876693 10.921875 43.14648438 C7.28095167 43.1133879 3.64056522 43.06159207 0 43 C0 42.34 0 41.68 0 41 C1.98 41 3.96 41 6 41 C6 28.46 6 15.92 6 3 C4.02 2.34 2.04 1.68 0 1 C0 0.67 0 0.34 0 0 Z " fill="#111111" transform="translate(371,75)"/>
<path d="M0 0 C10.91525424 -0.4797914 10.91525424 -0.4797914 15.25 1.4375 C17.4833262 4.70772765 17.52117211 6.99311755 17.46875 10.87890625 C16.89349726 13.48192489 16.08835141 14.37955751 14 16 C9.36297289 17.5456757 4.87528349 17.05735628 0 17 C0 11.39 0 5.78 0 0 Z " fill="#FAFAFA" transform="translate(147,76)"/>
<path d="M0 0 C3.96 0 7.92 0 12 0 C13.14458607 26.22328441 13.14458607 26.22328441 12.9375 35.83984375 C12.8497023 38.05037027 12.8497023 38.05037027 14 40 C17.02934491 40.65772428 17.02934491 40.65772428 20 41 C20 41.66 20 42.32 20 43 C13.4 43 6.8 43 0 43 C0 42.34 0 41.68 0 41 C1.98 40.34 3.96 39.68 6 39 C6 27.12 6 15.24 6 3 C4.02 2.34 2.04 1.68 0 1 C0 0.67 0 0.34 0 0 Z " fill="#0D0D0D" transform="translate(175,75)"/>
<path d="M0 0 C4.69035801 0.23849278 7.12781826 0.3822046 11 3.125 C13.5322053 6.76504512 13.71175407 8.65039177 13 13 C11.1875 15.4375 11.1875 15.4375 9 17 C8.01 17 7.02 17 6 17 C6 17.66 6 18.32 6 19 C7.11375 19.0928125 7.11375 19.0928125 8.25 19.1875 C11.99810061 20.29489336 13.0092057 21.65830956 15 25 C16.41612807 29.41178359 16.43705129 32.10908775 14.375 36.3125 C11.26024342 39.83709297 8.96940278 41.86870648 4.1875 42.1875 C3.465625 42.125625 2.74375 42.06375 2 42 C2 41.34 2 40.68 2 40 C3.65532623 38.98133771 5.32260138 37.98189187 7 37 C8.23689062 34.52621876 8.13310087 32.82084683 8.125 30.0625 C8.12757813 29.18722656 8.13015625 28.31195313 8.1328125 27.41015625 C8.09822003 24.85540944 8.09822003 24.85540944 7 22 C3.99152582 20.77479736 3.99152582 20.77479736 1 20 C1 19.01 1 18.02 1 17 C2.2375 16.443125 2.2375 16.443125 3.5 15.875 C6.14955528 14.29134107 6.14955528 14.29134107 6.54296875 11.94921875 C6.69538186 9.43234285 6.64874929 7.44053304 6 5 C3.15269289 2.43319686 3.15269289 2.43319686 0 1 C0 0.67 0 0.34 0 0 Z " fill="#0C0C0C" transform="translate(157,75)"/>
<path d="M0 0 C0 18.15 0 36.3 0 55 C-1.65 55 -3.3 55 -5 55 C-3.515 54.505 -3.515 54.505 -2 54 C-2.33 42.12 -2.66 30.24 -3 18 C-3.99 20.475 -3.99 20.475 -5 23 C-6.875 24.875 -6.875 24.875 -9 26 C-11.25 25.6875 -11.25 25.6875 -13 25 C-12.7525 24.278125 -12.505 23.55625 -12.25 22.8125 C-11.65729248 19.85581469 -11.65729248 19.85581469 -13.9375 17.625 C-16.58327312 14.2576524 -16.32737734 12.17406107 -16 8 C-15.360625 7.855625 -14.72125 7.71125 -14.0625 7.5625 C-12.02454854 7.18992819 -12.02454854 7.18992819 -11 6 C-8.5625 5.8125 -8.5625 5.8125 -6 6 C-5.34 6.66 -4.68 7.32 -4 8 C-4.33 8.99 -4.66 9.98 -5 11 C-5.33 10.34 -5.66 9.68 -6 9 C-6.99 8.67 -7.98 8.34 -9 8 C-9.16687448 10.41645782 -9.16687448 10.41645782 -9 13 C-8.34 13.66 -7.68 14.32 -7 15 C-5.35 15 -3.7 15 -2 15 C-2 10.71 -2 6.42 -2 2 C-2.66 1.67 -3.32 1.34 -4 1 C-2 0 -2 0 0 0 Z " fill="#C4434B" transform="translate(117,63)"/>
<path d="M0 0 C6.53388068 0.62227435 10.26281299 3.18384994 14.75 7.875 C18.14350353 12.58819935 19.55494243 16.91844063 19.375 22.7890625 C18.18120686 29.82746788 14.29684861 35.41953792 8.84375 39.84375 C4.61731743 42.49422466 1.15433845 43.24468285 -3.8125 43.125 C-4.78832031 43.10695312 -5.76414062 43.08890625 -6.76953125 43.0703125 C-7.87361328 43.03550781 -7.87361328 43.03550781 -9 43 C-9 42.67 -9 42.34 -9 42 C-7.78763672 41.85304688 -7.78763672 41.85304688 -6.55078125 41.703125 C1.61214514 40.75688065 1.61214514 40.75688065 8 36 C12.03929044 29.20844794 11.72671705 22.69659426 11 15 C9.31458354 8.37872105 5.53805074 5.62103317 0 2 C0 1.34 0 0.68 0 0 Z " fill="#0B0B0B" transform="translate(351,75)"/>
<path d="M0 0 C3.96 0 7.92 0 12 0 C11.01 0.66 10.02 1.32 9 2 C8.53608015 4.04110628 8.53608015 4.04110628 8.6015625 6.39453125 C8.59769531 7.26787109 8.59382812 8.14121094 8.58984375 9.04101562 C8.60144531 9.95560547 8.61304688 10.87019531 8.625 11.8125 C8.61339844 12.71548828 8.60179687 13.61847656 8.58984375 14.54882812 C8.61166685 19.49903526 8.74840156 23.00173821 12 27 C15.03245311 29.35857464 18.26065814 29.35933916 22.03515625 29.25390625 C24.95627792 28.87642532 26.74314524 27.85858628 29 26 C31.66182872 21.6144706 31.36750783 17.43103055 31.375 12.4375 C31.39949219 11.57447266 31.42398438 10.71144531 31.44921875 9.82226562 C31.45308594 8.99275391 31.45695312 8.16324219 31.4609375 7.30859375 C31.47326416 6.17635376 31.47326416 6.17635376 31.48583984 5.02124023 C31.08241595 2.39762585 31.08241595 2.39762585 27 0 C30.3 0 33.6 0 37 0 C36.34 0.66 35.68 1.32 35 2 C34.69545728 4.13026874 34.69545728 4.13026874 34.7265625 6.578125 C34.7059375 7.49207031 34.6853125 8.40601563 34.6640625 9.34765625 C34.6382323 11.26683984 34.61987748 13.18614008 34.609375 15.10546875 C34.46397288 20.86500819 34.0278047 24.54311644 30 29 C24.77740143 33.05630398 19.34659858 32.77397544 13 32 C8.4148229 29.828074 6.08990569 27.58239945 4 23 C3.45288432 18.48311476 3.51526782 13.94070421 3.47265625 9.39648438 C3.45074219 8.47802734 3.42882812 7.55957031 3.40625 6.61328125 C3.39916016 5.77579346 3.39207031 4.93830566 3.38476562 4.07543945 C3.25779297 3.39054443 3.13082031 2.70564941 3 2 C2.01 1.34 1.02 0.68 0 0 Z " fill="#070707" transform="translate(133,26)"/>
<path d="M0 0 C5.61 0 11.22 0 17 0 C15.02 0.99 15.02 0.99 13 2 C10.98287481 4.01712519 11.81209364 8.09952196 11.796875 10.8671875 C11.79117493 11.65771515 11.78547485 12.4482428 11.77960205 13.26272583 C11.77013792 14.93897151 11.76361248 16.61523592 11.75976562 18.29150391 C11.75006643 20.85742683 11.71906006 23.42254677 11.6875 25.98828125 C11.68096957 27.61457856 11.67571926 29.24088162 11.671875 30.8671875 C11.6595282 31.63602264 11.6471814 32.40485779 11.63446045 33.19699097 C11.65326285 37.69095309 11.67285921 38.67285921 15 42 C10.71 42 6.42 42 2 42 C2.99 40.68 3.98 39.36 5 38 C5.25673097 35.16657345 5.35005816 32.5616281 5.29296875 29.734375 C5.28872391 28.94097717 5.28447906 28.14757935 5.28010559 27.33013916 C5.2633504 24.8030768 5.22570506 22.27682017 5.1875 19.75 C5.17244903 18.03386571 5.15876134 16.31771888 5.14648438 14.6015625 C5.11345735 10.40073254 5.06169765 6.20050275 5 2 C3.35 1.67 1.7 1.34 0 1 C0 0.67 0 0.34 0 0 Z " fill="#010101" transform="translate(226,75)"/>
<path d="M0 0 C2.5 2.375 2.5 2.375 4 5 C4 5.66 4 6.32 4 7 C-0.95 7 -5.9 7 -11 7 C-10.06547102 12.44853731 -10.06547102 12.44853731 -7.25 17 C-4.38345012 18.27402217 -2.10176585 18.21148404 1 18 C0.67 18.66 0.34 19.32 0 20 C-2.98475515 20.74618879 -5.00418509 21.20874793 -8 21 C-11.12880598 19.0028898 -12.55108594 17.43916565 -13.6640625 13.87109375 C-14.41199496 9.5374851 -14.25428986 7.4910425 -12.1875 3.5 C-8.72728759 -0.45452847 -5.10300955 -0.92781992 0 0 Z " fill="#0D0D0D" transform="translate(249,37)"/>
<path d="M0 0 C2.8100346 1.79363911 4.50940468 3.01880935 6 6 C6.42068924 9.05901174 6.49028455 11.94758326 6 15 C3.5625 18 3.5625 18 1 20 C0.67 20.33 0.34 20.66 0 21 C-5.28190335 21.35212689 -8.74230495 21.5063371 -13 18 C-15.32432174 15.01158633 -15.47116644 11.70297381 -15.39453125 7.96875 C-14.72206358 4.61306974 -12.59717314 3.04063604 -10 1 C-6.79826746 -0.60086627 -3.47422941 -0.49917089 0 0 Z M-10.4375 2.9375 C-12.61944911 7.21412026 -12.41077177 10.45600256 -11 15 C-9.01841274 18.2338734 -9.01841274 18.2338734 -6 20 C-2.4748923 20.07050215 -0.79475451 19.68878725 1.875 17.375 C3.452015 14.04574611 3.38371319 11.64527529 3 8 C1.59539303 5.12694028 0.25489001 3.25489001 -2 1 C-5.81952435 0.41876803 -7.37748947 0.50518394 -10.4375 2.9375 Z " fill="#0B0B0B" transform="translate(370,37)"/>
<path d="M0 0 C0 1.32 0 2.64 0 4 C-0.66 3.67 -1.32 3.34 -2 3 C-5.5 2.75 -5.5 2.75 -9 3 C-11.29575603 5.29575603 -11.32339599 6.00842525 -11.625 9.125 C-11.810625 11.043125 -11.810625 11.043125 -12 13 C-10.35 13 -8.7 13 -7 13 C-7 13.66 -7 14.32 -7 15 C-8.65 15 -10.3 15 -12 15 C-12 20.61 -12 26.22 -12 32 C-11.34 32.33 -10.68 32.66 -10 33 C-12.31 33 -14.62 33 -17 33 C-16.67 32.34 -16.34 31.68 -16 31 C-15.7677354 28.28737884 -15.58063765 25.59226874 -15.4375 22.875 C-15.39431641 22.12089844 -15.35113281 21.36679687 -15.30664062 20.58984375 C-15.2005168 18.72678112 -15.09974999 16.86341476 -15 15 C-15.99 14.67 -16.98 14.34 -18 14 C-17.34 13.67 -16.68 13.34 -16 13 C-15.31223808 11.04685497 -15.31223808 11.04685497 -14.75 8.75 C-12.30790298 1.10623632 -8.26175021 -2.14805505 0 0 Z " fill="#060606" transform="translate(398,24)"/>
<path d="M0 0 C2.5625 0.1875 2.5625 0.1875 4.5625 2.1875 C4.2325 3.1775 3.9025 4.1675 3.5625 5.1875 C3.2325 4.5275 2.9025 3.8675 2.5625 3.1875 C1.5725 2.8575 0.5825 2.5275 -0.4375 2.1875 C-0.60437448 4.60395782 -0.60437448 4.60395782 -0.4375 7.1875 C1.7010485 9.3260485 2.69525314 9.61405063 5.5625 10.1875 C4.5725 10.6825 4.5725 10.6825 3.5625 11.1875 C2.88465008 13.51760909 2.21833207 15.85109824 1.5625 18.1875 C0.9025 18.8475 0.2425 19.5075 -0.4375 20.1875 C-2.5625 19.8125 -2.5625 19.8125 -4.4375 19.1875 C-4.19 18.465625 -3.9425 17.74375 -3.6875 17 C-3.09479248 14.04331469 -3.09479248 14.04331469 -5.375 11.8125 C-8.02077312 8.4451524 -7.76487734 6.36156107 -7.4375 2.1875 C-6.798125 2.043125 -6.15875 1.89875 -5.5 1.75 C-2.96490689 1.05861097 -2.72071564 0.20928582 0 0 Z " fill="#F8EDEE" transform="translate(108.4375,68.8125)"/>
<path d="M0 0 C0.33 1.32 0.66 2.64 1 4 C3.31 4 5.62 4 8 4 C8 4.66 8 5.32 8 6 C5.69 6 3.38 6 1 6 C1.14063135 8.29199177 1.28765943 10.58359186 1.4375 12.875 C1.51871094 14.15117188 1.59992188 15.42734375 1.68359375 16.7421875 C1.79206027 19.88300152 1.79206027 19.88300152 3 22 C4.65 21.67 6.3 21.34 8 21 C7.67 21.99 7.34 22.98 7 24 C5.02 24.33 3.04 24.66 1 25 C-1.56761548 22.38521048 -1.9956345 21.05471424 -2.29296875 17.328125 C-2.27316751 15.96843965 -2.23759202 14.6089066 -2.1875 13.25 C-2.17396484 12.55261719 -2.16042969 11.85523438 -2.14648438 11.13671875 C-2.1112945 9.42414459 -2.05749155 7.71197059 -2 6 C-2.66 5.67 -3.32 5.34 -4 5 C-2.68 3.35 -1.36 1.7 0 0 Z " fill="#0A0A0A" transform="translate(308,33)"/>
<path d="M0 0 C4.69035801 0.23849278 7.12781826 0.3822046 11 3.125 C13.5322053 6.76504512 13.71175407 8.65039177 13 13 C11.25 15.4375 11.25 15.4375 9 17 C7.68 17 6.36 17 5 17 C5.33 16.01 5.66 15.02 6 14 C6.44837298 10.91814521 6.6151099 8.06446646 6 5 C3.15269289 2.43319686 3.15269289 2.43319686 0 1 C0 0.67 0 0.34 0 0 Z " fill="#060606" transform="translate(157,75)"/>
<path d="M0 0 C3.3 0 6.6 0 10 0 C9.34 1.32 8.68 2.64 8 4 C9.0729139 6.89746341 9.0729139 6.89746341 10.875 9.75 C11.73738281 11.22726563 11.73738281 11.22726563 12.6171875 12.734375 C13.07351563 13.48203125 13.52984375 14.2296875 14 15 C14.99 12.69 15.98 10.38 17 8 C18.32830615 11.98491845 17.23204404 13.40048548 15.5625 17.1875 C15.08941406 18.27417969 14.61632812 19.36085938 14.12890625 20.48046875 C13.75636719 21.31191406 13.38382812 22.14335938 13 23 C11.44090779 20.66136168 10.30207709 18.62506306 9.16015625 16.09375 C8.81919922 15.34996094 8.47824219 14.60617188 8.12695312 13.83984375 C7.41798598 12.2814169 6.71224767 10.72151708 6.00976562 9.16015625 C5.66751953 8.41636719 5.32527344 7.67257813 4.97265625 6.90625 C4.66593994 6.22884766 4.35922363 5.55144531 4.04321289 4.85351562 C2.90383943 2.63445036 2.90383943 2.63445036 0 0 Z " fill="#161616" transform="translate(319,37)"/>
<path d="M0 0 C3.63 0 7.26 0 11 0 C10.01 0.66 9.02 1.32 8 2 C9.41807378 6.47238653 11.11304374 10.71146306 13 15 C14.32 12.69 15.64 10.38 17 8 C18 11 18 11 17.00390625 13.48046875 C16.52824219 14.37378906 16.05257812 15.26710938 15.5625 16.1875 C15.08941406 17.08855469 14.61632812 17.98960938 14.12890625 18.91796875 C13.75636719 19.60503906 13.38382813 20.29210937 13 21 C9.05806793 17.82722541 7.57178141 12.95714079 5.60546875 8.44921875 C4.03049471 4.93154545 2.77046253 2.77046253 0 0 Z " fill="#191919" transform="translate(210,37)"/>
<path d="M0 0 C3.0625 0.375 3.0625 0.375 4.7109375 1.8828125 C6.59851355 5.36337181 6.63029763 8.75348338 6.75 12.625 C6.80124023 13.74261719 6.80124023 13.74261719 6.85351562 14.8828125 C6.93564054 16.71302492 7.00075653 18.54398669 7.0625 20.375 C4.7525 20.375 2.4425 20.375 0.0625 20.375 C0.3925 19.715 0.7225 19.055 1.0625 18.375 C1.1341735 15.82342345 1.15558442 13.30027029 1.125 10.75 C1.12048828 10.04359375 1.11597656 9.3371875 1.11132812 8.609375 C1.09953875 6.86454725 1.08160324 5.119763 1.0625 3.375 C-1.9075 2.88 -1.9075 2.88 -4.9375 2.375 C-2.9375 0.375 -2.9375 0.375 0 0 Z " fill="#282828" transform="translate(186.9375,36.625)"/>
<path d="M0 0 C0.66 0.33 1.32 0.66 2 1 C2 2.32 2 3.64 2 5 C3.7583734 6.57707939 3.7583734 6.57707939 6 7.875 C9.91655599 10.61312321 9.91655599 10.61312321 10.6875 14.1875 C10 17 10 17 9 18.875 C5.74686316 20.70488947 2.68609891 20.18128355 -1 20 C-0.67 18.68 -0.34 17.36 0 16 C0.66 16.66 1.32 17.32 2 18 C4.60280568 17.67958603 4.60280568 17.67958603 7 17 C6.61330179 14.46195258 6.29375538 13.26909965 4.37109375 11.5078125 C3.73300781 11.05148438 3.09492188 10.59515625 2.4375 10.125 C-0.93775524 7.41237156 -0.93775524 7.41237156 -1.5 3.6875 C-1 1 -1 1 0 0 Z " fill="#0C0C0C" transform="translate(277,38)"/>
<path d="M0 0 C0.06058594 1.27617188 0.12117188 2.55234375 0.18359375 3.8671875 C0.26799568 5.53647016 0.35264386 7.20574037 0.4375 8.875 C0.47681641 9.71675781 0.51613281 10.55851562 0.55664062 11.42578125 C0.59853516 12.23144531 0.64042969 13.03710938 0.68359375 13.8671875 C0.72025146 14.61081543 0.75690918 15.35444336 0.79467773 16.12060547 C0.89955865 18.08864312 0.89955865 18.08864312 2 20 C-0.31 20 -2.62 20 -5 20 C-4.67 19.34 -4.34 18.68 -4 18 C-3.76827173 15.45384991 -3.58105471 12.92603775 -3.4375 10.375 C-3.39431641 9.66859375 -3.35113281 8.9621875 -3.30664062 8.234375 C-3.20055249 6.48981463 -3.09977111 4.74493303 -3 3 C-4.32 3 -5.64 3 -7 3 C-7 2.34 -7 1.68 -7 1 C-4.50935112 0.31292445 -2.62113708 0 0 0 Z " fill="#060606" transform="translate(298,37)"/>
<path d="M0 0 C0.06058594 1.27617188 0.12117187 2.55234375 0.18359375 3.8671875 C0.26799568 5.53647016 0.35264386 7.20574037 0.4375 8.875 C0.47681641 9.71675781 0.51613281 10.55851562 0.55664062 11.42578125 C0.59853516 12.23144531 0.64042969 13.03710938 0.68359375 13.8671875 C0.72025146 14.61081543 0.75690918 15.35444336 0.79467773 16.12060547 C0.89955865 18.08864312 0.89955865 18.08864312 2 20 C-0.31 20 -2.62 20 -5 20 C-4.67 19.34 -4.34 18.68 -4 18 C-3.76827173 15.45384991 -3.58105471 12.92603775 -3.4375 10.375 C-3.39431641 9.66859375 -3.35113281 8.9621875 -3.30664062 8.234375 C-3.20055249 6.48981463 -3.09977111 4.74493303 -3 3 C-4.32 3 -5.64 3 -7 3 C-7 2.34 -7 1.68 -7 1 C-4.50935112 0.31292445 -2.62113708 0 0 0 Z " fill="#050505" transform="translate(206,37)"/>
<path d="M0 0 C0.9154645 4.46204176 0.97847873 8.34545385 0.5625 12.875 C0.46066406 14.02742188 0.35882813 15.17984375 0.25390625 16.3671875 C0.12822266 17.67042969 0.12822266 17.67042969 0 19 C0.66 19.33 1.32 19.66 2 20 C-0.31 20 -2.62 20 -5 20 C-4.67 19.34 -4.34 18.68 -4 18 C-3.92883618 15.62597499 -3.91590915 13.24999323 -3.9375 10.875 C-3.94652344 9.59367187 -3.95554687 8.31234375 -3.96484375 6.9921875 C-3.97644531 6.00476562 -3.98804688 5.01734375 -4 4 C-4.66 3.67 -5.32 3.34 -6 3 C-6 2.34 -6 1.68 -6 1 C-3 0 -3 0 0 0 Z " fill="#050505" transform="translate(263,37)"/>
<path d="M0 0 C0.95330973 3.96964128 1.07434288 7.6125811 1 11.6875 C0.7671667 16.00443782 0.7671667 16.00443782 2 20 C-0.31 20 -2.62 20 -5 20 C-4.67 19.34 -4.34 18.68 -4 18 C-3.76827173 15.45384991 -3.58105471 12.92603775 -3.4375 10.375 C-3.39431641 9.66859375 -3.35113281 8.9621875 -3.30664062 8.234375 C-3.20055249 6.48981463 -3.09977111 4.74493303 -3 3 C-3.99 2.67 -4.98 2.34 -6 2 C-2.25 0 -2.25 0 0 0 Z " fill="#040404" transform="translate(178,37)"/>
<path d="M0 0 C5.94 0.33 11.88 0.66 18 1 C14.13389007 4.86610993 8.24683618 4.13175268 3.05078125 4.23046875 C1 4 1 4 -2 2 C-1.34 2 -0.68 2 0 2 C0 1.34 0 0.68 0 0 Z " fill="#C5424C" transform="translate(98,56)"/>
<path d="M0 0 C0 0.66 0 1.32 0 2 C1.98 1.34 3.96 0.68 6 0 C5.67 1.98 5.34 3.96 5 6 C1.87709365 5.51421457 -0.99580359 5.0013988 -4 4 C-5.66621616 3.96125079 -7.33394172 3.9549714 -9 4 C-9.33 3.34 -9.66 2.68 -10 2 C-8.7090864 1.66376204 -7.41723903 1.33110751 -6.125 1 C-5.40570312 0.814375 -4.68640625 0.62875 -3.9453125 0.4375 C-2 0 -2 0 0 0 Z " fill="#F3DEDF" transform="translate(23,15)"/>
<path d="M0 0 C1.98 0.495 1.98 0.495 4 1 C4 1.66 4 2.32 4 3 C4.99 2.67 5.98 2.34 7 2 C7 3.65 7 5.3 7 7 C5.02 7.33 3.04 7.66 1 8 C-1 5 -1 5 -0.625 2.3125 C-0.41875 1.549375 -0.2125 0.78625 0 0 Z " fill="#C02F3A" transform="translate(108,71)"/>
<path d="M0 0 C1.4540625 0.0309375 1.4540625 0.0309375 2.9375 0.0625 C3.5975 1.7125 4.2575 3.3625 4.9375 5.0625 C1.6375 5.0625 -1.6625 5.0625 -5.0625 5.0625 C-3.81634615 0.07788462 -3.81634615 0.07788462 0 0 Z " fill="#F5F5F5" transform="translate(244.0625,37.9375)"/>
<path d="M0 0 C1.31625194 2.63250388 0.74813658 3.80179056 0.0625 6.625 C-0.13214844 7.44226563 -0.32679687 8.25953125 -0.52734375 9.1015625 C-0.76130859 10.04128906 -0.76130859 10.04128906 -1 11 C-2.98 11 -4.96 11 -7 11 C-6.40716379 7.60807637 -5.23256811 5.7892243 -2.9375 3.25 C-2.38964844 2.63640625 -1.84179688 2.0228125 -1.27734375 1.390625 C-0.85582031 0.93171875 -0.43429688 0.4728125 0 0 Z " fill="#F8EDEE" transform="translate(43,21)"/>
<path d="M0 0 C1.32 0.66 2.64 1.32 4 2 C3.67 3.65 3.34 5.3 3 7 C0.125 7.125 0.125 7.125 -3 7 C-3.66 6.34 -4.32 5.68 -5 5 C-3.35 3.35 -1.7 1.7 0 0 Z " fill="#C23B44" transform="translate(42,96)"/>
<path d="M0 0 C11.52164009 -0.18451025 11.52164009 -0.18451025 17 1 C17.33 3.64 17.66 6.28 18 9 C17.59910156 8.57847656 17.19820313 8.15695313 16.78515625 7.72265625 C12.60799223 3.69704466 9.73559203 2.32328245 3.91796875 2.203125 C2 2 2 2 0 0 Z " fill="#181818" transform="translate(254,74)"/>
<path d="M0 0 C5.24210526 -0.43684211 5.24210526 -0.43684211 8 0 C10.5 2.375 10.5 2.375 12 5 C12 5.66 12 6.32 12 7 C7.38 7 2.76 7 -2 7 C-2 6.67 -2 6.34 -2 6 C1.3 6 4.6 6 8 6 C7.34 4.68 6.68 3.36 6 2 C2.94091587 1.18415432 2.94091587 1.18415432 0 1 C0 0.67 0 0.34 0 0 Z " fill="#171717" transform="translate(241,37)"/>
<path d="M0 0 C0.99 1.485 0.99 1.485 2 3 C3.6459651 4.68711423 5.31237149 6.3545622 7 8 C7.66 8.66 8.32 9.32 9 10 C6.07175348 10.97608217 4.04386724 11.08226668 1 11 C-0.20272819 8.59454362 -0.10071472 7.05003047 -0.0625 4.375 C-0.05347656 3.55773437 -0.04445312 2.74046875 -0.03515625 1.8984375 C-0.02355469 1.27195312 -0.01195312 0.64546875 0 0 Z " fill="#1A1A1A" transform="translate(247,107)"/>
<path d="M0 0 C1.32 0.66 2.64 1.32 4 2 C3.67 2.99 3.34 3.98 3 5 C2.01 5 1.02 5 0 5 C-0.66 7.31 -1.32 9.62 -2 12 C-2.66 11.67 -3.32 11.34 -4 11 C-3.56179109 6.44262737 -3.14958831 3.42346555 0 0 Z " fill="#F9F0F0" transform="translate(72,88)"/>
<path d="M0 0 C0 0.66 0 1.32 0 2 C-5.82254243 3.96818336 -10.83381819 5.40214229 -17 5 C-13.97546033 2.98364022 -11.36924652 1.96753498 -7.9375 0.8125 C-6.87402344 0.44769531 -5.81054688 0.08289062 -4.71484375 -0.29296875 C-2 -1 -2 -1 0 0 Z " fill="#F1D9DA" transform="translate(32,48)"/>
<path d="M0 0 C2.0343459 1.41519715 2.90410393 2.54982123 3.421875 4.98046875 C3.66273952 6.98176954 3.83532741 8.9909944 4 11 C3.01 11.66 2.02 12.32 1 13 C1 10.69 1 8.38 1 6 C0.34 6.66 -0.32 7.32 -1 8 C-1.04241723 5.66705225 -1.04092937 3.33297433 -1 1 C-0.67 0.67 -0.34 0.34 0 0 Z " fill="#E1A7AA" transform="translate(21,93)"/>
<path d="M0 0 C0 1.32 0 2.64 0 4 C-0.66 3.67 -1.32 3.34 -2 3 C-6.65275976 2.6947378 -6.65275976 2.6947378 -11 4 C-8.97717134 -2.06848598 -5.42392029 -1.02338119 0 0 Z " fill="#2D2D2D" transform="translate(398,24)"/>
<path d="M0 0 C1.875 0.1875 1.875 0.1875 4 1 C5.25 3.5625 5.25 3.5625 6 6 C3.625 6.125 3.625 6.125 1 6 C0.34 5.34 -0.32 4.68 -1 4 C-0.625 1.875 -0.625 1.875 0 0 Z " fill="#F6E7E8" transform="translate(9,37)"/>
<path d="M0 0 C1.32 0.33 2.64 0.66 4 1 C4 1.99 4 2.98 4 4 C3.34 4 2.68 4 2 4 C2 5.32 2 6.64 2 8 C0.68 7.67 -0.64 7.34 -2 7 C-1.42415568 4.61435923 -0.77772405 2.33317216 0 0 Z " fill="#C1343D" transform="translate(25,35)"/>
<path d="M0 0 C0.33 0.66 0.66 1.32 1 2 C1.66 2.33 2.32 2.66 3 3 C1.02 5.97 1.02 5.97 -1 9 C-2.32 8.67 -3.64 8.34 -5 8 C-4.360625 7.236875 -3.72125 6.47375 -3.0625 5.6875 C-0.85767219 3.11753287 -0.85767219 3.11753287 0 0 Z " fill="#F6E7E8" transform="translate(101,105)"/>
<path d="M0 0 C0.66 0.33 1.32 0.66 2 1 C2 1.66 2 2.32 2 3 C-2.38461538 6 -2.38461538 6 -5 6 C-5.33 6.99 -5.66 7.98 -6 9 C-6.33 8.01 -6.66 7.02 -7 6 C-4.83312509 3.72478134 -2.54379491 1.84205838 0 0 Z " fill="#F9EFEF" transform="translate(97,103)"/>
<path d="M0 0 C0.33 0.66 0.66 1.32 1 2 C-3 8.57142857 -3 8.57142857 -7 10 C-7 7 -7 7 -5.1875 5 C-4.465625 4.34 -3.74375 3.68 -3 3 C-2.4225 2.4225 -1.845 1.845 -1.25 1.25 C-0.8375 0.8375 -0.425 0.425 0 0 Z " fill="#191919" transform="translate(166,47)"/>
<path d="M0 0 C2.97 0 5.94 0 9 0 C8.67 0.66 8.34 1.32 8 2 C7.34 2 6.68 2 6 2 C5.34 3.98 4.68 5.96 4 8 C3 5 3 5 4 2 C2.68 1.34 1.36 0.68 0 0 Z " fill="#2D2D2D" transform="translate(225,37)"/>
<path d="M0 0 C0.33 0.66 0.66 1.32 1 2 C-0.98 4.97 -0.98 4.97 -3 8 C-4.32 7.67 -5.64 7.34 -7 7 C-4.69 4.69 -2.38 2.38 0 0 Z " fill="#191919" transform="translate(405,109)"/>
<path d="M0 0 C1.98 0.495 1.98 0.495 4 1 C3.67 2.32 3.34 3.64 3 5 C1.68 5 0.36 5 -1 5 C-0.67 3.35 -0.34 1.7 0 0 Z " fill="#C4414A" transform="translate(108,71)"/>
<path d="M0 0 C0.33 0.99 0.66 1.98 1 3 C-0.75 6.1875 -0.75 6.1875 -3 9 C-3.99 9 -4.98 9 -6 9 C-6 8.01 -6 7.02 -6 6 C-5.38125 5.7525 -4.7625 5.505 -4.125 5.25 C-1.64931313 3.79371361 -1.04874998 2.62187494 0 0 Z " fill="#0B0B0B" transform="translate(330,60)"/>
<path d="M0 0 C0.66 0 1.32 0 2 0 C1.68289062 0.53109375 1.36578125 1.0621875 1.0390625 1.609375 C-0.2370349 4.54535848 -0.41707021 7.06174329 -0.625 10.25 C-0.69976562 11.32765625 -0.77453125 12.4053125 -0.8515625 13.515625 C-0.90054688 14.33546875 -0.94953125 15.1553125 -1 16 C-1.33 16 -1.66 16 -2 16 C-2.05402274 13.89611431 -2.09280256 11.79183286 -2.125 9.6875 C-2.14820313 8.51574219 -2.17140625 7.34398437 -2.1953125 6.13671875 C-2 3 -2 3 0 0 Z " fill="#A9A9A9" transform="translate(180,39)"/>
<path d="M0 0 C2.64 0 5.28 0 8 0 C7.54625 0.391875 7.0925 0.78375 6.625 1.1875 C4.72357081 3.30832487 3.93795972 5.33042235 3 8 C2 5 2 5 2 2 C1.34 1.34 0.68 0.68 0 0 Z " fill="#262626" transform="translate(335,37)"/>
<path d="M0 0 C-0.66 1.32 -1.32 2.64 -2 4 C-4.31 4 -6.62 4 -9 4 C-9.33 3.34 -9.66 2.68 -10 2 C-8.7090864 1.66376204 -7.41723903 1.33110751 -6.125 1 C-5.40570312 0.814375 -4.68640625 0.62875 -3.9453125 0.4375 C-2 0 -2 0 0 0 Z " fill="#EED1D2" transform="translate(23,15)"/>
<path d="M0 0 C1.65 0.33 3.3 0.66 5 1 C5 1.99 5 2.98 5 4 C2.69 3.67 0.38 3.34 -2 3 C-1.34 2.01 -0.68 1.02 0 0 Z " fill="#0D0D0D" transform="translate(267,37)"/>
<path d="M0 0 C1.32 0.66 2.64 1.32 4 2 C3.67 2.99 3.34 3.98 3 5 C2.01 5 1.02 5 0 5 C-0.66 4.01 -1.32 3.02 -2 2 C-1.34 1.34 -0.68 0.68 0 0 Z " fill="#F4E0E1" transform="translate(72,88)"/>
</svg>
