<?xml version="1.0" encoding="UTF-8"?>
<svg version="1.1" xmlns="http://www.w3.org/2000/svg" width="1200" height="600">
<path d="M0 0 C396 0 792 0 1200 0 C1200 198 1200 396 1200 600 C804 600 408 600 0 600 C0 402 0 204 0 0 Z " fill="#FEFEFE" transform="translate(0,0)"/>
<path d="M0 0 C99 0 198 0 300 0 C300 198 300 396 300 600 C201 600 102 600 0 600 C0 402 0 204 0 0 Z " fill="#D52B1E" transform="translate(900,0)"/>
<path d="M0 0 C99 0 198 0 300 0 C300 198 300 396 300 600 C201 600 102 600 0 600 C0 402 0 204 0 0 Z " fill="#D52B1E" transform="translate(0,0)"/>
<path d="M0 0 C0.66 0 1.32 0 2 0 C2.28085449 0.5669458 2.56170898 1.1338916 2.85107422 1.71801758 C7.65666377 11.40620308 12.46935213 21.08419002 17.5625 30.625 C20.97788772 37.02453961 24.25731494 43.48639621 27.48828125 49.98046875 C27.88787552 50.78319214 28.28746979 51.58591553 28.69917297 52.41296387 C30.72446025 56.48462173 32.74374365 60.55914526 34.75610352 64.63720703 C35.51178369 66.1605303 36.26755778 67.68380699 37.0234375 69.20703125 C37.36478226 69.90322067 37.70612701 70.5994101 38.05781555 71.31669617 C41.37100707 78.71372899 41.37100707 78.71372899 47 84 C51.66995497 84.39113422 54.29235451 83.66954768 58.2734375 81.25390625 C59.25626709 80.66754395 60.23909668 80.08118164 61.25170898 79.47705078 C62.28239502 78.84524902 63.31308105 78.21344727 64.375 77.5625 C66.51897419 76.27901693 68.6635075 74.99646737 70.80859375 73.71484375 C72.38229736 72.76714111 72.38229736 72.76714111 73.98779297 71.80029297 C78.10097893 69.3419826 82.25816884 66.96860952 86.4375 64.625 C87.09862793 64.25060791 87.75975586 63.87621582 88.44091797 63.49047852 C92.8749652 61 92.8749652 61 94 61 C93.46352897 68.43952904 92.43894106 75.6217171 90.92578125 82.921875 C90.72150513 83.93198639 90.517229 84.94209778 90.3067627 85.9828186 C89.87174633 88.13072735 89.43411922 90.27810878 88.99404907 92.42498779 C88.06989136 96.93359296 87.15848191 101.44474712 86.2462616 105.95578003 C85.79185844 108.20211009 85.33679467 110.44830661 84.88105774 112.69436646 C82.90672652 122.4290634 80.99979008 132.17503846 79.1315918 141.93066406 C77.96835679 148.00196006 76.79125725 154.06989573 75.58103943 160.13198853 C74.92009276 163.44438169 74.26398063 166.7577259 73.60800171 170.07110596 C73.29008162 171.66984609 72.96985041 173.26812866 72.64712524 174.86590576 C72.19880954 177.08653165 71.75876544 179.30865886 71.3203125 181.53125 C70.93770264 183.44260742 70.93770264 183.44260742 70.54736328 185.39257812 C69.86478412 189.89114625 69.24482991 194.1592729 71 198.4375 C73.54236917 200.42372592 75.63774788 200.55702353 78.81591797 200.48852539 C83.13745554 199.52190381 85.68195335 196.17251428 88.5625 193 C89.18318359 192.35160156 89.80386719 191.70320312 90.44335938 191.03515625 C94.15641654 187.12463723 97.69662321 183.06957294 101.23364258 179.00048828 C104.26243415 175.57023007 107.41377187 172.2573589 110.5625 168.9375 C114.74220094 164.5192395 118.91833186 160.09899849 123.046875 155.6328125 C123.68165771 154.94711182 124.31644043 154.26141113 124.97045898 153.55493164 C126.17293102 152.25428562 127.37307399 150.95148135 128.57055664 149.64624023 C129.11059326 149.06302002 129.65062988 148.4797998 130.20703125 147.87890625 C130.6760083 147.3691626 131.14498535 146.85941895 131.62817383 146.33422852 C133 145 133 145 136 143 C138.26165575 146.5789291 139.98047881 150.14456603 141.55859375 154.0703125 C142.02716797 155.21371094 142.49574219 156.35710937 142.97851562 157.53515625 C143.95334629 159.93373558 144.92207536 162.33480354 145.88476562 164.73828125 C146.58956055 166.44951172 146.58956055 166.44951172 147.30859375 168.1953125 C147.72939209 169.23703613 148.15019043 170.27875977 148.58374023 171.35205078 C150.10003854 174.18703983 151.18843233 175.47113978 154 177 C157.15620433 176.88263361 159.91208145 176.56098574 163 176 C164.01916504 175.81518066 165.03833008 175.63036133 166.08837891 175.43994141 C169.66957885 174.76045297 173.24103637 174.04139843 176.8125 173.3125 C178.12479887 173.04782399 179.43713678 172.78334154 180.74951172 172.51904297 C187.52658369 171.14832989 194.29315182 169.73306544 201.05078125 168.26953125 C202.32397217 167.99391357 203.59716309 167.7182959 204.90893555 167.43432617 C207.34496697 166.90377994 209.7800677 166.36893813 212.21411133 165.8293457 C213.85996216 165.46909302 213.85996216 165.46909302 215.5390625 165.1015625 C216.50021973 164.88838379 217.46137695 164.67520508 218.45166016 164.45556641 C221 164 221 164 225 164 C223.59907225 173.09777341 220.59492 181.63951511 217.625 190.3125 C216.65618556 193.16185938 215.69086416 196.01239184 214.7265625 198.86328125 C214.49170639 199.55566895 214.25685028 200.24805664 214.01487732 200.96142578 C212.19807352 206.34320423 210.51796046 211.76075834 208.87109375 217.19702148 C208.12716295 219.59081899 207.33481239 221.94863971 206.48046875 224.3046875 C206.05378906 225.48289062 205.62710937 226.66109375 205.1875 227.875 C204.74792969 229.06867188 204.30835938 230.26234375 203.85546875 231.4921875 C202.8504259 235.61332211 202.63931389 237.96046311 204 242 C206.35602772 244.04865269 208.98922216 245.26554638 211.8125 246.5625 C212.57554443 246.93818115 213.33858887 247.3138623 214.12475586 247.70092773 C215.67100948 248.45986799 217.22255896 249.20811671 218.77929688 249.9453125 C221.90274601 251.4287448 224.97868024 252.99845744 228.0625 254.5625 C229.70726702 255.37715641 231.35263856 256.19060276 233 257 C229.5092603 260.57400506 225.8890348 263.91054613 222.0625 267.125 C221.21606934 267.83885864 221.21606934 267.83885864 220.35253906 268.56713867 C215.82020167 272.36512741 211.18983559 276.02586887 206.52270508 279.65600586 C200.94389421 284.00856936 195.49073138 288.50734109 190.03833008 293.01660156 C185.60065239 296.68560737 181.13564193 300.31440067 176.62890625 303.8984375 C173.19577714 306.6429003 169.78516332 309.41458326 166.375 312.1875 C165.6931665 312.74171631 165.01133301 313.29593262 164.30883789 313.86694336 C160.83893498 316.68834205 157.37127492 319.51245657 153.90625 322.33984375 C147.58530591 327.49292835 141.24589701 332.6127572 134.8125 337.625 C124.04449473 345.89567631 124.04449473 345.89567631 114 355 C114.15276822 364.15590882 117.84302169 372.37496289 121.0625 380.8125 C121.9164209 383.06304525 122.76719458 385.31460709 123.61021423 387.56925964 C124.13216194 388.96411698 124.660494 390.3566068 125.19606018 391.74629211 C126.45384014 395.0965331 127 397.35950755 127 401 C117.99550678 400.44177558 109.24181454 399.12312058 100.375 397.5 C98.94174351 397.24207639 97.50839046 396.98468894 96.07495117 396.7277832 C92.8763486 396.15336157 89.67843038 395.57530309 86.48095703 394.99462891 C78.0202171 393.45817021 69.55711013 391.93481974 61.09423828 390.41015625 C56.61951497 389.60397214 52.14527738 388.79516644 47.67138672 387.984375 C45.58952171 387.60805369 43.50765337 387.23175077 41.42578125 386.85546875 C40.47605942 386.68278976 39.52633759 386.51011078 38.5478363 386.3321991 C28.79837508 384.53249635 28.79837508 384.53249635 18.9375 383.625 C18.14214844 383.57601563 17.34679687 383.52703125 16.52734375 383.4765625 C12.79925155 384.2486867 10.2698136 386.00891223 8 389 C7.15767634 392.27342081 7.34872873 395.43426488 7.5 398.79296875 C7.52336426 399.82181686 7.54672852 400.85066498 7.57080078 401.91069031 C7.67239104 405.60937682 7.83161351 409.30393569 8 413 C8.06372172 414.48259446 8.12718846 415.9651999 8.19042969 417.44781494 C8.67082198 428.51192653 9.25249614 439.57009759 9.85424805 450.62817383 C10.24046867 457.74123207 10.61732849 464.85478346 10.99127197 471.96849632 C11.1214119 474.420672 11.25551287 476.87260615 11.39013672 479.32453918 C11.47115426 480.84306174 11.55205238 482.36159068 11.6328125 483.88012695 C11.70387207 485.18673782 11.77493164 486.49334869 11.84814453 487.83955383 C12.03248214 492.88992637 12 497.94626444 12 503 C4.74 503 -2.52 503 -10 503 C-10 495.97895073 -9.94295843 489.02756645 -9.6328125 482.0234375 C-9.59379822 481.10717087 -9.55478394 480.19090424 -9.5145874 479.24687195 C-9.38745642 476.28945548 -9.25639261 473.33222995 -9.125 470.375 C-9.08086975 469.35888641 -9.0367395 468.34277283 -8.99127197 467.29586792 C-8.45130188 454.88325356 -7.82152821 442.48297628 -7.00708008 430.08538818 C-6.34713849 419.97797409 -5.76939287 409.87940346 -5.625 399.75 C-5.58608643 398.35599976 -5.58608643 398.35599976 -5.54638672 396.93383789 C-5.53445625 392.74027753 -5.63468534 390.58630747 -7.8984375 386.953125 C-11.91323441 383.22190111 -15.44582074 383.67223885 -20.75390625 383.71875 C-29.92404628 384.15951616 -39.00222264 386.29486043 -48 388 C-50.19922138 388.40747427 -52.3986886 388.81362372 -54.59838867 389.21850586 C-59.13075877 390.05362554 -63.66215497 390.8937475 -68.19287109 391.73779297 C-77.9055161 393.54341219 -87.62757039 395.29596619 -97.3527832 397.0324707 C-100.26787327 397.5545082 -103.18181272 398.08264127 -106.09570312 398.61132812 C-107.87234526 398.92996961 -109.6490353 399.24834415 -111.42578125 399.56640625 C-112.22558914 399.71284073 -113.02539703 399.85927521 -113.84944153 400.01014709 C-117.60693002 400.67663067 -121.18022234 401.17425213 -125 401 C-124.36240731 396.14466797 -122.97187415 391.75709171 -121.27734375 387.1875 C-120.73348706 385.68498156 -120.18987466 384.18237468 -119.64648438 382.6796875 C-118.79190071 380.33492818 -117.93431493 377.99134953 -117.07202148 375.64941406 C-116.23628358 373.37338219 -115.41243264 371.09331108 -114.58984375 368.8125 C-114.33049545 368.11858154 -114.07114716 367.42466309 -113.80393982 366.7097168 C-112.35783747 362.67755175 -111.56668607 359.28297446 -112 355 C-113.66693528 352.7104273 -113.66693528 352.7104273 -116.125 350.8125 C-117.03894531 350.04292969 -117.95289063 349.27335937 -118.89453125 348.48046875 C-122.78376461 345.37397418 -126.68066632 342.27863027 -130.61376953 339.2277832 C-134.66383899 336.08191276 -138.6066005 332.83728445 -142.5 329.5 C-147.39345853 325.31142459 -152.39521298 321.29641046 -157.47949219 317.3425293 C-163.05722951 312.99001751 -168.50994028 308.49210343 -173.96166992 303.98339844 C-178.39653302 300.31671969 -182.85786513 296.68923025 -187.36328125 293.109375 C-190.14854307 290.88116554 -192.91425553 288.6301447 -195.67871094 286.3762207 C-202.08115086 281.15631536 -208.52097011 275.99308487 -215.03076172 270.90771484 C-220.42274239 266.68824374 -225.72251689 262.36200134 -231 258 C-228.48309783 255.08657006 -225.74440638 253.75800097 -222.2734375 252.15234375 C-221.1596875 251.62962891 -220.0459375 251.10691406 -218.8984375 250.56835938 C-217.73570312 250.03017578 -216.57296875 249.49199219 -215.375 248.9375 C-213.06767254 247.86896344 -210.76283562 246.7950268 -208.4609375 245.71484375 C-207.43790527 245.24167725 -206.41487305 244.76851074 -205.36083984 244.28100586 C-202.87263803 243.22266561 -202.87263803 243.22266561 -202 241 C-201.22348863 234.22383095 -202.76444105 228.76298085 -205.1875 222.5 C-205.84320845 220.71998585 -206.49551021 218.93871336 -207.14453125 217.15625 C-207.46502441 216.2796875 -207.78551758 215.403125 -208.11572266 214.5 C-209.34087805 211.03628072 -210.37824744 207.53506653 -211.375 204 C-214.00731519 194.70283777 -217.03156538 185.53153373 -220.05419922 176.35546875 C-220.62485107 174.60556641 -220.62485107 174.60556641 -221.20703125 172.8203125 C-221.5522583 171.77117676 -221.89748535 170.72204102 -222.25317383 169.64111328 C-223 167 -223 167 -223 164 C-217.65602062 164.34286593 -212.5773564 165.01803309 -207.39453125 166.390625 C-201.27844701 167.9584537 -195.13431512 169.23466392 -188.9375 170.4375 C-176.48854738 172.86988257 -176.48854738 172.86988257 -170.40234375 174.24609375 C-169.12145874 174.53238647 -169.12145874 174.53238647 -167.81469727 174.82446289 C-166.24127703 175.17951769 -164.66992018 175.54390723 -163.10131836 175.91967773 C-158.48467805 176.95232649 -154.65152348 177.34377345 -150 176 C-147.45206404 172.39545261 -145.80220568 168.43745209 -144.08203125 164.38671875 C-143.68886971 163.46509697 -143.68886971 163.46509697 -143.2877655 162.52485657 C-142.45923681 160.5805134 -141.63579601 158.63406378 -140.8125 156.6875 C-140.24838293 155.36118514 -139.6839331 154.03501176 -139.11914062 152.70898438 C-137.7422421 149.47428328 -136.36989512 146.23767428 -135 143 C-127.42391382 146.57861397 -122.05711378 153.83202864 -116.6796875 160.1015625 C-114.5067169 162.55752462 -112.1805994 164.83212115 -109.84106445 167.12792969 C-108.07579917 168.92292428 -106.42572228 170.77074587 -104.78515625 172.6796875 C-100.94302779 177.09828774 -96.95911888 181.36996652 -92.9375 185.625 C-91.9155957 186.71167969 -91.9155957 186.71167969 -90.87304688 187.8203125 C-89.54225379 189.23164349 -88.20743795 190.63919473 -86.86816406 192.04248047 C-85.66892158 193.29908347 -84.47742607 194.56315202 -83.29589844 195.83642578 C-79.98306948 199.32748141 -79.98306948 199.32748141 -75.375 200.625 C-72.00712439 200.22085599 -72.00712439 200.22085599 -69.5625 198.4375 C-66.35981613 193.44131316 -68.17820434 187.23677062 -69.28515625 181.70703125 C-69.42125305 181.01694473 -69.55734985 180.32685822 -69.6975708 179.61585999 C-70.14644629 177.34681298 -70.60450604 175.07972244 -71.0625 172.8125 C-71.38439842 171.19365933 -71.70559276 169.57467852 -72.02612305 167.95556641 C-72.68990304 164.60509903 -73.35667982 161.25524824 -74.02539062 157.90576172 C-74.92304094 153.39975563 -75.80210322 148.89036781 -76.671875 144.37890625 C-76.80665253 143.68041061 -76.94143005 142.98191498 -77.08029175 142.26225281 C-77.35359261 140.84562875 -77.62685709 139.42899767 -77.90008545 138.01235962 C-80.10091257 126.60645986 -82.35486732 115.21262543 -84.6640625 103.828125 C-85.12725558 101.53793497 -85.5903903 99.24773314 -86.0534668 96.95751953 C-86.96255247 92.46236263 -87.87931965 87.96885878 -88.80004883 83.47607422 C-89.21984779 81.40337781 -89.63937552 79.33062644 -90.05859375 77.2578125 C-90.25510529 76.30940491 -90.45161682 75.36099731 -90.65408325 74.3838501 C-91.56493984 69.84818341 -92.23944336 65.65493314 -92 61 C-88.16028926 62.43073003 -84.71834252 64.21062533 -81.17578125 66.265625 C-80.06396484 66.90886719 -78.95214844 67.55210938 -77.80664062 68.21484375 C-76.6419201 68.89321718 -75.47720659 69.57160266 -74.3125 70.25 C-73.17876953 70.90613281 -72.04503906 71.56226562 -70.87695312 72.23828125 C-64.88341289 75.71349824 -58.92728825 79.2314315 -53.04907227 82.89892578 C-50.15503168 84.45404589 -48.19556777 84.76084947 -45 84 C-41.83228669 81.26362658 -39.97020263 78.46529769 -38.07421875 74.7578125 C-37.53249023 73.70658203 -36.99076172 72.65535156 -36.43261719 71.57226562 C-35.85672852 70.43466797 -35.28083984 69.29707031 -34.6875 68.125 C-34.07377149 66.92616117 -33.45950266 65.72759882 -32.84472656 64.52929688 C-27.60440005 54.28943885 -22.47921463 43.99092639 -17.35546875 33.69238281 C-12.97443536 24.89503255 -8.4764184 16.16610353 -3.85546875 7.4921875 C-2.53574841 5.0083349 -1.23663096 2.52560609 0 0 Z " fill="#D52B1E" transform="translate(599,51)"/>
</svg>
