<?xml version="1.0" encoding="UTF-8"?>
<svg version="1.1" xmlns="http://www.w3.org/2000/svg" width="3840" height="1352">
<path d="M0 0 C14.32025519 -0.02010017 28.64047146 -0.04018202 42.9607296 -0.05025387 C50.65562956 -0.05575082 58.35051844 -0.06267821 66.04541016 -0.07543945 C72.80820065 -0.08664934 79.57097916 -0.09231582 86.33377838 -0.09487724 C88.88960203 -0.09669816 91.44542517 -0.10025198 94.00124359 -0.10573006 C117.50687954 -0.15402037 141.12541305 -0.11811791 164.5 2.625 C165.23604462 2.70925232 165.97208923 2.79350464 166.73043823 2.88031006 C214.11105305 8.37838476 259.95822858 21.37894226 303 42 C304.37236816 42.6504126 304.37236816 42.6504126 305.77246094 43.31396484 C337.97487219 58.65797571 367.68624894 78.09297331 395 101 C395.99 101.81597656 396.98 102.63195312 398 103.47265625 C413.17549594 116.05228179 428.26708155 129.66764923 441.05078125 144.7109375 C442.63305217 146.56907529 444.23589641 148.4012055 445.85546875 150.2265625 C454.03394602 159.48194332 461.67077459 169.05983728 469 179 C469.5038623 179.68288086 470.00772461 180.36576172 470.52685547 181.06933594 C483.04868543 198.1590056 494.10853694 216.27126609 504 235 C504.46760742 235.88461914 504.93521484 236.76923828 505.41699219 237.68066406 C549.85048263 322.4762836 564.17189561 421.63683677 534.94140625 561.40869141 C519.95571851 608.19779613 496.97859224 652.09920769 467 691 C466.58814453 691.53802246 466.17628906 692.07604492 465.75195312 692.63037109 C449.28580223 714.10446036 430.95396146 735.48986917 410.2890625 753.05078125 C408.43092471 754.63305217 406.5987945 756.23589641 404.7734375 757.85546875 C395.51533299 766.03620754 385.91466451 773.63317627 376 781 C375.28473145 781.53625 374.56946289 782.0725 373.83251953 782.625 C309.56662249 830.69802885 232.00742491 860.31325446 152.4375 869.3125 C151.72865662 869.39399292 151.01981323 869.47548584 150.28948975 869.55944824 C128.67691262 871.99912084 106.97943013 872.14675761 85.25390625 872.09765625 C82.77571135 872.09578504 80.29751608 872.09436447 77.81932068 872.09336853 C71.38012625 872.0895986 64.94095533 872.07981735 58.50177002 872.06866455 C50.73112744 872.0565043 42.96047638 872.05202183 35.18982697 872.04621124 C23.45986842 872.03660114 11.7299612 872.01740637 0 872 C0 840.98 0 809.96 0 778 C-63.69 778 -127.38 778 -193 778 C-193 712.99 -193 647.98 -193 581 C-240.85 581 -288.7 581 -338 581 C-338 485.3 -338 389.6 -338 291 C-290.15 291 -242.3 291 -193 291 C-193 226.32 -193 161.64 -193 95 C-129.31 95 -65.62 95 0 95 C0 63.65 0 32.3 0 0 Z " fill="#E4291F" transform="translate(353,14)"/>
<path d="M0 0 C53.36002144 -0.04530773 106.72003822 -0.08107036 160.08007512 -0.10213066 C166.39412238 -0.10463177 172.7081696 -0.10722044 179.0222168 -0.10986328 C180.27911522 -0.1103879 181.53601365 -0.11091252 182.8309999 -0.11145304 C203.12465631 -0.12013179 223.41830127 -0.13588769 243.71195091 -0.15430559 C264.56873876 -0.1730753 285.42552067 -0.1841316 306.28231663 -0.18817699 C319.12954554 -0.19090745 331.97674208 -0.19949943 344.82396101 -0.21583293 C353.65973719 -0.22648731 362.49549687 -0.22958172 371.33127899 -0.22700275 C376.41248513 -0.22573447 381.49363512 -0.22753759 386.57483101 -0.23841095 C414.65884855 -0.29552179 442.59357489 0.21813722 470.5 3.75 C471.16192352 3.83236908 471.82384705 3.91473816 472.50582886 3.99960327 C496.11787195 6.96424303 519.3659059 11.54442408 542 19 C542.73669922 19.24186035 543.47339844 19.4837207 544.23242188 19.73291016 C584.75554051 33.3332662 618.44387105 58.39943556 637.93847656 96.85107422 C646.28637478 113.89060765 650.74107837 132.23115116 653 151 C653.19722656 152.59908203 653.19722656 152.59908203 653.3984375 154.23046875 C657.23729941 193.50098851 650.75006103 234.47350677 625.4375 265.875 C623.96941374 267.59286482 622.49067294 269.30169761 621 271 C620.319375 271.80179687 619.63875 272.60359375 618.9375 273.4296875 C614.63327792 278.42325765 610.11106489 282.84125318 605 287 C604.11183594 287.73734375 603.22367188 288.4746875 602.30859375 289.234375 C549.35481659 331.70560368 473.41535589 346.32174547 407 351 C407 351.66 407 352.32 407 353 C407.66974854 353.03665771 408.33949707 353.07331543 409.02954102 353.11108398 C418.14222125 353.72919066 426.99329662 355.3018487 435.9375 357.0625 C436.72079681 357.21550568 437.50409363 357.36851135 438.31112671 357.52615356 C486.16263909 366.93820513 535.2310678 382.44935568 571 417 C571.92554688 417.86238281 572.85109375 418.72476562 573.8046875 419.61328125 C606.84189343 451.199845 619.11695117 497.93498811 625.1875 541.75 C625.42001465 543.40467285 625.42001465 543.40467285 625.65722656 545.09277344 C628.15020745 564.30339085 629.08069853 583.64754734 629.4921875 603 C629.50896105 603.7730674 629.5257346 604.5461348 629.54301643 605.34262848 C629.69681929 612.50823044 629.83873514 619.67399515 629.95361328 626.84033203 C630.50667101 660.4966418 633.30969858 691.36287286 658 717 C703.33793521 757.42515585 797.18732057 739.6707663 839 740 C839 508.01 839 276.02 839 37 C806 37 773 37 739 37 C739 24.79 739 12.58 739 0 C833.38 0 927.76 0 1025 0 C1027.68901495 6.72253738 1030.110223 13.23034117 1032.16015625 20.1328125 C1032.45777863 21.12030487 1032.755401 22.10779724 1033.06204224 23.12521362 C1033.71691721 25.29906217 1034.36985081 27.47349628 1035.02108765 29.6484375 C1036.6837701 35.19899529 1038.35976724 40.74553158 1040.03567696 46.29210663 C1040.44772898 47.65597761 1040.85962595 49.01989545 1041.27137566 50.38385773 C1046.8904489 68.99598548 1052.60603836 87.57850393 1058.31591415 106.16292953 C1060.95003631 114.73717408 1063.58241273 123.31195488 1066.21484375 131.88671875 C1066.50359438 132.82722139 1066.79234501 133.76772404 1067.08984566 134.73672676 C1072.82670589 153.4235246 1078.54215351 172.11682286 1084.25 190.8125 C1091.64918958 215.04704508 1099.06694013 239.27582184 1106.5 263.5 C1114.24460363 288.73958611 1121.97190362 313.98438318 1129.68231201 339.23443604 C1136.69909364 362.21265437 1143.73269748 385.18565274 1150.78030777 408.1544342 C1158.72565811 434.04931152 1166.66110181 459.94719285 1174.57894897 485.85049438 C1175.30700084 488.23201181 1176.03529966 490.61345358 1176.76367188 492.99487305 C1177.89953106 496.70869787 1179.03473462 500.42272244 1180.1694088 504.13690948 C1180.58408333 505.4939642 1180.99896458 506.85095577 1181.41407204 508.20787811 C1185.271903 520.81980803 1185.271903 520.81980803 1187 527 C1190.00525105 519.81207764 1192.52096605 512.54709336 1194.84375 505.11328125 C1195.20517593 503.96778809 1195.56660187 502.82229492 1195.9389801 501.64208984 C1196.92345278 498.51992333 1197.90460728 495.39673736 1198.88441849 492.27310562 C1199.93097889 488.93984728 1200.98206786 485.60801806 1202.03295898 482.27612305 C1203.352306 478.09245183 1204.67143035 473.90871184 1205.98887634 469.72444153 C1209.00190022 460.15595691 1212.02834015 450.59181215 1215.06640625 441.03125 C1215.27285578 440.38154613 1215.47930531 439.73184227 1215.69201088 439.06245041 C1216.73204498 435.78967788 1217.77232289 432.5169829 1218.81271362 429.24432373 C1225.91421301 406.90470853 1232.98620925 384.55590377 1240.03738403 362.2003479 C1246.38236876 342.08727802 1252.77069096 321.98821073 1259.17116547 301.8927536 C1265.49395889 282.04072834 1271.795315 262.18217107 1278.0625 242.3125 C1284.31390457 222.49380456 1290.58476873 202.68139859 1296.875 182.875 C1297.08273418 182.22085995 1297.29046837 181.56671989 1297.50449753 180.89275742 C1300.88062479 170.26158082 1304.25793163 159.63077905 1307.63540649 149.00003052 C1310.5900136 139.7002347 1313.5442506 130.40032147 1316.49772644 121.10016632 C1317.12316084 119.13079116 1317.7486521 117.16143406 1318.37414551 115.19207764 C1322.89669453 100.95209612 1327.41119869 86.70962512 1331.90625 72.4609375 C1332.10650661 71.82624668 1332.30676323 71.19155586 1332.51308823 70.53763199 C1334.59024011 63.9542412 1336.66593418 57.37039568 1338.73876953 50.78564453 C1344.0831066 33.83115202 1349.54205832 16.91961921 1355 0 C1450.04 0 1545.08 0 1643 0 C1643 12.21 1643 24.42 1643 37 C1610 37 1577 37 1543 37 C1543 268.99 1543 500.98 1543 740 C1576 740 1609 740 1643 740 C1643 752.54 1643 765.08 1643 778 C1527.5 778 1412 778 1293 778 C1293 765.46 1293 752.92 1293 740 C1326 740 1359 740 1393 740 C1393 511.97 1393 283.94 1393 49 C1392.01 49 1391.02 49 1390 49 C1389.90638184 49.56122055 1389.81276367 50.1224411 1389.71630859 50.70066833 C1388.3330089 58.30276376 1386.04116457 65.52091368 1383.625 72.84765625 C1383.18372476 74.20047196 1382.74302007 75.55347389 1382.30284119 76.90664673 C1381.36415509 79.78929291 1380.42226658 82.67086334 1379.47775269 85.55160522 C1377.20883949 92.47312935 1374.95772748 99.40045047 1372.70603752 106.32759285 C1372.1949352 107.89980297 1371.68363886 109.47195004 1371.17215157 111.04403496 C1366.33982094 125.89798511 1361.61634905 140.78444511 1356.9375 155.6875 C1350.55789622 175.99124968 1344.06196394 196.25468296 1337.5 216.5 C1330.9177906 236.80798327 1324.40278504 257.13451506 1318 277.5 C1311.37936184 298.55841534 1304.6342974 319.57379487 1297.82818604 340.57275391 C1291.47040524 360.18992609 1285.18493029 379.82745064 1279 399.5 C1272.37936184 420.55841534 1265.6342974 441.57379487 1258.82818604 462.57275391 C1252.47040524 482.18992609 1246.18493029 501.82745064 1240 521.5 C1233.37936184 542.55841534 1226.6342974 563.57379487 1219.82818604 584.57275391 C1213.47040509 604.18992655 1207.18497327 623.82746377 1201 643.5 C1194.05543775 665.58810922 1186.97570258 687.6300073 1179.8409729 709.65719604 C1178.52904176 713.70754646 1177.21740225 717.75799113 1175.90625 721.80859375 C1175.69518301 722.46063719 1175.48411602 723.11268063 1175.26665306 723.78448296 C1169.42705134 741.82993852 1163.70821124 759.91253548 1158 778 C1144.47 778 1130.94 778 1117 778 C1105.9107299 743.32101002 1094.82296868 708.64160516 1083.8125 673.9375 C1083.61015244 673.29971996 1083.40780487 672.66193993 1083.19932556 672.00483322 C1081.35671487 666.19686664 1079.51449966 660.38877465 1077.67269897 654.58055115 C1074.78737577 645.48155564 1071.90020862 636.38314698 1069.01171875 627.28515625 C1068.80514019 626.63448307 1068.59856163 625.98380989 1068.38572311 625.31341934 C1067.34160773 622.02473355 1066.2974611 618.73605767 1065.2532959 615.4473877 C1063.16741307 608.87773278 1061.08174762 602.30800885 1058.99609375 595.73828125 C1058.78973927 595.0882803 1058.58338478 594.43827934 1058.37077713 593.76858139 C1055.46513915 584.61600524 1052.56013178 575.46322914 1049.65552521 566.31032562 C1047.99863458 561.08926486 1046.34159062 555.86825276 1044.68450165 550.64725494 C1044.26998957 549.34124217 1043.85548456 548.03522716 1043.44098663 546.7292099 C1038.53600614 531.27448467 1033.62657376 515.82119035 1028.70703125 500.37109375 C1028.262766 498.97579973 1027.81850127 497.58050554 1027.37423706 496.18521118 C1026.70761348 494.0915846 1026.04098757 491.99795876 1025.37436104 489.90433311 C1024.70790152 487.81122394 1024.04145076 485.71811197 1023.375 483.625 C1023.15493286 482.93386108 1022.93486572 482.24272217 1022.70812988 481.53063965 C1016.46560258 461.92482712 1010.24944482 442.31094001 1004.0625 422.6875 C997.4766042 401.79995071 990.84490655 380.92733768 984.1875 360.0625 C983.95700077 359.34006481 983.72650154 358.61762962 983.48901749 357.87330246 C981.62217259 352.02223627 979.7551843 346.17121584 977.8880024 340.32025719 C972.66883268 323.96557461 967.45649943 307.60872051 962.25 291.25 C962.03177834 290.56439751 961.81355667 289.87879501 961.58872223 289.17241669 C955.01927048 268.53186492 948.48349646 247.88089339 941.97003174 227.22259521 C935.72749254 207.42750864 929.43542652 187.64852336 923.125 167.875 C922.78061827 166.79589041 922.78061827 166.79589041 922.42927933 165.69498062 C921.96666769 164.24541331 921.50405459 162.79584647 921.04144001 161.3462801 C919.88431427 157.72046329 918.72727193 154.09461988 917.5703125 150.46875 C917.341108 149.75044195 917.1119035 149.0321339 916.8757534 148.29205894 C911.78464899 132.33557126 906.71226779 116.37315244 901.6455307 100.40891266 C901.01083138 98.40912707 900.37605851 96.40936484 899.74127197 94.40960693 C898.55640734 90.67680404 897.37189755 86.94388862 896.1875 83.2109375 C895.68257523 81.61977112 895.68257523 81.61977112 895.16744995 79.99645996 C892.10272986 70.33376273 889.05259899 60.66656347 886 51 C885.505 392.055 885.505 392.055 885 740 C917.34 740 949.68 740 983 740 C983 752.54 983 765.08 983 778 C938.63389436 778.0453204 894.26779433 778.08107715 849.90167008 778.10213066 C844.650267 778.10463173 839.39886396 778.10722041 834.14746094 778.10986328 C833.10210923 778.1103879 832.05675752 778.11091252 830.97972849 778.11145304 C814.10806991 778.12012862 797.23642511 778.13588271 780.36477467 778.15430559 C763.02121 778.17308422 745.67765249 778.18413346 728.33407807 778.18817699 C717.65339034 778.19090563 706.9727416 778.19948743 696.29206589 778.21583293 C688.94346372 778.2264984 681.59488138 778.22957929 674.24627206 778.22700275 C670.02212083 778.22573614 665.79803717 778.22751749 661.57389832 778.23841095 C605.50108228 778.37548689 546.52517642 774.89075381 503.75 734.1875 C470.91869746 700.01285448 466.1127444 652.79858372 465.28565979 607.71510315 C464.89059622 502.85700647 464.89059622 502.85700647 419.66796875 412.734375 C374.64232864 374.80232662 305.30535669 371.58015305 250 370 C250 492.1 250 614.2 250 740 C283.33 740 316.66 740 351 740 C351 752.54 351 765.08 351 778 C235.17 778 119.34 778 0 778 C0 765.46 0 752.92 0 740 C33 740 66 740 100 740 C100 508.01 100 276.02 100 37 C67 37 34 37 0 37 C0 24.79 0 12.58 0 0 Z M250 37 C250 134.68 250 232.36 250 333 C359.89980959 341.26808255 359.89980959 341.26808255 461.6875 298.8125 C485.36849783 274.34668524 492.066098 237.77809757 492.203125 204.9140625 C492.21013931 203.78673203 492.21715363 202.65940155 492.22438049 201.49790955 C492.24181069 197.87356541 492.2482338 194.24938453 492.25 190.625 C492.25067474 189.38902069 492.25134949 188.15304138 492.25204468 186.87960815 C492.23629295 168.7479017 491.97761941 150.92672137 489 133 C488.74259033 131.42532959 488.74259033 131.42532959 488.47998047 129.81884766 C483.56717133 100.99615595 473.69870207 75.57767548 450.125 57.09375 C396.42152982 21.11242498 298.13863857 37 250 37 Z " fill="#000000" transform="translate(1088,61)"/>
<path d="M0 0 C205.92 0 411.84 0 624 0 C636 192 636 192 636 205 C623.79 205 611.58 205 599 205 C598.5153125 202.00164062 598.030625 199.00328125 597.53125 195.9140625 C587.7663929 126.62034091 587.7663929 126.62034091 554 67 C553.38640625 66.19433594 552.7728125 65.38867188 552.140625 64.55859375 C532.50584573 41.09001633 497.73721206 34.38719391 469 31 C441.75905718 28.72992143 414.33536578 30 387 30 C387 264.3 387 498.6 387 740 C422.64 740 458.28 740 495 740 C495 752.54 495 765.08 495 778 C374.55 778 254.1 778 130 778 C130 765.46 130 752.92 130 740 C165.31 740 200.62 740 237 740 C237 505.7 237 271.4 237 30 C167.21838771 27.53890403 167.21838771 27.53890403 100 45 C98.56914062 45.67289063 98.56914062 45.67289063 97.109375 46.359375 C69.73793715 60.27970625 54.32849731 86.27316887 44.67114258 114.49462891 C35.16269292 143.7255966 30.33523384 174.65336309 26 205 C13.46 205 0.92 205 -12 205 C-12 185.87474027 -12 185.87474027 -11.58912659 179.26539612 C-11.54491308 178.53105423 -11.50069957 177.79671235 -11.45514625 177.04011768 C-11.31037574 174.65605219 -11.1583215 172.27251653 -11.00610352 169.88891602 C-10.89891003 168.14898862 -10.79217345 166.40903303 -10.68585205 164.66905212 C-10.39921552 159.99981116 -10.10614702 155.33099508 -9.81171155 150.66224027 C-9.50297868 145.75046627 -9.19997328 140.83833857 -8.89622498 135.92625427 C-8.38607767 127.68962769 -7.87199885 119.45325434 -7.35522461 111.21704102 C-6.75908444 101.71558855 -6.1678834 92.21383939 -5.57959992 82.71189743 C-4.95067619 72.55358235 -4.31884564 62.39544982 -3.68579364 52.23739123 C-3.50449139 49.3258032 -3.32365111 46.41418676 -3.14288521 43.50256538 C-2.85827652 38.92144227 -2.57165928 34.34044886 -2.28352356 29.75954628 C-2.1784816 28.08510051 -2.07406314 26.41061548 -1.97033501 24.7360878 C-1.8279325 22.43918387 -1.68317882 20.14243921 -1.53785706 17.84571838 C-1.45766107 16.56438302 -1.37746508 15.28304766 -1.29483891 13.96288395 C-0.94803176 9.3015029 -0.4651067 4.651067 0 0 Z " fill="#000000" transform="translate(3189,61)"/>
<path d="M0 0 C115.5 0 231 0 350 0 C350 12.54 350 25.08 350 38 C317 38 284 38 250 38 C250 269.66 250 501.32 250 740 C283 740 316 740 350 740 C350 752.54 350 765.08 350 778 C234.5 778 119 778 0 778 C0 765.46 0 752.92 0 740 C33.33 740 66.66 740 101 740 C101 508.34 101 276.68 101 38 C67.67 38 34.34 38 0 38 C0 25.46 0 12.92 0 0 Z " fill="#000000" transform="translate(2797,61)"/>
<path d="M0 0 C5.49444851 -0.3739677 10.98136183 -0.6442543 16.4855957 -0.82397461 C18.35181715 -0.89892003 20.2171719 -1.00093955 22.08032227 -1.1315918 C37.12353503 -2.1591887 37.12353503 -2.1591887 41.91878128 1.44031334 C45.27718913 4.96195977 47.73385151 8.93108338 50.02222824 13.20570183 C51.32502267 15.59644552 52.87080068 17.7814009 54.4609375 19.98828125 C55.43434474 21.42830182 56.40571979 22.86969829 57.375 24.3125 C61.64914019 30.61852437 66.01346325 36.8433469 70.5 43 C74.94164636 49.09641662 79.26442398 55.25866804 83.5 61.5 C88.29958134 68.57211586 93.23488227 75.52842447 98.26342773 82.43920898 C102.23794053 87.91294861 106.09893338 93.45464163 109.91333008 99.04077148 C113.65808292 104.52032046 117.47390921 109.94682159 121.30883789 115.36352539 C125.22458419 120.89603118 129.11655728 126.44477801 133 132 C137.31898724 138.17688878 141.64892444 144.3456712 146 150.5 C150.95347452 157.50638508 155.88149187 164.53029419 160.79125977 171.56738281 C163.51237198 175.46398856 166.24312105 179.35129564 169.02734375 183.203125 C179.87295524 198.25118461 189.49609764 214.08030839 199 230 C198.89452284 228.17492306 198.89452284 228.17492306 198.78691483 226.31297588 C198.1240742 214.34292867 197.84601184 202.41755143 197.83886719 190.4309082 C197.83422113 188.57066249 197.82919419 186.7104177 197.82382202 184.85017395 C197.81088767 179.86744215 197.80429363 174.88472368 197.79981136 169.90197778 C197.79685604 166.78075695 197.79274746 163.65953959 197.78830719 160.53832054 C197.77469675 150.74651877 197.76499273 140.95472514 197.7611053 131.16291457 C197.75660785 119.9028617 197.73895513 108.6429292 197.7101047 97.38291293 C197.68848292 88.63848987 197.67840113 79.89410074 197.67706418 71.14965123 C197.67601867 65.94221684 197.67016192 60.73489663 197.65224457 55.52749062 C197.6357501 50.6410583 197.63361502 45.75482604 197.64238358 40.86837578 C197.64315258 39.08058256 197.63882932 37.29277846 197.62892532 35.50501251 C197.52936585 16.41010617 197.52936585 16.41010617 203.125 7.6875 C211.65047919 -0.28196968 222.15624483 -0.15379612 233.18359375 -0.09765625 C234.76685204 -0.09553383 234.76685204 -0.09553383 236.38209534 -0.09336853 C239.73392643 -0.08779722 243.08568929 -0.07525002 246.4375 -0.0625 C248.71809799 -0.05748129 250.99869703 -0.05291903 253.27929688 -0.04882812 C258.85291165 -0.03869059 264.42637996 -0.01910955 270 0 C270 12.54 270 25.08 270 38 C260.3125 38.375 260.3125 38.375 257.28637695 38.47802734 C250.89388448 38.70584139 250.89388448 38.70584139 245 41 C242.90151158 44.14773263 242.74857178 44.87321097 242.73828697 48.46089458 C242.73082148 49.37951737 242.72335599 50.29814016 242.71566427 51.2446 C242.717599 52.25528993 242.71953374 53.26597986 242.7215271 54.30729675 C242.7128385 55.91597774 242.7128385 55.91597774 242.70397437 57.55715734 C242.68690197 61.16858739 242.68409163 64.77989021 242.68115234 68.39135742 C242.67185917 70.97305111 242.66169142 73.55474177 242.65071106 76.13642883 C242.62841801 81.70378769 242.61341705 87.2711281 242.60334396 92.83852196 C242.58876941 100.88806947 242.56323607 108.93755275 242.53501268 116.98706261 C242.48952239 130.04628972 242.45291685 143.10552607 242.421875 156.16479492 C242.39169861 168.85198591 242.35735254 181.53915428 242.31738281 194.22631836 C242.31492126 195.00812303 242.31245972 195.7899277 242.30992357 196.59542342 C242.29754915 200.51743841 242.28509258 204.43945313 242.27259517 208.36146772 C242.16899389 240.9076145 242.0798017 273.45378603 242 306 C236.50555149 306.3739677 231.01863817 306.6442543 225.5144043 306.82397461 C223.64818285 306.89892003 221.7828281 307.00093955 219.91967773 307.1315918 C204.88811693 308.15839276 204.88811693 308.15839276 200.09235954 304.57435226 C196.74564816 301.07193651 194.31660266 297.11808696 192.03315926 292.86720085 C190.51644197 290.12607861 188.6889367 287.63172607 186.84765625 285.1015625 C185.58412559 283.27729531 184.32240893 281.45177038 183.0625 279.625 C181.68404846 277.6351016 180.30513858 275.64552063 178.92578125 273.65625 C178.2601416 272.69589844 177.59450195 271.73554687 176.90869141 270.74609375 C172.78639962 264.81522422 168.60953277 258.92285869 164.43554688 253.02832031 C161.95349984 249.52137359 159.47710676 246.01043706 157 242.5 C156.00002554 241.0833153 155.00002558 239.66664861 154 238.25 C152 235.41666667 150 232.58333333 148 229.75 C147.50516113 229.0489917 147.01032227 228.3479834 146.50048828 227.62573242 C145.49880957 226.20666042 144.4971821 224.78755225 143.49560547 223.3684082 C141.02170505 219.86324726 138.54696634 216.35868485 136.0703125 212.85546875 C130.09597943 204.40242303 124.14800966 195.93140407 118.21582031 187.44873047 C112.98800803 179.97610194 107.7323662 172.52340376 102.46777344 165.07666016 C99.47466609 160.84190116 96.48526391 156.60452547 93.49511719 152.36767578 C90.53277389 148.17054157 87.56874241 143.9746091 84.6027832 139.7800293 C83.61042894 138.37486353 82.61939865 136.96876189 81.62963867 135.56176758 C79.01747232 131.84854641 76.38922866 128.14878143 73.73046875 124.46875 C63.67643473 110.45596724 54.81467748 95.80819673 46 81 C45.00038297 79.33310361 44.00044088 77.66640206 43 76 C43.06983093 77.09270203 43.13966187 78.18540405 43.21160889 79.31121826 C44.32577793 98.74466596 44.18232907 118.20422078 44.20018864 137.66209126 C44.20314778 140.72671241 44.20725689 143.79133006 44.21169281 146.8559494 C44.22529461 156.47528507 44.23500341 166.09461248 44.2388947 175.71395707 C44.24339345 186.76682895 44.26105573 197.8195783 44.2898953 208.87241292 C44.31152569 217.46317775 44.32159929 226.05390805 44.32293582 234.64469981 C44.32398049 239.75768086 44.32981938 244.87054553 44.34775543 249.98349762 C44.36426547 254.78049609 44.36637746 259.57729082 44.35761642 264.37430763 C44.35684832 266.12781891 44.36115871 267.88134134 44.37107468 269.63482475 C44.49198437 292.35476214 44.49198437 292.35476214 36.67578125 300.59765625 C31.31846656 305.08081703 24.55002596 306.13039709 17.75073242 306.11352539 C16.73005173 306.11344986 15.70937103 306.11337433 14.65776062 306.11329651 C13.02312614 306.10555458 13.02312614 306.10555458 11.35546875 306.09765625 C9.66808342 306.09553383 9.66808342 306.09553383 7.9466095 306.09336853 C4.36021241 306.08777931 0.77387816 306.07522872 -2.8125 306.0625 C-5.24674389 306.05748361 -7.68098876 306.05292094 -10.11523438 306.04882812 C-16.0768665 306.0386651 -22.03836305 306.01908742 -28 306 C-28 293.46 -28 280.92 -28 268 C-17.8125 267.6875 -17.8125 267.6875 -14.62817383 267.61206055 C-7.79839512 267.38938732 -7.79839512 267.38938732 -2 264 C-1.06168877 261.18506632 -0.87111411 259.46755922 -0.8613348 256.55472279 C-0.85312313 255.1820137 -0.85312313 255.1820137 -0.84474558 253.78157312 C-0.84376747 252.77477414 -0.84278936 251.76797516 -0.84178162 250.73066711 C-0.83684364 249.66229667 -0.83190566 248.59392623 -0.82681805 247.49318093 C-0.81139965 243.89560206 -0.80307067 240.29804108 -0.79467773 236.70043945 C-0.78510262 234.12859946 -0.77509277 231.55676105 -0.76467896 228.98492432 C-0.74291086 223.43884846 -0.72476759 217.8927702 -0.70907402 212.34667397 C-0.68637843 204.32791322 -0.65823517 196.30917891 -0.62875474 188.29044058 C-0.58107502 175.28112244 -0.53781186 162.2717935 -0.49731445 149.26245117 C-0.45796146 136.62377074 -0.41653571 123.98509992 -0.37231445 111.34643555 C-0.36959018 110.56761787 -0.36686591 109.7888002 -0.36405908 108.98638199 C-0.35037964 105.07935117 -0.33665936 101.1723205 -0.32291877 97.2652899 C-0.20894802 64.8435464 -0.10213998 32.42178296 0 0 Z M200 232 C201 234 201 234 201 234 Z " fill="#000000" transform="translate(1506,1026)"/>
<path d="M0 0 C17.82974989 -0.04530713 35.65944995 -0.08208192 53.4892416 -0.10362434 C61.76962293 -0.11389679 70.0499657 -0.12787913 78.33032227 -0.15087891 C85.55518674 -0.17093719 92.78002327 -0.18374565 100.00491482 -0.18817699 C103.82343037 -0.19076352 107.64186604 -0.19675676 111.46035576 -0.21146011 C142.20289805 -0.32521553 172.916644 0.14216865 197 22 C197.84304687 22.75023437 198.68609375 23.50046875 199.5546875 24.2734375 C216.68204104 40.35961453 224.25056749 63.36753421 224.99609375 86.4453125 C225.27813439 109.96237369 219.69531193 133.64571432 203.07006836 150.99194336 C201.7294904 152.34412806 200.36530522 153.67278699 199 155 C198.29746094 155.68835937 197.59492188 156.37671875 196.87109375 157.0859375 C189.60380673 163.81001317 181.07638268 168.21599774 172 172 C172.51296631 172.46003418 173.02593262 172.92006836 173.55444336 173.39404297 C178.95205868 178.47067826 182.32144743 183.50274123 185.5625 190.125 C186.05862793 191.1056543 186.55475586 192.08630859 187.06591797 193.09667969 C188.72684732 196.38991049 190.3639407 199.69434988 192 203 C193.24889028 205.50381182 194.50140111 208.0058074 195.75390625 210.5078125 C197.68987264 214.37732434 199.62442784 218.24751394 201.55273438 222.12084961 C206.23611071 231.5219692 211.03144711 240.85592822 215.99804688 250.11083984 C216.94261568 251.89180315 217.85521478 253.68961681 218.765625 255.48828125 C219.27609375 256.48214844 219.7865625 257.47601562 220.3125 258.5 C220.72113281 259.3146875 221.12976562 260.129375 221.55078125 260.96875 C224.57737487 265.21087583 227.99581044 265.99916209 233 267 C237.62 267.33 242.24 267.66 247 268 C247 280.54 247 293.08 247 306 C238.7396875 306.0928125 238.7396875 306.0928125 230.3125 306.1875 C228.60360596 306.21481201 226.89471191 306.24212402 225.1340332 306.27026367 C212.74779796 306.38608393 200.33837357 306.12351041 191 297 C186.19582825 291.39510794 182.76915415 285.19099257 179.44140625 278.63671875 C178.92912979 277.64129562 178.41685333 276.6458725 177.88905334 275.62028503 C171.22838214 262.63042129 164.75504956 249.54475859 158.27905273 236.4621582 C152.68401617 225.16732764 147.0608585 213.88426683 141.12890625 202.76171875 C140.71277573 201.95740921 140.2966452 201.15309967 139.86790466 200.32441711 C135.66493989 192.58269946 131.41698306 188.80566102 123 186 C106.17 185.67 89.34 185.34 72 185 C72 224.93 72 264.86 72 306 C57.48 306 42.96 306 28 306 C28 217.56 28 129.12 28 38 C18.76 38 9.52 38 0 38 C0 25.46 0 12.92 0 0 Z M72 38 C72 73.97 72 109.94 72 147 C81.405 147.061875 90.81 147.12375 100.5 147.1875 C103.43455078 147.21481201 106.36910156 147.24212402 109.39257812 147.27026367 C138.98235947 147.64473053 138.98235947 147.64473053 164.4140625 133.81640625 C176.5529264 119.91352025 180.08568228 103.25218257 179.1953125 85.31494141 C178.05639055 71.81586894 173.12270565 59.00518035 163.05078125 49.7109375 C149.78440089 38.64298589 133.80758907 37.83320958 117.21484375 37.90234375 C115.48868835 37.90385437 115.48868835 37.90385437 113.72766113 37.90539551 C109.46426383 37.91059357 105.20088082 37.92455463 100.9375 37.9375 C91.388125 37.958125 81.83875 37.97875 72 38 Z " fill="#000000" transform="translate(2504,1026)"/>
<path d="M0 0 C6.79541988 -0.046088 13.59029015 -0.08586126 20.38574219 -0.10986328 C22.69402919 -0.11987684 25.00230364 -0.13349163 27.31054688 -0.15087891 C30.64195872 -0.17533227 33.9732018 -0.18652989 37.3046875 -0.1953125 C38.834991 -0.21079636 38.834991 -0.21079636 40.39620972 -0.22659302 C49.26899481 -0.22796035 57.94371854 0.09241552 65 6 C70.81093302 12.07506634 72.24624565 17.126574 72.26501465 25.4271698 C72.27158655 26.51731014 72.27158655 26.51731014 72.27829123 27.62947351 C72.29056881 30.05407114 72.28880594 32.47845114 72.28710938 34.90307617 C72.29313693 36.64651305 72.30006202 38.38994702 72.30781555 40.13337708 C72.32269203 43.88522887 72.33145093 47.63702756 72.33552551 51.38890648 C72.34225871 57.33853293 72.36404127 63.28804682 72.38806152 69.23762512 C72.43701317 81.88755693 72.46927731 94.53751282 72.5 107.1875 C72.53315057 120.80183995 72.5693903 134.41613581 72.62413073 148.03040868 C72.64727921 153.92599558 72.66117041 159.82150518 72.66762543 165.71713293 C72.67363369 169.41427114 72.68779008 173.11134818 72.70396996 176.80845451 C72.70976546 178.50171855 72.71233532 180.19499781 72.71113014 181.88827133 C72.70665502 190.69634461 72.99515762 199.39773967 73.88122559 208.16548157 C73.99491792 209.31764295 73.99491792 209.31764295 74.11090708 210.49308032 C76.07927016 228.17928429 84.26177013 243.66465445 98 255 C116.40290265 268.22250456 139.08265498 270.92764428 161.0546875 267.75390625 C178.24874668 264.72041343 193.39044598 256.33689185 203.8125 242.125 C214.15704633 226.29250186 216.60847206 209.72268024 216.51416016 191.26806641 C216.51963547 189.44943655 216.52688526 187.63081131 216.53575134 185.81219482 C216.55096476 181.93055963 216.55394248 178.04918823 216.54698563 174.16753006 C216.53610881 168.02209579 216.55368508 161.87693259 216.57479858 155.73153687 C216.60493455 146.0116621 216.61674198 136.2918689 216.62037504 126.57195127 C216.62704568 109.15802203 216.65615677 91.7441492 216.7054714 74.33028924 C216.72190741 68.22811843 216.7273985 62.12606627 216.72388101 56.02387547 C216.72344247 52.22558148 216.73102986 48.42733198 216.74055672 44.62905121 C216.74322761 42.87555242 216.74250814 41.12204449 216.73804665 39.36854935 C216.68164883 15.54691945 216.68164883 15.54691945 223 8 C231.52402978 -0.43010107 241.11773461 -0.15389248 252.40234375 -0.09765625 C254.0188961 -0.09553383 254.0188961 -0.09553383 255.66810608 -0.09336853 C259.09126629 -0.08779611 262.51435975 -0.07524868 265.9375 -0.0625 C268.26627509 -0.05748144 270.59505122 -0.05291915 272.92382812 -0.04882812 C278.61593148 -0.038689 284.3078915 -0.01910816 290 0 C290 12.54 290 25.08 290 38 C279.8125 38.375 279.8125 38.375 276.62817383 38.47802734 C275.78794678 38.5136377 274.94771973 38.54924805 274.08203125 38.5859375 C273.22843018 38.6173584 272.3748291 38.6487793 271.49536133 38.68115234 C268.70263055 39.03799672 266.52570632 39.76337903 264 41 C262.61859972 43.76280056 262.86255442 45.99994668 262.84851074 49.09317017 C262.84016708 50.39381912 262.83182343 51.69446808 262.82322693 53.03453064 C262.81891687 54.48477148 262.81469311 55.93501259 262.81054688 57.38525391 C262.80260637 58.90636933 262.79421856 60.42748247 262.78541565 61.94859314 C262.76732815 65.23178065 262.75232227 68.51496302 262.73963928 71.79817581 C262.71940753 77.00312733 262.69174841 82.20802308 262.66296387 87.41293335 C262.60280745 98.48359586 262.55114079 109.55429279 262.5 120.625 C262.44483301 132.52927326 262.38795333 144.43352929 262.32245111 156.33775079 C262.29433664 161.49654003 262.27065505 166.6553238 262.25052643 171.81415009 C262.23697777 175.0500633 262.21957479 178.2859481 262.20121574 181.52183723 C262.1935681 183.00511378 262.18745286 184.48839929 262.18312263 185.97168922 C262.10100782 213.08282259 262.10100782 213.08282259 259.3125 225.5 C259.14024902 226.28697266 258.96799805 227.07394531 258.79052734 227.88476562 C252.62629053 254.60541551 237.3286385 277.84093798 214.34375 292.97265625 C183.36747237 311.75383392 144.95194908 316.02605887 109.93115234 307.49609375 C83.87360143 300.77477658 59.01046318 285.50908229 45 262 C31.62549233 239.31248892 27.88290209 215.90677179 27.81054688 189.8359375 C27.80258828 188.23328949 27.7941991 186.63064358 27.78541565 185.02799988 C27.76747553 181.59924944 27.75241979 178.17050324 27.73963928 174.74172974 C27.7192959 169.32119789 27.69166587 163.90071775 27.66296387 158.48022461 C27.59800825 146.00781753 27.54228102 133.53537262 27.48697662 121.06291962 C27.4361155 109.60434517 27.38329344 98.14578987 27.32245111 86.68726349 C27.2941051 81.29654674 27.27051049 75.9058363 27.25052643 70.51508236 C27.23715796 67.17054694 27.21974643 63.82604156 27.20121574 60.48153114 C27.19344984 58.9282844 27.18738458 57.37502811 27.18312263 55.82176781 C27.1770891 53.70607839 27.16504775 51.5905061 27.15148926 49.47485352 C27.14633553 48.28988785 27.14118179 47.10492218 27.13587189 45.88404846 C27.12736885 42.93005151 27.12736885 42.93005151 26 40 C20.5555467 38.92377086 15.15356434 38.6783225 9.625 38.4375 C6.44875 38.293125 3.2725 38.14875 0 38 C0 25.46 0 12.92 0 0 Z " fill="#000000" transform="translate(1160,1026)"/>
<path d="M0 0 C23.81791462 -0.04517946 47.63579445 -0.08200819 71.45374107 -0.10362434 C82.51328442 -0.1139287 93.5727992 -0.12797298 104.63232422 -0.15087891 C114.27390011 -0.1708385 123.91545532 -0.18372255 133.5570513 -0.18817699 C138.6602768 -0.19078001 143.76344313 -0.19688077 148.86664963 -0.21146011 C153.67480754 -0.22508461 158.4828822 -0.22921282 163.29105759 -0.22621536 C165.05099948 -0.22676335 166.81094431 -0.23071169 168.57086945 -0.23841095 C194.2814208 -0.3453248 194.2814208 -0.3453248 203.25 8.125 C207.79455978 15.59106249 208.43176377 23.48233798 208.29296875 32.0390625 C208.28872391 33.04593109 208.28447906 34.05279968 208.28010559 35.09017944 C208.2634716 38.26873879 208.22584875 41.44663614 208.1875 44.625 C208.17243339 46.79556368 208.15874847 48.96613742 208.14648438 51.13671875 C208.11618522 56.42493205 208.05743489 61.71173544 208 67 C194.8 67 181.6 67 168 67 C167.625 56.8125 167.625 56.8125 167.52197266 53.62817383 C167.46855713 52.36783325 167.46855713 52.36783325 167.4140625 51.08203125 C167.3826416 50.22843018 167.3512207 49.3748291 167.31884766 48.49536133 C166.95065332 45.61380362 166.4194635 43.54560712 165 41 C160.63719016 38.59563646 156.20834256 38.69422708 151.35424805 38.68115234 C150.48137303 38.67099909 149.60849802 38.66084583 148.70917225 38.6503849 C145.89335843 38.61983339 143.0776453 38.60261678 140.26171875 38.5859375 C138.51940039 38.56899667 136.77709032 38.55117934 135.03479004 38.5324707 C128.58578854 38.46936034 122.13663014 38.4232037 115.6875 38.375 C101.270625 38.25125 86.85375 38.1275 72 38 C72 69.35 72 100.7 72 133 C107.31 133 142.62 133 179 133 C179 145.54 179 158.08 179 171 C143.69 171 108.38 171 72 171 C72.103125 185.375625 72.20625 199.75125 72.3125 214.5625 C72.33739502 219.09299072 72.36229004 223.62348145 72.38793945 228.29125977 C72.42452607 232.3706778 72.42452607 232.3706778 72.4650116 236.45005798 C72.48110654 238.25971043 72.49143174 240.06942004 72.49711609 241.87913513 C72.50689315 244.62879762 72.53527438 247.3777197 72.56762695 250.12719727 C72.56620099 250.9264264 72.56477503 251.72565554 72.56330585 252.54910374 C72.64984388 257.7192547 73.48444826 261.4430836 76 266 C79.96834364 267.32278121 83.7687375 267.14743904 87.90600586 267.14526367 C88.8168544 267.14862228 89.72770294 267.1519809 90.66615295 267.15544128 C93.68239702 267.16495395 96.69858561 267.1668945 99.71484375 267.16796875 C101.808477 267.1711809 103.90211002 267.17454494 105.9957428 267.17805481 C110.3864087 267.18404672 114.77705491 267.18589462 119.16772461 267.18530273 C124.79809392 267.18520106 130.42833728 267.19885839 136.05867672 267.21607494 C140.38318972 267.22718428 144.70767215 267.22922228 149.03219795 267.22869301 C151.10825599 267.22987454 153.18431479 267.23430596 155.26035881 267.24202538 C158.16186264 267.25180451 161.06309151 267.24895549 163.96459961 267.24291992 C164.82447479 267.24853943 165.68434998 267.25415894 166.57028198 267.25994873 C167.36237564 267.25575424 168.1544693 267.25155975 168.9705658 267.24723816 C169.65617049 267.24778293 170.34177519 267.24832769 171.04815578 267.24888897 C173.39672288 266.94941197 174.986951 266.23356857 177 265 C178.28605661 262.42788678 178.21043941 260.43093034 178.31640625 257.5546875 C178.35451416 256.58515137 178.39262207 255.61561523 178.43188477 254.61669922 C178.47498779 253.38193848 178.51809082 252.14717773 178.5625 250.875 C178.7790625 244.996875 178.7790625 244.996875 179 239 C192.53 239 206.06 239 220 239 C220.06910487 245.52913015 220.12876973 252.05697634 220.16479492 258.58618164 C220.17982277 260.8043245 220.20025077 263.02243793 220.22631836 265.24047852 C220.26296624 268.44034108 220.27978688 271.63980861 220.29296875 274.83984375 C220.30845261 275.82145981 220.32393646 276.80307587 220.33988953 277.81443787 C220.34190201 286.16568129 219.00835919 294.1935567 212.96361923 300.38656616 C205.08874229 306.85706345 194.69963115 306.57319085 185.04858398 306.50170898 C183.5755156 306.50550046 182.1024508 306.51100728 180.62939453 306.51808167 C176.6603386 306.53194461 172.69172062 306.52093224 168.72268939 306.50437045 C164.55137537 306.49043006 160.38008446 306.4969901 156.20875549 306.50050354 C149.20754004 306.5031983 142.20649674 306.48979246 135.20532227 306.46655273 C127.13169233 306.43993721 119.05834987 306.43820195 110.98469108 306.4499411 C103.1897342 306.46075044 95.39488044 306.45450778 87.59993172 306.44038582 C84.29515177 306.43465438 80.99044801 306.43468615 77.68566704 306.43945122 C73.78914365 306.44425218 69.89293182 306.43399152 65.99646759 306.41249657 C64.57355614 306.4069711 63.15061449 306.406424 61.72770119 306.41144943 C43.09295096 306.46897076 43.09295096 306.46897076 35.5625 300.625 C27.93122519 292.80759654 27.69356355 282.95466664 27.75949097 272.49630737 C27.75778212 271.4872928 27.75607327 270.47827822 27.75431263 269.43868744 C27.75103877 266.08388815 27.76198666 262.72929234 27.77294922 259.37451172 C27.77351379 256.95927434 27.77319588 254.54403662 27.77206421 252.12879944 C27.77160991 246.94241268 27.77725407 241.75607128 27.78853989 236.56969833 C27.80484626 229.07122846 27.81000813 221.57278288 27.81251587 214.0742972 C27.81688494 201.90628846 27.83017259 189.73830664 27.84912109 177.5703125 C27.86750034 165.75553522 27.88164682 153.94076527 27.89013672 142.12597656 C27.89066217 141.39678988 27.89118761 140.6676032 27.89172898 139.91631995 C27.8943392 136.25792888 27.89686658 132.59953777 27.89935279 128.94114661 C27.92006074 98.62741121 27.95581807 68.31371081 28 38 C18.76 38 9.52 38 0 38 C0 25.46 0 12.92 0 0 Z " fill="#000000" transform="translate(2252,1026)"/>
<path d="M0 0 C7.0228125 -0.061875 7.0228125 -0.061875 14.1875 -0.125 C15.63535889 -0.14320801 17.08321777 -0.16141602 18.57495117 -0.18017578 C42.9254447 -0.28275991 42.9254447 -0.28275991 50.91796875 6.66796875 C63.3207341 19.0707341 67.21778662 40.71022184 72.93590164 56.98708725 C74.99500804 62.84419133 77.06260158 68.69831053 79.12897301 74.55285454 C79.65312986 76.03801168 80.17717867 77.52320696 80.70112038 79.00844002 C85.60826937 92.91827717 90.57249635 106.8071659 95.5625 120.6875 C102.19052311 139.13640677 108.78706512 157.59628339 115.34909058 176.0687561 C116.30983147 178.77328055 117.27136381 181.47752125 118.2336731 184.18148804 C132.68096956 224.78348614 132.68096956 224.78348614 136.3125 239.5625 C136.80558664 241.54371958 137.30151333 243.52423531 137.80078125 245.50390625 C138.11269409 246.76956421 138.11269409 246.76956421 138.4309082 248.06079102 C138.82819572 249.98798863 138.82819572 249.98798863 140 251 C140.17313721 250.2778833 140.34627441 249.5557666 140.5246582 248.81176758 C146.60764831 223.98803979 155.16072985 200.19847629 163.92460632 176.21505737 C168.80144314 162.84965678 173.53490728 149.43416373 178.2668457 136.01693726 C180.70784672 129.09584951 183.15491637 122.17690619 185.6015625 115.2578125 C185.83620964 114.59411085 186.07085678 113.9304092 186.31261444 113.24659538 C191.99571081 97.1724379 197.71218092 81.11034295 203.47117615 65.06321716 C205.22176413 60.18240074 206.95992118 55.29733077 208.69030762 50.40931702 C209.86414733 47.09709068 211.0441375 43.78707547 212.22528076 40.47744751 C212.7704888 38.94550315 213.31314236 37.41264649 213.85284424 35.87875366 C223.53659205 8.37044837 223.53659205 8.37044837 233.90625 3.015625 C243.50783423 -1.02313662 254.37280973 -0.12499986 264.5625 -0.0625 C269.326875 -0.041875 274.09125 -0.02125 279 0 C279 12.54 279 25.08 279 38 C274.71 38.66 270.42 39.32 266 40 C264.68 40.33 263.36 40.66 262 41 C260.77761703 43.27356901 260.77761703 43.27356901 260 46 C259.53960831 47.22555099 259.53960831 47.22555099 259.06991577 48.4758606 C258.74955353 49.34765961 258.42919128 50.21945862 258.09912109 51.11767578 C257.72980972 52.12148788 257.36049835 53.12529999 256.97999573 54.15953064 C256.58183151 55.24383865 256.1836673 56.32814667 255.7734375 57.4453125 C254.90667492 59.80168306 254.03989353 62.1580467 253.1730957 64.5144043 C252.71283802 65.76629844 252.25260278 67.01820083 251.79238892 68.27011108 C249.38617641 74.81508983 246.97661363 81.35883524 244.56640625 87.90234375 C244.3246208 88.55878435 244.08283535 89.21522495 243.83372307 89.89155769 C239.68095798 101.16470744 235.50775036 112.43009488 231.3125 123.6875 C231.00542114 124.51158356 230.69834229 125.33566711 230.38195801 126.1847229 C229.06207164 129.72667768 227.74217341 133.26862804 226.42214966 136.81053162 C221.42335061 150.22679305 216.441572 163.6493873 211.45736694 177.07107544 C210.07188098 180.80195674 208.68632735 184.53281291 207.30078125 188.26367188 C206.74050877 189.77231842 206.18023655 191.28096507 205.6199646 192.78961182 C205.34098705 193.54081551 205.06200951 194.2920192 204.77457809 195.06598663 C203.92226764 197.36102368 203.06997441 199.65606713 202.21768188 201.95111084 C198.37647557 212.29451598 194.53421456 222.63752893 190.69139099 232.98033333 C188.92019982 237.74749576 187.14914564 242.5147091 185.37808609 247.28192043 C183.69923767 251.80087529 182.02018347 256.31975362 180.34096909 260.8385725 C179.2966101 263.6491669 178.25250079 266.45985401 177.2084198 269.27055168 C176.4705434 271.25659981 175.73229179 273.24250817 174.99401855 275.22840881 C172.89872169 280.8670699 170.80999611 286.5079121 168.74755859 292.15869141 C168.41696945 293.06323563 168.08638031 293.96777985 167.74577332 294.8997345 C167.15283444 296.52502222 166.56223944 298.15116795 165.9745636 299.77836609 C164.11006298 304.88993702 164.11006298 304.88993702 163 306 C161.52645652 306.09304018 160.04849409 306.11746265 158.57202148 306.11352539 C157.63112167 306.11344986 156.69022186 306.11337433 155.72080994 306.11329651 C154.69790359 306.10813522 153.67499725 306.10297394 152.62109375 306.09765625 C151.058395 306.09553383 151.058395 306.09553383 149.46412659 306.09336853 C146.12188906 306.0877508 142.77971743 306.0751953 139.4375 306.0625 C137.17773534 306.05748728 134.91796963 306.05292398 132.65820312 306.04882812 C127.10544609 306.03777561 121.55272775 306.02102024 116 306 C106.43020917 280.59568575 96.93101978 255.1667851 87.5625 229.6875 C81.01500103 211.88234197 74.44399018 194.08655898 67.8125 176.3125 C67.43753387 175.30746429 67.06256775 174.30242859 66.67623901 173.26693726 C66.29766754 172.25225372 65.91909607 171.23757019 65.52905273 170.19213867 C64.74200256 168.08252781 63.95497499 165.9729085 63.16796875 163.86328125 C62.76787094 162.7908165 62.36777313 161.71835175 61.95555115 160.61338806 C56.16313999 145.08138115 50.3955145 129.54015167 44.625 114 C43.82005284 111.83234942 43.01509864 109.66470146 42.21010685 107.49706745 C41.68445929 106.08145046 41.15892801 104.66579028 40.63351345 103.25008678 C39.33829085 99.76053841 38.04122173 96.27169992 36.74009705 92.78434753 C34.25312214 86.11231497 31.78810396 79.43391967 29.38183784 72.73228455 C28.21842493 69.4959287 27.04470737 66.26335389 25.87012863 63.03103638 C25.31165348 61.48524619 24.75817398 59.93764076 24.21004105 58.38815308 C23.44871583 56.23704764 22.67032601 54.09282669 21.88818359 51.94921875 C21.45009369 50.72549561 21.01200378 49.50177246 20.56063843 48.2409668 C18.9126251 44.3621092 18.9126251 44.3621092 14 40 C9.38 39.34 4.76 38.68 0 38 C0 25.46 0 12.92 0 0 Z " fill="#000000" transform="translate(1949,1026)"/>
<path d="M0 0 C6.60737902 6.089801 11.84863494 13.93777331 13.53125 22.91015625 C13.6145709 25.60151092 13.64762772 28.26644631 13.62890625 30.95703125 C13.62789917 31.64104004 13.62689209 32.32504883 13.62585449 33.02978516 C13.6206413 35.57325936 13.60668006 38.11670957 13.59375 40.66015625 C13.573125 46.35265625 13.5525 52.04515625 13.53125 57.91015625 C0.33125 57.91015625 -12.86875 57.91015625 -26.46875 57.91015625 C-26.79875 52.30015625 -27.12875 46.69015625 -27.46875 40.91015625 C-29.77837511 33.01893713 -33.43260001 29.10257252 -40.46875 24.91015625 C-57.58589288 16.43031017 -76.51051453 14.59075567 -94.9453125 19.9140625 C-105.86464664 23.78825248 -115.61511665 29.61583552 -121.46875 39.91015625 C-125.97300538 50.80323677 -126.98191235 59.89323522 -122.46875 70.91015625 C-110.71783287 93.94660765 -80.75547509 103.07739775 -58.64453125 113.02832031 C-29.68882268 126.06761703 1.76563213 141.16290743 14.9375 172.2265625 C23.37800008 194.57916591 22.93772682 219.44298828 13.2578125 241.375 C2.54786898 263.30373052 -16.11365494 278.63923603 -38.84375 286.72265625 C-73.42672007 297.27581 -109.96519643 292.74314763 -141.74609375 275.98046875 C-155.75743546 268.33268634 -167.44490306 258.3112451 -178.46875 246.91015625 C-176.0679286 242.54948064 -173.10937493 239.00172639 -169.84375 235.28515625 C-165.20630312 229.95495235 -160.70377893 224.55239007 -156.30859375 219.01953125 C-154.46875 216.91015625 -154.46875 216.91015625 -151.46875 214.91015625 C-150.92089844 215.50441406 -150.37304688 216.09867188 -149.80859375 216.7109375 C-130.60962033 236.78401053 -104.70964963 250.47206494 -76.59375 251.22265625 C-62.47089406 250.94330306 -47.58442095 247.32334693 -37.46875 236.91015625 C-36.80875 236.91015625 -36.14875 236.91015625 -35.46875 236.91015625 C-35.200625 236.34941406 -34.9325 235.78867188 -34.65625 235.2109375 C-32.94390518 231.89326941 -30.90873911 228.78953913 -28.90625 225.640625 C-24.16954772 216.64346496 -23.9701463 205.28285935 -26.2734375 195.48828125 C-32.72841515 178.30468558 -49.3458716 168.50645119 -64.96875 160.66015625 C-66.23190736 160.01572643 -67.49484207 159.37086001 -68.75756836 158.72558594 C-77.42023203 154.32502233 -86.19691793 150.20344985 -95.03125 146.16015625 C-124.20061656 132.7871547 -155.30377227 116.60342873 -167.40625 84.84765625 C-174.49259212 62.928867 -172.33141094 41.25881503 -161.90625 20.8515625 C-150.33485124 -0.17516905 -130.61452153 -12.85075294 -108.06079102 -19.57055664 C-102.90651918 -21.03360985 -97.76895923 -22.3012313 -92.46875 -23.08984375 C-91.74429688 -23.20070313 -91.01984375 -23.3115625 -90.2734375 -23.42578125 C-58.96633883 -27.3524343 -24.37840655 -20.63678403 0 0 Z " fill="#000000" transform="translate(2957.46875,1045.08984375)"/>
<path d="M0 0 C1.34596025 -0.00339833 1.34596025 -0.00339833 2.71911162 -0.00686532 C5.71434021 -0.01317605 8.70952321 -0.01237784 11.70475769 -0.0115509 C13.85702574 -0.01454421 16.00929325 -0.01794714 18.16156006 -0.02172852 C24.00047662 -0.03055507 29.83937851 -0.03290606 35.6783011 -0.0335443 C39.32828756 -0.03425555 42.97827031 -0.03639129 46.62825584 -0.03904152 C59.36762605 -0.04829039 72.1069858 -0.05237697 84.84635925 -0.05158997 C96.71205507 -0.05098925 108.57770541 -0.0615411 120.44338971 -0.07733363 C130.63893402 -0.09041865 140.83446348 -0.09577346 151.03001612 -0.09513456 C157.11569772 -0.09487986 163.20133889 -0.09771556 169.2870121 -0.10831261 C175.01207282 -0.11800977 180.73705461 -0.11806163 186.46211815 -0.11079597 C188.55908702 -0.10975216 190.65606085 -0.11210093 192.75302124 -0.11815643 C195.6240951 -0.1259081 198.49489849 -0.12121059 201.3659668 -0.11352539 C202.18807217 -0.11866895 203.01017754 -0.12381252 203.8571952 -0.12911195 C212.11278183 -0.0805587 220.40154074 0.58635438 226.87345886 6.13371277 C230.82446727 11.2593453 232.00272589 14.90983294 231.98698425 21.26945496 C231.98690872 22.29021118 231.98683319 23.31096741 231.98675537 24.36265564 C231.98159409 25.45757324 231.9764328 26.55249084 231.97111511 27.68058777 C231.96899269 29.37009552 231.96899269 29.37009552 231.96682739 31.09373474 C231.96123086 34.69042112 231.94867896 38.28704521 231.93595886 41.88371277 C231.93094342 44.32251395 231.92638059 46.76131611 231.92228699 49.20011902 C231.91211356 55.1780269 231.89253731 61.15580011 231.87345886 67.13371277 C219.00345886 67.13371277 206.13345886 67.13371277 192.87345886 67.13371277 C192.56095886 55.88371277 192.56095886 55.88371277 192.48551941 52.35539246 C192.45240662 51.43145691 192.41929382 50.50752136 192.38517761 49.55558777 C192.35899353 48.61296082 192.33280945 47.67033386 192.30583191 46.69914246 C191.79664296 43.6779355 191.02929021 42.29659032 188.87345886 40.13371277 C167.52052669 34.79547973 144.8806952 38.48866819 122.87345886 38.13371277 C122.87345886 126.57371277 122.87345886 215.01371277 122.87345886 306.13371277 C108.35345886 306.13371277 93.83345886 306.13371277 78.87345886 306.13371277 C78.87345886 217.69371277 78.87345886 129.25371277 78.87345886 38.13371277 C44.57543533 35.66262615 44.57543533 35.66262615 11.87345886 41.13371277 C9.76604581 44.08169171 9.58366762 46.77439507 9.45939636 50.33683777 C9.42378601 51.22016785 9.38817566 52.10349792 9.35148621 53.01359558 C9.31748718 54.12573425 9.28348816 55.23787292 9.24845886 56.38371277 C9.06283386 61.70496277 9.06283386 61.70496277 8.87345886 67.13371277 C-3.99654114 67.13371277 -16.86654114 67.13371277 -30.12654114 67.13371277 C-30.19562731 60.31976928 -30.25529832 53.50705433 -30.29133606 46.69303894 C-30.30636843 44.37789275 -30.32679984 42.06277477 -30.3528595 39.74772644 C-30.38948709 36.40886953 -30.40632355 33.07039107 -30.41950989 29.73136902 C-30.43499374 28.7060054 -30.4504776 27.68064178 -30.46643066 26.62420654 C-30.46817786 19.06510844 -29.33930495 12.7689676 -25.37654114 6.25871277 C-18.4515227 -0.28158242 -8.95090773 -0.0167247 0 0 Z " fill="#000000" transform="translate(3181.1265411376953,1025.8662872314453)"/>
<path d="M0 0 C4.3725 -0.04125 8.745 -0.0825 13.25 -0.125 C15.27882324 -0.15231201 15.27882324 -0.15231201 17.34863281 -0.18017578 C29.98682054 -0.23720399 41.9567281 0.37297801 51.75 9.0625 C63.33690414 21.40846915 71.06954129 38.07939068 79.64868164 52.60205078 C84.60387222 60.98782381 89.61543003 69.33529438 94.69430542 77.646698 C117.84414487 115.54583533 117.84414487 115.54583533 126 133 C128.12332192 130.30051181 129.79645183 127.63744472 131.3203125 124.5625 C137.49404182 112.31817974 144.18674812 100.50374006 151.36767578 88.83007812 C152.10326896 87.63416309 152.83878292 86.43819931 153.57421875 85.2421875 C154.12375214 84.3488974 154.12375214 84.3488974 154.68438721 83.43756104 C158.35920495 77.44676149 161.90897901 71.38519997 165.44500732 65.31176758 C171.21873824 55.39638265 177.03876759 45.50983999 182.96923828 35.68725586 C184.02176486 33.94252499 185.06957264 32.19495012 186.1171875 30.44726562 C201.62059462 4.86817281 201.62059462 4.86817281 216 1 C223.85653617 -0.16570557 231.63282998 -0.11481814 239.5625 -0.0625 C243.996875 -0.041875 248.43125 -0.02125 253 0 C253 12.54 253 25.08 253 38 C247.39 38.66 241.78 39.32 236 40 C227.20901795 45.27458923 222.64040497 53.89920015 217.5 62.5625 C216.27342732 64.60364147 215.04551876 66.64398067 213.81640625 68.68359375 C213.18879395 69.72628418 212.56118164 70.76897461 211.91455078 71.84326172 C208.80595078 76.96876517 205.62352087 82.04738221 202.4375 87.125 C197.77020002 94.57025486 193.1181932 102.02417557 188.5 109.5 C183.92069478 116.91153952 179.31172399 124.3039109 174.6875 131.6875 C169.13221051 140.56225363 163.61488299 149.45969804 158.125 158.375 C157.59548233 159.23404434 157.59548233 159.23404434 157.05526733 160.11044312 C156.05931518 161.72667896 155.06478023 163.34378786 154.0703125 164.9609375 C153.50070801 165.88696777 152.93110352 166.81299805 152.34423828 167.76708984 C150.22736412 171.28342312 149.86867771 173.21640751 149.84178162 177.32766724 C149.8319928 178.45791321 149.82220398 179.58815918 149.81211853 180.75265503 C149.80636307 181.99846344 149.8006076 183.24427185 149.79467773 184.52783203 C149.78477814 185.83510254 149.77487854 187.14237305 149.76467896 188.48925781 C149.7375997 192.07991428 149.71660653 195.67058394 149.69667697 199.26128626 C149.67483602 203.01160756 149.64743809 206.76188809 149.62062073 210.51217651 C149.57066823 217.61653066 149.5257389 224.7209074 149.48259836 231.82530582 C149.43324782 239.91228688 149.37832161 247.99922702 149.32291877 256.08616853 C149.20905946 272.72407603 149.10296517 289.36202097 149 306 C134.15 306 119.3 306 104 306 C104.04302246 302.02565918 104.08604492 298.05131836 104.13037109 293.95654297 C104.26296102 280.74917528 104.31798777 267.54240745 104.33421898 254.33442497 C104.345906 246.33480945 104.38312553 238.33692699 104.48339844 230.33789062 C104.57086969 223.35465042 104.60743739 216.37318048 104.58627188 209.38939583 C104.57678086 205.70060811 104.5904597 202.01562911 104.66541672 198.32751083 C105.02830043 179.47845465 102.62502205 166.22914933 90.62613487 151.09093285 C88.45078592 148.29380412 86.63701 145.3731614 84.80859375 142.33984375 C83.96167969 140.98439453 83.96167969 140.98439453 83.09765625 139.6015625 C82.54980469 138.72242188 82.00195312 137.84328125 81.4375 136.9375 C80.81875 135.94621094 80.2 134.95492188 79.5625 133.93359375 C74.99387643 126.60884757 70.44838371 119.26991011 65.90942383 111.92675781 C60.58465027 103.31703722 55.21868935 94.73325963 49.84765625 86.15234375 C47.22434705 81.96081749 44.60783904 77.76514734 41.99609375 73.56640625 C38.87053043 68.54311078 35.73327295 63.52737263 32.58300781 58.51953125 C31.60756125 56.96700062 30.63493594 55.41268815 29.66699219 53.85546875 C28.60259004 52.14605483 27.52101231 50.4473653 26.4375 48.75 C25.89996094 47.89921875 25.36242188 47.0484375 24.80859375 46.171875 C17.74180254 37.68562033 11.54286082 39.35798363 0 38 C0 25.46 0 12.92 0 0 Z " fill="#000000" transform="translate(3431,1026)"/>
<path d="M0 0 C33.66 0 67.32 0 102 0 C102 12.54 102 25.08 102 38 C92.1 38 82.2 38 72 38 C72 113.9 72 189.8 72 268 C81.9 268 91.8 268 102 268 C102 280.54 102 293.08 102 306 C68.34 306 34.68 306 0 306 C0 293.46 0 280.92 0 268 C9.9 268 19.8 268 30 268 C30 192.1 30 116.2 30 38 C20.1 38 10.2 38 0 38 C0 25.46 0 12.92 0 0 Z " fill="#000000" transform="translate(3022,1026)"/>
<path d="M0 0 C33.33 0 66.66 0 101 0 C101 12.54 101 25.08 101 38 C91.43 38 81.86 38 72 38 C72 113.9 72 189.8 72 268 C81.57 268 91.14 268 101 268 C101 280.54 101 293.08 101 306 C67.67 306 34.34 306 0 306 C0 293.46 0 280.92 0 268 C9.9 268 19.8 268 30 268 C30 192.1 30 116.2 30 38 C20.1 38 10.2 38 0 38 C0 25.46 0 12.92 0 0 Z " fill="#000000" transform="translate(1822,1026)"/>
</svg>
