<?xml version="1.0" encoding="UTF-8"?>
<svg version="1.1" xmlns="http://www.w3.org/2000/svg" width="498" height="101">
<path d="M0 0 C164.34 0 328.68 0 498 0 C498 33.33 498 66.66 498 101 C333.66 101 169.32 101 0 101 C0 67.67 0 34.34 0 0 Z " fill="#FDFAFA" transform="translate(0,0)"/>
<path d="M0 0 C22.11 0 44.22 0 67 0 C67.061875 5.465625 67.12375 10.93125 67.1875 16.5625 C67.22846802 19.09852905 67.22846802 19.09852905 67.27026367 21.68579102 C67.43788874 39.37664373 64.68869865 56.92763302 51.95703125 70.3203125 C46.7745086 74.76838583 39.35641808 80 32.3125 80 C21.50562774 76.737548 13.1954052 69.30826792 7.74853516 59.59521484 C-2.21242371 40.51216295 0 21.88379279 0 0 Z " fill="#CC0512" transform="translate(175,11)"/>
<path d="M0 0 C11.58158836 -0.46617714 23.54666326 1.8889778 34.29296875 6.1875 C34.29296875 12.7875 34.29296875 19.3875 34.29296875 26.1875 C33.30296875 26.1875 32.31296875 26.1875 31.29296875 26.1875 C31.10863281 25.5584375 30.92429687 24.929375 30.734375 24.28125 C28.26947166 17.00704637 24.62399549 12.54341722 18.29296875 8.1875 C10.85762244 4.84104011 1.76835314 3.66897026 -6.171875 5.87109375 C-15.1775084 9.58110683 -20.79469703 15.29583133 -24.70703125 24.1875 C-28.0487952 33.78978376 -26.34292783 47.97483677 -22.70703125 57.1875 C-18.93121432 64.96425031 -14.46076151 70.25052843 -6.70703125 74.1875 C1.37417119 76.88123415 10.33185291 76.17526109 17.91796875 72.5 C22.04797657 70.16299289 25.16959242 67.72732651 28.29296875 64.1875 C28.95296875 64.1875 29.61296875 64.1875 30.29296875 64.1875 C30.58171875 63.548125 30.87046875 62.90875 31.16796875 62.25 C32.29296875 60.1875 32.29296875 60.1875 34.29296875 59.1875 C34.84038616 62.98563069 35.02337476 66.40504032 34.29296875 70.1875 C28.61851073 77.25191364 17.2543622 79.10501416 8.85546875 80.9375 C-5.58176966 81.95063954 -17.81793668 81.12972498 -29.70703125 72.1875 C-37.43060799 65.32209845 -42.32696112 55.53030967 -42.9453125 45.2109375 C-43.24937922 32.48670403 -41.67278927 22.8367463 -32.70703125 13.1875 C-23.57376131 4.31306767 -12.38823913 0.85805985 0 0 Z " fill="#CC0513" transform="translate(134.70703125,7.8125)"/>
<path d="M0 0 C10.56 0 21.12 0 32 0 C32 0.99 32 1.98 32 3 C30.865625 3.309375 29.73125 3.61875 28.5625 3.9375 C25.21224901 4.62924531 25.21224901 4.62924531 24 6 C23.88058433 7.57287457 23.82988424 9.15103444 23.80712891 10.72827148 C23.79106598 11.73699814 23.77500305 12.74572479 23.75845337 13.78501892 C23.71397705 18.43764675 23.67287602 23.09012869 23.64990234 27.74291992 C23.63340873 30.18995722 23.60620718 32.63694766 23.56787109 35.08374023 C23.51278306 38.6172784 23.49117145 42.14968246 23.4765625 45.68359375 C23.45389313 46.76628036 23.43122375 47.84896698 23.40786743 48.96446228 C23.43117502 57.44582856 25.38494174 64.38494174 31.5 70.5 C38.51016089 74.70609653 45.64238589 75.10043948 53.60546875 73.46484375 C58.80188968 71.871971 63.1864296 69.92630343 66.15234375 65.140625 C68.92904917 59.88365958 70.12356736 55.1333629 70.12939453 49.16552734 C70.13412277 47.76915543 70.13412277 47.76915543 70.13894653 46.34457397 C70.1369223 45.35172394 70.13489807 44.3588739 70.1328125 43.3359375 C70.13424759 41.79240097 70.13424759 41.79240097 70.13571167 40.21768188 C70.13639091 38.04746438 70.13455448 35.87724483 70.13037109 33.70703125 C70.12500832 30.38016218 70.13033038 27.05342744 70.13671875 23.7265625 C70.13605814 21.6171872 70.13477733 19.50781199 70.1328125 17.3984375 C70.13584885 15.90308975 70.13584885 15.90308975 70.13894653 14.37753296 C70.13579437 13.45292267 70.13264221 12.52831238 70.12939453 11.57568359 C70.12859894 10.7624765 70.12780334 9.94926941 70.12698364 9.11141968 C70.07984255 6.80835228 70.07984255 6.80835228 69 4 C66.69 3.67 64.38 3.34 62 3 C62 2.01 62 1.02 62 0 C69.59 0 77.18 0 85 0 C85 0.99 85 1.98 85 3 C84.05125 3.268125 83.1025 3.53625 82.125 3.8125 C78.74732727 4.74986588 78.74732727 4.74986588 77 8 C76.70078725 10.08127853 76.70078725 10.08127853 76.74462891 12.38867188 C76.73766998 13.27389526 76.73071106 14.15911865 76.72354126 15.07116699 C76.72503677 16.50547058 76.72503677 16.50547058 76.7265625 17.96875 C76.70625417 20.00521364 76.68540306 22.04167192 76.6640625 24.078125 C76.6415738 27.27934266 76.62503619 30.48034792 76.61914062 33.68164062 C76.6095314 36.77773289 76.57563263 39.87287424 76.5390625 42.96875 C76.54410797 43.90875854 76.54915344 44.84876709 76.55435181 45.81726074 C76.41887528 55.11689641 73.75090289 63.96620632 67.8359375 71.27734375 C59.63312597 78.97402435 48.82170926 79.56590956 38.1171875 79.33984375 C29.8002726 78.87608241 21.67320137 75.11205358 15.81787109 69.16577148 C6.71173784 58.31692538 8.31478097 44.29435426 8.375 31 C8.37885149 27.76908174 8.37542998 24.53871696 8.35440063 21.30786133 C8.34233187 19.30903447 8.34494694 17.31005078 8.36410522 15.3112793 C8.36044952 14.40933838 8.35679382 13.50739746 8.35302734 12.578125 C8.35700531 11.78825195 8.36098328 10.99837891 8.36508179 10.18457031 C7.90148724 7.41052098 6.90754309 6.04063572 5 4 C2.40144267 3.1957792 2.40144267 3.1957792 0 3 C0 2.01 0 1.02 0 0 Z " fill="#CC0513" transform="translate(7,10)"/>
<path d="M0 0 C21.12 0 42.24 0 64 0 C64 8.25 64 16.5 64 25 C61.03 25.495 61.03 25.495 58 26 C56.64664105 25.02727325 55.31337396 24.0260734 54 23 C51 22.5 51 22.5 48 23 C47.0409375 23.7734375 47.0409375 23.7734375 46.0625 24.5625 C44 26 44 26 40.4375 25.8125 C37 25 37 25 34 23 C29.6947928 22.53372574 29.6947928 22.53372574 26 24.5 C23.20572646 26.59570515 21.4135687 26.42669609 18 26 C17.34 25.484375 16.68 24.96875 16 24.4375 C13.98607909 22.67089036 13.98607909 22.67089036 10.875 23.1875 C7.89845558 23.77610918 7.89845558 23.77610918 6 26 C3.4375 26.1875 3.4375 26.1875 1 26 C0.67 25.67 0.34 25.34 0 25 C0 16.75 0 8.5 0 0 Z " fill="#FDF9F9" transform="translate(177,12)"/>
<path d="M0 0 C0.33 0 0.66 0 1 0 C1.07537299 4.7098458 1.12916471 9.41932425 1.16479492 14.12963867 C1.17968159 15.72475312 1.19999768 17.31982817 1.22631836 18.91479492 C1.52577055 37.55716159 -0.51647991 56.09154545 -14.04296875 70.3203125 C-19.2254914 74.76838583 -26.64358192 80 -33.6875 80 C-43.58950862 77.01071438 -52.0884295 69.9748837 -57.5625 61.25 C-59 58 -59 58 -58.75 55.5625 C-58.5025 55.046875 -58.255 54.53125 -58 54 C-58 54.66 -58 55.32 -58 56 C-57.3709375 56.03738281 -56.741875 56.07476562 -56.09375 56.11328125 C-50.18948851 56.56677121 -45.44749854 57.67976914 -40 60 C-39.875 66.75 -39.875 66.75 -41 69 C-35.06 69 -29.12 69 -23 69 C-23 68.34 -23 67.68 -23 67 C-23.66 67 -24.32 67 -25 67 C-26.625 64.5 -26.625 64.5 -28 62 C-26.35 62 -24.7 62 -23 62 C-22.566875 62.9590625 -22.566875 62.9590625 -22.125 63.9375 C-21.17176549 66.15206079 -21.17176549 66.15206079 -19 67 C-19.66 64.69 -20.32 62.38 -21 60 C-17.5980513 57.90649311 -14.94727588 57.82057837 -11 58 C-11 57.01 -11 56.02 -11 55 C-15.37903375 53.04822754 -15.37903375 53.04822754 -20 52 C-21.58333333 53.41666667 -21.58333333 53.41666667 -23 55 C-23.99 55 -24.98 55 -26 55 C-25.67 55.99 -25.34 56.98 -25 58 C-28.96 58 -32.92 58 -37 58 C-37.8813576 54.4745696 -38.0479061 52.77004315 -37.625 49.3125 C-37.53476563 48.52488281 -37.44453125 47.73726562 -37.3515625 46.92578125 C-37 45 -37 45 -36 44 C-35.76807135 42.48530552 -35.58784762 40.96245438 -35.4375 39.4375 C-35.35371094 38.61121094 -35.26992187 37.78492188 -35.18359375 36.93359375 C-35.09271484 35.97646484 -35.09271484 35.97646484 -35 35 C-33.02 34.505 -33.02 34.505 -31 34 C-30.79503906 34.63808594 -30.59007812 35.27617188 -30.37890625 35.93359375 C-30.10949219 36.75988281 -29.84007812 37.58617187 -29.5625 38.4375 C-29.29566406 39.26121094 -29.02882812 40.08492187 -28.75390625 40.93359375 C-28.17844506 42.96219588 -28.17844506 42.96219588 -27 44 C-26.72046781 46.0587768 -26.55265649 48.11728432 -26.37890625 50.1875 C-26.19134766 51.0846875 -26.19134766 51.0846875 -26 52 C-25.01 52.495 -25.01 52.495 -24 53 C-23.67 50.03 -23.34 47.06 -23 44 C-22.34 44 -21.68 44 -21 44 C-21.25720674 42.41439607 -21.53138799 40.83154076 -21.8125 39.25 C-21.96332031 38.36828125 -22.11414063 37.4865625 -22.26953125 36.578125 C-23.05793697 33.79551659 -24.25991883 32.26925654 -26 30 C-26 29.01 -26 28.02 -26 27 C-24.906875 26.71125 -23.81375 26.4225 -22.6875 26.125 C-18.95986155 25.18106796 -18.95986155 25.18106796 -16 23 C-11.3024205 22.5002575 -9.65292041 23.26030969 -6 26 C-4.02 26 -2.04 26 0 26 C0 17.42 0 8.84 0 0 Z " fill="#CC0411" transform="translate(241,11)"/>
<path d="M0 0 C0.33 0 0.66 0 1 0 C1 8.25 1 16.5 1 25 C-1.97 25.495 -1.97 25.495 -5 26 C-6.35335895 25.02727325 -7.68662604 24.0260734 -9 23 C-12 22.5 -12 22.5 -15 23 C-15.639375 23.515625 -16.27875 24.03125 -16.9375 24.5625 C-19 26 -19 26 -22.5625 25.8125 C-26 25 -26 25 -29 23 C-29 22.01 -29 21.02 -29 20 C-29.83144531 20.01160156 -30.66289062 20.02320312 -31.51953125 20.03515625 C-32.60621094 20.04417969 -33.69289062 20.05320312 -34.8125 20.0625 C-35.89144531 20.07410156 -36.97039062 20.08570312 -38.08203125 20.09765625 C-41 20 -41 20 -44 19 C-44 18.34 -44 17.68 -44 17 C-43.01 17 -42.02 17 -41 17 C-42.32 16.01 -43.64 15.02 -45 14 C-43.68 13.34 -42.36 12.68 -41 12 C-41.99 12 -42.98 12 -44 12 C-44 10.35 -44 8.7 -44 7 C-37.86611592 3.36510573 -33.13459625 2.01139985 -26 3 C-22.4375 4.25 -22.4375 4.25 -20 6 C-19.125 8.1875 -19.125 8.1875 -19 10 C-18.4225 9.649375 -17.845 9.29875 -17.25 8.9375 C-14.64198224 7.85082593 -13.60582371 8.06934867 -11 9 C-11 7.68 -11 6.36 -11 5 C-11.66 4.67 -12.32 4.34 -13 4 C-11.68 3.01 -10.36 2.02 -9 1 C-8.01 1.66 -7.02 2.32 -6 3 C-6.33 4.98 -6.66 6.96 -7 9 C-5.35 8.34 -3.7 7.68 -2 7 C-1.505 7.495 -1.505 7.495 -1 8 C-0.67 5.36 -0.34 2.72 0 0 Z " fill="#FCF3F4" transform="translate(240,12)"/>
<path d="M0 0 C6.59637365 0.3664652 14.14013809 2.14013809 19 7 C20.85287502 7.07226502 22.70833878 7.0838122 24.5625 7.0625 C25.57441406 7.05347656 26.58632812 7.04445313 27.62890625 7.03515625 C28.41136719 7.02355469 29.19382813 7.01195313 30 7 C30 6.34 30 5.68 30 5 C30.99 5 31.98 5 33 5 C33.33 4.34 33.66 3.68 34 3 C34.66 2.34 35.32 1.68 36 1 C39.4713748 1.35910774 42.20339079 2.98022668 45 5 C45 5.99 45 6.98 45 8 C41.7 8.66 38.4 9.32 35 10 C35.66 12.31 36.32 14.62 37 17 C36.01 16.67 35.02 16.34 34 16 C33.3125 13.9375 33.3125 13.9375 33 12 C31.68 12.33 30.36 12.66 29 13 C29.66 14.32 30.32 15.64 31 17 C31.66 17 32.32 17 33 17 C33 17.66 33 18.32 33 19 C27.06 19 21.12 19 15 19 C15.33 16.03 15.66 13.06 16 10 C15.31550781 9.86722656 14.63101563 9.73445313 13.92578125 9.59765625 C10.66587046 8.93174657 7.4283893 8.19043388 4.1875 7.4375 C3.02605469 7.16808594 1.86460937 6.89867188 0.66796875 6.62109375 C-0.65267578 6.31365234 -0.65267578 6.31365234 -2 6 C-2 5.34 -2 4.68 -2 4 C-0.02 4 1.96 4 4 4 C4 3.34 4 2.68 4 2 C2.68 2 1.36 2 0 2 C0 1.34 0 0.68 0 0 Z " fill="#F2C6C8" transform="translate(185,61)"/>
<path d="M0 0 C0.78375 0.495 1.5675 0.99 2.375 1.5 C2.40185938 3.64576637 2.42133088 5.79162645 2.4375 7.9375 C2.44910156 9.13246094 2.46070313 10.32742187 2.47265625 11.55859375 C2.375 14.5 2.375 14.5 1.375 15.5 C-0.07804308 15.59885916 -1.53578672 15.63079333 -2.9921875 15.6328125 C-4.32056641 15.63474609 -4.32056641 15.63474609 -5.67578125 15.63671875 C-6.60777344 15.63285156 -7.53976563 15.62898438 -8.5 15.625 C-9.42425781 15.62886719 -10.34851563 15.63273437 -11.30078125 15.63671875 C-12.18894531 15.63542969 -13.07710937 15.63414063 -13.9921875 15.6328125 C-14.80800293 15.63168457 -15.62381836 15.63055664 -16.46435547 15.62939453 C-18.625 15.5 -18.625 15.5 -21.625 14.5 C-21.625 13.84 -21.625 13.18 -21.625 12.5 C-20.635 12.5 -19.645 12.5 -18.625 12.5 C-19.945 11.51 -21.265 10.52 -22.625 9.5 C-21.305 8.84 -19.985 8.18 -18.625 7.5 C-19.615 7.5 -20.605 7.5 -21.625 7.5 C-21.625 5.85 -21.625 4.2 -21.625 2.5 C-14.34486306 -1.81415522 -8.04773905 -3.33009892 0 0 Z " fill="#DA5058" transform="translate(217.625,16.5)"/>
<path d="M0 0 C5.06643564 0.56293729 7.68261473 4.40031788 10.75 8.125 C13.32963845 11.99445768 13.08515435 15.48681957 13 20 C12.34 20 11.68 20 11 20 C11.020625 21.11375 11.04125 22.2275 11.0625 23.375 C11 27 11 27 10 29 C9.01 28.67 8.02 28.34 7 28 C6.8046875 26.01432292 6.609375 24.02864583 6.4140625 22.04296875 C6.07334609 19.70011858 6.07334609 19.70011858 4 17 C3.60612212 14.67612053 3.26513915 12.34206251 3 10 C2.01 10.33 1.02 10.66 0 11 C-0.06058594 11.63808594 -0.12117187 12.27617188 -0.18359375 12.93359375 C-0.26738281 13.75988281 -0.35117188 14.58617187 -0.4375 15.4375 C-0.51871094 16.26121094 -0.59992188 17.08492187 -0.68359375 17.93359375 C-1 20 -1 20 -2 21 C-2.23075082 22.34747084 -2.41153063 23.70377565 -2.5625 25.0625 C-2.706875 26.361875 -2.85125 27.66125 -3 29 C-3.99 29 -4.98 29 -6 29 C-6.0825 28.071875 -6.165 27.14375 -6.25 26.1875 C-7.12910376 22.45130904 -7.96698795 22.08519578 -11 20 C-11.85546875 18.25390625 -11.85546875 18.25390625 -12 16 C-10.48828125 13.37890625 -10.48828125 13.37890625 -8.3125 10.5625 C-7.60738281 9.63566406 -6.90226563 8.70882812 -6.17578125 7.75390625 C-4.12724157 5.16105082 -2.0705387 2.57532014 0 0 Z " fill="#F9E5E6" transform="translate(207,35)"/>
<path d="M0 0 C2.24940295 -0.08119503 4.49964871 -0.13927819 6.75 -0.1875 C8.00296875 -0.22230469 9.2559375 -0.25710937 10.546875 -0.29296875 C14.14109357 0.01197061 15.44725126 0.54394629 18 3 C17.23854962 9.59923664 17.23854962 9.59923664 15.828125 11.96875 C14.73511326 14.00582401 14.73511326 14.00582401 15.7578125 16.140625 C16.20898438 16.83671875 16.66015625 17.5328125 17.125 18.25 C17.77855469 19.30960938 17.77855469 19.30960938 18.4453125 20.390625 C18.95835937 20.92171875 19.47140625 21.4528125 20 22 C21.32 22 22.64 22 24 22 C24.33 15.07 24.66 8.14 25 1 C24.01 0.67 23.02 0.34 22 0 C25.96 0 29.92 0 34 0 C34 0.33 34 0.66 34 1 C32.35 1 30.7 1 29 1 C29 4.3 29 7.6 29 11 C30.65 11 32.3 11 34 11 C34 11.33 34 11.66 34 12 C32.35 12 30.7 12 29 12 C29.33 15.3 29.66 18.6 30 22 C32.31 22.33 34.62 22.66 37 23 C37 23.33 37 23.66 37 24 C33.60482186 24.1748936 30.21080513 24.28103765 26.8125 24.375 C25.85279297 24.42527344 24.89308594 24.47554687 23.90429688 24.52734375 C16.93368381 24.67206236 16.93368381 24.67206236 14.2722168 22.75634766 C11.55648013 19.56422697 9.7190766 15.80006406 8 12 C9.32 11.34 10.64 10.68 12 10 C12 7.69 12 5.38 12 3 C10.02 2.34 8.04 1.68 6 1 C6 7.93 6 14.86 6 22 C5.01 22 4.02 22 3 22 C2.98018066 21.40461426 2.96036133 20.80922852 2.93994141 20.19580078 C2.84483874 17.50507847 2.73510158 14.81514852 2.625 12.125 C2.5940625 11.18785156 2.563125 10.25070313 2.53125 9.28515625 C2.49257813 8.38925781 2.45390625 7.49335937 2.4140625 6.5703125 C2.3826416 5.74289551 2.3512207 4.91547852 2.31884766 4.06298828 C2.17400863 1.78013915 2.17400863 1.78013915 0 0 Z " fill="#D01D24" transform="translate(377,41)"/>
<path d="M0 0 C2.27057377 -0.05398987 4.54151288 -0.09278742 6.8125 -0.125 C8.07707031 -0.14820313 9.34164063 -0.17140625 10.64453125 -0.1953125 C14 0 14 0 17 2 C17.40843923 4.71203652 17.13336867 7.2437142 17 10 C15.68 10.33 14.36 10.66 13 11 C13.93188881 12.6074328 14.87074435 14.21082799 15.8125 15.8125 C16.33457031 16.70582031 16.85664063 17.59914063 17.39453125 18.51953125 C18.78532199 20.66831987 20.1122066 22.29361617 22 24 C19.3125 24.375 19.3125 24.375 16 24 C13.39046458 21.39046458 11.49005513 19.00733554 9.875 15.6875 C9.05794443 13.63229657 9.05794443 13.63229657 6 13 C6.11409593 14.45922693 6.24165544 15.91740598 6.375 17.375 C6.47941406 18.59316406 6.47941406 18.59316406 6.5859375 19.8359375 C6.82892588 22.20334191 6.82892588 22.20334191 9 24 C6.03 24 3.06 24 0 24 C0.33 23.34 0.66 22.68 1 22 C1.15175549 20.40737934 1.24900325 18.80935144 1.31640625 17.2109375 C1.35830078 16.26992188 1.40019531 15.32890625 1.44335938 14.359375 C1.48267578 13.37453125 1.52199219 12.3896875 1.5625 11.375 C1.60568359 10.38242187 1.64886719 9.38984375 1.69335938 8.3671875 C1.79961069 5.91160162 1.90164964 3.45591297 2 1 C1.34 0.67 0.68 0.34 0 0 Z " fill="#CE141A" transform="translate(448,41)"/>
<path d="M0 0 C2.9628331 0.39504441 5.38326241 1.59817629 8 3 C9.32 2.01 10.64 1.02 12 0 C13.32 0.66 14.64 1.32 16 2 C16 2.99 16 3.98 16 5 C15.34 5 14.68 5 14 5 C14 5.66 14 6.32 14 7 C13.01 7.66 12.02 8.32 11 9 C10.63539547 11.66653905 10.63539547 11.66653905 10.8125 14.625 C10.83957031 15.62789062 10.86664063 16.63078125 10.89453125 17.6640625 C10.92933594 18.43492188 10.96414062 19.20578125 11 20 C10.030625 20.474375 9.06125 20.94875 8.0625 21.4375 C5.19522563 22.70193947 5.19522563 22.70193947 4 24 C1.5 24.125 1.5 24.125 -1 24 C-3.35955511 21.64044489 -2.18542405 15.73247174 -2.1875 12.5625 C-2.19974609 11.58216797 -2.21199219 10.60183594 -2.22460938 9.59179688 C-2.22750977 8.18704102 -2.22750977 8.18704102 -2.23046875 6.75390625 C-2.23457764 5.89095947 -2.23868652 5.0280127 -2.24291992 4.13891602 C-2 2 -2 2 0 0 Z " fill="#F4CCCE" transform="translate(179,14)"/>
<path d="M0 0 C5.75858458 1.21833237 11.05408464 2.46782526 16.54101562 4.66259766 C16.54101562 11.26259766 16.54101562 17.86259766 16.54101562 24.66259766 C15.55101562 24.66259766 14.56101563 24.66259766 13.54101562 24.66259766 C13.35667969 24.03353516 13.17234375 23.40447266 12.98242188 22.75634766 C10.51751854 15.48214403 6.87204236 11.01851487 0.54101562 6.66259766 C-2.50385919 5.27254611 -5.51944498 4.30926802 -8.77148438 3.53759766 C-10.59679687 3.10447266 -10.59679687 3.10447266 -12.45898438 2.66259766 C-12.45898438 2.33259766 -12.45898438 2.00259766 -12.45898438 1.66259766 C-16.08898437 1.33259766 -19.71898437 1.00259766 -23.45898438 0.66259766 C-16.81241851 -3.76844625 -7.46509915 -1.48930727 0 0 Z " fill="#CD0C17" transform="translate(152.458984375,9.33740234375)"/>
<path d="M0 0 C7.59 0 15.18 0 23 0 C23 0.99 23 1.98 23 3 C22.05125 3.268125 21.1025 3.53625 20.125 3.8125 C16.74732727 4.74986588 16.74732727 4.74986588 15 8 C14.67370844 10.15879334 14.67370844 10.15879334 14.68115234 12.56323242 C14.66128265 13.48396042 14.64141296 14.40468842 14.62094116 15.35331726 C14.60361435 16.83938225 14.60361435 16.83938225 14.5859375 18.35546875 C14.56657135 19.37224197 14.5472052 20.3890152 14.5272522 21.43659973 C14.46743259 24.68681427 14.42106124 27.93706417 14.375 31.1875 C14.33682244 33.38998948 14.29777084 35.59246399 14.2578125 37.79492188 C14.16172917 43.19648183 14.07668862 48.59813177 14 54 C13.67 54 13.34 54 13 54 C13 45.75 13 37.5 13 29 C12.34 29 11.68 29 11 29 C10.67 36.26 10.34 43.52 10 51 C9.67 51 9.34 51 9 51 C8.97494385 49.68281982 8.9498877 48.36563965 8.92407227 47.00854492 C8.82999118 42.12758438 8.72977208 37.24676592 8.62768555 32.3659668 C8.58433936 30.2523938 8.54266406 28.13878586 8.50268555 26.02514648 C8.44497551 22.98931336 8.38128299 19.95365611 8.31640625 16.91796875 C8.29969376 15.97100632 8.28298126 15.02404388 8.26576233 14.04838562 C8.24581711 13.16769913 8.22587189 12.28701263 8.20532227 11.37963867 C8.18977798 10.60464523 8.1742337 9.82965179 8.15821838 9.03117371 C8.06644623 6.79667507 8.06644623 6.79667507 7 4 C4.69 3.67 2.38 3.34 0 3 C0 2.01 0 1.02 0 0 Z " fill="#CE1721" transform="translate(69,10)"/>
<path d="M0 0 C1 1 1 1 1.25 3.9375 C1.1675 4.948125 1.085 5.95875 1 7 C0.01 7.66 -0.98 8.32 -2 9 C-1.34 9.350625 -0.68 9.70125 0 10.0625 C2 12 2 12 2.375 15.5625 C2 19 2 19 0 21 C-2.12890625 21.23046875 -2.12890625 21.23046875 -4.5625 21.1875 C-5.36816406 21.18105469 -6.17382812 21.17460938 -7.00390625 21.16796875 C-9 21 -9 21 -10 20 C-10.08685603 18.43827255 -10.10702219 16.87270656 -10.09765625 15.30859375 C-10.09443359 14.36435547 -10.09121094 13.42011719 -10.08789062 12.44726562 C-10.07951172 11.45404297 -10.07113281 10.46082031 -10.0625 9.4375 C-10.05798828 8.44041016 -10.05347656 7.44332031 -10.04882812 6.41601562 C-10.03700007 3.94395151 -10.02051849 1.47200482 -10 -1 C-5.87923993 -1.98179183 -3.83864459 -1.9193223 0 0 Z " fill="#CD0D14" transform="translate(416,43)"/>
<path d="M0 0 C7.46640225 1.46880044 7.46640225 1.46880044 9.73828125 3.73046875 C11.28748036 6.51710864 11.40091795 8.38755104 11.375 11.5625 C11.38273437 12.51253906 11.39046875 13.46257813 11.3984375 14.44140625 C11 17 11 17 9.6953125 18.8125 C6.82294656 20.82447983 4.37145195 20.42143149 1 20 C-1.32867999 17.73555946 -1.95401273 16.3639423 -2.36328125 13.125 C-2.34652344 12.09375 -2.32976562 11.0625 -2.3125 10 C-2.30669922 8.453125 -2.30669922 8.453125 -2.30078125 6.875 C-2.00770713 4.07366814 -1.44101632 2.38829797 0 0 Z " fill="#FCF4F5" transform="translate(459,10)"/>
<path d="M0 0 C2.91031093 -0.61921509 4.20086273 -0.83922945 7 0 C10.41135695 2.99873967 13.17650199 6.45347539 16 10 C17.01869162 11.21013946 18.03904386 12.41888738 19.0625 13.625 C19.701875 14.40875 20.34125 15.1925 21 16 C21.05384521 13.70858714 21.09272087 11.41681812 21.125 9.125 C21.14820313 7.84882812 21.17140625 6.57265625 21.1953125 5.2578125 C21.35641524 1.91406662 21.35641524 1.91406662 19 0 C21.64 0 24.28 0 27 0 C26.34 0.66 25.68 1.32 25 2 C24.62948007 4.3245339 24.62948007 4.3245339 24.5859375 7.0078125 C24.54726563 7.99394531 24.50859375 8.98007812 24.46875 9.99609375 C24.42234375 11.54490234 24.42234375 11.54490234 24.375 13.125 C24.33632813 14.16527344 24.29765625 15.20554687 24.2578125 16.27734375 C24.16335234 18.85138311 24.07778786 21.42541155 24 24 C20.88609666 22.62626924 18.86503021 21.07437421 16.546875 18.59375 C15.928125 17.93246094 15.309375 17.27117188 14.671875 16.58984375 C13.72054688 15.55537109 13.72054688 15.55537109 12.75 14.5 C12.1003125 13.81035156 11.450625 13.12070312 10.78125 12.41015625 C6 7.25725446 6 7.25725446 6 5 C5.34 5 4.68 5 4 5 C4.11361602 7.79256219 4.2403589 10.58344118 4.375 13.375 C4.4059375 14.1690625 4.436875 14.963125 4.46875 15.78125 C4.51816421 20.36667375 4.51816421 20.36667375 7 24 C4.69 24 2.38 24 0 24 C0.66 23.34 1.32 22.68 2 22 C2.30984531 19.90186619 2.30984531 19.90186619 2.265625 17.5 C2.26820313 16.613125 2.27078125 15.72625 2.2734375 14.8125 C2.26570313 13.884375 2.25796875 12.95625 2.25 12 C2.26160156 10.6078125 2.26160156 10.6078125 2.2734375 9.1875 C2.27085937 8.300625 2.26828125 7.41375 2.265625 6.5 C2.26336914 5.6853125 2.26111328 4.870625 2.25878906 4.03125 C2.18174293 1.77369549 2.18174293 1.77369549 0 0 Z " fill="#CE1019" transform="translate(302,41)"/>
<path d="M0 0 C3.3696998 3.86617594 5.07687893 8.46118503 7.0625 13.125 C7.75737983 14.75446132 8.45641563 16.38215838 9.16015625 18.0078125 C9.46574463 18.72598145 9.77133301 19.44415039 10.08618164 20.18408203 C10.97232698 22.18151432 10.97232698 22.18151432 13 24 C9.7 24 6.4 24 3 24 C3.66 23.67 4.32 23.34 5 23 C4.67 20.69 4.34 18.38 4 16 C1.03 16 -1.94 16 -5 16 C-5.33 18.31 -5.66 20.62 -6 23 C-5.34 23.33 -4.68 23.66 -4 24 C-6.64 24 -9.28 24 -12 24 C-11.54641113 23.60055176 -11.09282227 23.20110352 -10.62548828 22.78955078 C-8.75960522 20.73534188 -7.98449712 18.95291246 -6.9921875 16.3671875 C-6.47205078 15.03494141 -6.47205078 15.03494141 -5.94140625 13.67578125 C-5.58949219 12.75152344 -5.23757813 11.82726562 -4.875 10.875 C-4.16620639 9.03823375 -3.45537809 7.20225094 -2.7421875 5.3671875 C-2.4313623 4.55362793 -2.12053711 3.74006836 -1.80029297 2.90185547 C-1 1 -1 1 0 0 Z " fill="#CD0E17" transform="translate(288,41)"/>
<path d="M0 0 C7.23842593 0.36805556 7.23842593 0.36805556 10.9375 3.4375 C13.95483095 7.18630512 14.46336416 9.18101275 14 14 C11.96006092 17.6578218 10.49580738 19.66946174 7 22 C2.22442859 22.46972834 -0.05901543 22.47049228 -4.375 20.3125 C-8.0491437 17.07575436 -8.77851589 14.77187285 -9.375 10 C-8.89984623 6.19876982 -7.72501409 4.64931926 -5 2 C-2.75 1.1875 -2.75 1.1875 -1 1 C-1.99 2.485 -1.99 2.485 -3 4 C-3.31788492 6.87057251 -3.31788492 6.87057251 -3.25 10 C-3.25515625 11.051875 -3.2603125 12.10375 -3.265625 13.1875 C-3.20467017 16.20650379 -3.20467017 16.20650379 -1 19 C1.20725073 19.36362818 1.20725073 19.36362818 3.625 19.1875 C4.44226563 19.16042969 5.25953125 19.13335938 6.1015625 19.10546875 C7.04128906 19.05326172 7.04128906 19.05326172 8 19 C8.10832169 16.91781638 8.18573541 14.83400871 8.25 12.75 C8.29640625 11.58984375 8.3428125 10.4296875 8.390625 9.234375 C8.27921662 5.92736069 8.27921662 5.92736069 6.125 3.65625 C4.14323915 2.11164228 2.30455763 0.98766755 0 0 Z " fill="#D32B31" transform="translate(461,10)"/>
<path d="M0 0 C1.32 0.33 2.64 0.66 4 1 C3.67 2.32 3.34 3.64 3 5 C3.99 5 4.98 5 6 5 C5.67 5.66 5.34 6.32 5 7 C5.33 7.33 5.66 7.66 6 8 C6 8.66 6 9.32 6 10 C5.01 10 4.02 10 3 10 C3 10.66 3 11.32 3 12 C7.95 12.33 12.9 12.66 18 13 C18 13.66 18 14.32 18 15 C16.906875 15.28875 15.81375 15.5775 14.6875 15.875 C10.95986155 16.81893204 10.95986155 16.81893204 8 19 C3.95742865 19.62884443 2.23373129 19.12985072 -1.375 17.125 C-3.48254661 15.23150109 -3.95876143 14.28136736 -4.375 11.44140625 C-4.375 8.93325429 -4.26146527 6.49360401 -4 4 C-2.68 3.34 -1.36 2.68 0 2 C0 1.34 0 0.68 0 0 Z " fill="#FBF0F1" transform="translate(193,19)"/>
<path d="M0 0 C0.33 0 0.66 0 1 0 C1 8.25 1 16.5 1 25 C0.67 25 0.34 25 0 25 C-0.33 21.04 -0.66 17.08 -1 13 C-1.99 13.66 -2.98 14.32 -4 15 C-4 14.34 -4 13.68 -4 13 C-4.99 13 -5.98 13 -7 13 C-6.67 14.98 -6.34 16.96 -6 19 C-7.98 19.99 -7.98 19.99 -10 21 C-10 20.34 -10 19.68 -10 19 C-10.99 18.67 -11.98 18.34 -13 18 C-12.34 16.35 -11.68 14.7 -11 13 C-12.98 13.33 -14.96 13.66 -17 14 C-17.66 12.68 -18.32 11.36 -19 10 C-16.64561267 8.57055055 -15.51967567 7.91338739 -12.75 8.375 C-12.1725 8.58125 -11.595 8.7875 -11 9 C-11 7.68 -11 6.36 -11 5 C-11.66 4.67 -12.32 4.34 -13 4 C-11.68 3.01 -10.36 2.02 -9 1 C-8.01 1.66 -7.02 2.32 -6 3 C-6.33 4.98 -6.66 6.96 -7 9 C-5.35 8.34 -3.7 7.68 -2 7 C-1.67 7.33 -1.34 7.66 -1 8 C-0.67 5.36 -0.34 2.72 0 0 Z " fill="#EDAFB3" transform="translate(240,12)"/>
<path d="M0 0 C1.32 0 2.64 0 4 0 C4 2.97 4 5.94 4 9 C5.65 8.67 7.3 8.34 9 8 C9.20086443 4.28400809 9.1519437 3.22791555 7 0 C9.375 -0.125 9.375 -0.125 12 0 C14 2 14 2 14.125 4.625 C14.08375 5.40875 14.0425 6.1925 14 7 C12.02 7.99 12.02 7.99 10 9 C10.34933594 9.62648438 10.69867188 10.25296875 11.05859375 10.8984375 C11.51363281 11.71570312 11.96867187 12.53296875 12.4375 13.375 C13.11619141 14.59316406 13.11619141 14.59316406 13.80859375 15.8359375 C14.5650536 17.20996622 15.29854631 18.59709261 16 20 C13.8125 19.9375 13.8125 19.9375 11 19 C9.51728618 17.28561215 8.31959171 15.51127281 7.11328125 13.59375 C6.07639069 11.83938228 6.07639069 11.83938228 4 11 C4 13.64 4 16.28 4 19 C4.66 19.33 5.32 19.66 6 20 C3.69 20 1.38 20 -1 20 C-0.67 13.4 -0.34 6.8 0 0 Z " fill="#D22C32" transform="translate(358,11)"/>
<path d="M0 0 C3.63 0 7.26 0 11 0 C10.01 0.33 9.02 0.66 8 1 C8.28875 1.62648437 8.5775 2.25296875 8.875 2.8984375 C9.24625 3.71570312 9.6175 4.53296875 10 5.375 C10.556875 6.59316406 10.556875 6.59316406 11.125 7.8359375 C12 10 12 10 12 12 C14.8326134 10.5836933 15.01707833 8.85502707 16.125 5.9375 C16.65480469 4.55884766 16.65480469 4.55884766 17.1953125 3.15234375 C17.46085937 2.44207031 17.72640625 1.73179688 18 1 C17.34 0.67 16.68 0.34 16 0 C18.31 0 20.62 0 23 0 C22.67386719 0.51949219 22.34773438 1.03898437 22.01171875 1.57421875 C21.10501195 3.02120512 20.20424854 4.471928 19.30859375 5.92578125 C18.3483173 7.44789109 17.31758511 8.92613449 16.25 10.375 C14.3300366 14.40692315 14.24872284 18.58302536 14 23 C14.99 23.33 15.98 23.66 17 24 C13.37 24 9.74 24 6 24 C6.99 23.67 7.98 23.34 9 23 C8.96216551 14.27914917 6.28127519 6.28127519 0 0 Z " fill="#D7454C" transform="translate(468,41)"/>
<path d="M0 0 C7.26 0 14.52 0 22 0 C22 2.31 22 4.62 22 7 C21.34 7 20.68 7 20 7 C19.67 5.68 19.34 4.36 19 3 C16.03 2.505 16.03 2.505 13 2 C13.10959718 5.29237055 13.24028931 8.58356887 13.375 11.875 C13.4059375 12.81214844 13.436875 13.74929687 13.46875 14.71484375 C13.50742187 15.61074219 13.54609375 16.50664063 13.5859375 17.4296875 C13.6173584 18.25710449 13.6487793 19.08452148 13.68115234 19.93701172 C13.82599137 22.21986085 13.82599137 22.21986085 16 24 C12.7 24 9.4 24 6 24 C6.66 23.34 7.32 22.68 8 22 C8.36952049 19.87139338 8.36952049 19.87139338 8.4140625 17.4296875 C8.45273437 16.53378906 8.49140625 15.63789062 8.53125 14.71484375 C8.5621875 13.77769531 8.593125 12.84054688 8.625 11.875 C8.66367187 10.93011719 8.70234375 9.98523437 8.7421875 9.01171875 C8.83661346 6.67467625 8.92218394 4.33764499 9 2 C4.03088634 3.12697043 4.03088634 3.12697043 0 6 C0 4.02 0 2.04 0 0 Z " fill="#CE181F" transform="translate(331,41)"/>
<path d="M0 0 C1.03382813 0.01546875 2.06765625 0.0309375 3.1328125 0.046875 C5.875 0.25 5.875 0.25 8.875 1.25 C8.875 2.9 8.875 4.55 8.875 6.25 C8.215 5.59 7.555 4.93 6.875 4.25 C2.7726444 1.51509627 0.74081934 1.7006333 -4.125 2.25 C-6.29976401 3.79338091 -6.94332637 4.88665273 -8.125 7.25 C-8.54984112 12.27893321 -8.48285972 16.6816468 -6.125 21.25 C-0.45229552 22.57991576 -0.45229552 22.57991576 5.03125 21.203125 C7.16601458 19.68812526 7.16601458 19.68812526 9.875 17.25 C9.625 19.625 9.625 19.625 8.875 22.25 C4.34876735 25.28475095 -0.90156553 24.73896935 -6.125 24.25 C-9.78505104 22.87748086 -10.79347227 21.75300759 -12.9375 18.5 C-14.66260637 13.77865625 -14.95050674 10.16169981 -12.9375 5.5 C-9.27792606 0.95708063 -5.72210235 -0.14341109 0 0 Z " fill="#CD0F16" transform="translate(265.125,40.75)"/>
<path d="M0 0 C5.28 0 10.56 0 16 0 C15.67 1.32 15.34 2.64 15 4 C14.34 3.34 13.68 2.68 13 2 C10.67724823 1.59952556 8.34260643 1.2602896 6 1 C6 4.3 6 7.6 6 11 C10.47883696 10.55296014 10.47883696 10.55296014 14 8 C14 10.64 14 13.28 14 16 C13.67 15.01 13.34 14.02 13 13 C10.69 12.67 8.38 12.34 6 12 C6.33 14.97 6.66 17.94 7 21 C12.36090593 21.53673893 12.36090593 21.53673893 17 19.5 C17.33 19.005 17.66 18.51 18 18 C18 19.98 18 21.96 18 24 C12.06 24 6.12 24 0 24 C0.66 23.34 1.32 22.68 2 22 C2.30984531 19.90186619 2.30984531 19.90186619 2.265625 17.5 C2.26820313 16.613125 2.27078125 15.72625 2.2734375 14.8125 C2.26570313 13.884375 2.25796875 12.95625 2.25 12 C2.26160156 10.6078125 2.26160156 10.6078125 2.2734375 9.1875 C2.27085937 8.300625 2.26828125 7.41375 2.265625 6.5 C2.26336914 5.6853125 2.26111328 4.870625 2.25878906 4.03125 C2.18174293 1.77369549 2.18174293 1.77369549 0 0 Z " fill="#CB050A" transform="translate(355,41)"/>
<path d="M0 0 C3.3 0 6.6 0 10 0 C9.01 0.33 8.02 0.66 7 1 C7.08711104 3.75150737 7.19399615 6.49981633 7.3125 9.25 C7.33505859 10.02730469 7.35761719 10.80460937 7.38085938 11.60546875 C7.54296344 15.05386439 7.69967529 17.44422669 9.359375 20.515625 C11.00474865 22.27131711 11.00474865 22.27131711 13.9375 22.5 C17.76911051 21.87443094 18.70270752 21.10550838 21 18 C21.34536404 15.13757599 21.47163188 12.71801156 21.375 9.875 C21.37371094 9.14667969 21.37242187 8.41835938 21.37109375 7.66796875 C21.41901816 3.36859553 21.41901816 3.36859553 19 0 C21.31 0 23.62 0 26 0 C25.34 0.66 24.68 1.32 24 2 C23.77376252 5.5493323 23.68218889 9.06014016 23.69726562 12.61523438 C23.58529891 16.77244998 23.3243817 18.56180016 20.7734375 22.0078125 C17.02425932 24.70088415 14.78193071 24.65307472 10.3125 24.43359375 C8 24 8 24 5.4375 22.125 C2.36789231 17.58731906 2.67280559 13.07779505 2.48242188 7.765625 C2.4241405 3.41915079 2.4241405 3.41915079 0 0 Z " fill="#CB0209" transform="translate(420,41)"/>
<path d="M0 0 C2.31243792 -0.02685412 4.6249627 -0.04632841 6.9375 -0.0625 C8.22527344 -0.07410156 9.51304687 -0.08570313 10.83984375 -0.09765625 C14 0 14 0 15 1 C15.04063832 2.66617115 15.042721 4.33388095 15 6 C14.34 6 13.68 6 13 6 C12.67 5.01 12.34 4.02 12 3 C9.03 2.505 9.03 2.505 6 2 C6 4.64 6 7.28 6 10 C7.65 10 9.3 10 11 10 C11.33 9.34 11.66 8.68 12 8 C12 9.98 12 11.96 12 14 C11.67 13.01 11.34 12.02 11 11 C9.35 11 7.7 11 6 11 C6 13.97 6 16.94 6 20 C10.82194643 19.67495741 10.82194643 19.67495741 14.9375 17.4375 C15.288125 16.963125 15.63875 16.48875 16 16 C16 17.65 16 19.3 16 21 C11.38 21 6.76 21 2 21 C2 14.73 2 8.46 2 2 C1.34 2 0.68 2 0 2 C0 1.34 0 0.68 0 0 Z " fill="#D02024" transform="translate(337,10)"/>
<path d="M0 0 C2 2 2 2 2.4375 5.4375 C2.2209375 7.2009375 2.2209375 7.2009375 2 9 C0.7934375 9.6496875 0.7934375 9.6496875 -0.4375 10.3125 C-3.22743875 11.72743394 -3.22743875 11.72743394 -3.5546875 14.3984375 C-3.7893759 16.93733925 -3.94739698 19.45114463 -4 22 C-3.01 22.33 -2.02 22.66 -1 23 C-4.3 23 -7.6 23 -11 23 C-10.34 22.67 -9.68 22.34 -9 22 C-9 15.07 -9 8.14 -9 1 C-5.66507467 0.16626867 -3.36512103 -0.26566745 0 0 Z " fill="#D7454D" transform="translate(388,42)"/>
<path d="M0 0 C5 0 5 0 7.89453125 2.5546875 C8.88137567 3.64882641 9.85370859 4.75619667 10.8125 5.875 C11.31458984 6.43058594 11.81667969 6.98617188 12.33398438 7.55859375 C16 11.69844813 16 11.69844813 16 14 C16.66 14 17.32 14 18 14 C17.67 9.38 17.34 4.76 17 0 C17.99 0.33 18.98 0.66 20 1 C19.67 7.27 19.34 13.54 19 20 C15.29682428 18.14841214 14.02320416 17.16431411 11.5 14.125 C9.57818838 11.84362363 7.70235618 9.70998808 5.5625 7.625 C4 6 4 6 4 4 C3.34 4 2.68 4 2 4 C2 8.95 2 13.9 2 19 C2.66 19.33 3.32 19.66 4 20 C2.35 20 0.7 20 -1 20 C-0.34 19.67 0.32 19.34 1 19 C0.67 12.73 0.34 6.46 0 0 Z " fill="#CD0F17" transform="translate(278,11)"/>
<path d="M0 0 C21.78 0 43.56 0 66 0 C66 0.33 66 0.66 66 1 C44.88 1 23.76 1 2 1 C2.33 2.98 2.66 4.96 3 7 C3.03759766 9.33007812 3.03759766 9.33007812 2.9140625 11.53125 C2.87023437 12.34207031 2.82640625 13.15289062 2.78125 13.98828125 C2.7296875 14.81714844 2.678125 15.64601563 2.625 16.5 C2.55925781 17.74330078 2.55925781 17.74330078 2.4921875 19.01171875 C2.24075909 23.40473184 1.8294719 27.66987551 1 32 C0.67 32 0.34 32 0 32 C0 21.44 0 10.88 0 0 Z " fill="#D64A51" transform="translate(175,11)"/>
<path d="M0 0 C5.28 0 10.56 0 16 0 C15.01 0.66 14.02 1.32 13 2 C13.66 3.32 14.32 4.64 15 6 C15.66 6 16.32 6 17 6 C17 6.66 17 7.32 17 8 C11.06 8 5.12 8 -1 8 C-0.67 5.36 -0.34 2.72 0 0 Z " fill="#E17B81" transform="translate(201,72)"/>
<path d="M0 0 C4.62 0 9.24 0 14 0 C13.67 1.32 13.34 2.64 13 4 C13 3.34 13 2.68 13 2 C10.36 1.67 7.72 1.34 5 1 C5 3.64 5 6.28 5 9 C8.93075644 8.42547254 8.93075644 8.42547254 12 6 C12 8.31 12 10.62 12 13 C11.34 13 10.68 13 10 13 C10 12.34 10 11.68 10 11 C8.35 11 6.7 11 5 11 C5.33 13.97 5.66 16.94 6 20 C4.02 20 2.04 20 0 20 C0 13.4 0 6.8 0 0 Z " fill="#D32F35" transform="translate(477,11)"/>
<path d="M0 0 C1.98 0 3.96 0 6 0 C5.98839844 1.04800781 5.97679687 2.09601562 5.96484375 3.17578125 C5.95546345 4.55468572 5.9463635 5.93359211 5.9375 7.3125 C5.92912109 8.00279297 5.92074219 8.69308594 5.91210938 9.40429688 C5.89692094 12.5483025 5.99806673 14.99420019 7 18 C8.27875 18.061875 9.5575 18.12375 10.875 18.1875 C11.59429687 18.22230469 12.31359375 18.25710937 13.0546875 18.29296875 C14.01761719 18.14794922 14.01761719 18.14794922 15 18 C17.45391569 14.31912647 17.22802759 11.55644412 17.125 7.3125 C17.11597656 6.61060547 17.10695313 5.90871094 17.09765625 5.18554688 C17.07413704 3.45688475 17.03826713 1.72839855 17 0 C17.99 0.33 18.98 0.66 20 1 C19.96679995 3.39945808 19.89948338 5.78988107 19.8125 8.1875 C19.80669922 8.86103516 19.80089844 9.53457031 19.79492188 10.22851562 C19.62523169 14.09368105 19.08733628 15.8894033 16.66796875 18.953125 C14 21 14 21 10.5 21.5625 C6.49461748 20.91877781 4.84054174 19.84054174 2 17 C0.47893366 13.95786733 0.62570662 10.71952428 0.4375 7.375 C0.39431641 6.66859375 0.35113281 5.9621875 0.30664062 5.234375 C0.20055249 3.48981463 0.09977111 1.74493303 0 0 Z " fill="#D12128" transform="translate(252,11)"/>
<path d="M0 0 C4.75880624 2.5723277 7.27599472 4.82798417 9 10 C9.03954234 12.33299825 9.04401732 14.66708189 9 17 C8.34 17 7.68 17 7 17 C7.020625 18.11375 7.04125 19.2275 7.0625 20.375 C7 24 7 24 6 26 C5.01 25.67 4.02 25.34 3 25 C3.33 24.34 3.66 23.68 4 23 C4.25 19.5 4.25 19.5 4 16 C3.34 15.34 2.68 14.68 2 14 C0.30388221 9.19433294 -0.20741544 5.0816782 0 0 Z " fill="#FAECED" transform="translate(211,38)"/>
<path d="M0 0 C5.83588621 4.25054705 5.83588621 4.25054705 6.5859375 7.67578125 C6.51632813 8.54589844 6.44671875 9.41601562 6.375 10.3125 C6.32085937 11.19550781 6.26671875 12.07851563 6.2109375 12.98828125 C6.14132813 13.65214844 6.07171875 14.31601562 6 15 C7.65 15 9.3 15 11 15 C6.70967742 19.90322581 6.70967742 19.90322581 3.25 20.375 C1 20 1 20 0 19 C-0.08651611 17.58429877 -0.10704904 16.164405 -0.09765625 14.74609375 C-0.09443359 13.89208984 -0.09121094 13.03808594 -0.08789062 12.15820312 C-0.07951172 11.26037109 -0.07113281 10.36253906 -0.0625 9.4375 C-0.05798828 8.53580078 -0.05347656 7.63410156 -0.04882812 6.70507812 C-0.03700225 4.46998686 -0.0205222 2.23502563 0 0 Z " fill="#FEFAFA" transform="translate(177,18)"/>
<path d="M0 0 C2.31 0 4.62 0 7 0 C7 0.66 7 1.32 7 2 C6.01 2.66 5.02 3.32 4 4 C2.60807561 6.95941672 2.60807561 6.95941672 1.4375 10.375 C-1.17461573 17.58476492 -1.17461573 17.58476492 -3 21 C-3.66 21 -4.32 21 -5 21 C-7.97 14.4 -10.94 7.8 -14 1 C-12.02 1 -10.04 1 -8 1 C-7.80664062 1.67546875 -7.61328125 2.3509375 -7.4140625 3.046875 C-7.15367187 3.93890625 -6.89328125 4.8309375 -6.625 5.75 C-6.36976563 6.63171875 -6.11453125 7.5134375 -5.8515625 8.421875 C-5.0790066 10.76080572 -4.16374324 12.83442562 -3 15 C-2.35309078 13.3962669 -1.70751236 11.79199694 -1.0625 10.1875 C-0.70285156 9.29417969 -0.34320313 8.40085937 0.02734375 7.48046875 C0.73613486 5.6729091 1.3860247 3.84192591 2 2 C1.34 2 0.68 2 0 2 C0 1.34 0 0.68 0 0 Z " fill="#CE1319" transform="translate(328,10)"/>
<path d="M0 0 C6.27 0 12.54 0 19 0 C19 1.65 19 3.3 19 5 C18.67 4.01 18.34 3.02 18 2 C15.03 1.505 15.03 1.505 12 1 C12.33 7.27 12.66 13.54 13 20 C11.02 20 9.04 20 7 20 C7.33 13.73 7.66 7.46 8 1 C6.35 1.33 4.7 1.66 3 2 C2.67 2.99 2.34 3.98 2 5 C1.34 5 0.68 5 0 5 C0 3.35 0 1.7 0 0 Z " fill="#D0262B" transform="translate(404,11)"/>
<path d="M0 0 C1.19496094 0.02320313 1.19496094 0.02320313 2.4140625 0.046875 C4.375 0.25 4.375 0.25 5.375 1.25 C5.41563832 2.91617115 5.417721 4.58388095 5.375 6.25 C4.715 6.25 4.055 6.25 3.375 6.25 C3.045 5.26 2.715 4.27 2.375 3.25 C0.725 2.92 -0.925 2.59 -2.625 2.25 C-2.955 3.57 -3.285 4.89 -3.625 6.25 C-3.05910156 6.52972656 -2.49320312 6.80945313 -1.91015625 7.09765625 C4.10700993 10.38647643 4.10700993 10.38647643 5.5 14.875 C5.375 18.25 5.375 18.25 3.375 21.25 C2.385 20.92 1.395 20.59 0.375 20.25 C0.705 18.6 1.035 16.95 1.375 15.25 C0.80910156 14.97027344 0.24320312 14.69054688 -0.33984375 14.40234375 C-6.33887443 11.12343594 -6.33887443 11.12343594 -7.8125 6.625 C-7.625 3.25 -7.625 3.25 -6.40234375 1.5546875 C-4.12471163 -0.11724465 -2.79743731 -0.09112174 0 0 Z " fill="#CD0E15" transform="translate(385.625,9.75)"/>
<path d="M0 0 C3.63 0 7.26 0 11 0 C11 0.33 11 0.66 11 1 C9.35 1 7.7 1 6 1 C6.1095693 4.45900478 6.24026848 7.91689109 6.375 11.375 C6.4059375 12.35984375 6.436875 13.3446875 6.46875 14.359375 C6.50742187 15.30039062 6.54609375 16.24140625 6.5859375 17.2109375 C6.6173584 18.08024902 6.6487793 18.94956055 6.68115234 19.84521484 C6.81229433 22.20961794 6.81229433 22.20961794 9 24 C6.03 24 3.06 24 0 24 C0.33 23.34 0.66 22.68 1 22 C1.15175549 20.40737934 1.24900325 18.80935144 1.31640625 17.2109375 C1.35830078 16.26992188 1.40019531 15.32890625 1.44335938 14.359375 C1.48267578 13.37453125 1.52199219 12.3896875 1.5625 11.375 C1.60568359 10.38242187 1.64886719 9.38984375 1.69335938 8.3671875 C1.79961069 5.91160162 1.90164964 3.45591297 2 1 C1.34 0.67 0.68 0.34 0 0 Z " fill="#CD0D15" transform="translate(448,41)"/>
<path d="M0 0 C3.96 0 7.92 0 12 0 C12 0.33 12 0.66 12 1 C10.35 1 8.7 1 7 1 C7 4.3 7 7.6 7 11 C8.65 11 10.3 11 12 11 C12 11.33 12 11.66 12 12 C10.35 12 8.7 12 7 12 C7 15.63 7 19.26 7 23 C5.68 23 4.36 23 3 23 C3 15.74 3 8.48 3 1 C2.01 0.67 1.02 0.34 0 0 Z " fill="#CC0A11" transform="translate(399,41)"/>
<path d="M0 0 C0.33 0 0.66 0 1 0 C1 4.29 1 8.58 1 13 C1.66 13 2.32 13 3 13 C3 21.91 3 30.82 3 40 C1.68 40.66 0.36 41.32 -1 42 C-0.67 28.14 -0.34 14.28 0 0 Z " fill="#CB0008" transform="translate(79,26)"/>
<path d="M0 0 C1.76923828 0.04060547 1.76923828 0.04060547 3.57421875 0.08203125 C4.47785156 0.11683594 5.38148438 0.15164062 6.3125 0.1875 C6.3125 0.8475 6.3125 1.5075 6.3125 2.1875 C4.9925 2.5175 3.6725 2.8475 2.3125 3.1875 C1.9825 5.1675 1.6525 7.1475 1.3125 9.1875 C0.6525 9.1875 -0.0075 9.1875 -0.6875 9.1875 C-1.0175 8.5275 -1.3475 7.8675 -1.6875 7.1875 C-2.43 7.3525 -3.1725 7.5175 -3.9375 7.6875 C-6.6875 8.1875 -6.6875 8.1875 -10.6875 8.1875 C-10.34275774 5.63640726 -10.02196934 3.67991319 -8.5625 1.53125 C-5.74971766 -0.48457734 -3.40625461 -0.10117588 0 0 Z " fill="#F6D7D9" transform="translate(313.6875,80.8125)"/>
<path d="M0 0 C1 2 1 2 0.9375 5.1875 C1.0045469 9.27736092 1.7411797 12.14486285 3 16 C0.36 16 -2.28 16 -5 16 C-5.33 18.31 -5.66 20.62 -6 23 C-5.34 23.33 -4.68 23.66 -4 24 C-6.64 24 -9.28 24 -12 24 C-11.54641113 23.60055176 -11.09282227 23.20110352 -10.62548828 22.78955078 C-8.75960522 20.73534188 -7.98449712 18.95291246 -6.9921875 16.3671875 C-6.47205078 15.03494141 -6.47205078 15.03494141 -5.94140625 13.67578125 C-5.58949219 12.75152344 -5.23757813 11.82726562 -4.875 10.875 C-4.16620639 9.03823375 -3.45537809 7.20225094 -2.7421875 5.3671875 C-2.4313623 4.55362793 -2.12053711 3.74006836 -1.80029297 2.90185547 C-1 1 -1 1 0 0 Z " fill="#D32E35" transform="translate(288,41)"/>
<path d="M0 0 C1.98 0 3.96 0 6 0 C6.12375 0.721875 6.2475 1.44375 6.375 2.1875 C6.9904931 4.95721894 7.88444374 7.3970354 9 10 C9.99 9.01 10.98 8.02 12 7 C11.835 7.66 11.67 8.32 11.5 9 C10.87816701 12.73099794 10.93591074 16.21873378 11 20 C9.02 20 7.04 20 5 20 C5.103125 18.700625 5.20625 17.40125 5.3125 16.0625 C5.35184698 11.08904212 3.71961695 7.9833967 1.09375 3.84765625 C0 2 0 2 0 0 Z " fill="#CE1319" transform="translate(428,11)"/>
<path d="M0 0 C2.00720923 0.28674418 4.0085944 0.61866701 6 1 C6 4.96 6 8.92 6 13 C3.69 12.67 1.38 12.34 -1 12 C-1.02687279 10.18757948 -1.04633715 8.37504767 -1.0625 6.5625 C-1.07410156 5.55316406 -1.08570313 4.54382813 -1.09765625 3.50390625 C-1 1 -1 1 0 0 Z " fill="#FEFAFB" transform="translate(210,16)"/>
<path d="M0 0 C1.65 0 3.3 0 5 0 C5.33 6.6 5.66 13.2 6 20 C4.02 20 2.04 20 0 20 C0 13.4 0 6.8 0 0 Z " fill="#CF1C23" transform="translate(395,11)"/>
<path d="M0 0 C1.32 0 2.64 0 4 0 C4.33 6.6 4.66 13.2 5 20 C3.02 20 1.04 20 -1 20 C-0.67 13.4 -0.34 6.8 0 0 Z " fill="#CF1C23" transform="translate(304,11)"/>
<path d="M0 0 C2.375 -0.125 2.375 -0.125 5 0 C7 2 7 2 7.125 4.625 C7.08375 5.40875 7.0425 6.1925 7 7 C5.02 7.99 5.02 7.99 3 9 C3.34933594 9.62648438 3.69867188 10.25296875 4.05859375 10.8984375 C4.51363281 11.71570312 4.96867187 12.53296875 5.4375 13.375 C6.11619141 14.59316406 6.11619141 14.59316406 6.80859375 15.8359375 C7.5650536 17.20996622 8.29854631 18.59709261 9 20 C5.75480334 19.69593558 4.38099448 19.43719323 2.19921875 16.93359375 C1.70035156 16.10988281 1.20148438 15.28617188 0.6875 14.4375 C0.17574219 13.61121094 -0.33601563 12.78492188 -0.86328125 11.93359375 C-1.23839844 11.29550781 -1.61351562 10.65742188 -2 10 C-0.68 9.34 0.64 8.68 2 8 C2.20086443 4.28400809 2.1519437 3.22791555 0 0 Z " fill="#CE161C" transform="translate(365,11)"/>
<path d="M0 0 C0.66 0.33 1.32 0.66 2 1 C1.34 1.66 0.68 2.32 0 3 C-0.70253017 8.53038283 -0.96029515 13.43952039 2 18.25 C2.99 19.11625 2.99 19.11625 4 20 C1.07474819 19.67497202 -0.78668664 19.14220891 -3.25 17.5 C-5.78972213 13.87182553 -6.35282778 10.39858631 -6 6 C-4.23496686 3.07856583 -3.04152365 1.52076183 0 0 Z " fill="#CD0D15" transform="translate(458,11)"/>
<path d="M0 0 C1.32 0.33 2.64 0.66 4 1 C4.03738281 1.556875 4.07476562 2.11375 4.11328125 2.6875 C4.82863165 11.49801436 4.82863165 11.49801436 9 19 C9.14115161 21.67058851 9.04247107 24.32432238 9 27 C7 26 7 26 6 23 C4.87277954 18.69688064 3.92720394 14.34996741 3 10 C2.01 10 1.02 10 0 10 C0 8.02 0 6.04 0 4 C-0.66 3.67 -1.32 3.34 -2 3 C-1.34 2.01 -0.68 1.02 0 0 Z " fill="#E27F85" transform="translate(207,35)"/>
<path d="M0 0 C2.27024968 -0.08097324 4.54132075 -0.13917704 6.8125 -0.1875 C8.07707031 -0.22230469 9.34164063 -0.25710937 10.64453125 -0.29296875 C14 0 14 0 15.96875 1.3125 C17 3 17 3 16.6875 6.1875 C16.460625 7.115625 16.23375 8.04375 16 9 C15.67 7.68 15.34 6.36 15 5 C14.34 5 13.68 5 13 5 C12.34 4.01 11.68 3.02 11 2 C9.35 1.67 7.7 1.34 6 1 C6 7.93 6 14.86 6 22 C5.01 22 4.02 22 3 22 C2.98018066 21.40461426 2.96036133 20.80922852 2.93994141 20.19580078 C2.84483874 17.50507847 2.73510158 14.81514852 2.625 12.125 C2.5940625 11.18785156 2.563125 10.25070313 2.53125 9.28515625 C2.49257813 8.38925781 2.45390625 7.49335937 2.4140625 6.5703125 C2.3826416 5.74289551 2.3512207 4.91547852 2.31884766 4.06298828 C2.17400863 1.78013915 2.17400863 1.78013915 0 0 Z " fill="#CB0002" transform="translate(377,41)"/>
<path d="M0 0 C5.75 0.75 5.75 0.75 8 3 C8.3125 6 8.3125 6 8 9 C5 11 5 11 2.3125 10.625 C1.549375 10.41875 0.78625 10.2125 0 10 C0 6.7 0 3.4 0 0 Z " fill="#F8E3E5" transform="translate(406,53)"/>
<path d="M0 0 C2.92879371 0.62759865 5.36095629 1.58622659 8 3 C9.32 2.01 10.64 1.02 12 0 C13.32 0.66 14.64 1.32 16 2 C16 2.99 16 3.98 16 5 C15.34 5 14.68 5 14 5 C14 5.66 14 6.32 14 7 C12 6 12 6 10 4 C7.37098712 5.52206009 5.15634036 6.84365964 3 9 C1.35 7.02 -0.3 5.04 -2 3 C-1.34 2.01 -0.68 1.02 0 0 Z " fill="#E58E93" transform="translate(179,14)"/>
<path d="M0 0 C0 1.98 0 3.96 0 6 C0.99 6 1.98 6 3 6 C2.67 8.64 2.34 11.28 2 14 C1.34 14 0.68 14 0 14 C-0.33 13.34 -0.66 12.68 -1 12 C-1.99 13.485 -1.99 13.485 -3 15 C-3.66 15 -4.32 15 -5 15 C-4.01 10.71 -3.02 6.42 -2 2 C-6.17799643 4.08899822 -6.92391901 5.05544612 -9 9 C-10 7 -10 7 -9.0625 3.875 C-8.5365625 2.451875 -8.5365625 2.451875 -8 1 C-5.23735711 0.40267181 -2.83967231 0 0 0 Z " fill="#DD6167" transform="translate(298,75)"/>
<path d="M0 0 C0 3.96 0 7.92 0 12 C-1.98 12.33 -3.96 12.66 -6 13 C-6 9.04 -6 5.08 -6 1 C-3 0 -3 0 0 0 Z " fill="#FEFBFB" transform="translate(208,16)"/>
<path d="M0 0 C3.63 0 7.26 0 11 0 C10.01 0.33 9.02 0.66 8 1 C8.28875 1.61488281 8.5775 2.22976562 8.875 2.86328125 C9.24625 3.67152344 9.6175 4.47976562 10 5.3125 C10.556875 6.51326172 10.556875 6.51326172 11.125 7.73828125 C12 10 12 10 12 13 C11.01 13.33 10.02 13.66 9 14 C8.27683594 12.73542969 8.27683594 12.73542969 7.5390625 11.4453125 C6.90742188 10.34960938 6.27578125 9.25390625 5.625 8.125 C4.99851562 7.03445312 4.37203125 5.94390625 3.7265625 4.8203125 C2.14358549 1.98766657 2.14358549 1.98766657 0 0 Z " fill="#CC0810" transform="translate(468,41)"/>
<path d="M0 0 C4.75 0.75 4.75 0.75 7 3 C7.1875 6.0625 7.1875 6.0625 7 9 C6 10 6 10 2.9375 10.0625 C1.968125 10.041875 0.99875 10.02125 0 10 C0 6.7 0 3.4 0 0 Z " fill="#FAECEC" transform="translate(454,42)"/>
<path d="M0 0 C2.31 0 4.62 0 7 0 C6.34 0.66 5.68 1.32 5 2 C4.77376252 5.5493323 4.68218889 9.06014016 4.69726562 12.61523438 C4.58531931 16.77169282 4.32043535 18.56524413 1.77734375 22.015625 C-1.23214174 24.16586217 -2.4909806 24.60975474 -6.125 24.4375 C-6.97320312 24.41558594 -7.82140625 24.39367187 -8.6953125 24.37109375 C-11 24 -11 24 -14 22 C-13.34 20.68 -12.68 19.36 -12 18 C-11.46375 18.66 -10.9275 19.32 -10.375 20 C-8.12271717 22.24143569 -8.12271717 22.24143569 -5 22.5 C-1.21458818 21.86909803 -0.27580154 21.06991102 2 18 C2.34536404 15.13757599 2.47163188 12.71801156 2.375 9.875 C2.37371094 9.14667969 2.37242187 8.41835938 2.37109375 7.66796875 C2.41901816 3.36859553 2.41901816 3.36859553 0 0 Z " fill="#D1282D" transform="translate(439,41)"/>
<path d="M0 0 C4.29 0 8.58 0 13 0 C12.01 0.66 11.02 1.32 10 2 C10.66 2.66 11.32 3.32 12 4 C12.1875 6.5625 12.1875 6.5625 12 9 C11 10 11 10 8.4375 10.0625 C7.633125 10.041875 6.82875 10.02125 6 10 C6 7.03 6 4.06 6 1 C4.02 1.33 2.04 1.66 0 2 C0 1.34 0 0.68 0 0 Z " fill="#F4D0D2" transform="translate(356,10)"/>
<path d="M0 0 C-1.12451727 2.9719385 -2.22293791 5.33440687 -4 8 C-3.34 8.33 -2.68 8.66 -2 9 C-2.33 10.32 -2.66 11.64 -3 13 C-4.65 13 -6.3 13 -8 13 C-9.12752716 9.61741852 -8.87098905 8.67404709 -7.8125 5.375 C-7.57144531 4.57835938 -7.33039063 3.78171875 -7.08203125 2.9609375 C-6 1 -6 1 -4.01171875 0.2265625 C-2 0 -2 0 0 0 Z " fill="#DB5C60" transform="translate(396,80)"/>
<path d="M0 0 C4.75 0.75 4.75 0.75 7 3 C7.25 5.5 7.25 5.5 7 8 C6.34 8.66 5.68 9.32 5 10 C3.35 10 1.7 10 0 10 C0 6.7 0 3.4 0 0 Z " fill="#FAEBEC" transform="translate(406,42)"/>
<path d="M0 0 C0.66 0 1.32 0 2 0 C3.35064935 10.2987013 3.35064935 10.2987013 2 13 C1.34 13 0.68 13 0 13 C-0.33 11.02 -0.66 9.04 -1 7 C-1.9590625 8.485 -1.9590625 8.485 -2.9375 10 C-3.618125 10.99 -4.29875 11.98 -5 13 C-5.33 13 -5.66 13 -6 13 C-6.33 9.04 -6.66 5.08 -7 1 C-6.34 1 -5.68 1 -5 1 C-4.67 2.98 -4.34 4.96 -4 7 C-2.68 4.69 -1.36 2.38 0 0 Z " fill="#D84B51" transform="translate(284,76)"/>
<path d="M0 0 C3.4713748 0.35910774 6.20339079 1.98022668 9 4 C9 4.99 9 5.98 9 7 C5.33333333 7 1.66666667 7 -2 7 C-2 6.34 -2 5.68 -2 5 C-3.32 5.33 -4.64 5.66 -6 6 C-6 5.34 -6 4.68 -6 4 C-5.01 4 -4.02 4 -3 4 C-2.67 3.34 -2.34 2.68 -2 2 C-1.34 1.34 -0.68 0.68 0 0 Z " fill="#E37D82" transform="translate(221,62)"/>
<path d="M0 0 C1.99954746 -0.04254356 4.00041636 -0.04080783 6 0 C7 1 7 1 7.09765625 3.50390625 C7.08605469 4.51324219 7.07445312 5.52257812 7.0625 6.5625 C7.05347656 7.57441406 7.04445313 8.58632813 7.03515625 9.62890625 C7.02355469 10.41136719 7.01195312 11.19382812 7 12 C6.34 10.68 5.68 9.36 5 8 C3.35 8 1.7 8 0 8 C0 5.36 0 2.72 0 0 Z " fill="#FAE9EA" transform="translate(343,12)"/>
<path d="M0 0 C0.66 0.33 1.32 0.66 2 1 C1.01 2.485 1.01 2.485 0 4 C4.62 4 9.24 4 14 4 C14 4.99 14 5.98 14 7 C13.67 6.34 13.34 5.68 13 5 C12.01 5 11.02 5 10 5 C10.33 6.98 10.66 8.96 11 11 C9.02 11.99 9.02 11.99 7 13 C7 12.34 7 11.68 7 11 C6.01 10.67 5.02 10.34 4 10 C4.66 8.35 5.32 6.7 6 5 C4.02 5.33 2.04 5.66 0 6 C-0.66 4.68 -1.32 3.36 -2 2 C-1.34 1.34 -0.68 0.68 0 0 Z " fill="#E27D83" transform="translate(223,20)"/>
<path d="M0 0 C6.83018485 0.37945471 12.18390736 2.36069057 18 6 C18.33 6.66 18.66 7.32 19 8 C16.02277453 7.29666462 13.14743457 6.41751463 10.25 5.4375 C9.45078125 5.16808594 8.6515625 4.89867188 7.828125 4.62109375 C7.22484375 4.41613281 6.6215625 4.21117188 6 4 C6 4.66 6 5.32 6 6 C3.36 6 0.72 6 -2 6 C-2 5.34 -2 4.68 -2 4 C-0.02 4 1.96 4 4 4 C4 3.34 4 2.68 4 2 C2.68 2 1.36 2 0 2 C0 1.34 0 0.68 0 0 Z " fill="#F6DADB" transform="translate(185,61)"/>
<path d="M0 0 C0.33 2.31 0.66 4.62 1 7 C-2.37817425 7.84454356 -4.67465243 8.10844919 -8 7 C-7.08529012 1.6946827 -5.46561428 0 0 0 Z " fill="#E37E83" transform="translate(376,81)"/>
<path d="M0 0 C5.28 0 10.56 0 16 0 C15.67 1.32 15.34 2.64 15 4 C14.34 3.34 13.68 2.68 13 2 C10.34462628 1.43479997 7.70855287 1.26211802 5 1 C5.01160156 1.59425781 5.02320313 2.18851563 5.03515625 2.80078125 C5.10546296 9.25895513 4.68350916 15.57989613 4 22 C3.67 22 3.34 22 3 22 C2.98018066 21.40461426 2.96036133 20.80922852 2.93994141 20.19580078 C2.84483874 17.50507847 2.73510158 14.81514852 2.625 12.125 C2.5940625 11.18785156 2.563125 10.25070313 2.53125 9.28515625 C2.49257813 8.38925781 2.45390625 7.49335937 2.4140625 6.5703125 C2.3826416 5.74289551 2.3512207 4.91547852 2.31884766 4.06298828 C2.17400863 1.78013915 2.17400863 1.78013915 0 0 Z " fill="#CB0106" transform="translate(355,41)"/>
<path d="M0 0 C0.99 0.33 1.98 0.66 3 1 C3.02685938 3.14576637 3.04633088 5.29162645 3.0625 7.4375 C3.07410156 8.63246094 3.08570313 9.82742187 3.09765625 11.05859375 C3 14 3 14 2 15 C0.54695692 15.09885916 -0.91078672 15.13079333 -2.3671875 15.1328125 C-3.69556641 15.13474609 -3.69556641 15.13474609 -5.05078125 15.13671875 C-5.98277344 15.13285156 -6.91476563 15.12898438 -7.875 15.125 C-8.79925781 15.12886719 -9.72351563 15.13273437 -10.67578125 15.13671875 C-11.56394531 15.13542969 -12.45210937 15.13414063 -13.3671875 15.1328125 C-14.18300293 15.13168457 -14.99881836 15.13055664 -15.83935547 15.12939453 C-18 15 -18 15 -21 14 C-21 13.34 -21 12.68 -21 12 C-20.32195312 12.0721875 -19.64390625 12.144375 -18.9453125 12.21875 C-12.59319175 12.85220249 -6.38285125 13.09250509 0 13 C0 8.71 0 4.42 0 0 Z " fill="#D22631" transform="translate(217,17)"/>
<path d="M0 0 C1.32 0 2.64 0 4 0 C4.33 2.31 4.66 4.62 5 7 C1.62182575 7.84454356 -0.67465243 8.10844919 -4 7 C-2.92598892 4.08482708 -2.22189824 2.22189824 0 0 Z " fill="#E37D80" transform="translate(485,81)"/>
<path d="M0 0 C1.66611905 -0.042721 3.33382885 -0.04063832 5 0 C6 1 6 1 6.125 4.5 C6 8 6 8 5 9 C3.33382885 9.04063832 1.66611905 9.042721 0 9 C0 6.03 0 3.06 0 0 Z " fill="#FCF6F6" transform="translate(384,43)"/>
<path d="M0 0 C2.6635969 0.35994553 4.58183452 0.71161002 6.8125 2.25 C8.43893614 4.64685325 8.35526205 6.15790362 8 9 C7.01 10.485 7.01 10.485 6 12 C5.01 11.67 4.02 11.34 3 11 C3.33 9.35 3.66 7.7 4 6 C2.02 5.01 0.04 4.02 -2 3 C-1.34 2.67 -0.68 2.34 0 2 C0 1.34 0 0.68 0 0 Z " fill="#CF161E" transform="translate(383,19)"/>
<path d="M0 0 C2.64 0 5.28 0 8 0 C7.34 0.66 6.68 1.32 6 2 C5.62948007 4.3245339 5.62948007 4.3245339 5.5859375 7.0078125 C5.54726563 7.99394531 5.50859375 8.98007812 5.46875 9.99609375 C5.4378125 11.02863281 5.406875 12.06117187 5.375 13.125 C5.33632813 14.16527344 5.29765625 15.20554687 5.2578125 16.27734375 C5.16335234 18.85138311 5.07778786 21.42541155 5 24 C4.34 23.67 3.68 23.34 3 23 C2.98018066 22.37432129 2.96036133 21.74864258 2.93994141 21.10400391 C2.84485774 18.27723481 2.73511254 15.45122185 2.625 12.625 C2.5940625 11.64015625 2.563125 10.6553125 2.53125 9.640625 C2.49257813 8.69960938 2.45390625 7.75859375 2.4140625 6.7890625 C2.3826416 5.91975098 2.3512207 5.05043945 2.31884766 4.15478516 C2.18770567 1.79038206 2.18770567 1.79038206 0 0 Z " fill="#D3333A" transform="translate(321,41)"/>
<path d="M0 0 C0.33 2.31 0.66 4.62 1 7 C-1.76264289 7.59732819 -4.16032769 8 -7 8 C-7.36275695 3.52599758 -7.36275695 3.52599758 -5.75 1.1875 C-4 0 -4 0 0 0 Z " fill="#E2777C" transform="translate(356,81)"/>
<path d="M0 0 C0.33 2.31 0.66 4.62 1 7 C-1.76264289 7.59732819 -4.16032769 8 -7 8 C-7.36275695 3.52599758 -7.36275695 3.52599758 -5.75 1.1875 C-4 0 -4 0 0 0 Z " fill="#E27A7D" transform="translate(448,81)"/>
<path d="M0 0 C0.78375 0.04125 1.5675 0.0825 2.375 0.125 C2.375 2.435 2.375 4.745 2.375 7.125 C-0.38764289 7.72232819 -2.78532769 8.125 -5.625 8.125 C-4.59375 0.21875 -4.59375 0.21875 0 0 Z " fill="#E2777D" transform="translate(401.625,80.875)"/>
<path d="M0 0 C-0.33 2.64 -0.66 5.28 -1 8 C-3.31 8 -5.62 8 -8 8 C-7.63487253 5.2980567 -7.30130763 3.41609148 -5.6875 1.1875 C-4 0 -4 0 0 0 Z " fill="#E27B7F" transform="translate(311,81)"/>
<path d="M0 0 C0.99 0 1.98 0 3 0 C3 1.98 3 3.96 3 6 C3.99 6 4.98 6 6 6 C6.33 8.31 6.66 10.62 7 13 C6.01 13.33 5.02 13.66 4 14 C3.67 12.35 3.34 10.7 3 9 C1.68 10.65 0.36 12.3 -1 14 C-0.67 9.38 -0.34 4.76 0 0 Z " fill="#DE676C" transform="translate(473,75)"/>
<path d="M0 0 C4.45965068 2.22982534 6.40574793 4.79552251 9 9 C9.66 9.66 10.32 10.32 11 11 C8.3125 11.375 8.3125 11.375 5 11 C1.94023213 8.13978221 0.14723165 6.35453122 -0.3125 2.125 C-0.209375 1.42375 -0.10625 0.7225 0 0 Z " fill="#CD0913" transform="translate(459,54)"/>
<path d="M0 0 C4.875 0.875 4.875 0.875 6 2 C6.1875 5.4375 6.1875 5.4375 6 9 C5.34 9.66 4.68 10.32 4 11 C1.875 10.625 1.875 10.625 0 10 C0.33 9.67 0.66 9.34 1 9 C1.14636054 5.63370749 1.07193479 3.21580438 0 0 Z " fill="#CD0B13" transform="translate(412,53)"/>
<path d="M0 0 C3.63 0 7.26 0 11 0 C11 0.33 11 0.66 11 1 C9.35 1 7.7 1 6 1 C6 4.3 6 7.6 6 11 C5.34 11 4.68 11 4 11 C3.67 11.99 3.34 12.98 3 14 C2.95101563 13.07316406 2.90203125 12.14632812 2.8515625 11.19140625 C2.77679688 9.99386719 2.70203125 8.79632813 2.625 7.5625 C2.55539062 6.36753906 2.48578125 5.17257813 2.4140625 3.94140625 C2.27742188 2.97074219 2.14078125 2.00007813 2 1 C1.34 0.67 0.68 0.34 0 0 Z " fill="#CB0007" transform="translate(448,41)"/>
<path d="M0 0 C4.62295824 0.23506567 7.15457195 0.44788372 11.0625 3 C13.52475107 6.81251778 13.15212828 8.86677913 12.39453125 13.20703125 C12.26433594 13.79871094 12.13414062 14.39039063 12 15 C11.34 14.67 10.68 14.34 10 14 C9.55236141 12.38850109 9.16552919 10.75983315 8.8125 9.125 C7.84413948 5.36792203 7.84413948 5.36792203 5.25 2.671875 C3.12198589 1.74697158 3.12198589 1.74697158 0 1 C0 0.67 0 0.34 0 0 Z " fill="#CC030D" transform="translate(461,10)"/>
<path d="M0 0 C2.125 0.375 2.125 0.375 4 1 C4.125 3.375 4.125 3.375 4 6 C3.34 6.66 2.68 7.32 2 8 C-0.625 7.625 -0.625 7.625 -3 7 C-2.25 2.25 -2.25 2.25 0 0 Z " fill="#E68B8F" transform="translate(414,81)"/>
<path d="M0 0 C0.66 0 1.32 0 2 0 C2 2.64 2 5.28 2 8 C3.65 8 5.3 8 7 8 C7.33 7.34 7.66 6.68 8 6 C8 7.98 8 9.96 8 12 C7.67 11.01 7.34 10.02 7 9 C5.35 9 3.7 9 2 9 C2.04125 10.11375 2.0825 11.2275 2.125 12.375 C2 16 2 16 0 18 C0 12.06 0 6.12 0 0 Z " fill="#CC020F" transform="translate(341,12)"/>
<path d="M0 0 C0.99 0 1.98 0 3 0 C3 6.6 3 13.2 3 20 C2.01 20 1.02 20 0 20 C0 13.4 0 6.8 0 0 Z " fill="#D23032" transform="translate(166,14)"/>
<path d="M0 0 C2.625 0.375 2.625 0.375 5 1 C5.33 3.31 5.66 5.62 6 8 C5.01 7.67 4.02 7.34 3 7 C2.67 7.66 2.34 8.32 2 9 C-0.45484649 6.86535088 -1.68134222 5.29279709 -2 2 C-1.34 1.34 -0.68 0.68 0 0 Z " fill="#DA575E" transform="translate(197,49)"/>
<path d="M0 0 C1.134375 0.020625 2.26875 0.04125 3.4375 0.0625 C3.1075 2.7025 2.7775 5.3425 2.4375 8.0625 C1.7775 8.0625 1.1175 8.0625 0.4375 8.0625 C0.4375 6.4125 0.4375 4.7625 0.4375 3.0625 C-0.2225 4.7125 -0.8825 6.3625 -1.5625 8.0625 C-2.2225 8.0625 -2.8825 8.0625 -3.5625 8.0625 C-3.94313221 5.7364143 -4.27519945 3.40194736 -4.5625 1.0625 C-3.5625 0.0625 -3.5625 0.0625 0 0 Z " fill="#DE686E" transform="translate(382.5625,80.9375)"/>
<path d="M0 0 C0.66 0 1.32 0 2 0 C2.02686553 1.97909398 2.04633375 3.95828971 2.0625 5.9375 C2.07410156 7.03964844 2.08570313 8.14179688 2.09765625 9.27734375 C2 12 2 12 1 13 C-0.51928038 13.07179964 -2.04167482 13.08392007 -3.5625 13.0625 C-4.38878906 13.05347656 -5.21507812 13.04445313 -6.06640625 13.03515625 C-6.70449219 13.02355469 -7.34257812 13.01195312 -8 13 C-6.8125 11.4375 -6.8125 11.4375 -5 10 C-3.35 10.33 -1.7 10.66 0 11 C0 7.37 0 3.74 0 0 Z " fill="#E9A4A8" transform="translate(216,18)"/>
<path d="M0 0 C0.66 0.33 1.32 0.66 2 1 C2 6.61 2 12.22 2 18 C2.66 18.33 3.32 18.66 4 19 C2.02 19 0.04 19 -2 19 C-1.67 18.34 -1.34 17.68 -1 17 C-0.76725791 14.12089412 -0.58027243 11.25853505 -0.4375 8.375 C-0.39431641 7.57320312 -0.35113281 6.77140625 -0.30664062 5.9453125 C-0.20048543 3.9637489 -0.09973145 1.98189729 0 0 Z " fill="#CB0208" transform="translate(413,12)"/>
<path d="M0 0 C0.99 0.33 1.98 0.66 3 1 C2.67 7.27 2.34 13.54 2 20 C0.68 19.34 -0.64 18.68 -2 18 C-2.75 15.375 -2.75 15.375 -3 13 C-1.68 13.33 -0.36 13.66 1 14 C0.67 9.38 0.34 4.76 0 0 Z " fill="#CC090D" transform="translate(295,11)"/>
<path d="M0 0 C2.125 0.375 2.125 0.375 4 1 C3.34 3.31 2.68 5.62 2 8 C0.35 7.67 -1.3 7.34 -3 7 C-2.25 2.25 -2.25 2.25 0 0 Z " fill="#E38086" transform="translate(323,81)"/>
<path d="M0 0 C0.33 0.66 0.66 1.32 1 2 C3.31 2 5.62 2 8 2 C8.33 1.34 8.66 0.68 9 0 C10.5 1.375 10.5 1.375 12 3 C12 3.66 12 4.32 12 5 C8.04 5 4.08 5 0 5 C0 3.35 0 1.7 0 0 Z " fill="#FDF8F8" transform="translate(202,73)"/>
<path d="M0 0 C2.31 0 4.62 0 7 0 C7 0.66 7 1.32 7 2 C6.01 2.66 5.02 3.32 4 4 C2.53921394 7.09407834 2.53921394 7.09407834 1.3125 10.625 C0.87550781 11.81351563 0.43851562 13.00203125 -0.01171875 14.2265625 C-0.33785156 15.14179688 -0.66398437 16.05703125 -1 17 C-1.66 16.67 -2.32 16.34 -3 16 C-1.35 11.38 0.3 6.76 2 2 C1.34 2 0.68 2 0 2 C0 1.34 0 0.68 0 0 Z " fill="#DA5459" transform="translate(328,10)"/>
<path d="M0 0 C0.66 0.99 1.32 1.98 2 3 C2.99 3 3.98 3 5 3 C4.09539273 6.70066609 3.56131642 8.56497978 0.5 10.9375 C-0.325 11.288125 -1.15 11.63875 -2 12 C-2.66 11.67 -3.32 11.34 -4 11 C-3.525625 10.113125 -3.05125 9.22625 -2.5625 8.3125 C-1.20262851 5.42957244 -0.45939614 3.12389377 0 0 Z " fill="#CF1720" transform="translate(77,64)"/>
<path d="M0 0 C0.99 0 1.98 0 3 0 C3 2.31 3 4.62 3 7 C2.34 7 1.68 7 1 7 C1 9.97 1 12.94 1 16 C2.32 16.33 3.64 16.66 5 17 C5 17.33 5 17.66 5 18 C3.02 18 1.04 18 -1 18 C-0.505 9.09 -0.505 9.09 0 0 Z " fill="#CD0B14" transform="translate(478,13)"/>
<path d="M0 0 C0.66 0 1.32 0 2 0 C2 3.63 2 7.26 2 11 C3.98 10.67 5.96 10.34 8 10 C7.67 10.99 7.34 11.98 7 13 C5.00045254 13.04254356 2.99958364 13.04080783 1 13 C0 12 0 12 -0.09765625 9.27734375 C-0.08605469 8.17519531 -0.07445312 7.07304687 -0.0625 5.9375 C-0.05347656 4.83277344 -0.04445312 3.72804688 -0.03515625 2.58984375 C-0.02355469 1.73519531 -0.01195312 0.88054688 0 0 Z " fill="#E9A0A4" transform="translate(200,18)"/>
<path d="M0 0 C0.99 0 1.98 0 3 0 C3.103125 1.11375 3.20625 2.2275 3.3125 3.375 C3.6528125 5.169375 3.6528125 5.169375 4 7 C4.99 7.66 5.98 8.32 7 9 C3.37 9 -0.26 9 -4 9 C-3.01 8.34 -2.02 7.68 -1 7 C-0.26393501 3.43230448 -0.26393501 3.43230448 0 0 Z " fill="#CC0309" transform="translate(478,56)"/>
<path d="M0 0 C1.32 0 2.64 0 4 0 C4.81759679 2.84496442 5.10103288 5.30297771 5.02734375 8.2578125 C5.01509766 9.04800781 5.00285156 9.83820312 4.99023438 10.65234375 C4.95490972 12.30867769 4.91581153 13.96493521 4.87304688 15.62109375 C4.84346357 17.74761113 4.91474993 19.87498617 5 22 C5.66 22.66 6.32 23.32 7 24 C4.69 24 2.38 24 0 24 C0.66 23.34 1.32 22.68 2 22 C2.30984531 19.90186619 2.30984531 19.90186619 2.265625 17.5 C2.26820313 16.613125 2.27078125 15.72625 2.2734375 14.8125 C2.26570313 13.884375 2.25796875 12.95625 2.25 12 C2.26160156 10.6078125 2.26160156 10.6078125 2.2734375 9.1875 C2.27085937 8.300625 2.26828125 7.41375 2.265625 6.5 C2.26336914 5.6853125 2.26111328 4.870625 2.25878906 4.03125 C2.18174293 1.77369549 2.18174293 1.77369549 0 0 Z " fill="#C90102" transform="translate(302,41)"/>
<path d="M0 0 C0.33 0 0.66 0 1 0 C1.02187378 0.83978394 1.02187378 0.83978394 1.04418945 1.6965332 C1.11871352 4.23588137 1.21535581 6.77392078 1.3125 9.3125 C1.33505859 10.19357422 1.35761719 11.07464844 1.38085938 11.98242188 C1.41630859 12.82998047 1.45175781 13.67753906 1.48828125 14.55078125 C1.51446533 15.33106689 1.54064941 16.11135254 1.56762695 16.9152832 C1.8926842 19.44145753 1.8926842 19.44145753 5 22 C1.7 22 -1.6 22 -5 22 C-4.34 21.34 -3.68 20.68 -3 20 C-2.01 20 -1.02 20 0 20 C0 13.4 0 6.8 0 0 Z " fill="#CE1118" transform="translate(342,43)"/>
<path d="M0 0 C-0.33 2.64 -0.66 5.28 -1 8 C-1.66 8 -2.32 8 -3 8 C-3.33 7.34 -3.66 6.68 -4 6 C-4.99 7.485 -4.99 7.485 -6 9 C-6.66 9 -7.32 9 -8 9 C-7.67 7.68 -7.34 6.36 -7 5 C-6.34 5 -5.68 5 -5 5 C-5 3.68 -5 2.36 -5 1 C-3 0 -3 0 0 0 Z " fill="#E37E82" transform="translate(301,81)"/>
<path d="M0 0 C0.33 0 0.66 0 1 0 C1.33 3.96 1.66 7.92 2 12 C1.01 12.33 0.02 12.66 -1 13 C-1.33 11.68 -1.66 10.36 -2 9 C-2.66 9 -3.32 9 -4 9 C-2.94124926 5.59687262 -1.99097846 2.98646769 0 0 Z " fill="#D95257" transform="translate(342,76)"/>
<path d="M0 0 C0.33 0 0.66 0 1 0 C1 1.98 1 3.96 1 6 C-4.94 6 -10.88 6 -17 6 C-17 5.67 -17 5.34 -17 5 C-15.94039063 4.89042969 -14.88078125 4.78085937 -13.7890625 4.66796875 C-12.4009597 4.50852451 -11.01294302 4.34832916 -9.625 4.1875 C-8.92632812 4.11724609 -8.22765625 4.04699219 -7.5078125 3.97460938 C-5.65667662 3.75211708 -3.82461795 3.38337478 -2 3 C-1.34 2.01 -0.68 1.02 0 0 Z " fill="#D22931" transform="translate(372,59)"/>
<path d="M0 0 C0.66 0 1.32 0 2 0 C3.1577506 3.47325181 3.06866652 6.36067448 3 10 C2.34 10 1.68 10 1 10 C1 12.31 1 14.62 1 17 C0.67 17 0.34 17 0 17 C0 11.39 0 5.78 0 0 Z " fill="#ECACAF" transform="translate(217,45)"/>
<path d="M0 0 C2.31243792 -0.02685412 4.6249627 -0.04632841 6.9375 -0.0625 C8.22527344 -0.07410156 9.51304687 -0.08570313 10.83984375 -0.09765625 C14 0 14 0 15 1 C15.04063832 2.66617115 15.042721 4.33388095 15 6 C14.34 6 13.68 6 13 6 C12.67 5.01 12.34 4.02 12 3 C8.04 2.67 4.08 2.34 0 2 C0 1.34 0 0.68 0 0 Z " fill="#DD6B6F" transform="translate(337,10)"/>
<path d="M0 0 C0.66 0 1.32 0 2 0 C2 2.64 2 5.28 2 8 C1.01 8 0.02 8 -1 8 C-1 8.99 -1 9.98 -1 11 C0.98 11.495 0.98 11.495 3 12 C1.35 12 -0.3 12 -2 12 C-2.05395478 10.37536158 -2.09277195 8.75021459 -2.125 7.125 C-2.14820313 6.22007813 -2.17140625 5.31515625 -2.1953125 4.3828125 C-2 2 -2 2 0 0 Z " fill="#E06F75" transform="translate(185,21)"/>
<path d="M0 0 C2.25 0.0625 2.25 0.0625 5 1 C6.67849824 3.2308475 7.75999263 5.47405906 9 8 C6.75 7.875 6.75 7.875 4 7 C0 1.81081081 0 1.81081081 0 0 Z " fill="#CD0B12" transform="translate(365,23)"/>
<path d="M0 0 C4.95 0 9.9 0 15 0 C15 0.66 15 1.32 15 2 C15.66 2.33 16.32 2.66 17 3 C14.03 3 11.06 3 8 3 C8 2.34 8 1.68 8 1 C5.36 1 2.72 1 0 1 C0 0.67 0 0.34 0 0 Z " fill="#CA0005" transform="translate(45,85)"/>
<path d="M0 0 C0.99 0 1.98 0 3 0 C6.07692308 5.41538462 6.07692308 5.41538462 5.6875 8.375 C5.460625 8.91125 5.23375 9.4475 5 10 C4.34 10 3.68 10 3 10 C0 3.375 0 3.375 0 0 Z " fill="#CC080E" transform="translate(320,21)"/>
<path d="M0 0 C0.99 0 1.98 0 3 0 C3 2.97 3 5.94 3 9 C1.68 8.67 0.36 8.34 -1 8 C-1.125 2.25 -1.125 2.25 0 0 Z " fill="#CD0B14" transform="translate(453,15)"/>
<path d="M0 0 C4.62 0 9.24 0 14 0 C13.67 1.32 13.34 2.64 13 4 C13 3.34 13 2.68 13 2 C10.36 1.67 7.72 1.34 5 1 C5 3.64 5 6.28 5 9 C4.67 9 4.34 9 4 9 C3.896875 8.071875 3.79375 7.14375 3.6875 6.1875 C3.235204 2.69307713 3.235204 2.69307713 0 0 Z " fill="#D1262C" transform="translate(477,11)"/>
<path d="M0 0 C0.33 0 0.66 0 1 0 C1 4.29 1 8.58 1 13 C0.34 13 -0.32 13 -1 13 C-1.144375 12.05125 -1.28875 11.1025 -1.4375 10.125 C-1.82935399 7.1065506 -1.82935399 7.1065506 -3 5 C-1.625 2.375 -1.625 2.375 0 0 Z " fill="#D94C53" transform="translate(434,76)"/>
<path d="M0 0 C0.33 2.31 0.66 4.62 1 7 C0.01 7.33 -0.98 7.66 -2 8 C-1.67 5.69 -1.34 3.38 -1 1 C-4.37088267 3.27415287 -4.37088267 3.27415287 -6 7 C-5.34 7.33 -4.68 7.66 -4 8 C-4.99 8 -5.98 8 -7 8 C-7.36275695 3.52599758 -7.36275695 3.52599758 -5.75 1.1875 C-4 0 -4 0 0 0 Z " fill="#D53B41" transform="translate(469,81)"/>
<path d="M0 0 C1.90845703 0.04060547 1.90845703 0.04060547 3.85546875 0.08203125 C5.31919922 0.13423828 5.31919922 0.13423828 6.8125 0.1875 C3.28063168 2.33809309 0.14962007 2.5672728 -3.9375 2.8125 C-5.10796875 2.88726562 -6.2784375 2.96203125 -7.484375 3.0390625 C-8.37640625 3.08804687 -9.2684375 3.13703125 -10.1875 3.1875 C-7.45798749 -0.67846382 -4.44588996 -0.12236394 0 0 Z " fill="#CB0008" transform="translate(137.1875,9.8125)"/>
<path d="M0 0 C-1.05078125 1.48828125 -1.05078125 1.48828125 -3 3 C-6.35546875 3.29296875 -6.35546875 3.29296875 -10.1875 3.1875 C-11.45980469 3.16042969 -12.73210937 3.13335937 -14.04296875 3.10546875 C-15.01878906 3.07066406 -15.99460937 3.03585938 -17 3 C-17 2.67 -17 2.34 -17 2 C-11.19233704 0.4943096 -6.0018137 -0.21824777 0 0 Z " fill="#D1212C" transform="translate(143,86)"/>
<path d="M0 0 C0.99 0 1.98 0 3 0 C3.19477739 1.62414378 3.38059458 3.24936423 3.5625 4.875 C3.66691406 5.77992187 3.77132813 6.68484375 3.87890625 7.6171875 C4 10 4 10 3 12 C2.34 12 1.68 12 1 12 C0.67 8.04 0.34 4.08 0 0 Z " fill="#D7484D" transform="translate(334,77)"/>
<path d="M0 0 C0.99 0 1.98 0 3 0 C3.19477739 1.62414378 3.38059458 3.24936423 3.5625 4.875 C3.66691406 5.77992187 3.77132813 6.68484375 3.87890625 7.6171875 C4 10 4 10 3 12 C2.34 12 1.68 12 1 12 C0.67 8.04 0.34 4.08 0 0 Z " fill="#D64449" transform="translate(426,77)"/>
<path d="M0 0 C1.65 0 3.3 0 5 0 C5 0.66 5 1.32 5 2 C6.32 2 7.64 2 9 2 C9 2.66 9 3.32 9 4 C8.071875 3.979375 7.14375 3.95875 6.1875 3.9375 C2.97713989 3.84230396 2.97713989 3.84230396 0 5 C0 3.35 0 1.7 0 0 Z " fill="#E99B9E" transform="translate(347,76)"/>
<path d="M0 0 C0.66 0.33 1.32 0.66 2 1 C-0.97 3.97 -3.94 6.94 -7 10 C-7.66 9.67 -8.32 9.34 -9 9 C-7.87895467 7.68412059 -6.75303035 6.37239647 -5.625 5.0625 C-4.99851562 4.33160156 -4.37203125 3.60070312 -3.7265625 2.84765625 C-2 1 -2 1 0 0 Z " fill="#CE141B" transform="translate(107,17)"/>
<path d="M0 0 C1.98 0 3.96 0 6 0 C5.67 1.32 5.34 2.64 5 4 C4.34 4 3.68 4 3 4 C2.67 7.63 2.34 11.26 2 15 C1.67 15 1.34 15 1 15 C0.67 10.05 0.34 5.1 0 0 Z " fill="#D23036" transform="translate(252,11)"/>
<path d="M0 0 C1.47906892 -0.02689216 2.95827483 -0.04634621 4.4375 -0.0625 C5.26121094 -0.07410156 6.08492188 -0.08570313 6.93359375 -0.09765625 C9 0 9 0 10 1 C10.04063832 2.66617115 10.042721 4.33388095 10 6 C9.34 6 8.68 6 8 6 C7.67 5.01 7.34 4.02 7 3 C4.23735711 2.40267181 1.83967231 2 -1 2 C-0.67 1.34 -0.34 0.68 0 0 Z " fill="#D8494F" transform="translate(381,10)"/>
<path d="M0 0 C2.64 0 5.28 0 8 0 C8.33 0.99 8.66 1.98 9 3 C7.88625 2.938125 6.7725 2.87625 5.625 2.8125 C3.830625 2.9053125 3.830625 2.9053125 2 3 C1.34 3.99 0.68 4.98 0 6 C0 4.02 0 2.04 0 0 Z " fill="#E5868C" transform="translate(201,72)"/>
<path d="M0 0 C0.66 0 1.32 0 2 0 C2.66 2.31 3.32 4.62 4 7 C2.02 7 0.04 7 -2 7 C-1.34 4.69 -0.68 2.38 0 0 Z " fill="#F9E3E4" transform="translate(286,48)"/>
<path d="M0 0 C2.31 0 4.62 0 7 0 C6.34 0.66 5.68 1.32 5 2 C4.6936141 4.73434962 4.4886664 7.38279821 4.375 10.125 C4.33632813 10.87910156 4.29765625 11.63320313 4.2578125 12.41015625 C4.16348969 14.27303184 4.08065338 16.13648255 4 18 C3.67 18 3.34 18 3 18 C2.92652344 16.30230469 2.92652344 16.30230469 2.8515625 14.5703125 C2.77653486 13.08851661 2.70098703 11.606747 2.625 10.125 C2.57859375 9.00544922 2.57859375 9.00544922 2.53125 7.86328125 C2.44356169 3.46526812 2.44356169 3.46526812 0 0 Z " fill="#C90204" transform="translate(439,41)"/>
<path d="M0 0 C2.5 0.3125 2.5 0.3125 5 1 C5.33 1.66 5.66 2.32 6 3 C4.5625 5.625 4.5625 5.625 3 8 C2.71125 7.401875 2.4225 6.80375 2.125 6.1875 C0.95257974 3.80672208 0.95257974 3.80672208 -1 1 C-0.67 0.67 -0.34 0.34 0 0 Z " fill="#CF1C24" transform="translate(459,41)"/>
<path d="M0 0 C0.33 0 0.66 0 1 0 C1.33 3.63 1.66 7.26 2 11 C1.34 11 0.68 11 0 11 C0 10.34 0 9.68 0 9 C-1.32 9 -2.64 9 -4 9 C-4 8.01 -4 7.02 -4 6 C-3.01 6 -2.02 6 -1 6 C-0.67 4.02 -0.34 2.04 0 0 Z " fill="#EBA4A8" transform="translate(188,23)"/>
<path d="M0 0 C1.32 0.33 2.64 0.66 4 1 C1.78631706 3.21368294 0.06983375 4.86552921 -3.11328125 5.265625 C-5.07746787 5.25166986 -7.0402625 5.13286356 -9 5 C-6.23776722 2.23776722 -3.79293383 2.42143709 0 2 C0 1.34 0 0.68 0 0 Z " fill="#D74A4E" transform="translate(469,27)"/>
<path d="M0 0 C2.97 0 5.94 0 9 0 C9 0.66 9 1.32 9 2 C7.329375 2.433125 7.329375 2.433125 5.625 2.875 C1.99708908 3.69241329 1.99708908 3.69241329 0 6 C0 4.02 0 2.04 0 0 Z " fill="#CD0E14" transform="translate(331,41)"/>
<path d="M0 0 C1.98 0 3.96 0 6 0 C6 2 6 2 4.6875 3.4375 C4.130625 3.953125 3.57375 4.46875 3 5 C2.443125 5.556875 1.88625 6.11375 1.3125 6.6875 C0.879375 7.120625 0.44625 7.55375 0 8 C0 5.36 0 2.72 0 0 Z " fill="#D74B50" transform="translate(440,10)"/>
<path d="M0 0 C0.99 0 1.98 0 3 0 C3 0.66 3 1.32 3 2 C4.32 2.33 5.64 2.66 7 3 C1.72 3 -3.56 3 -9 3 C-9 2.67 -9 2.34 -9 2 C-6.94921875 1.77213542 -4.8984375 1.54427083 -2.84765625 1.31640625 C-0.98859771 1.18113386 -0.98859771 1.18113386 0 0 Z " fill="#D5353F" transform="translate(50,86)"/>
<path d="M0 0 C0.99 0 1.98 0 3 0 C2.40380045 4.86896303 1.43023178 9.32790951 0 14 C-1.10370043 10.6888987 -0.92673641 8.75251051 -0.5625 5.3125 C-0.46066406 4.31863281 -0.35882813 3.32476562 -0.25390625 2.30078125 C-0.17011719 1.54152344 -0.08632813 0.78226562 0 0 Z " fill="#D64046" transform="translate(473,75)"/>
<path d="M0 0 C0.66 0.33 1.32 0.66 2 1 C1.67 3.64 1.34 6.28 1 9 C0.67 8.01 0.34 7.02 0 6 C-2.00016466 4.79117904 -2.00016466 4.79117904 -4 4 C-2.68 2.68 -1.36 1.36 0 0 Z " fill="#F8E3E4" transform="translate(394,83)"/>
<path d="M0 0 C1.98 0 3.96 0 6 0 C5.67 1.98 5.34 3.96 5 6 C4.01 5.67 3.02 5.34 2 5 C0.8125 2.4375 0.8125 2.4375 0 0 Z " fill="#CC070E" transform="translate(428,11)"/>
<path d="M0 0 C1.32 0.33 2.64 0.66 4 1 C3.67 4.3 3.34 7.6 3 11 C0.60236815 8.60236815 0.65719414 7.66726502 0.375 4.375 C0.30023438 3.55773437 0.22546875 2.74046875 0.1484375 1.8984375 C0.09945313 1.27195312 0.05046875 0.64546875 0 0 Z " fill="#CB0005" transform="translate(358,11)"/>
<path d="M0 0 C0.33 0.66 0.66 1.32 1 2 C3.02463255 2.65213292 3.02463255 2.65213292 5 3 C5 3.99 5 4.98 5 6 C3.35 6 1.7 6 0 6 C-1 3 -1 3 0 0 Z " fill="#E8979C" transform="translate(388,87)"/>
<path d="M0 0 C0.33 0 0.66 0 1 0 C1.33 2.64 1.66 5.28 2 8 C0.02 8 -1.96 8 -4 8 C-3.67 5.69 -3.34 3.38 -3 1 C-2.34 2.32 -1.68 3.64 -1 5 C-0.67 3.35 -0.34 1.7 0 0 Z " fill="#D1242C" transform="translate(437,23)"/>
<path d="M0 0 C0.66 0.33 1.32 0.66 2 1 C2 2.98 2 4.96 2 7 C-0.31 7 -2.62 7 -5 7 C-3.68 6.67 -2.36 6.34 -1 6 C-1.020625 5.195625 -1.04125 4.39125 -1.0625 3.5625 C-1 1 -1 1 0 0 Z " fill="#ECB1B4" transform="translate(230,15)"/>
<path d="M0 0 C1.65 0 3.3 0 5 0 C5 0.66 5 1.32 5 2 C3.68 2.33 2.36 2.66 1 3 C0.67 4.65 0.34 6.3 0 8 C-0.98120464 4.94736336 -0.98120464 3.05263664 0 0 Z " fill="#D74449" transform="translate(315,81)"/>
<path d="M0 0 C1.32 0.66 2.64 1.32 4 2 C3.67 3.65 3.34 5.3 3 7 C1.68 6.01 0.36 5.02 -1 4 C-0.67 2.68 -0.34 1.36 0 0 Z " fill="#EDB0B4" transform="translate(197,51)"/>
<path d="M0 0 C3.93774177 -0.36630156 5.56539771 -0.30233203 8.875 2 C9.926875 2.99 9.926875 2.99 11 4 C10.34 4.66 9.68 5.32 9 6 C8.443125 5.360625 7.88625 4.72125 7.3125 4.0625 C4.77933439 1.80319013 3.31658576 1.36850953 0 1 C0 0.67 0 0.34 0 0 Z " fill="#D02025" transform="translate(205,34)"/>
<path d="M0 0 C7.38461538 0.49230769 7.38461538 0.49230769 10.5 3.0625 C10.995 3.701875 11.49 4.34125 12 5 C10.25 5.75 10.25 5.75 8 6 C6 4.1875 6 4.1875 4 2 C1.86690808 0.76487921 1.86690808 0.76487921 0 0 Z " fill="#D02026" transform="translate(461,10)"/>
<path d="M0 0 C0.66 0 1.32 0 2 0 C1.67 1.98 1.34 3.96 1 6 C-0.32 6 -1.64 6 -3 6 C-2.42655063 3.13275314 -2.1385485 2.1385485 0 0 Z " fill="#F5D2D4" transform="translate(466,82)"/>
<path d="M0 0 C3.465 1.485 3.465 1.485 7 3 C7 3.33 7 3.66 7 4 C3.7 4 0.4 4 -3 4 C-2.01 3.67 -1.02 3.34 0 3 C0 2.01 0 1.02 0 0 Z " fill="#CC0209" transform="translate(294,61)"/>
<path d="M0 0 C0.33 1.32 0.66 2.64 1 4 C-3.75 7 -3.75 7 -6 7 C-6 6.34 -6 5.68 -6 5 C-4.04072937 3.2856382 -2.04119788 1.61594832 0 0 Z " fill="#D22D33" transform="translate(274,58)"/>
<path d="M0 0 C1.32 0.66 2.64 1.32 4 2 C3.67 4.31 3.34 6.62 3 9 C2.67 7.68 2.34 6.36 2 5 C1.34 5 0.68 5 0 5 C-0.5625 3.0625 -0.5625 3.0625 -1 1 C-0.67 0.67 -0.34 0.34 0 0 Z " fill="#CD0713" transform="translate(390,41)"/>
<path d="M0 0 C1.32 0.66 2.64 1.32 4 2 C4 2.99 4 3.98 4 5 C3.34 5 2.68 5 2 5 C2 5.66 2 6.32 2 7 C0 6 0 6 -1 3 C-0.34 3 0.32 3 1 3 C0.67 2.01 0.34 1.02 0 0 Z " fill="#DE676D" transform="translate(191,14)"/>
<path d="M0 0 C0.66 0.33 1.32 0.66 2 1 C1.34 1.66 0.68 2.32 0 3 C-0.46162427 5.43252661 -0.46162427 5.43252661 -0.625 8.125 C-0.69976562 9.03507812 -0.77453125 9.94515625 -0.8515625 10.8828125 C-0.90054687 11.58148438 -0.94953125 12.28015625 -1 13 C-1.33 13 -1.66 13 -2 13 C-2 10.03 -2 7.06 -2 4 C-2.66 3.67 -3.32 3.34 -4 3 C-2.68 2.01 -1.36 1.02 0 0 Z " fill="#D4373B" transform="translate(458,11)"/>
<path d="M0 0 C2.01920337 1.30406884 4.01924973 2.63823419 6 4 C6 4.33 6 4.66 6 5 C3.125 5.1875 3.125 5.1875 0 5 C-0.66 4.01 -1.32 3.02 -2 2 C-1.34 2 -0.68 2 0 2 C0 1.34 0 0.68 0 0 Z " fill="#CE161B" transform="translate(464,60)"/>
<path d="M0 0 C0.99 0 1.98 0 3 0 C3 1.32 3 2.64 3 4 C2.195625 4.12375 1.39125 4.2475 0.5625 4.375 C-0.7059375 4.684375 -0.7059375 4.684375 -2 5 C-2.33 5.66 -2.66 6.32 -3 7 C-2.67 5.35 -2.34 3.7 -2 2 C-0.02 2.495 -0.02 2.495 2 3 C2 2.34 2 1.68 2 1 C1.34 0.67 0.68 0.34 0 0 Z " fill="#D94E53" transform="translate(266,81)"/>
<path d="M0 0 C1.32 1.32 2.64 2.64 4 4 C2.35 4.66 0.7 5.32 -1 6 C-1 6.66 -1 7.32 -1 8 C-1.66 7.67 -2.32 7.34 -3 7 C-2.01 4.69 -1.02 2.38 0 0 Z " fill="#D2232A" transform="translate(413,46)"/>
<path d="M0 0 C2.31 0 4.62 0 7 0 C4.525 3.465 4.525 3.465 2 7 C0.75453595 4.50907189 1.2232422 3.58919267 2 1 C1.34 0.67 0.68 0.34 0 0 Z " fill="#CC060A" transform="translate(484,41)"/>
<path d="M0 0 C0.99 0 1.98 0 3 0 C2.67 2.64 2.34 5.28 2 8 C1.34 8 0.68 8 0 8 C0 5.36 0 2.72 0 0 Z " fill="#D94D53" transform="translate(383,81)"/>
<path d="M0 0 C0.66 0 1.32 0 2 0 C2.33 0.99 2.66 1.98 3 3 C1.5625 5.6875 1.5625 5.6875 0 8 C-1.09658936 4.71023192 -0.79953138 3.28696233 0 0 Z " fill="#D74249" transform="translate(360,81)"/>
<path d="M0 0 C0.99 0.66 1.98 1.32 3 2 C2.34 2 1.68 2 1 2 C1 4.31 1 6.62 1 9 C0.34 9 -0.32 9 -1 9 C-1.33 6.36 -1.66 3.72 -2 1 C-1.34 0.67 -0.68 0.34 0 0 Z " fill="#D53B42" transform="translate(458,80)"/>
<path d="M0 0 C-0.33 2.97 -0.66 5.94 -1 9 C-1.66 8.67 -2.32 8.34 -3 8 C-3.40729228 5.67843403 -3.74438677 3.3431213 -4 1 C-2 0 -2 0 0 0 Z " fill="#D0232B" transform="translate(224,70)"/>
<path d="M0 0 C2 3 2 3 3 6 C2.01 6 1.02 6 0 6 C-0.66 6.66 -1.32 7.32 -2 8 C-2.33 6.35 -2.66 4.7 -3 3 C-2.34 3 -1.68 3 -1 3 C-0.67 2.01 -0.34 1.02 0 0 Z " fill="#D12228" transform="translate(295,56)"/>
</svg>
