<svg xmlns="http://www.w3.org/2000/svg" xmlns:v="https://svgstorm.com"
viewBox = "0 0 512 512"
width="512"
height="512">
<g fill="None" fill-opacity="0.0" stroke="#000000" stroke-opacity="0.00" stroke-width="0.3"><path d="
M 0.00 139.00 
C 4.46 110.19 32.24 91.89 60.00 90.00
C 63.90 89.73 68.10 89.79 72.00 90.00
C 81.70 90.53 93.64 93.03 102.00 98.00
C 106.66 97.28 110.01 89.81 114.25 87.25 C 118.48 84.68 122.69 80.01 127.08 77.08 C 131.47 74.16 136.44 69.82 141.00 67.00
C 178.39 43.86 220.02 29.00 265.00 29.00
C 269.36 28.58 274.93 27.52 280.00 28.00
C 284.27 28.40 290.53 29.52 295.00 29.00 C 299.47 28.48 304.70 32.48 309.00 31.00
C 320.82 8.62 352.68 1.30 375.00 4.00
C 393.95 6.29 410.28 12.46 422.30 28.70 C 434.33 44.93 435.89 68.59 430.00 88.00
C 434.13 86.54 439.63 97.71 443.75 100.25 C 447.87 102.79 452.89 110.18 456.75 114.25 C 460.61 118.32 464.58 124.84 468.30 129.70 C 472.02 134.55 475.61 140.62 478.92 146.08 C 482.24 151.53 484.95 157.08 487.92 163.08 C 490.89 169.07 493.69 175.24 496.31 181.69 C 498.92 188.14 500.67 195.17 502.98 202.02 C 505.28 208.88 506.64 216.68 508.00 224.00 C 509.35 231.32 510.76 239.97 512.00 247.00
L 512.00 0.00
L 0.00 0.00
L 0.00 139.00 Z"/>
</g>
<g fill="None" fill-opacity="0.0" stroke="#DD414D" stroke-opacity="0.99" stroke-width="0.3"><path d="
M 309.00 31.00 
C 300.88 46.38 298.56 65.76 302.78 82.22 C 307.00 98.68 313.51 114.02 320.31 128.69 C 327.10 143.37 334.83 158.14 340.92 172.08 C 347.02 186.01 357.62 207.69 376.00 197.00
C 355.38 162.18 343.78 133.79 327.22 95.78 C 310.67 57.77 331.44 10.22 375.00 4.00
C 352.68 1.30 320.82 8.62 309.00 31.00 Z"/>
</g>
<g fill="None" fill-opacity="0.0" stroke="#F44856" stroke-opacity="0.99" stroke-width="0.3"><path d="
M 376.00 197.00 
C 385.74 191.34 391.40 174.29 396.00 165.00
C 408.14 140.45 422.14 113.89 430.00 88.00
C 435.89 68.59 434.33 44.93 422.30 28.70 C 410.28 12.46 393.95 6.29 375.00 4.00
C 331.44 10.22 310.67 57.77 327.22 95.78 C 343.78 133.79 355.38 162.18 376.00 197.00
M 373.00 35.00 
C 396.49 38.82 407.83 70.22 392.25 88.25 C 376.66 106.27 347.04 104.91 336.69 81.31 C 326.34 57.70 346.40 30.68 373.00 35.00 Z"/>
</g>
<g fill="None" fill-opacity="0.0" stroke="#68BB9E" stroke-opacity="0.21" stroke-width="0.3"><path d="
M 265.00 29.00 
C 269.84 29.00 275.98 28.01 280.00 28.00
C 274.93 27.52 269.36 28.58 265.00 29.00 Z"/>
</g>
<g fill="None" fill-opacity="0.0" stroke="#90DB5A" stroke-opacity="1.00" stroke-width="0.3"><path d="
M 265.00 29.00 
C 220.02 29.00 178.39 43.86 141.00 67.00
C 144.44 77.21 148.76 88.20 152.92 98.08 C 157.09 107.95 161.01 118.02 167.30 126.70 C 173.60 135.37 181.00 143.64 192.02 144.98 C 203.05 146.32 214.56 137.69 223.08 132.08 C 231.60 126.47 239.98 119.55 248.25 114.25 C 256.51 108.95 268.24 97.36 272.93 110.07 C 277.61 122.79 272.75 135.17 270.00 147.00 C 267.26 158.83 273.53 168.45 280.25 177.75 C 286.98 187.04 292.05 193.74 295.98 205.02 C 299.90 216.31 289.14 229.81 281.30 234.30 C 273.46 238.80 255.21 244.39 259.93 254.07 C 264.64 263.76 276.97 266.37 287.01 269.99 C 297.04 273.61 315.36 269.81 326.22 267.22 C 337.08 264.64 353.20 263.63 364.22 267.78 C 375.25 271.92 385.35 275.01 397.02 277.98 C 408.70 280.95 422.34 284.00 435.00 284.00
C 439.33 284.00 443.67 284.09 448.00 284.00
C 457.50 283.81 467.69 281.31 471.77 271.77 C 475.85 262.23 469.37 252.57 462.75 246.25 C 456.13 239.93 449.36 234.85 442.75 229.25 C 436.15 223.64 428.21 218.83 422.75 212.25 C 417.29 205.67 408.61 199.78 406.25 191.75 C 403.88 183.73 396.05 173.20 396.00 165.00
C 391.40 174.29 385.74 191.34 376.00 197.00
C 357.62 207.69 347.02 186.01 340.92 172.08 C 334.83 158.14 327.10 143.37 320.31 128.69 C 313.51 114.02 307.00 98.68 302.78 82.22 C 298.56 65.76 300.88 46.38 309.00 31.00
C 304.70 32.48 299.47 28.48 295.00 29.00 C 290.53 29.52 284.27 28.40 280.00 28.00
C 275.98 28.01 269.84 29.00 265.00 29.00 Z"/>
</g>
<g fill="None" fill-opacity="0.0" stroke="#E0EAF3" stroke-opacity="1.00" stroke-width="0.3"><path d="
M 373.00 35.00 
C 346.40 30.68 326.34 57.70 336.69 81.31 C 347.04 104.91 376.66 106.27 392.25 88.25 C 407.83 70.22 396.49 38.82 373.00 35.00 Z"/>
</g>
<g fill="None" fill-opacity="0.0" stroke="#3D99E1" stroke-opacity="1.00" stroke-width="0.3"><path d="
M 102.00 98.00 
C 145.58 123.88 131.72 173.58 115.00 211.00
C 115.15 226.94 131.35 237.57 132.00 254.00 C 132.65 270.43 121.39 281.66 111.25 293.25 C 101.10 304.84 94.02 318.48 90.00 333.00
C 89.87 333.46 89.94 334.51 90.00 335.00
C 92.96 358.36 114.48 375.94 122.00 397.00
C 122.06 397.16 123.00 397.00 123.00 397.00
C 126.10 388.75 132.48 380.56 135.31 372.31 C 138.13 364.05 148.35 356.97 150.00 349.00
C 149.26 345.37 149.08 341.83 149.00 338.00
C 148.53 334.11 148.54 329.83 149.00 326.00
C 149.61 295.50 178.87 272.58 208.00 272.00
C 212.22 271.49 216.83 271.43 221.00 272.00
C 222.32 272.00 223.68 271.91 225.00 272.00
C 252.15 273.92 278.93 296.95 280.00 325.00
C 280.60 329.22 280.40 333.90 280.00 338.00
C 280.00 365.02 262.89 392.18 252.00 416.00
C 256.29 414.39 265.12 420.19 270.02 419.98 C 274.92 419.76 279.42 425.80 282.75 429.25 C 286.08 432.70 289.23 437.85 291.77 442.23 C 294.31 446.61 296.03 452.07 300.25 455.75 C 304.47 459.43 308.58 462.49 314.03 463.98 C 319.47 465.46 324.75 468.25 330.22 469.78 C 335.69 471.30 339.34 474.54 343.75 478.25 C 348.17 481.95 350.94 486.75 354.00 491.00
C 354.65 491.90 356.73 492.21 356.00 494.00
C 373.25 487.63 389.49 479.01 405.00 469.00
C 402.36 461.61 401.00 454.12 401.00 446.00
C 400.63 442.23 400.64 437.71 401.00 434.00
C 401.00 421.52 406.36 409.14 413.30 399.30 C 420.25 389.46 429.37 384.25 438.75 377.75 C 448.12 371.24 462.12 369.53 471.23 363.23 C 480.33 356.93 493.02 353.33 500.00 345.00
C 505.96 327.58 509.41 308.95 512.00 291.00
L 512.00 261.00
C 510.46 258.72 510.28 253.21 512.00 251.00
L 512.00 247.00
C 510.76 239.97 509.35 231.32 508.00 224.00 C 506.64 216.68 505.28 208.88 502.98 202.02 C 500.67 195.17 498.92 188.14 496.31 181.69 C 493.69 175.24 490.89 169.07 487.92 163.08 C 484.95 157.08 482.24 151.53 478.92 146.08 C 475.61 140.62 472.02 134.55 468.30 129.70 C 464.58 124.84 460.61 118.32 456.75 114.25 C 452.89 110.18 447.87 102.79 443.75 100.25 C 439.63 97.71 434.13 86.54 430.00 88.00
C 422.14 113.89 408.14 140.45 396.00 165.00
C 396.05 173.20 403.88 183.73 406.25 191.75 C 408.61 199.78 417.29 205.67 422.75 212.25 C 428.21 218.83 436.15 223.64 442.75 229.25 C 449.36 234.85 456.13 239.93 462.75 246.25 C 469.37 252.57 475.85 262.23 471.77 271.77 C 467.69 281.31 457.50 283.81 448.00 284.00
C 443.84 284.50 439.07 284.39 435.00 284.00
C 422.34 284.00 408.70 280.95 397.02 277.98 C 385.35 275.01 375.25 271.92 364.22 267.78 C 353.20 263.63 337.08 264.64 326.22 267.22 C 315.36 269.81 297.04 273.61 287.01 269.99 C 276.97 266.37 264.64 263.76 259.93 254.07 C 255.21 244.39 273.46 238.80 281.30 234.30 C 289.14 229.81 299.90 216.31 295.98 205.02 C 292.05 193.74 286.98 187.04 280.25 177.75 C 273.53 168.45 267.26 158.83 270.00 147.00 C 272.75 135.17 277.61 122.79 272.93 110.07 C 268.24 97.36 256.51 108.95 248.25 114.25 C 239.98 119.55 231.60 126.47 223.08 132.08 C 214.56 137.69 203.05 146.32 192.02 144.98 C 181.00 143.64 173.60 135.37 167.30 126.70 C 161.01 118.02 157.09 107.95 152.92 98.08 C 148.76 88.20 144.44 77.21 141.00 67.00
C 136.44 69.82 131.47 74.16 127.08 77.08 C 122.69 80.01 118.48 84.68 114.25 87.25 C 110.01 89.81 106.66 97.28 102.00 98.00 Z"/>
</g>
<g fill="None" fill-opacity="0.0" stroke="#DD404D" stroke-opacity="0.98" stroke-width="0.3"><path d="
M 0.00 139.00 
L 0.00 163.00
C 7.81 190.29 18.37 218.84 33.00 244.00
C 40.95 257.68 52.29 299.11 76.00 283.00
C 69.92 281.45 68.00 270.36 64.69 265.31 C 61.39 260.25 58.57 250.87 55.08 244.92 C 51.58 238.98 48.20 231.49 45.08 224.92 C 41.96 218.35 39.00 211.14 35.69 204.31 C 32.39 197.47 30.29 190.09 27.07 182.93 C 23.85 175.76 22.68 167.40 21.67 159.33 C 20.66 151.26 20.83 139.89 23.32 132.32 C 25.81 124.75 28.89 118.88 33.75 112.75 C 38.62 106.63 44.39 103.86 50.23 99.23 C 56.07 94.60 66.55 95.22 72.00 91.00
C 67.96 91.36 63.20 90.09 60.00 90.00
C 32.24 91.89 4.46 110.19 0.00 139.00 Z"/>
</g>
<g fill="None" fill-opacity="0.0" stroke="#E3424F" stroke-opacity="0.83" stroke-width="0.3"><path d="
M 72.00 91.00 
C 72.24 90.81 72.00 90.00 72.00 90.00
C 68.10 89.79 63.90 89.73 60.00 90.00
C 63.20 90.09 67.96 91.36 72.00 91.00 Z"/>
</g>
<g fill="None" fill-opacity="0.0" stroke="#F44856" stroke-opacity="1.00" stroke-width="0.3"><path d="
M 72.00 91.00 
C 66.55 95.22 56.07 94.60 50.23 99.23 C 44.39 103.86 38.62 106.63 33.75 112.75 C 28.89 118.88 25.81 124.75 23.32 132.32 C 20.83 139.89 20.66 151.26 21.67 159.33 C 22.68 167.40 23.85 175.76 27.07 182.93 C 30.29 190.09 32.39 197.47 35.69 204.31 C 39.00 211.14 41.96 218.35 45.08 224.92 C 48.20 231.49 51.58 238.98 55.08 244.92 C 58.57 250.87 61.39 260.25 64.69 265.31 C 68.00 270.36 69.92 281.45 76.00 283.00
C 76.49 282.66 77.62 282.35 78.00 282.00
C 87.77 272.89 91.10 258.48 96.98 246.98 C 102.85 235.47 109.82 222.59 115.00 211.00
C 131.72 173.58 145.58 123.88 102.00 98.00
C 93.64 93.03 81.70 90.53 72.00 90.00
C 72.00 90.00 72.24 90.81 72.00 91.00
M 73.00 122.00 
C 96.53 125.82 107.21 158.66 91.23 176.23 C 75.25 193.80 45.51 190.78 35.69 167.31 C 25.88 143.83 46.68 117.73 73.00 122.00 Z"/>
</g>
<g fill="None" fill-opacity="0.0" stroke="#E0EBF3" stroke-opacity="1.00" stroke-width="0.3"><path d="
M 73.00 122.00 
C 46.68 117.73 25.88 143.83 35.69 167.31 C 45.51 190.78 75.25 193.80 91.23 176.23 C 107.21 158.66 96.53 125.82 73.00 122.00 Z"/>
</g>
<g fill="None" fill-opacity="0.0" stroke="#000000" stroke-opacity="0.00" stroke-width="0.3"><path d="
M 0.00 512.00 
L 512.00 512.00
L 512.00 291.00
C 509.41 308.95 505.96 327.58 500.00 345.00
C 489.87 374.61 474.68 401.80 454.00 426.00
C 446.80 434.42 438.37 442.85 430.00 450.00
C 421.90 456.92 413.81 463.32 405.00 469.00
C 389.49 479.01 373.25 487.63 356.00 494.00
C 331.62 503.00 305.55 507.99 279.00 509.00
C 274.38 509.18 269.62 509.18 265.00 509.00
C 204.70 506.70 147.01 483.01 104.00 440.00
C 87.23 423.23 74.45 405.90 63.00 386.00
C 57.35 376.17 52.97 368.26 48.69 357.31 C 44.42 346.35 41.51 335.72 38.07 323.93 C 34.64 312.13 35.36 298.95 32.67 286.33 C 29.98 273.71 35.29 256.43 33.00 244.00
C 18.37 218.84 7.81 190.29 0.00 163.00
L 0.00 512.00 Z"/>
</g>
<g fill="None" fill-opacity="0.0" stroke="#90DB5B" stroke-opacity="1.00" stroke-width="0.3"><path d="
M 78.00 282.00 
C 81.22 285.43 76.84 290.69 79.00 296.00 C 81.16 301.31 80.21 301.42 81.98 309.02 C 83.74 316.63 86.47 326.07 90.00 333.00
C 94.02 318.48 101.10 304.84 111.25 293.25 C 121.39 281.66 132.65 270.43 132.00 254.00 C 131.35 237.57 115.15 226.94 115.00 211.00
C 109.82 222.59 102.85 235.47 96.98 246.98 C 91.10 258.48 87.77 272.89 78.00 282.00 Z"/>
</g>
<g fill="None" fill-opacity="0.0" stroke="#82C552" stroke-opacity="0.99" stroke-width="0.3"><path d="
M 63.00 386.00 
C 63.28 380.54 71.37 375.58 72.92 369.92 C 74.48 364.27 80.30 358.82 81.78 352.78 C 83.25 346.73 87.38 340.34 90.00 335.00
C 89.94 334.51 89.87 333.46 90.00 333.00
C 86.47 326.07 83.74 316.63 81.98 309.02 C 80.21 301.42 81.16 301.31 79.00 296.00 C 76.84 290.69 81.22 285.43 78.00 282.00
C 77.62 282.35 76.49 282.66 76.00 283.00
C 52.29 299.11 40.95 257.68 33.00 244.00
C 35.29 256.43 29.98 273.71 32.67 286.33 C 35.36 298.95 34.64 312.13 38.07 323.93 C 41.51 335.72 44.42 346.35 48.69 357.31 C 52.97 368.26 57.35 376.17 63.00 386.00 Z"/>
</g>
<g fill="None" fill-opacity="0.0" stroke="#3D99E2" stroke-opacity="0.59" stroke-width="0.3"><path d="
M 512.00 261.00 
L 512.00 251.00
C 510.28 253.21 510.46 258.72 512.00 261.00 Z"/>
</g>
<g fill="None" fill-opacity="0.0" stroke="#A46589" stroke-opacity="1.00" stroke-width="0.3"><path d="
M 208.00 272.00 
C 212.33 271.91 216.67 272.00 221.00 272.00
C 216.83 271.43 212.22 271.49 208.00 272.00 Z"/>
</g>
<g fill="None" fill-opacity="0.0" stroke="#DC414D" stroke-opacity="1.00" stroke-width="0.3"><path d="
M 149.00 326.00 
C 148.92 329.99 148.92 334.01 149.00 338.00
C 149.08 341.83 149.26 345.37 150.00 349.00
C 153.19 364.68 161.70 380.76 167.77 395.23 C 173.84 409.70 182.71 425.45 188.77 439.23 C 194.83 453.01 205.13 475.97 224.00 465.00
C 202.75 431.69 191.45 398.12 175.02 361.98 C 158.60 325.83 180.34 272.78 225.00 272.00
C 223.68 271.91 222.32 272.00 221.00 272.00
C 216.67 272.00 212.33 271.91 208.00 272.00
C 178.87 272.58 149.61 295.50 149.00 326.00 Z"/>
</g>
<g fill="None" fill-opacity="0.0" stroke="#F44856" stroke-opacity="1.00" stroke-width="0.3"><path d="
M 224.00 465.00 
C 232.51 460.05 234.59 449.94 238.92 441.92 C 243.26 433.91 248.30 424.09 252.00 416.00
C 262.89 392.18 280.00 365.02 280.00 338.00
C 280.00 333.68 280.16 329.32 280.00 325.00
C 278.93 296.95 252.15 273.92 225.00 272.00
C 180.34 272.78 158.60 325.83 175.02 361.98 C 191.45 398.12 202.75 431.69 224.00 465.00
M 247.00 331.00 
C 247.68 334.52 247.77 337.52 247.00 341.00
C 238.56 379.09 184.13 375.80 182.00 336.00 C 179.87 296.20 243.87 291.51 247.00 331.00 Z"/>
</g>
<g fill="None" fill-opacity="0.0" stroke="#63B8A3" stroke-opacity="1.00" stroke-width="0.3"><path d="
M 448.00 284.00 
C 443.67 284.09 439.33 284.00 435.00 284.00
C 439.07 284.39 443.84 284.50 448.00 284.00 Z"/>
</g>
<g fill="None" fill-opacity="0.0" stroke="#E0EBF3" stroke-opacity="1.00" stroke-width="0.3"><path d="
M 247.00 341.00 
C 247.32 337.85 247.25 334.15 247.00 331.00
C 243.87 291.51 179.87 296.20 182.00 336.00 C 184.13 375.80 238.56 379.09 247.00 341.00 Z"/>
</g>
<g fill="None" fill-opacity="0.0" stroke="#B36588" stroke-opacity="1.00" stroke-width="0.3"><path d="
M 280.00 338.00 
C 280.40 333.90 280.60 329.22 280.00 325.00
C 280.16 329.32 280.00 333.68 280.00 338.00 Z"/>
</g>
<g fill="None" fill-opacity="0.0" stroke="#A46689" stroke-opacity="1.00" stroke-width="0.3"><path d="
M 149.00 338.00 
C 148.92 334.01 148.92 329.99 149.00 326.00
C 148.54 329.83 148.53 334.11 149.00 338.00 Z"/>
</g>
<g fill="None" fill-opacity="0.0" stroke="#EDA3AE" stroke-opacity="1.00" stroke-width="0.3"><path d="
M 247.00 341.00 
C 247.77 337.52 247.68 334.52 247.00 331.00
C 247.25 334.15 247.32 337.85 247.00 341.00 Z"/>
</g>
<g fill="None" fill-opacity="0.0" stroke="#378BCB" stroke-opacity="0.99" stroke-width="0.3"><path d="
M 63.00 386.00 
C 74.45 405.90 87.23 423.23 104.00 440.00
C 103.37 433.58 111.86 425.92 112.92 418.92 C 113.99 411.93 121.17 404.29 122.00 397.00
C 114.48 375.94 92.96 358.36 90.00 335.00
C 87.38 340.34 83.25 346.73 81.78 352.78 C 80.30 358.82 74.48 364.27 72.92 369.92 C 71.37 375.58 63.28 380.54 63.00 386.00 Z"/>
</g>
<g fill="None" fill-opacity="0.0" stroke="#8FDB5D" stroke-opacity="0.99" stroke-width="0.3"><path d="
M 401.00 434.00 
C 401.00 438.00 401.00 442.00 401.00 446.00
C 401.00 454.12 402.36 461.61 405.00 469.00
C 413.81 463.32 421.90 456.92 430.00 450.00
C 437.92 442.08 446.13 433.87 454.00 426.00
C 474.68 401.80 489.87 374.61 500.00 345.00
C 493.02 353.33 480.33 356.93 471.23 363.23 C 462.12 369.53 448.12 371.24 438.75 377.75 C 429.37 384.25 420.25 389.46 413.30 399.30 C 406.36 409.14 401.00 421.52 401.00 434.00 Z"/>
</g>
<g fill="None" fill-opacity="0.0" stroke="#90DB5A" stroke-opacity="1.00" stroke-width="0.3"><path d="
M 123.00 397.00 
C 128.15 401.83 131.30 408.65 136.30 413.70 C 141.31 418.74 146.17 423.62 151.25 428.75 C 156.33 433.89 161.67 438.12 167.25 442.75 C 172.82 447.39 179.16 450.50 185.08 454.92 C 191.00 459.34 197.48 462.30 204.08 465.92 C 210.67 469.55 217.00 472.83 224.22 475.78 C 231.45 478.72 238.87 481.08 246.67 483.33 C 254.48 485.57 261.94 487.92 270.22 489.78 C 278.50 491.64 288.46 491.08 297.00 493.00 C 305.54 494.92 317.15 492.49 325.67 493.67 C 334.19 494.85 346.22 487.85 354.00 491.00
C 350.94 486.75 348.17 481.95 343.75 478.25 C 339.34 474.54 335.69 471.30 330.22 469.78 C 324.75 468.25 319.47 465.46 314.03 463.98 C 308.58 462.49 304.47 459.43 300.25 455.75 C 296.03 452.07 294.31 446.61 291.77 442.23 C 289.23 437.85 286.08 432.70 282.75 429.25 C 279.42 425.80 274.92 419.76 270.02 419.98 C 265.12 420.19 256.29 414.39 252.00 416.00
C 248.30 424.09 243.26 433.91 238.92 441.92 C 234.59 449.94 232.51 460.05 224.00 465.00
C 205.13 475.97 194.83 453.01 188.77 439.23 C 182.71 425.45 173.84 409.70 167.77 395.23 C 161.70 380.76 153.19 364.68 150.00 349.00
C 148.35 356.97 138.13 364.05 135.31 372.31 C 132.48 380.56 126.10 388.75 123.00 397.00 Z"/>
</g>
<g fill="None" fill-opacity="0.0" stroke="#82C652" stroke-opacity="0.98" stroke-width="0.3"><path d="
M 104.00 440.00 
C 147.01 483.01 204.70 506.70 265.00 509.00
C 269.16 508.76 274.91 508.76 279.00 509.00
C 305.55 507.99 331.62 503.00 356.00 494.00
C 356.73 492.21 354.65 491.90 354.00 491.00
C 346.22 487.85 334.19 494.85 325.67 493.67 C 317.15 492.49 305.54 494.92 297.00 493.00 C 288.46 491.08 278.50 491.64 270.22 489.78 C 261.94 487.92 254.48 485.57 246.67 483.33 C 238.87 481.08 231.45 478.72 224.22 475.78 C 217.00 472.83 210.67 469.55 204.08 465.92 C 197.48 462.30 191.00 459.34 185.08 454.92 C 179.16 450.50 172.82 447.39 167.25 442.75 C 161.67 438.12 156.33 433.89 151.25 428.75 C 146.17 423.62 141.31 418.74 136.30 413.70 C 131.30 408.65 128.15 401.83 123.00 397.00
C 123.00 397.00 122.06 397.16 122.00 397.00
C 121.17 404.29 113.99 411.93 112.92 418.92 C 111.86 425.92 103.37 433.58 104.00 440.00 Z"/>
</g>
<g fill="None" fill-opacity="0.0" stroke="#65BFA2" stroke-opacity="0.35" stroke-width="0.3"><path d="
M 430.00 450.00 
C 438.37 442.85 446.80 434.42 454.00 426.00
C 446.13 433.87 437.92 442.08 430.00 450.00 Z"/>
</g>
<g fill="None" fill-opacity="0.0" stroke="#66BA9F" stroke-opacity="1.00" stroke-width="0.3"><path d="
M 401.00 446.00 
C 401.00 442.00 401.00 438.00 401.00 434.00
C 400.64 437.71 400.63 442.23 401.00 446.00 Z"/>
</g>
<g fill="None" fill-opacity="0.0" stroke="#77C275" stroke-opacity="0.66" stroke-width="0.3"><path d="
M 265.00 509.00 
C 269.62 509.18 274.38 509.18 279.00 509.00
C 274.91 508.76 269.16 508.76 265.00 509.00 Z"/>
</g>
<g fill="#000000" fill-opacity="0.00" stroke="None">
<path d="
M 0.00 139.00 
C 4.46 110.19 32.24 91.89 60.00 90.00
C 63.90 89.73 68.10 89.79 72.00 90.00
C 81.70 90.53 93.64 93.03 102.00 98.00
C 106.66 97.28 110.01 89.81 114.25 87.25 C 118.48 84.68 122.69 80.01 127.08 77.08 C 131.47 74.16 136.44 69.82 141.00 67.00
C 178.39 43.86 220.02 29.00 265.00 29.00
C 269.36 28.58 274.93 27.52 280.00 28.00
C 284.27 28.40 290.53 29.52 295.00 29.00 C 299.47 28.48 304.70 32.48 309.00 31.00
C 320.82 8.62 352.68 1.30 375.00 4.00
C 393.95 6.29 410.28 12.46 422.30 28.70 C 434.33 44.93 435.89 68.59 430.00 88.00
C 434.13 86.54 439.63 97.71 443.75 100.25 C 447.87 102.79 452.89 110.18 456.75 114.25 C 460.61 118.32 464.58 124.84 468.30 129.70 C 472.02 134.55 475.61 140.62 478.92 146.08 C 482.24 151.53 484.95 157.08 487.92 163.08 C 490.89 169.07 493.69 175.24 496.31 181.69 C 498.92 188.14 500.67 195.17 502.98 202.02 C 505.28 208.88 506.64 216.68 508.00 224.00 C 509.35 231.32 510.76 239.97 512.00 247.00
L 512.00 0.00
L 0.00 0.00
L 0.00 139.00 Z"/>
</g>
<g fill="#DD414D" fill-opacity="0.99" stroke="None">
<path d="
M 309.00 31.00 
C 300.88 46.38 298.56 65.76 302.78 82.22 C 307.00 98.68 313.51 114.02 320.31 128.69 C 327.10 143.37 334.83 158.14 340.92 172.08 C 347.02 186.01 357.62 207.69 376.00 197.00
C 355.38 162.18 343.78 133.79 327.22 95.78 C 310.67 57.77 331.44 10.22 375.00 4.00
C 352.68 1.30 320.82 8.62 309.00 31.00 Z"/>
</g>
<g fill="#F44856" fill-opacity="0.99" stroke="None">
<path d="
M 376.00 197.00 
C 385.74 191.34 391.40 174.29 396.00 165.00
C 408.14 140.45 422.14 113.89 430.00 88.00
C 435.89 68.59 434.33 44.93 422.30 28.70 C 410.28 12.46 393.95 6.29 375.00 4.00
C 331.44 10.22 310.67 57.77 327.22 95.78 C 343.78 133.79 355.38 162.18 376.00 197.00
M 373.00 35.00 
C 396.49 38.82 407.83 70.22 392.25 88.25 C 376.66 106.27 347.04 104.91 336.69 81.31 C 326.34 57.70 346.40 30.68 373.00 35.00 Z"/>
</g>
<g fill="#68BB9E" fill-opacity="0.21" stroke="None">
<path d="
M 265.00 29.00 
C 269.84 29.00 275.98 28.01 280.00 28.00
C 274.93 27.52 269.36 28.58 265.00 29.00 Z"/>
</g>
<g fill="#90DB5A" fill-opacity="1.00" stroke="None">
<path d="
M 265.00 29.00 
C 220.02 29.00 178.39 43.86 141.00 67.00
C 144.44 77.21 148.76 88.20 152.92 98.08 C 157.09 107.95 161.01 118.02 167.30 126.70 C 173.60 135.37 181.00 143.64 192.02 144.98 C 203.05 146.32 214.56 137.69 223.08 132.08 C 231.60 126.47 239.98 119.55 248.25 114.25 C 256.51 108.95 268.24 97.36 272.93 110.07 C 277.61 122.79 272.75 135.17 270.00 147.00 C 267.26 158.83 273.53 168.45 280.25 177.75 C 286.98 187.04 292.05 193.74 295.98 205.02 C 299.90 216.31 289.14 229.81 281.30 234.30 C 273.46 238.80 255.21 244.39 259.93 254.07 C 264.64 263.76 276.97 266.37 287.01 269.99 C 297.04 273.61 315.36 269.81 326.22 267.22 C 337.08 264.64 353.20 263.63 364.22 267.78 C 375.25 271.92 385.35 275.01 397.02 277.98 C 408.70 280.95 422.34 284.00 435.00 284.00
C 439.33 284.00 443.67 284.09 448.00 284.00
C 457.50 283.81 467.69 281.31 471.77 271.77 C 475.85 262.23 469.37 252.57 462.75 246.25 C 456.13 239.93 449.36 234.85 442.75 229.25 C 436.15 223.64 428.21 218.83 422.75 212.25 C 417.29 205.67 408.61 199.78 406.25 191.75 C 403.88 183.73 396.05 173.20 396.00 165.00
C 391.40 174.29 385.74 191.34 376.00 197.00
C 357.62 207.69 347.02 186.01 340.92 172.08 C 334.83 158.14 327.10 143.37 320.31 128.69 C 313.51 114.02 307.00 98.68 302.78 82.22 C 298.56 65.76 300.88 46.38 309.00 31.00
C 304.70 32.48 299.47 28.48 295.00 29.00 C 290.53 29.52 284.27 28.40 280.00 28.00
C 275.98 28.01 269.84 29.00 265.00 29.00 Z"/>
</g>
<g fill="#E0EAF3" fill-opacity="1.00" stroke="None">
<path d="
M 373.00 35.00 
C 346.40 30.68 326.34 57.70 336.69 81.31 C 347.04 104.91 376.66 106.27 392.25 88.25 C 407.83 70.22 396.49 38.82 373.00 35.00 Z"/>
</g>
<g fill="#3D99E1" fill-opacity="1.00" stroke="None">
<path d="
M 102.00 98.00 
C 145.58 123.88 131.72 173.58 115.00 211.00
C 115.15 226.94 131.35 237.57 132.00 254.00 C 132.65 270.43 121.39 281.66 111.25 293.25 C 101.10 304.84 94.02 318.48 90.00 333.00
C 89.87 333.46 89.94 334.51 90.00 335.00
C 92.96 358.36 114.48 375.94 122.00 397.00
C 122.06 397.16 123.00 397.00 123.00 397.00
C 126.10 388.75 132.48 380.56 135.31 372.31 C 138.13 364.05 148.35 356.97 150.00 349.00
C 149.26 345.37 149.08 341.83 149.00 338.00
C 148.53 334.11 148.54 329.83 149.00 326.00
C 149.61 295.50 178.87 272.58 208.00 272.00
C 212.22 271.49 216.83 271.43 221.00 272.00
C 222.32 272.00 223.68 271.91 225.00 272.00
C 252.15 273.92 278.93 296.95 280.00 325.00
C 280.60 329.22 280.40 333.90 280.00 338.00
C 280.00 365.02 262.89 392.18 252.00 416.00
C 256.29 414.39 265.12 420.19 270.02 419.98 C 274.92 419.76 279.42 425.80 282.75 429.25 C 286.08 432.70 289.23 437.85 291.77 442.23 C 294.31 446.61 296.03 452.07 300.25 455.75 C 304.47 459.43 308.58 462.49 314.03 463.98 C 319.47 465.46 324.75 468.25 330.22 469.78 C 335.69 471.30 339.34 474.54 343.75 478.25 C 348.17 481.95 350.94 486.75 354.00 491.00
C 354.65 491.90 356.73 492.21 356.00 494.00
C 373.25 487.63 389.49 479.01 405.00 469.00
C 402.36 461.61 401.00 454.12 401.00 446.00
C 400.63 442.23 400.64 437.71 401.00 434.00
C 401.00 421.52 406.36 409.14 413.30 399.30 C 420.25 389.46 429.37 384.25 438.75 377.75 C 448.12 371.24 462.12 369.53 471.23 363.23 C 480.33 356.93 493.02 353.33 500.00 345.00
C 505.96 327.58 509.41 308.95 512.00 291.00
L 512.00 261.00
C 510.46 258.72 510.28 253.21 512.00 251.00
L 512.00 247.00
C 510.76 239.97 509.35 231.32 508.00 224.00 C 506.64 216.68 505.28 208.88 502.98 202.02 C 500.67 195.17 498.92 188.14 496.31 181.69 C 493.69 175.24 490.89 169.07 487.92 163.08 C 484.95 157.08 482.24 151.53 478.92 146.08 C 475.61 140.62 472.02 134.55 468.30 129.70 C 464.58 124.84 460.61 118.32 456.75 114.25 C 452.89 110.18 447.87 102.79 443.75 100.25 C 439.63 97.71 434.13 86.54 430.00 88.00
C 422.14 113.89 408.14 140.45 396.00 165.00
C 396.05 173.20 403.88 183.73 406.25 191.75 C 408.61 199.78 417.29 205.67 422.75 212.25 C 428.21 218.83 436.15 223.64 442.75 229.25 C 449.36 234.85 456.13 239.93 462.75 246.25 C 469.37 252.57 475.85 262.23 471.77 271.77 C 467.69 281.31 457.50 283.81 448.00 284.00
C 443.84 284.50 439.07 284.39 435.00 284.00
C 422.34 284.00 408.70 280.95 397.02 277.98 C 385.35 275.01 375.25 271.92 364.22 267.78 C 353.20 263.63 337.08 264.64 326.22 267.22 C 315.36 269.81 297.04 273.61 287.01 269.99 C 276.97 266.37 264.64 263.76 259.93 254.07 C 255.21 244.39 273.46 238.80 281.30 234.30 C 289.14 229.81 299.90 216.31 295.98 205.02 C 292.05 193.74 286.98 187.04 280.25 177.75 C 273.53 168.45 267.26 158.83 270.00 147.00 C 272.75 135.17 277.61 122.79 272.93 110.07 C 268.24 97.36 256.51 108.95 248.25 114.25 C 239.98 119.55 231.60 126.47 223.08 132.08 C 214.56 137.69 203.05 146.32 192.02 144.98 C 181.00 143.64 173.60 135.37 167.30 126.70 C 161.01 118.02 157.09 107.95 152.92 98.08 C 148.76 88.20 144.44 77.21 141.00 67.00
C 136.44 69.82 131.47 74.16 127.08 77.08 C 122.69 80.01 118.48 84.68 114.25 87.25 C 110.01 89.81 106.66 97.28 102.00 98.00 Z"/>
</g>
<g fill="#DD404D" fill-opacity="0.98" stroke="None">
<path d="
M 0.00 139.00 
L 0.00 163.00
C 7.81 190.29 18.37 218.84 33.00 244.00
C 40.95 257.68 52.29 299.11 76.00 283.00
C 69.92 281.45 68.00 270.36 64.69 265.31 C 61.39 260.25 58.57 250.87 55.08 244.92 C 51.58 238.98 48.20 231.49 45.08 224.92 C 41.96 218.35 39.00 211.14 35.69 204.31 C 32.39 197.47 30.29 190.09 27.07 182.93 C 23.85 175.76 22.68 167.40 21.67 159.33 C 20.66 151.26 20.83 139.89 23.32 132.32 C 25.81 124.75 28.89 118.88 33.75 112.75 C 38.62 106.63 44.39 103.86 50.23 99.23 C 56.07 94.60 66.55 95.22 72.00 91.00
C 67.96 91.36 63.20 90.09 60.00 90.00
C 32.24 91.89 4.46 110.19 0.00 139.00 Z"/>
</g>
<g fill="#E3424F" fill-opacity="0.83" stroke="None">
<path d="
M 72.00 91.00 
C 72.24 90.81 72.00 90.00 72.00 90.00
C 68.10 89.79 63.90 89.73 60.00 90.00
C 63.20 90.09 67.96 91.36 72.00 91.00 Z"/>
</g>
<g fill="#F44856" fill-opacity="1.00" stroke="None">
<path d="
M 72.00 91.00 
C 66.55 95.22 56.07 94.60 50.23 99.23 C 44.39 103.86 38.62 106.63 33.75 112.75 C 28.89 118.88 25.81 124.75 23.32 132.32 C 20.83 139.89 20.66 151.26 21.67 159.33 C 22.68 167.40 23.85 175.76 27.07 182.93 C 30.29 190.09 32.39 197.47 35.69 204.31 C 39.00 211.14 41.96 218.35 45.08 224.92 C 48.20 231.49 51.58 238.98 55.08 244.92 C 58.57 250.87 61.39 260.25 64.69 265.31 C 68.00 270.36 69.92 281.45 76.00 283.00
C 76.49 282.66 77.62 282.35 78.00 282.00
C 87.77 272.89 91.10 258.48 96.98 246.98 C 102.85 235.47 109.82 222.59 115.00 211.00
C 131.72 173.58 145.58 123.88 102.00 98.00
C 93.64 93.03 81.70 90.53 72.00 90.00
C 72.00 90.00 72.24 90.81 72.00 91.00
M 73.00 122.00 
C 96.53 125.82 107.21 158.66 91.23 176.23 C 75.25 193.80 45.51 190.78 35.69 167.31 C 25.88 143.83 46.68 117.73 73.00 122.00 Z"/>
</g>
<g fill="#E0EBF3" fill-opacity="1.00" stroke="None">
<path d="
M 73.00 122.00 
C 46.68 117.73 25.88 143.83 35.69 167.31 C 45.51 190.78 75.25 193.80 91.23 176.23 C 107.21 158.66 96.53 125.82 73.00 122.00 Z"/>
</g>
<g fill="#000000" fill-opacity="0.00" stroke="None">
<path d="
M 0.00 512.00 
L 512.00 512.00
L 512.00 291.00
C 509.41 308.95 505.96 327.58 500.00 345.00
C 489.87 374.61 474.68 401.80 454.00 426.00
C 446.80 434.42 438.37 442.85 430.00 450.00
C 421.90 456.92 413.81 463.32 405.00 469.00
C 389.49 479.01 373.25 487.63 356.00 494.00
C 331.62 503.00 305.55 507.99 279.00 509.00
C 274.38 509.18 269.62 509.18 265.00 509.00
C 204.70 506.70 147.01 483.01 104.00 440.00
C 87.23 423.23 74.45 405.90 63.00 386.00
C 57.35 376.17 52.97 368.26 48.69 357.31 C 44.42 346.35 41.51 335.72 38.07 323.93 C 34.64 312.13 35.36 298.95 32.67 286.33 C 29.98 273.71 35.29 256.43 33.00 244.00
C 18.37 218.84 7.81 190.29 0.00 163.00
L 0.00 512.00 Z"/>
</g>
<g fill="#90DB5B" fill-opacity="1.00" stroke="None">
<path d="
M 78.00 282.00 
C 81.22 285.43 76.84 290.69 79.00 296.00 C 81.16 301.31 80.21 301.42 81.98 309.02 C 83.74 316.63 86.47 326.07 90.00 333.00
C 94.02 318.48 101.10 304.84 111.25 293.25 C 121.39 281.66 132.65 270.43 132.00 254.00 C 131.35 237.57 115.15 226.94 115.00 211.00
C 109.82 222.59 102.85 235.47 96.98 246.98 C 91.10 258.48 87.77 272.89 78.00 282.00 Z"/>
</g>
<g fill="#82C552" fill-opacity="0.99" stroke="None">
<path d="
M 63.00 386.00 
C 63.28 380.54 71.37 375.58 72.92 369.92 C 74.48 364.27 80.30 358.82 81.78 352.78 C 83.25 346.73 87.38 340.34 90.00 335.00
C 89.94 334.51 89.87 333.46 90.00 333.00
C 86.47 326.07 83.74 316.63 81.98 309.02 C 80.21 301.42 81.16 301.31 79.00 296.00 C 76.84 290.69 81.22 285.43 78.00 282.00
C 77.62 282.35 76.49 282.66 76.00 283.00
C 52.29 299.11 40.95 257.68 33.00 244.00
C 35.29 256.43 29.98 273.71 32.67 286.33 C 35.36 298.95 34.64 312.13 38.07 323.93 C 41.51 335.72 44.42 346.35 48.69 357.31 C 52.97 368.26 57.35 376.17 63.00 386.00 Z"/>
</g>
<g fill="#3D99E2" fill-opacity="0.59" stroke="None">
<path d="
M 512.00 261.00 
L 512.00 251.00
C 510.28 253.21 510.46 258.72 512.00 261.00 Z"/>
</g>
<g fill="#A46589" fill-opacity="1.00" stroke="None">
<path d="
M 208.00 272.00 
C 212.33 271.91 216.67 272.00 221.00 272.00
C 216.83 271.43 212.22 271.49 208.00 272.00 Z"/>
</g>
<g fill="#DC414D" fill-opacity="1.00" stroke="None">
<path d="
M 149.00 326.00 
C 148.92 329.99 148.92 334.01 149.00 338.00
C 149.08 341.83 149.26 345.37 150.00 349.00
C 153.19 364.68 161.70 380.76 167.77 395.23 C 173.84 409.70 182.71 425.45 188.77 439.23 C 194.83 453.01 205.13 475.97 224.00 465.00
C 202.75 431.69 191.45 398.12 175.02 361.98 C 158.60 325.83 180.34 272.78 225.00 272.00
C 223.68 271.91 222.32 272.00 221.00 272.00
C 216.67 272.00 212.33 271.91 208.00 272.00
C 178.87 272.58 149.61 295.50 149.00 326.00 Z"/>
</g>
<g fill="#F44856" fill-opacity="1.00" stroke="None">
<path d="
M 224.00 465.00 
C 232.51 460.05 234.59 449.94 238.92 441.92 C 243.26 433.91 248.30 424.09 252.00 416.00
C 262.89 392.18 280.00 365.02 280.00 338.00
C 280.00 333.68 280.16 329.32 280.00 325.00
C 278.93 296.95 252.15 273.92 225.00 272.00
C 180.34 272.78 158.60 325.83 175.02 361.98 C 191.45 398.12 202.75 431.69 224.00 465.00
M 247.00 331.00 
C 247.68 334.52 247.77 337.52 247.00 341.00
C 238.56 379.09 184.13 375.80 182.00 336.00 C 179.87 296.20 243.87 291.51 247.00 331.00 Z"/>
</g>
<g fill="#63B8A3" fill-opacity="1.00" stroke="None">
<path d="
M 448.00 284.00 
C 443.67 284.09 439.33 284.00 435.00 284.00
C 439.07 284.39 443.84 284.50 448.00 284.00 Z"/>
</g>
<g fill="#E0EBF3" fill-opacity="1.00" stroke="None">
<path d="
M 247.00 341.00 
C 247.32 337.85 247.25 334.15 247.00 331.00
C 243.87 291.51 179.87 296.20 182.00 336.00 C 184.13 375.80 238.56 379.09 247.00 341.00 Z"/>
</g>
<g fill="#B36588" fill-opacity="1.00" stroke="None">
<path d="
M 280.00 338.00 
C 280.40 333.90 280.60 329.22 280.00 325.00
C 280.16 329.32 280.00 333.68 280.00 338.00 Z"/>
</g>
<g fill="#A46689" fill-opacity="1.00" stroke="None">
<path d="
M 149.00 338.00 
C 148.92 334.01 148.92 329.99 149.00 326.00
C 148.54 329.83 148.53 334.11 149.00 338.00 Z"/>
</g>
<g fill="#EDA3AE" fill-opacity="1.00" stroke="None">
<path d="
M 247.00 341.00 
C 247.77 337.52 247.68 334.52 247.00 331.00
C 247.25 334.15 247.32 337.85 247.00 341.00 Z"/>
</g>
<g fill="#378BCB" fill-opacity="0.99" stroke="None">
<path d="
M 63.00 386.00 
C 74.45 405.90 87.23 423.23 104.00 440.00
C 103.37 433.58 111.86 425.92 112.92 418.92 C 113.99 411.93 121.17 404.29 122.00 397.00
C 114.48 375.94 92.96 358.36 90.00 335.00
C 87.38 340.34 83.25 346.73 81.78 352.78 C 80.30 358.82 74.48 364.27 72.92 369.92 C 71.37 375.58 63.28 380.54 63.00 386.00 Z"/>
</g>
<g fill="#8FDB5D" fill-opacity="0.99" stroke="None">
<path d="
M 401.00 434.00 
C 401.00 438.00 401.00 442.00 401.00 446.00
C 401.00 454.12 402.36 461.61 405.00 469.00
C 413.81 463.32 421.90 456.92 430.00 450.00
C 437.92 442.08 446.13 433.87 454.00 426.00
C 474.68 401.80 489.87 374.61 500.00 345.00
C 493.02 353.33 480.33 356.93 471.23 363.23 C 462.12 369.53 448.12 371.24 438.75 377.75 C 429.37 384.25 420.25 389.46 413.30 399.30 C 406.36 409.14 401.00 421.52 401.00 434.00 Z"/>
</g>
<g fill="#90DB5A" fill-opacity="1.00" stroke="None">
<path d="
M 123.00 397.00 
C 128.15 401.83 131.30 408.65 136.30 413.70 C 141.31 418.74 146.17 423.62 151.25 428.75 C 156.33 433.89 161.67 438.12 167.25 442.75 C 172.82 447.39 179.16 450.50 185.08 454.92 C 191.00 459.34 197.48 462.30 204.08 465.92 C 210.67 469.55 217.00 472.83 224.22 475.78 C 231.45 478.72 238.87 481.08 246.67 483.33 C 254.48 485.57 261.94 487.92 270.22 489.78 C 278.50 491.64 288.46 491.08 297.00 493.00 C 305.54 494.92 317.15 492.49 325.67 493.67 C 334.19 494.85 346.22 487.85 354.00 491.00
C 350.94 486.75 348.17 481.95 343.75 478.25 C 339.34 474.54 335.69 471.30 330.22 469.78 C 324.75 468.25 319.47 465.46 314.03 463.98 C 308.58 462.49 304.47 459.43 300.25 455.75 C 296.03 452.07 294.31 446.61 291.77 442.23 C 289.23 437.85 286.08 432.70 282.75 429.25 C 279.42 425.80 274.92 419.76 270.02 419.98 C 265.12 420.19 256.29 414.39 252.00 416.00
C 248.30 424.09 243.26 433.91 238.92 441.92 C 234.59 449.94 232.51 460.05 224.00 465.00
C 205.13 475.97 194.83 453.01 188.77 439.23 C 182.71 425.45 173.84 409.70 167.77 395.23 C 161.70 380.76 153.19 364.68 150.00 349.00
C 148.35 356.97 138.13 364.05 135.31 372.31 C 132.48 380.56 126.10 388.75 123.00 397.00 Z"/>
</g>
<g fill="#82C652" fill-opacity="0.98" stroke="None">
<path d="
M 104.00 440.00 
C 147.01 483.01 204.70 506.70 265.00 509.00
C 269.16 508.76 274.91 508.76 279.00 509.00
C 305.55 507.99 331.62 503.00 356.00 494.00
C 356.73 492.21 354.65 491.90 354.00 491.00
C 346.22 487.85 334.19 494.85 325.67 493.67 C 317.15 492.49 305.54 494.92 297.00 493.00 C 288.46 491.08 278.50 491.64 270.22 489.78 C 261.94 487.92 254.48 485.57 246.67 483.33 C 238.87 481.08 231.45 478.72 224.22 475.78 C 217.00 472.83 210.67 469.55 204.08 465.92 C 197.48 462.30 191.00 459.34 185.08 454.92 C 179.16 450.50 172.82 447.39 167.25 442.75 C 161.67 438.12 156.33 433.89 151.25 428.75 C 146.17 423.62 141.31 418.74 136.30 413.70 C 131.30 408.65 128.15 401.83 123.00 397.00
C 123.00 397.00 122.06 397.16 122.00 397.00
C 121.17 404.29 113.99 411.93 112.92 418.92 C 111.86 425.92 103.37 433.58 104.00 440.00 Z"/>
</g>
<g fill="#65BFA2" fill-opacity="0.35" stroke="None">
<path d="
M 430.00 450.00 
C 438.37 442.85 446.80 434.42 454.00 426.00
C 446.13 433.87 437.92 442.08 430.00 450.00 Z"/>
</g>
<g fill="#66BA9F" fill-opacity="1.00" stroke="None">
<path d="
M 401.00 446.00 
C 401.00 442.00 401.00 438.00 401.00 434.00
C 400.64 437.71 400.63 442.23 401.00 446.00 Z"/>
</g>
<g fill="#77C275" fill-opacity="0.66" stroke="None">
<path d="
M 265.00 509.00 
C 269.62 509.18 274.38 509.18 279.00 509.00
C 274.91 508.76 269.16 508.76 265.00 509.00 Z"/>
</g>
</svg>