<svg xmlns="http://www.w3.org/2000/svg" xmlns:v="https://svgstorm.com"
viewBox = "0 0 512 512"
width="512"
height="512">
<g fill="None" fill-opacity="0.0" stroke="#000000" stroke-opacity="0.00" stroke-width="0.3"><path d="
M 0.00 512.00 
L 263.00 512.00
C 206.52 504.72 157.87 481.31 118.75 436.25 C 79.64 391.18 62.91 328.22 70.00 268.00
C 72.72 244.88 79.21 222.96 89.00 202.00
C 85.26 200.75 81.73 197.47 79.00 195.00
C 70.21 201.53 68.30 228.81 52.33 223.67 C 36.35 218.53 50.71 191.17 50.00 180.00
C 44.83 174.41 37.36 171.40 37.00 163.00 C 36.64 154.60 48.72 150.55 54.00 158.00
C 57.42 148.29 55.26 143.47 47.25 136.75 C 39.24 130.04 50.93 116.04 60.00 123.00
C 62.17 111.72 63.97 100.34 66.00 89.00
C 54.29 76.55 39.33 65.45 29.25 51.75 C 19.16 38.05 5.07 15.17 17.00 0.00
L 0.00 0.00
L 0.00 512.00 Z"/>
</g>
<g fill="None" fill-opacity="0.0" stroke="#5A5F63" stroke-opacity="0.98" stroke-width="0.3"><path d="
M 89.00 202.00 
C 90.85 202.62 93.03 202.65 95.00 203.00
C 94.74 200.22 92.21 198.11 93.00 195.00
C 91.30 191.45 84.33 187.81 85.34 183.32 C 86.35 178.83 91.54 174.46 93.00 170.00
C 96.51 171.64 100.18 174.43 103.00 177.00
C 104.56 177.65 108.92 177.30 111.00 179.00
C 110.82 175.74 107.54 173.47 108.00 170.00
C 105.74 164.88 97.05 158.64 102.75 153.75 C 108.46 148.87 106.50 139.16 113.00 136.00
C 115.49 134.79 124.83 146.47 127.00 149.00
C 130.13 152.66 133.62 156.69 137.00 160.00
C 137.97 160.95 139.09 162.08 140.00 163.00
C 146.64 169.77 147.04 170.66 145.00 180.00
C 142.31 192.32 138.83 204.18 138.00 217.00 C 137.17 229.82 154.00 235.62 163.00 228.00
C 168.20 223.60 168.62 214.15 172.31 209.31 C 175.99 204.46 175.35 190.81 183.01 191.01 C 190.67 191.21 200.24 190.81 207.00 194.00
C 205.58 191.04 203.08 188.70 204.00 185.00
C 203.70 181.10 203.85 176.91 204.00 173.00
C 204.39 162.68 216.88 162.94 224.02 159.02 C 231.17 155.11 241.84 153.70 244.00 145.00
C 245.30 139.76 243.18 131.40 239.00 128.00
C 234.41 124.27 227.49 124.84 222.00 126.00
C 208.65 128.81 195.44 132.38 182.00 135.00
C 177.17 128.10 168.63 123.36 165.00 116.00
C 160.22 110.18 151.94 105.97 149.00 99.00
C 157.16 96.26 164.03 90.11 172.00 87.00
C 177.14 92.91 184.50 97.23 192.00 99.00
C 190.82 91.85 186.00 85.90 182.00 80.00
C 187.82 78.58 192.37 73.80 198.00 72.00
C 202.82 77.63 209.68 81.96 217.00 83.00
C 215.66 76.30 210.50 71.13 208.00 65.00
C 216.38 63.22 221.09 55.88 229.23 53.23 C 237.37 50.58 239.55 34.01 229.30 32.70 C 219.06 31.38 210.46 33.86 200.00 36.00 C 189.53 38.13 188.04 29.81 179.30 24.70 C 170.56 19.58 161.64 35.55 170.00 42.00
C 159.94 45.40 155.49 39.93 148.30 33.70 C 141.12 27.47 128.47 39.17 136.00 47.00
C 122.96 49.26 104.44 57.29 94.75 46.25 C 85.07 35.20 77.44 29.18 67.30 19.70 C 57.16 10.21 44.29 4.64 32.00 0.00
L 17.00 0.00
C 5.07 15.17 19.16 38.05 29.25 51.75 C 39.33 65.45 54.29 76.55 66.00 89.00
C 63.97 100.34 62.17 111.72 60.00 123.00
C 50.93 116.04 39.24 130.04 47.25 136.75 C 55.26 143.47 57.42 148.29 54.00 158.00
C 48.72 150.55 36.64 154.60 37.00 163.00 C 37.36 171.40 44.83 174.41 50.00 180.00
C 50.71 191.17 36.35 218.53 52.33 223.67 C 68.30 228.81 70.21 201.53 79.00 195.00
C 81.73 197.47 85.26 200.75 89.00 202.00 Z"/>
</g>
<g fill="None" fill-opacity="0.0" stroke="#000000" stroke-opacity="0.00" stroke-width="0.3"><path d="
M 165.00 116.00 
C 166.08 111.33 177.00 109.64 181.08 106.08 C 185.16 102.53 193.73 100.08 199.23 97.23 C 204.73 94.38 212.74 92.37 219.07 90.07 C 225.41 87.78 232.85 86.12 240.01 85.01 C 247.17 83.90 255.28 80.92 263.02 81.02 C 270.76 81.13 281.24 79.19 289.00 80.00 C 296.76 80.81 305.45 80.95 313.00 82.00 C 320.55 83.05 328.50 84.76 335.67 86.33 C 342.84 87.90 349.63 90.48 356.22 92.78 C 362.82 95.07 368.77 97.11 374.69 100.31 C 380.62 103.50 387.01 105.87 392.69 109.31 C 398.38 112.74 403.83 116.15 409.08 119.92 C 414.33 123.68 418.82 127.26 423.70 131.30 C 428.57 135.35 433.10 139.98 437.75 144.25 C 442.41 148.51 446.06 154.30 450.00 159.00
C 481.05 196.07 496.72 239.74 500.00 288.00
C 500.47 294.97 499.84 302.80 499.00 309.00
C 499.00 310.33 499.00 311.67 499.00 313.00
C 499.00 414.96 401.18 504.29 304.00 512.00
L 512.00 512.00
L 512.00 0.00
L 32.00 0.00
C 44.29 4.64 57.16 10.21 67.30 19.70 C 77.44 29.18 85.07 35.20 94.75 46.25 C 104.44 57.29 122.96 49.26 136.00 47.00
C 128.47 39.17 141.12 27.47 148.30 33.70 C 155.49 39.93 159.94 45.40 170.00 42.00
C 161.64 35.55 170.56 19.58 179.30 24.70 C 188.04 29.81 189.53 38.13 200.00 36.00 C 210.46 33.86 219.06 31.38 229.30 32.70 C 239.55 34.01 237.37 50.58 229.23 53.23 C 221.09 55.88 216.38 63.22 208.00 65.00
C 210.50 71.13 215.66 76.30 217.00 83.00
C 209.68 81.96 202.82 77.63 198.00 72.00
C 192.37 73.80 187.82 78.58 182.00 80.00
C 186.00 85.90 190.82 91.85 192.00 99.00
C 184.50 97.23 177.14 92.91 172.00 87.00
C 164.03 90.11 157.16 96.26 149.00 99.00
C 151.94 105.97 160.22 110.18 165.00 116.00 Z"/>
</g>
<g fill="None" fill-opacity="0.0" stroke="#6EAFDE" stroke-opacity="0.98" stroke-width="0.3"><path d="
M 165.00 116.00 
C 168.63 123.36 177.17 128.10 182.00 135.00
C 195.44 132.38 208.65 128.81 222.00 126.00
C 220.82 119.18 225.85 119.17 230.69 116.69 C 235.54 114.22 230.16 108.26 229.00 105.00
C 225.33 105.00 221.67 105.00 218.00 105.00
C 230.92 93.85 247.78 94.16 265.00 95.00 C 282.22 95.84 302.65 94.57 319.00 98.00
C 310.26 100.84 302.78 107.59 293.00 107.00
C 292.51 109.80 295.31 112.83 298.00 113.00
C 289.13 118.21 274.51 111.65 265.77 117.77 C 257.03 123.90 245.67 117.96 239.00 128.00
C 243.18 131.40 245.30 139.76 244.00 145.00
C 246.22 149.85 256.11 151.65 259.75 156.25 C 263.38 160.86 270.72 163.60 275.08 167.92 C 279.44 172.24 285.10 176.01 289.75 180.25 C 294.40 184.49 300.34 188.65 305.00 193.00
C 304.28 187.50 312.57 183.70 317.00 183.00 C 321.43 182.30 331.56 188.93 332.97 182.97 C 334.38 177.01 327.92 173.18 325.00 169.00
C 338.97 165.11 352.03 157.95 366.00 154.00
C 367.41 146.71 346.33 145.40 353.31 137.31 C 360.28 129.21 368.74 133.20 376.68 128.68 C 384.61 124.16 395.97 130.61 402.69 133.31 C 409.42 136.00 421.17 141.72 415.00 150.00
C 421.18 147.77 430.12 148.90 435.69 151.31 C 441.27 153.72 444.40 160.85 450.00 159.00
C 446.06 154.30 442.41 148.51 437.75 144.25 C 433.10 139.98 428.57 135.35 423.70 131.30 C 418.82 127.26 414.33 123.68 409.08 119.92 C 403.83 116.15 398.38 112.74 392.69 109.31 C 387.01 105.87 380.62 103.50 374.69 100.31 C 368.77 97.11 362.82 95.07 356.22 92.78 C 349.63 90.48 342.84 87.90 335.67 86.33 C 328.50 84.76 320.55 83.05 313.00 82.00 C 305.45 80.95 296.76 80.81 289.00 80.00 C 281.24 79.19 270.76 81.13 263.02 81.02 C 255.28 80.92 247.17 83.90 240.01 85.01 C 232.85 86.12 225.41 87.78 219.07 90.07 C 212.74 92.37 204.73 94.38 199.23 97.23 C 193.73 100.08 185.16 102.53 181.08 106.08 C 177.00 109.64 166.08 111.33 165.00 116.00
M 201.00 118.00 
C 201.84 121.93 200.64 125.33 196.00 124.00
C 195.51 131.50 191.62 132.09 184.78 132.78 C 177.94 133.46 179.51 122.19 187.00 125.00
C 187.26 117.28 194.92 115.93 201.00 118.00
M 296.00 124.00 
C 294.59 130.60 282.81 130.63 279.00 127.00
C 284.58 125.81 289.74 122.81 296.00 124.00 Z"/>
</g>
<g fill="None" fill-opacity="0.0" stroke="#E6EDF2" stroke-opacity="1.00" stroke-width="0.3"><path d="
M 222.00 126.00 
C 227.49 124.84 234.41 124.27 239.00 128.00
C 245.67 117.96 257.03 123.90 265.77 117.77 C 274.51 111.65 289.13 118.21 298.00 113.00
C 295.31 112.83 292.51 109.80 293.00 107.00
C 302.78 107.59 310.26 100.84 319.00 98.00
C 302.65 94.57 282.22 95.84 265.00 95.00 C 247.78 94.16 230.92 93.85 218.00 105.00
C 221.67 105.00 225.33 105.00 229.00 105.00
C 230.16 108.26 235.54 114.22 230.69 116.69 C 225.85 119.17 220.82 119.18 222.00 126.00 Z"/>
</g>
<g fill="None" fill-opacity="0.0" stroke="#E4ECF2" stroke-opacity="1.00" stroke-width="0.3"><path d="
M 201.00 118.00 
C 194.92 115.93 187.26 117.28 187.00 125.00
C 179.51 122.19 177.94 133.46 184.78 132.78 C 191.62 132.09 195.51 131.50 196.00 124.00
C 200.64 125.33 201.84 121.93 201.00 118.00 Z"/>
</g>
<g fill="None" fill-opacity="0.0" stroke="#E0EBF1" stroke-opacity="1.00" stroke-width="0.3"><path d="
M 296.00 124.00 
C 289.74 122.81 284.58 125.81 279.00 127.00
C 282.81 130.63 294.59 130.60 296.00 124.00 Z"/>
</g>
<g fill="None" fill-opacity="0.0" stroke="#E6EEF2" stroke-opacity="1.00" stroke-width="0.3"><path d="
M 305.00 193.00 
C 309.78 197.46 315.27 202.27 320.00 207.00
C 322.98 207.63 328.48 204.45 332.00 206.00
C 334.17 194.10 349.33 185.55 360.67 187.33 C 372.01 189.11 377.65 209.99 389.00 202.00
C 390.73 204.92 394.09 206.65 395.00 210.00
C 399.09 207.32 401.83 209.07 402.00 214.00
C 403.51 212.32 404.19 209.50 404.00 207.00
C 414.11 208.43 419.39 205.36 416.23 195.77 C 413.07 186.18 430.50 191.18 430.00 198.00
C 430.40 195.70 430.46 192.63 432.00 191.00
C 435.12 197.96 438.51 205.44 443.00 212.00
C 433.41 210.89 423.24 210.12 414.00 213.00
C 416.39 220.39 423.35 219.89 430.00 221.00 C 436.65 222.11 434.64 234.81 435.00 240.00
C 423.40 233.54 406.71 238.32 398.00 227.00
C 396.40 230.14 394.78 233.31 395.00 237.00
C 388.76 235.35 380.42 232.31 379.00 225.00
C 369.98 227.17 364.40 218.67 364.00 211.00
C 351.07 210.29 338.78 212.07 326.00 212.00
C 329.31 216.73 334.30 220.66 338.00 225.00
C 381.93 276.41 427.90 331.00 423.00 403.00
C 427.46 393.36 436.08 385.48 439.77 374.77 C 443.47 364.06 450.02 353.88 454.31 343.31 C 458.59 332.73 465.13 322.76 469.00 312.00
C 458.32 318.92 454.53 307.17 448.75 300.25 C 442.97 293.34 439.94 282.84 439.07 273.93 C 438.20 265.01 425.46 255.47 435.00 247.00
C 443.22 265.15 452.15 283.05 458.00 302.00
C 464.21 297.47 471.24 294.94 477.75 290.75 C 484.26 286.56 482.26 270.72 476.75 268.25 C 471.24 265.77 456.74 258.24 464.25 253.25 C 471.76 248.26 477.47 261.67 483.75 264.25 C 490.03 266.84 493.36 278.47 494.78 285.22 C 496.19 291.97 495.91 306.54 499.00 313.00
C 499.00 311.67 499.00 310.33 499.00 309.00
C 499.00 302.09 499.82 294.12 500.00 288.00
C 496.72 239.74 481.05 196.07 450.00 159.00
C 444.40 160.85 441.27 153.72 435.69 151.31 C 430.12 148.90 421.18 147.77 415.00 150.00
C 421.17 141.72 409.42 136.00 402.69 133.31 C 395.97 130.61 384.61 124.16 376.68 128.68 C 368.74 133.20 360.28 129.21 353.31 137.31 C 346.33 145.40 367.41 146.71 366.00 154.00
C 352.03 157.95 338.97 165.11 325.00 169.00
C 327.92 173.18 334.38 177.01 332.97 182.97 C 331.56 188.93 321.43 182.30 317.00 183.00 C 312.57 183.70 304.28 187.50 305.00 193.00
M 456.00 197.00 
C 458.38 201.25 460.19 205.69 457.00 210.00
C 460.79 212.95 474.55 218.48 466.00 223.00
C 471.05 229.83 466.96 233.98 461.25 228.75 C 455.54 223.53 460.38 216.36 454.75 212.25 C 449.12 208.13 448.86 197.65 456.00 197.00 Z"/>
</g>
<g fill="None" fill-opacity="0.0" stroke="#5A5E63" stroke-opacity="0.84" stroke-width="0.3"><path d="
M 113.00 136.00 
C 117.38 140.04 122.59 144.11 126.00 149.00
C 126.50 149.00 127.00 149.00 127.00 149.00
C 124.83 146.47 115.49 134.79 113.00 136.00 Z"/>
</g>
<g fill="None" fill-opacity="0.0" stroke="#000000" stroke-opacity="0.00" stroke-width="0.3"><path d="
M 108.00 170.00 
C 108.59 166.86 114.20 162.20 116.30 159.30 C 118.40 156.41 122.42 151.42 125.00 149.00
C 121.64 144.19 116.31 140.77 113.00 136.00
C 106.50 139.16 108.46 148.87 102.75 153.75 C 97.05 158.64 105.74 164.88 108.00 170.00 Z"/>
</g>
<g fill="None" fill-opacity="0.0" stroke="#586262" stroke-opacity="0.10" stroke-width="0.3"><path d="
M 125.00 149.00 
C 125.16 149.23 126.00 149.00 126.00 149.00
C 122.59 144.11 117.38 140.04 113.00 136.00
C 116.31 140.77 121.64 144.19 125.00 149.00 Z"/>
</g>
<g fill="None" fill-opacity="0.0" stroke="#FED83C" stroke-opacity="1.00" stroke-width="0.3"><path d="
M 204.00 173.00 
C 204.20 176.37 204.07 181.76 204.00 185.00
C 203.08 188.70 205.58 191.04 207.00 194.00
C 200.24 190.81 190.67 191.21 183.01 191.01 C 175.35 190.81 175.99 204.46 172.31 209.31 C 168.62 214.15 168.20 223.60 163.00 228.00
C 171.39 227.79 179.34 238.77 187.25 241.75 C 195.16 244.74 203.42 251.70 211.08 255.92 C 218.73 260.15 226.28 266.45 233.75 271.25 C 241.22 276.06 248.72 281.61 255.75 287.25 C 262.78 292.89 271.45 297.54 277.00 305.00
C 285.04 311.60 293.33 318.33 301.00 326.00
C 323.88 348.88 344.32 370.95 357.00 400.00
C 363.59 415.09 369.20 431.42 368.00 449.00
C 366.67 468.51 359.17 486.71 347.00 502.00
C 387.40 486.42 418.91 445.92 423.00 403.00
C 427.90 331.00 381.93 276.41 338.00 225.00
C 333.75 220.75 329.20 216.20 325.00 212.00
C 322.75 210.90 321.61 208.61 320.00 207.00
C 315.27 202.27 309.78 197.46 305.00 193.00
C 300.34 188.65 294.40 184.49 289.75 180.25 C 285.10 176.01 279.44 172.24 275.08 167.92 C 270.72 163.60 263.38 160.86 259.75 156.25 C 256.11 151.65 246.22 149.85 244.00 145.00
C 241.84 153.70 231.17 155.11 224.02 159.02 C 216.88 162.94 204.39 162.68 204.00 173.00
M 388.00 461.00 
C 388.46 449.86 390.89 434.47 390.00 422.00 C 389.11 409.53 385.91 396.65 382.69 385.31 C 379.48 373.96 375.18 363.93 370.23 353.77 C 365.27 343.61 360.86 334.22 355.08 324.92 C 349.29 315.63 342.89 307.99 336.75 299.25 C 330.60 290.52 323.13 283.96 316.25 275.75 C 309.37 267.55 302.46 261.16 294.75 253.25 C 287.04 245.34 280.42 239.50 271.92 232.08 C 263.41 224.67 257.33 219.85 247.77 212.23 C 238.21 204.61 233.93 202.13 222.25 193.75 C 210.58 185.36 224.83 172.39 234.23 182.77 C 243.63 193.15 250.52 193.38 258.75 202.25 C 266.98 211.12 274.26 214.86 281.75 223.25 C 289.25 231.63 296.65 237.10 303.75 245.25 C 310.85 253.40 317.67 260.35 324.25 268.75 C 330.83 277.15 337.44 284.51 343.75 293.25 C 350.06 301.98 355.05 310.77 360.77 320.23 C 366.49 329.69 370.53 339.22 375.32 349.68 C 380.11 360.14 383.44 370.89 386.33 382.67 C 389.22 394.45 392.23 407.83 392.00 421.00 C 391.77 434.17 391.55 448.53 388.00 461.00 Z"/>
</g>
<g fill="None" fill-opacity="0.0" stroke="#E6EEF2" stroke-opacity="1.00" stroke-width="0.3"><path d="
M 108.00 170.00 
C 107.54 173.47 110.82 175.74 111.00 179.00
C 108.92 177.30 104.56 177.65 103.00 177.00
C 100.56 178.62 93.37 191.80 93.00 195.00
C 92.21 198.11 94.74 200.22 95.00 203.00
C 93.03 202.65 90.85 202.62 89.00 202.00
C 79.21 222.96 72.72 244.88 70.00 268.00
C 70.39 267.62 72.53 267.72 73.00 267.00
C 73.31 275.44 82.88 278.86 83.78 287.22 C 84.67 295.58 95.80 299.76 93.00 309.00 C 90.20 318.24 92.39 325.16 88.75 332.75 C 85.11 340.34 94.76 346.99 96.92 354.08 C 99.09 361.16 101.67 370.46 106.25 376.75 C 110.84 383.03 116.06 387.84 118.78 395.22 C 121.49 402.61 122.61 412.61 124.93 420.07 C 127.24 427.53 130.71 435.73 134.77 442.23 C 138.83 448.72 142.84 454.45 148.25 459.75 C 153.66 465.05 159.40 472.86 167.00 471.00
C 155.54 468.26 141.25 443.01 160.00 442.00
C 159.36 438.09 158.44 434.73 164.00 436.00
C 168.97 429.70 165.35 413.97 176.03 412.03 C 186.70 410.08 192.06 402.53 192.33 391.33 C 192.60 380.13 196.46 374.06 202.30 364.30 C 208.15 354.55 190.49 351.92 190.00 343.00
C 184.30 342.49 178.77 341.29 173.00 341.00
C 172.87 334.66 163.46 332.06 159.00 336.00
C 159.46 329.14 152.81 333.43 150.00 335.00
C 150.10 331.88 152.54 329.01 156.00 330.00
C 159.11 323.04 157.04 310.90 148.78 309.22 C 140.51 307.55 134.48 304.68 130.70 297.30 C 126.91 289.92 119.43 288.55 112.31 285.69 C 105.18 282.84 98.74 294.28 91.00 293.00
C 87.57 286.85 91.64 278.39 87.25 272.75 C 82.85 267.12 87.42 259.56 88.00 253.00
C 79.79 252.31 82.79 265.45 75.00 265.00
C 75.68 252.35 82.36 241.40 87.00 230.00
C 92.40 234.06 92.28 223.73 100.00 225.00 C 107.73 226.27 107.52 218.80 113.25 215.25 C 118.98 211.70 120.18 207.30 120.00 201.00 C 119.82 194.70 131.64 196.22 134.69 192.69 C 137.75 189.17 141.46 183.19 145.00 180.00
C 147.04 170.66 146.64 169.77 140.00 163.00
C 140.13 164.23 137.94 165.26 137.00 165.00
C 137.00 163.33 137.00 161.67 137.00 160.00
C 133.62 156.69 130.13 152.66 127.00 149.00
C 127.00 149.00 126.50 149.00 126.00 149.00
C 126.00 149.00 125.16 149.23 125.00 149.00
C 122.42 151.42 118.40 156.41 116.30 159.30 C 114.20 162.20 108.59 166.86 108.00 170.00 Z"/>
</g>
<g fill="None" fill-opacity="0.0" stroke="#84B9DF" stroke-opacity="1.00" stroke-width="0.3"><path d="
M 140.00 163.00 
C 139.09 162.08 137.97 160.95 137.00 160.00
C 137.00 161.67 137.00 163.33 137.00 165.00
C 137.94 165.26 140.13 164.23 140.00 163.00 Z"/>
</g>
<g fill="None" fill-opacity="0.0" stroke="#000000" stroke-opacity="0.00" stroke-width="0.3"><path d="
M 93.00 195.00 
C 93.37 191.80 100.56 178.62 103.00 177.00
C 100.18 174.43 96.51 171.64 93.00 170.00
C 91.54 174.46 86.35 178.83 85.34 183.32 C 84.33 187.81 91.30 191.45 93.00 195.00 Z"/>
</g>
<g fill="None" fill-opacity="0.0" stroke="#A69750" stroke-opacity="1.00" stroke-width="0.3"><path d="
M 204.00 185.00 
C 204.07 181.76 204.20 176.37 204.00 173.00
C 203.85 176.91 203.70 181.10 204.00 185.00 Z"/>
</g>
<g fill="None" fill-opacity="0.0" stroke="#E9B12C" stroke-opacity="1.00" stroke-width="0.3"><path d="
M 388.00 461.00 
C 391.55 448.53 391.77 434.17 392.00 421.00 C 392.23 407.83 389.22 394.45 386.33 382.67 C 383.44 370.89 380.11 360.14 375.32 349.68 C 370.53 339.22 366.49 329.69 360.77 320.23 C 355.05 310.77 350.06 301.98 343.75 293.25 C 337.44 284.51 330.83 277.15 324.25 268.75 C 317.67 260.35 310.85 253.40 303.75 245.25 C 296.65 237.10 289.25 231.63 281.75 223.25 C 274.26 214.86 266.98 211.12 258.75 202.25 C 250.52 193.38 243.63 193.15 234.23 182.77 C 224.83 172.39 210.58 185.36 222.25 193.75 C 233.93 202.13 238.21 204.61 247.77 212.23 C 257.33 219.85 263.41 224.67 271.92 232.08 C 280.42 239.50 287.04 245.34 294.75 253.25 C 302.46 261.16 309.37 267.55 316.25 275.75 C 323.13 283.96 330.60 290.52 336.75 299.25 C 342.89 307.99 349.29 315.63 355.08 324.92 C 360.86 334.22 365.27 343.61 370.23 353.77 C 375.18 363.93 379.48 373.96 382.69 385.31 C 385.91 396.65 389.11 409.53 390.00 422.00 C 390.89 434.47 388.46 449.86 388.00 461.00 Z"/>
</g>
<g fill="None" fill-opacity="0.0" stroke="#6DAFDF" stroke-opacity="0.99" stroke-width="0.3"><path d="
M 70.00 268.00 
C 62.91 328.22 79.64 391.18 118.75 436.25 C 157.87 481.31 206.52 504.72 263.00 512.00
L 270.00 512.00
C 272.28 510.46 277.79 510.28 280.00 512.00
L 304.00 512.00
C 401.18 504.29 499.00 414.96 499.00 313.00
C 495.91 306.54 496.19 291.97 494.78 285.22 C 493.36 278.47 490.03 266.84 483.75 264.25 C 477.47 261.67 471.76 248.26 464.25 253.25 C 456.74 258.24 471.24 265.77 476.75 268.25 C 482.26 270.72 484.26 286.56 477.75 290.75 C 471.24 294.94 464.21 297.47 458.00 302.00
C 452.15 283.05 443.22 265.15 435.00 247.00
C 425.46 255.47 438.20 265.01 439.07 273.93 C 439.94 282.84 442.97 293.34 448.75 300.25 C 454.53 307.17 458.32 318.92 469.00 312.00
C 465.13 322.76 458.59 332.73 454.31 343.31 C 450.02 353.88 443.47 364.06 439.77 374.77 C 436.08 385.48 427.46 393.36 423.00 403.00
C 418.91 445.92 387.40 486.42 347.00 502.00
C 359.17 486.71 366.67 468.51 368.00 449.00
C 367.28 441.47 363.65 433.26 361.67 425.33 C 359.69 417.40 358.49 408.33 357.00 400.00
C 344.32 370.95 323.88 348.88 301.00 326.00
C 295.68 323.78 290.59 323.26 287.08 317.92 C 283.57 312.57 280.62 309.86 277.00 305.00
C 271.45 297.54 262.78 292.89 255.75 287.25 C 248.72 281.61 241.22 276.06 233.75 271.25 C 226.28 266.45 218.73 260.15 211.08 255.92 C 203.42 251.70 195.16 244.74 187.25 241.75 C 179.34 238.77 171.39 227.79 163.00 228.00
C 154.00 235.62 137.17 229.82 138.00 217.00 C 138.83 204.18 142.31 192.32 145.00 180.00
C 141.46 183.19 137.75 189.17 134.69 192.69 C 131.64 196.22 119.82 194.70 120.00 201.00 C 120.18 207.30 118.98 211.70 113.25 215.25 C 107.52 218.80 107.73 226.27 100.00 225.00 C 92.28 223.73 92.40 234.06 87.00 230.00
C 82.36 241.40 75.68 252.35 75.00 265.00
C 82.79 265.45 79.79 252.31 88.00 253.00
C 87.42 259.56 82.85 267.12 87.25 272.75 C 91.64 278.39 87.57 286.85 91.00 293.00
C 98.74 294.28 105.18 282.84 112.31 285.69 C 119.43 288.55 126.91 289.92 130.70 297.30 C 134.48 304.68 140.51 307.55 148.78 309.22 C 157.04 310.90 159.11 323.04 156.00 330.00
C 152.54 329.01 150.10 331.88 150.00 335.00
C 152.81 333.43 159.46 329.14 159.00 336.00
C 163.46 332.06 172.87 334.66 173.00 341.00
C 178.77 341.29 184.30 342.49 190.00 343.00
C 190.49 351.92 208.15 354.55 202.30 364.30 C 196.46 374.06 192.60 380.13 192.33 391.33 C 192.06 402.53 186.70 410.08 176.03 412.03 C 165.35 413.97 168.97 429.70 164.00 436.00
C 158.44 434.73 159.36 438.09 160.00 442.00
C 141.25 443.01 155.54 468.26 167.00 471.00
C 159.40 472.86 153.66 465.05 148.25 459.75 C 142.84 454.45 138.83 448.72 134.77 442.23 C 130.71 435.73 127.24 427.53 124.93 420.07 C 122.61 412.61 121.49 402.61 118.78 395.22 C 116.06 387.84 110.84 383.03 106.25 376.75 C 101.67 370.46 99.09 361.16 96.92 354.08 C 94.76 346.99 85.11 340.34 88.75 332.75 C 92.39 325.16 90.20 318.24 93.00 309.00 C 95.80 299.76 84.67 295.58 83.78 287.22 C 82.88 278.86 73.31 275.44 73.00 267.00
C 72.53 267.72 70.39 267.62 70.00 268.00
M 455.00 383.00 
C 466.07 388.59 454.46 394.79 453.03 402.03 C 451.60 409.26 452.88 424.11 440.00 421.00 C 427.12 417.89 442.81 409.75 442.00 402.00 C 441.19 394.24 457.00 393.36 455.00 383.00 Z"/>
</g>
<g fill="None" fill-opacity="0.0" stroke="#6FB0DF" stroke-opacity="1.00" stroke-width="0.3"><path d="
M 320.00 207.00 
C 321.61 208.61 322.75 210.90 325.00 212.00
C 325.40 212.20 326.00 212.00 326.00 212.00
C 338.78 212.07 351.07 210.29 364.00 211.00
C 364.40 218.67 369.98 227.17 379.00 225.00
C 380.42 232.31 388.76 235.35 395.00 237.00
C 394.78 233.31 396.40 230.14 398.00 227.00
C 406.71 238.32 423.40 233.54 435.00 240.00
C 434.64 234.81 436.65 222.11 430.00 221.00 C 423.35 219.89 416.39 220.39 414.00 213.00
C 423.24 210.12 433.41 210.89 443.00 212.00
C 438.51 205.44 435.12 197.96 432.00 191.00
C 430.46 192.63 430.40 195.70 430.00 198.00
C 430.50 191.18 413.07 186.18 416.23 195.77 C 419.39 205.36 414.11 208.43 404.00 207.00
C 404.19 209.50 403.51 212.32 402.00 214.00
C 401.83 209.07 399.09 207.32 395.00 210.00
C 394.09 206.65 390.73 204.92 389.00 202.00
C 377.65 209.99 372.01 189.11 360.67 187.33 C 349.33 185.55 334.17 194.10 332.00 206.00
C 328.48 204.45 322.98 207.63 320.00 207.00 Z"/>
</g>
<g fill="None" fill-opacity="0.0" stroke="#73B2E0" stroke-opacity="1.00" stroke-width="0.3"><path d="
M 456.00 197.00 
C 448.86 197.65 449.12 208.13 454.75 212.25 C 460.38 216.36 455.54 223.53 461.25 228.75 C 466.96 233.98 471.05 229.83 466.00 223.00
C 474.55 218.48 460.79 212.95 457.00 210.00
C 460.19 205.69 458.38 201.25 456.00 197.00 Z"/>
</g>
<g fill="None" fill-opacity="0.0" stroke="#EDE8BC" stroke-opacity="1.00" stroke-width="0.3"><path d="
M 338.00 225.00 
C 334.30 220.66 329.31 216.73 326.00 212.00
C 326.00 212.00 325.40 212.20 325.00 212.00
C 329.20 216.20 333.75 220.75 338.00 225.00 Z"/>
</g>
<g fill="None" fill-opacity="0.0" stroke="#A8CCE8" stroke-opacity="0.39" stroke-width="0.3"><path d="
M 499.00 309.00 
C 499.84 302.80 500.47 294.97 500.00 288.00
C 499.82 294.12 499.00 302.09 499.00 309.00 Z"/>
</g>
<g fill="None" fill-opacity="0.0" stroke="#E3ECEF" stroke-opacity="1.00" stroke-width="0.3"><path d="
M 301.00 326.00 
C 293.33 318.33 285.04 311.60 277.00 305.00
C 280.62 309.86 283.57 312.57 287.08 317.92 C 290.59 323.26 295.68 323.78 301.00 326.00 Z"/>
</g>
<g fill="None" fill-opacity="0.0" stroke="#E4EDF2" stroke-opacity="1.00" stroke-width="0.3"><path d="
M 455.00 383.00 
C 457.00 393.36 441.19 394.24 442.00 402.00 C 442.81 409.75 427.12 417.89 440.00 421.00 C 452.88 424.11 451.60 409.26 453.03 402.03 C 454.46 394.79 466.07 388.59 455.00 383.00 Z"/>
</g>
<g fill="None" fill-opacity="0.0" stroke="#E5EDEF" stroke-opacity="1.00" stroke-width="0.3"><path d="
M 368.00 449.00 
C 369.20 431.42 363.59 415.09 357.00 400.00
C 358.49 408.33 359.69 417.40 361.67 425.33 C 363.65 433.26 367.28 441.47 368.00 449.00 Z"/>
</g>
<g fill="None" fill-opacity="0.0" stroke="#6CAEDF" stroke-opacity="0.75" stroke-width="0.3"><path d="
M 270.00 512.00 
L 280.00 512.00
C 277.79 510.28 272.28 510.46 270.00 512.00 Z"/>
</g>
<g fill="#000000" fill-opacity="0.00" stroke="None">
<path d="
M 0.00 512.00 
L 263.00 512.00
C 206.52 504.72 157.87 481.31 118.75 436.25 C 79.64 391.18 62.91 328.22 70.00 268.00
C 72.72 244.88 79.21 222.96 89.00 202.00
C 85.26 200.75 81.73 197.47 79.00 195.00
C 70.21 201.53 68.30 228.81 52.33 223.67 C 36.35 218.53 50.71 191.17 50.00 180.00
C 44.83 174.41 37.36 171.40 37.00 163.00 C 36.64 154.60 48.72 150.55 54.00 158.00
C 57.42 148.29 55.26 143.47 47.25 136.75 C 39.24 130.04 50.93 116.04 60.00 123.00
C 62.17 111.72 63.97 100.34 66.00 89.00
C 54.29 76.55 39.33 65.45 29.25 51.75 C 19.16 38.05 5.07 15.17 17.00 0.00
L 0.00 0.00
L 0.00 512.00 Z"/>
</g>
<g fill="#5A5F63" fill-opacity="0.98" stroke="None">
<path d="
M 89.00 202.00 
C 90.85 202.62 93.03 202.65 95.00 203.00
C 94.74 200.22 92.21 198.11 93.00 195.00
C 91.30 191.45 84.33 187.81 85.34 183.32 C 86.35 178.83 91.54 174.46 93.00 170.00
C 96.51 171.64 100.18 174.43 103.00 177.00
C 104.56 177.65 108.92 177.30 111.00 179.00
C 110.82 175.74 107.54 173.47 108.00 170.00
C 105.74 164.88 97.05 158.64 102.75 153.75 C 108.46 148.87 106.50 139.16 113.00 136.00
C 115.49 134.79 124.83 146.47 127.00 149.00
C 130.13 152.66 133.62 156.69 137.00 160.00
C 137.97 160.95 139.09 162.08 140.00 163.00
C 146.64 169.77 147.04 170.66 145.00 180.00
C 142.31 192.32 138.83 204.18 138.00 217.00 C 137.17 229.82 154.00 235.62 163.00 228.00
C 168.20 223.60 168.62 214.15 172.31 209.31 C 175.99 204.46 175.35 190.81 183.01 191.01 C 190.67 191.21 200.24 190.81 207.00 194.00
C 205.58 191.04 203.08 188.70 204.00 185.00
C 203.70 181.10 203.85 176.91 204.00 173.00
C 204.39 162.68 216.88 162.94 224.02 159.02 C 231.17 155.11 241.84 153.70 244.00 145.00
C 245.30 139.76 243.18 131.40 239.00 128.00
C 234.41 124.27 227.49 124.84 222.00 126.00
C 208.65 128.81 195.44 132.38 182.00 135.00
C 177.17 128.10 168.63 123.36 165.00 116.00
C 160.22 110.18 151.94 105.97 149.00 99.00
C 157.16 96.26 164.03 90.11 172.00 87.00
C 177.14 92.91 184.50 97.23 192.00 99.00
C 190.82 91.85 186.00 85.90 182.00 80.00
C 187.82 78.58 192.37 73.80 198.00 72.00
C 202.82 77.63 209.68 81.96 217.00 83.00
C 215.66 76.30 210.50 71.13 208.00 65.00
C 216.38 63.22 221.09 55.88 229.23 53.23 C 237.37 50.58 239.55 34.01 229.30 32.70 C 219.06 31.38 210.46 33.86 200.00 36.00 C 189.53 38.13 188.04 29.81 179.30 24.70 C 170.56 19.58 161.64 35.55 170.00 42.00
C 159.94 45.40 155.49 39.93 148.30 33.70 C 141.12 27.47 128.47 39.17 136.00 47.00
C 122.96 49.26 104.44 57.29 94.75 46.25 C 85.07 35.20 77.44 29.18 67.30 19.70 C 57.16 10.21 44.29 4.64 32.00 0.00
L 17.00 0.00
C 5.07 15.17 19.16 38.05 29.25 51.75 C 39.33 65.45 54.29 76.55 66.00 89.00
C 63.97 100.34 62.17 111.72 60.00 123.00
C 50.93 116.04 39.24 130.04 47.25 136.75 C 55.26 143.47 57.42 148.29 54.00 158.00
C 48.72 150.55 36.64 154.60 37.00 163.00 C 37.36 171.40 44.83 174.41 50.00 180.00
C 50.71 191.17 36.35 218.53 52.33 223.67 C 68.30 228.81 70.21 201.53 79.00 195.00
C 81.73 197.47 85.26 200.75 89.00 202.00 Z"/>
</g>
<g fill="#000000" fill-opacity="0.00" stroke="None">
<path d="
M 165.00 116.00 
C 166.08 111.33 177.00 109.64 181.08 106.08 C 185.16 102.53 193.73 100.08 199.23 97.23 C 204.73 94.38 212.74 92.37 219.07 90.07 C 225.41 87.78 232.85 86.12 240.01 85.01 C 247.17 83.90 255.28 80.92 263.02 81.02 C 270.76 81.13 281.24 79.19 289.00 80.00 C 296.76 80.81 305.45 80.95 313.00 82.00 C 320.55 83.05 328.50 84.76 335.67 86.33 C 342.84 87.90 349.63 90.48 356.22 92.78 C 362.82 95.07 368.77 97.11 374.69 100.31 C 380.62 103.50 387.01 105.87 392.69 109.31 C 398.38 112.74 403.83 116.15 409.08 119.92 C 414.33 123.68 418.82 127.26 423.70 131.30 C 428.57 135.35 433.10 139.98 437.75 144.25 C 442.41 148.51 446.06 154.30 450.00 159.00
C 481.05 196.07 496.72 239.74 500.00 288.00
C 500.47 294.97 499.84 302.80 499.00 309.00
C 499.00 310.33 499.00 311.67 499.00 313.00
C 499.00 414.96 401.18 504.29 304.00 512.00
L 512.00 512.00
L 512.00 0.00
L 32.00 0.00
C 44.29 4.64 57.16 10.21 67.30 19.70 C 77.44 29.18 85.07 35.20 94.75 46.25 C 104.44 57.29 122.96 49.26 136.00 47.00
C 128.47 39.17 141.12 27.47 148.30 33.70 C 155.49 39.93 159.94 45.40 170.00 42.00
C 161.64 35.55 170.56 19.58 179.30 24.70 C 188.04 29.81 189.53 38.13 200.00 36.00 C 210.46 33.86 219.06 31.38 229.30 32.70 C 239.55 34.01 237.37 50.58 229.23 53.23 C 221.09 55.88 216.38 63.22 208.00 65.00
C 210.50 71.13 215.66 76.30 217.00 83.00
C 209.68 81.96 202.82 77.63 198.00 72.00
C 192.37 73.80 187.82 78.58 182.00 80.00
C 186.00 85.90 190.82 91.85 192.00 99.00
C 184.50 97.23 177.14 92.91 172.00 87.00
C 164.03 90.11 157.16 96.26 149.00 99.00
C 151.94 105.97 160.22 110.18 165.00 116.00 Z"/>
</g>
<g fill="#6EAFDE" fill-opacity="0.98" stroke="None">
<path d="
M 165.00 116.00 
C 168.63 123.36 177.17 128.10 182.00 135.00
C 195.44 132.38 208.65 128.81 222.00 126.00
C 220.82 119.18 225.85 119.17 230.69 116.69 C 235.54 114.22 230.16 108.26 229.00 105.00
C 225.33 105.00 221.67 105.00 218.00 105.00
C 230.92 93.85 247.78 94.16 265.00 95.00 C 282.22 95.84 302.65 94.57 319.00 98.00
C 310.26 100.84 302.78 107.59 293.00 107.00
C 292.51 109.80 295.31 112.83 298.00 113.00
C 289.13 118.21 274.51 111.65 265.77 117.77 C 257.03 123.90 245.67 117.96 239.00 128.00
C 243.18 131.40 245.30 139.76 244.00 145.00
C 246.22 149.85 256.11 151.65 259.75 156.25 C 263.38 160.86 270.72 163.60 275.08 167.92 C 279.44 172.24 285.10 176.01 289.75 180.25 C 294.40 184.49 300.34 188.65 305.00 193.00
C 304.28 187.50 312.57 183.70 317.00 183.00 C 321.43 182.30 331.56 188.93 332.97 182.97 C 334.38 177.01 327.92 173.18 325.00 169.00
C 338.97 165.11 352.03 157.95 366.00 154.00
C 367.41 146.71 346.33 145.40 353.31 137.31 C 360.28 129.21 368.74 133.20 376.68 128.68 C 384.61 124.16 395.97 130.61 402.69 133.31 C 409.42 136.00 421.17 141.72 415.00 150.00
C 421.18 147.77 430.12 148.90 435.69 151.31 C 441.27 153.72 444.40 160.85 450.00 159.00
C 446.06 154.30 442.41 148.51 437.75 144.25 C 433.10 139.98 428.57 135.35 423.70 131.30 C 418.82 127.26 414.33 123.68 409.08 119.92 C 403.83 116.15 398.38 112.74 392.69 109.31 C 387.01 105.87 380.62 103.50 374.69 100.31 C 368.77 97.11 362.82 95.07 356.22 92.78 C 349.63 90.48 342.84 87.90 335.67 86.33 C 328.50 84.76 320.55 83.05 313.00 82.00 C 305.45 80.95 296.76 80.81 289.00 80.00 C 281.24 79.19 270.76 81.13 263.02 81.02 C 255.28 80.92 247.17 83.90 240.01 85.01 C 232.85 86.12 225.41 87.78 219.07 90.07 C 212.74 92.37 204.73 94.38 199.23 97.23 C 193.73 100.08 185.16 102.53 181.08 106.08 C 177.00 109.64 166.08 111.33 165.00 116.00
M 201.00 118.00 
C 201.84 121.93 200.64 125.33 196.00 124.00
C 195.51 131.50 191.62 132.09 184.78 132.78 C 177.94 133.46 179.51 122.19 187.00 125.00
C 187.26 117.28 194.92 115.93 201.00 118.00
M 296.00 124.00 
C 294.59 130.60 282.81 130.63 279.00 127.00
C 284.58 125.81 289.74 122.81 296.00 124.00 Z"/>
</g>
<g fill="#E6EDF2" fill-opacity="1.00" stroke="None">
<path d="
M 222.00 126.00 
C 227.49 124.84 234.41 124.27 239.00 128.00
C 245.67 117.96 257.03 123.90 265.77 117.77 C 274.51 111.65 289.13 118.21 298.00 113.00
C 295.31 112.83 292.51 109.80 293.00 107.00
C 302.78 107.59 310.26 100.84 319.00 98.00
C 302.65 94.57 282.22 95.84 265.00 95.00 C 247.78 94.16 230.92 93.85 218.00 105.00
C 221.67 105.00 225.33 105.00 229.00 105.00
C 230.16 108.26 235.54 114.22 230.69 116.69 C 225.85 119.17 220.82 119.18 222.00 126.00 Z"/>
</g>
<g fill="#E4ECF2" fill-opacity="1.00" stroke="None">
<path d="
M 201.00 118.00 
C 194.92 115.93 187.26 117.28 187.00 125.00
C 179.51 122.19 177.94 133.46 184.78 132.78 C 191.62 132.09 195.51 131.50 196.00 124.00
C 200.64 125.33 201.84 121.93 201.00 118.00 Z"/>
</g>
<g fill="#E0EBF1" fill-opacity="1.00" stroke="None">
<path d="
M 296.00 124.00 
C 289.74 122.81 284.58 125.81 279.00 127.00
C 282.81 130.63 294.59 130.60 296.00 124.00 Z"/>
</g>
<g fill="#E6EEF2" fill-opacity="1.00" stroke="None">
<path d="
M 305.00 193.00 
C 309.78 197.46 315.27 202.27 320.00 207.00
C 322.98 207.63 328.48 204.45 332.00 206.00
C 334.17 194.10 349.33 185.55 360.67 187.33 C 372.01 189.11 377.65 209.99 389.00 202.00
C 390.73 204.92 394.09 206.65 395.00 210.00
C 399.09 207.32 401.83 209.07 402.00 214.00
C 403.51 212.32 404.19 209.50 404.00 207.00
C 414.11 208.43 419.39 205.36 416.23 195.77 C 413.07 186.18 430.50 191.18 430.00 198.00
C 430.40 195.70 430.46 192.63 432.00 191.00
C 435.12 197.96 438.51 205.44 443.00 212.00
C 433.41 210.89 423.24 210.12 414.00 213.00
C 416.39 220.39 423.35 219.89 430.00 221.00 C 436.65 222.11 434.64 234.81 435.00 240.00
C 423.40 233.54 406.71 238.32 398.00 227.00
C 396.40 230.14 394.78 233.31 395.00 237.00
C 388.76 235.35 380.42 232.31 379.00 225.00
C 369.98 227.17 364.40 218.67 364.00 211.00
C 351.07 210.29 338.78 212.07 326.00 212.00
C 329.31 216.73 334.30 220.66 338.00 225.00
C 381.93 276.41 427.90 331.00 423.00 403.00
C 427.46 393.36 436.08 385.48 439.77 374.77 C 443.47 364.06 450.02 353.88 454.31 343.31 C 458.59 332.73 465.13 322.76 469.00 312.00
C 458.32 318.92 454.53 307.17 448.75 300.25 C 442.97 293.34 439.94 282.84 439.07 273.93 C 438.20 265.01 425.46 255.47 435.00 247.00
C 443.22 265.15 452.15 283.05 458.00 302.00
C 464.21 297.47 471.24 294.94 477.75 290.75 C 484.26 286.56 482.26 270.72 476.75 268.25 C 471.24 265.77 456.74 258.24 464.25 253.25 C 471.76 248.26 477.47 261.67 483.75 264.25 C 490.03 266.84 493.36 278.47 494.78 285.22 C 496.19 291.97 495.91 306.54 499.00 313.00
C 499.00 311.67 499.00 310.33 499.00 309.00
C 499.00 302.09 499.82 294.12 500.00 288.00
C 496.72 239.74 481.05 196.07 450.00 159.00
C 444.40 160.85 441.27 153.72 435.69 151.31 C 430.12 148.90 421.18 147.77 415.00 150.00
C 421.17 141.72 409.42 136.00 402.69 133.31 C 395.97 130.61 384.61 124.16 376.68 128.68 C 368.74 133.20 360.28 129.21 353.31 137.31 C 346.33 145.40 367.41 146.71 366.00 154.00
C 352.03 157.95 338.97 165.11 325.00 169.00
C 327.92 173.18 334.38 177.01 332.97 182.97 C 331.56 188.93 321.43 182.30 317.00 183.00 C 312.57 183.70 304.28 187.50 305.00 193.00
M 456.00 197.00 
C 458.38 201.25 460.19 205.69 457.00 210.00
C 460.79 212.95 474.55 218.48 466.00 223.00
C 471.05 229.83 466.96 233.98 461.25 228.75 C 455.54 223.53 460.38 216.36 454.75 212.25 C 449.12 208.13 448.86 197.65 456.00 197.00 Z"/>
</g>
<g fill="#5A5E63" fill-opacity="0.84" stroke="None">
<path d="
M 113.00 136.00 
C 117.38 140.04 122.59 144.11 126.00 149.00
C 126.50 149.00 127.00 149.00 127.00 149.00
C 124.83 146.47 115.49 134.79 113.00 136.00 Z"/>
</g>
<g fill="#000000" fill-opacity="0.00" stroke="None">
<path d="
M 108.00 170.00 
C 108.59 166.86 114.20 162.20 116.30 159.30 C 118.40 156.41 122.42 151.42 125.00 149.00
C 121.64 144.19 116.31 140.77 113.00 136.00
C 106.50 139.16 108.46 148.87 102.75 153.75 C 97.05 158.64 105.74 164.88 108.00 170.00 Z"/>
</g>
<g fill="#586262" fill-opacity="0.10" stroke="None">
<path d="
M 125.00 149.00 
C 125.16 149.23 126.00 149.00 126.00 149.00
C 122.59 144.11 117.38 140.04 113.00 136.00
C 116.31 140.77 121.64 144.19 125.00 149.00 Z"/>
</g>
<g fill="#FED83C" fill-opacity="1.00" stroke="None">
<path d="
M 204.00 173.00 
C 204.20 176.37 204.07 181.76 204.00 185.00
C 203.08 188.70 205.58 191.04 207.00 194.00
C 200.24 190.81 190.67 191.21 183.01 191.01 C 175.35 190.81 175.99 204.46 172.31 209.31 C 168.62 214.15 168.20 223.60 163.00 228.00
C 171.39 227.79 179.34 238.77 187.25 241.75 C 195.16 244.74 203.42 251.70 211.08 255.92 C 218.73 260.15 226.28 266.45 233.75 271.25 C 241.22 276.06 248.72 281.61 255.75 287.25 C 262.78 292.89 271.45 297.54 277.00 305.00
C 285.04 311.60 293.33 318.33 301.00 326.00
C 323.88 348.88 344.32 370.95 357.00 400.00
C 363.59 415.09 369.20 431.42 368.00 449.00
C 366.67 468.51 359.17 486.71 347.00 502.00
C 387.40 486.42 418.91 445.92 423.00 403.00
C 427.90 331.00 381.93 276.41 338.00 225.00
C 333.75 220.75 329.20 216.20 325.00 212.00
C 322.75 210.90 321.61 208.61 320.00 207.00
C 315.27 202.27 309.78 197.46 305.00 193.00
C 300.34 188.65 294.40 184.49 289.75 180.25 C 285.10 176.01 279.44 172.24 275.08 167.92 C 270.72 163.60 263.38 160.86 259.75 156.25 C 256.11 151.65 246.22 149.85 244.00 145.00
C 241.84 153.70 231.17 155.11 224.02 159.02 C 216.88 162.94 204.39 162.68 204.00 173.00
M 388.00 461.00 
C 388.46 449.86 390.89 434.47 390.00 422.00 C 389.11 409.53 385.91 396.65 382.69 385.31 C 379.48 373.96 375.18 363.93 370.23 353.77 C 365.27 343.61 360.86 334.22 355.08 324.92 C 349.29 315.63 342.89 307.99 336.75 299.25 C 330.60 290.52 323.13 283.96 316.25 275.75 C 309.37 267.55 302.46 261.16 294.75 253.25 C 287.04 245.34 280.42 239.50 271.92 232.08 C 263.41 224.67 257.33 219.85 247.77 212.23 C 238.21 204.61 233.93 202.13 222.25 193.75 C 210.58 185.36 224.83 172.39 234.23 182.77 C 243.63 193.15 250.52 193.38 258.75 202.25 C 266.98 211.12 274.26 214.86 281.75 223.25 C 289.25 231.63 296.65 237.10 303.75 245.25 C 310.85 253.40 317.67 260.35 324.25 268.75 C 330.83 277.15 337.44 284.51 343.75 293.25 C 350.06 301.98 355.05 310.77 360.77 320.23 C 366.49 329.69 370.53 339.22 375.32 349.68 C 380.11 360.14 383.44 370.89 386.33 382.67 C 389.22 394.45 392.23 407.83 392.00 421.00 C 391.77 434.17 391.55 448.53 388.00 461.00 Z"/>
</g>
<g fill="#E6EEF2" fill-opacity="1.00" stroke="None">
<path d="
M 108.00 170.00 
C 107.54 173.47 110.82 175.74 111.00 179.00
C 108.92 177.30 104.56 177.65 103.00 177.00
C 100.56 178.62 93.37 191.80 93.00 195.00
C 92.21 198.11 94.74 200.22 95.00 203.00
C 93.03 202.65 90.85 202.62 89.00 202.00
C 79.21 222.96 72.72 244.88 70.00 268.00
C 70.39 267.62 72.53 267.72 73.00 267.00
C 73.31 275.44 82.88 278.86 83.78 287.22 C 84.67 295.58 95.80 299.76 93.00 309.00 C 90.20 318.24 92.39 325.16 88.75 332.75 C 85.11 340.34 94.76 346.99 96.92 354.08 C 99.09 361.16 101.67 370.46 106.25 376.75 C 110.84 383.03 116.06 387.84 118.78 395.22 C 121.49 402.61 122.61 412.61 124.93 420.07 C 127.24 427.53 130.71 435.73 134.77 442.23 C 138.83 448.72 142.84 454.45 148.25 459.75 C 153.66 465.05 159.40 472.86 167.00 471.00
C 155.54 468.26 141.25 443.01 160.00 442.00
C 159.36 438.09 158.44 434.73 164.00 436.00
C 168.97 429.70 165.35 413.97 176.03 412.03 C 186.70 410.08 192.06 402.53 192.33 391.33 C 192.60 380.13 196.46 374.06 202.30 364.30 C 208.15 354.55 190.49 351.92 190.00 343.00
C 184.30 342.49 178.77 341.29 173.00 341.00
C 172.87 334.66 163.46 332.06 159.00 336.00
C 159.46 329.14 152.81 333.43 150.00 335.00
C 150.10 331.88 152.54 329.01 156.00 330.00
C 159.11 323.04 157.04 310.90 148.78 309.22 C 140.51 307.55 134.48 304.68 130.70 297.30 C 126.91 289.92 119.43 288.55 112.31 285.69 C 105.18 282.84 98.74 294.28 91.00 293.00
C 87.57 286.85 91.64 278.39 87.25 272.75 C 82.85 267.12 87.42 259.56 88.00 253.00
C 79.79 252.31 82.79 265.45 75.00 265.00
C 75.68 252.35 82.36 241.40 87.00 230.00
C 92.40 234.06 92.28 223.73 100.00 225.00 C 107.73 226.27 107.52 218.80 113.25 215.25 C 118.98 211.70 120.18 207.30 120.00 201.00 C 119.82 194.70 131.64 196.22 134.69 192.69 C 137.75 189.17 141.46 183.19 145.00 180.00
C 147.04 170.66 146.64 169.77 140.00 163.00
C 140.13 164.23 137.94 165.26 137.00 165.00
C 137.00 163.33 137.00 161.67 137.00 160.00
C 133.62 156.69 130.13 152.66 127.00 149.00
C 127.00 149.00 126.50 149.00 126.00 149.00
C 126.00 149.00 125.16 149.23 125.00 149.00
C 122.42 151.42 118.40 156.41 116.30 159.30 C 114.20 162.20 108.59 166.86 108.00 170.00 Z"/>
</g>
<g fill="#84B9DF" fill-opacity="1.00" stroke="None">
<path d="
M 140.00 163.00 
C 139.09 162.08 137.97 160.95 137.00 160.00
C 137.00 161.67 137.00 163.33 137.00 165.00
C 137.94 165.26 140.13 164.23 140.00 163.00 Z"/>
</g>
<g fill="#000000" fill-opacity="0.00" stroke="None">
<path d="
M 93.00 195.00 
C 93.37 191.80 100.56 178.62 103.00 177.00
C 100.18 174.43 96.51 171.64 93.00 170.00
C 91.54 174.46 86.35 178.83 85.34 183.32 C 84.33 187.81 91.30 191.45 93.00 195.00 Z"/>
</g>
<g fill="#A69750" fill-opacity="1.00" stroke="None">
<path d="
M 204.00 185.00 
C 204.07 181.76 204.20 176.37 204.00 173.00
C 203.85 176.91 203.70 181.10 204.00 185.00 Z"/>
</g>
<g fill="#E9B12C" fill-opacity="1.00" stroke="None">
<path d="
M 388.00 461.00 
C 391.55 448.53 391.77 434.17 392.00 421.00 C 392.23 407.83 389.22 394.45 386.33 382.67 C 383.44 370.89 380.11 360.14 375.32 349.68 C 370.53 339.22 366.49 329.69 360.77 320.23 C 355.05 310.77 350.06 301.98 343.75 293.25 C 337.44 284.51 330.83 277.15 324.25 268.75 C 317.67 260.35 310.85 253.40 303.75 245.25 C 296.65 237.10 289.25 231.63 281.75 223.25 C 274.26 214.86 266.98 211.12 258.75 202.25 C 250.52 193.38 243.63 193.15 234.23 182.77 C 224.83 172.39 210.58 185.36 222.25 193.75 C 233.93 202.13 238.21 204.61 247.77 212.23 C 257.33 219.85 263.41 224.67 271.92 232.08 C 280.42 239.50 287.04 245.34 294.75 253.25 C 302.46 261.16 309.37 267.55 316.25 275.75 C 323.13 283.96 330.60 290.52 336.75 299.25 C 342.89 307.99 349.29 315.63 355.08 324.92 C 360.86 334.22 365.27 343.61 370.23 353.77 C 375.18 363.93 379.48 373.96 382.69 385.31 C 385.91 396.65 389.11 409.53 390.00 422.00 C 390.89 434.47 388.46 449.86 388.00 461.00 Z"/>
</g>
<g fill="#6DAFDF" fill-opacity="0.99" stroke="None">
<path d="
M 70.00 268.00 
C 62.91 328.22 79.64 391.18 118.75 436.25 C 157.87 481.31 206.52 504.72 263.00 512.00
L 270.00 512.00
C 272.28 510.46 277.79 510.28 280.00 512.00
L 304.00 512.00
C 401.18 504.29 499.00 414.96 499.00 313.00
C 495.91 306.54 496.19 291.97 494.78 285.22 C 493.36 278.47 490.03 266.84 483.75 264.25 C 477.47 261.67 471.76 248.26 464.25 253.25 C 456.74 258.24 471.24 265.77 476.75 268.25 C 482.26 270.72 484.26 286.56 477.75 290.75 C 471.24 294.94 464.21 297.47 458.00 302.00
C 452.15 283.05 443.22 265.15 435.00 247.00
C 425.46 255.47 438.20 265.01 439.07 273.93 C 439.94 282.84 442.97 293.34 448.75 300.25 C 454.53 307.17 458.32 318.92 469.00 312.00
C 465.13 322.76 458.59 332.73 454.31 343.31 C 450.02 353.88 443.47 364.06 439.77 374.77 C 436.08 385.48 427.46 393.36 423.00 403.00
C 418.91 445.92 387.40 486.42 347.00 502.00
C 359.17 486.71 366.67 468.51 368.00 449.00
C 367.28 441.47 363.65 433.26 361.67 425.33 C 359.69 417.40 358.49 408.33 357.00 400.00
C 344.32 370.95 323.88 348.88 301.00 326.00
C 295.68 323.78 290.59 323.26 287.08 317.92 C 283.57 312.57 280.62 309.86 277.00 305.00
C 271.45 297.54 262.78 292.89 255.75 287.25 C 248.72 281.61 241.22 276.06 233.75 271.25 C 226.28 266.45 218.73 260.15 211.08 255.92 C 203.42 251.70 195.16 244.74 187.25 241.75 C 179.34 238.77 171.39 227.79 163.00 228.00
C 154.00 235.62 137.17 229.82 138.00 217.00 C 138.83 204.18 142.31 192.32 145.00 180.00
C 141.46 183.19 137.75 189.17 134.69 192.69 C 131.64 196.22 119.82 194.70 120.00 201.00 C 120.18 207.30 118.98 211.70 113.25 215.25 C 107.52 218.80 107.73 226.27 100.00 225.00 C 92.28 223.73 92.40 234.06 87.00 230.00
C 82.36 241.40 75.68 252.35 75.00 265.00
C 82.79 265.45 79.79 252.31 88.00 253.00
C 87.42 259.56 82.85 267.12 87.25 272.75 C 91.64 278.39 87.57 286.85 91.00 293.00
C 98.74 294.28 105.18 282.84 112.31 285.69 C 119.43 288.55 126.91 289.92 130.70 297.30 C 134.48 304.68 140.51 307.55 148.78 309.22 C 157.04 310.90 159.11 323.04 156.00 330.00
C 152.54 329.01 150.10 331.88 150.00 335.00
C 152.81 333.43 159.46 329.14 159.00 336.00
C 163.46 332.06 172.87 334.66 173.00 341.00
C 178.77 341.29 184.30 342.49 190.00 343.00
C 190.49 351.92 208.15 354.55 202.30 364.30 C 196.46 374.06 192.60 380.13 192.33 391.33 C 192.06 402.53 186.70 410.08 176.03 412.03 C 165.35 413.97 168.97 429.70 164.00 436.00
C 158.44 434.73 159.36 438.09 160.00 442.00
C 141.25 443.01 155.54 468.26 167.00 471.00
C 159.40 472.86 153.66 465.05 148.25 459.75 C 142.84 454.45 138.83 448.72 134.77 442.23 C 130.71 435.73 127.24 427.53 124.93 420.07 C 122.61 412.61 121.49 402.61 118.78 395.22 C 116.06 387.84 110.84 383.03 106.25 376.75 C 101.67 370.46 99.09 361.16 96.92 354.08 C 94.76 346.99 85.11 340.34 88.75 332.75 C 92.39 325.16 90.20 318.24 93.00 309.00 C 95.80 299.76 84.67 295.58 83.78 287.22 C 82.88 278.86 73.31 275.44 73.00 267.00
C 72.53 267.72 70.39 267.62 70.00 268.00
M 455.00 383.00 
C 466.07 388.59 454.46 394.79 453.03 402.03 C 451.60 409.26 452.88 424.11 440.00 421.00 C 427.12 417.89 442.81 409.75 442.00 402.00 C 441.19 394.24 457.00 393.36 455.00 383.00 Z"/>
</g>
<g fill="#6FB0DF" fill-opacity="1.00" stroke="None">
<path d="
M 320.00 207.00 
C 321.61 208.61 322.75 210.90 325.00 212.00
C 325.40 212.20 326.00 212.00 326.00 212.00
C 338.78 212.07 351.07 210.29 364.00 211.00
C 364.40 218.67 369.98 227.17 379.00 225.00
C 380.42 232.31 388.76 235.35 395.00 237.00
C 394.78 233.31 396.40 230.14 398.00 227.00
C 406.71 238.32 423.40 233.54 435.00 240.00
C 434.64 234.81 436.65 222.11 430.00 221.00 C 423.35 219.89 416.39 220.39 414.00 213.00
C 423.24 210.12 433.41 210.89 443.00 212.00
C 438.51 205.44 435.12 197.96 432.00 191.00
C 430.46 192.63 430.40 195.70 430.00 198.00
C 430.50 191.18 413.07 186.18 416.23 195.77 C 419.39 205.36 414.11 208.43 404.00 207.00
C 404.19 209.50 403.51 212.32 402.00 214.00
C 401.83 209.07 399.09 207.32 395.00 210.00
C 394.09 206.65 390.73 204.92 389.00 202.00
C 377.65 209.99 372.01 189.11 360.67 187.33 C 349.33 185.55 334.17 194.10 332.00 206.00
C 328.48 204.45 322.98 207.63 320.00 207.00 Z"/>
</g>
<g fill="#73B2E0" fill-opacity="1.00" stroke="None">
<path d="
M 456.00 197.00 
C 448.86 197.65 449.12 208.13 454.75 212.25 C 460.38 216.36 455.54 223.53 461.25 228.75 C 466.96 233.98 471.05 229.83 466.00 223.00
C 474.55 218.48 460.79 212.95 457.00 210.00
C 460.19 205.69 458.38 201.25 456.00 197.00 Z"/>
</g>
<g fill="#EDE8BC" fill-opacity="1.00" stroke="None">
<path d="
M 338.00 225.00 
C 334.30 220.66 329.31 216.73 326.00 212.00
C 326.00 212.00 325.40 212.20 325.00 212.00
C 329.20 216.20 333.75 220.75 338.00 225.00 Z"/>
</g>
<g fill="#A8CCE8" fill-opacity="0.39" stroke="None">
<path d="
M 499.00 309.00 
C 499.84 302.80 500.47 294.97 500.00 288.00
C 499.82 294.12 499.00 302.09 499.00 309.00 Z"/>
</g>
<g fill="#E3ECEF" fill-opacity="1.00" stroke="None">
<path d="
M 301.00 326.00 
C 293.33 318.33 285.04 311.60 277.00 305.00
C 280.62 309.86 283.57 312.57 287.08 317.92 C 290.59 323.26 295.68 323.78 301.00 326.00 Z"/>
</g>
<g fill="#E4EDF2" fill-opacity="1.00" stroke="None">
<path d="
M 455.00 383.00 
C 457.00 393.36 441.19 394.24 442.00 402.00 C 442.81 409.75 427.12 417.89 440.00 421.00 C 452.88 424.11 451.60 409.26 453.03 402.03 C 454.46 394.79 466.07 388.59 455.00 383.00 Z"/>
</g>
<g fill="#E5EDEF" fill-opacity="1.00" stroke="None">
<path d="
M 368.00 449.00 
C 369.20 431.42 363.59 415.09 357.00 400.00
C 358.49 408.33 359.69 417.40 361.67 425.33 C 363.65 433.26 367.28 441.47 368.00 449.00 Z"/>
</g>
<g fill="#6CAEDF" fill-opacity="0.75" stroke="None">
<path d="
M 270.00 512.00 
L 280.00 512.00
C 277.79 510.28 272.28 510.46 270.00 512.00 Z"/>
</g>
</svg>