<svg xmlns="http://www.w3.org/2000/svg" xmlns:v="https://svgstorm.com"
viewBox = "0 0 512 512"
width="512"
height="512">
<g fill="None" fill-opacity="0.0" stroke="#000000" stroke-opacity="0.00" stroke-width="0.3"><path d="
M 0.00 512.00 
L 512.00 512.00
L 512.00 0.00
L 0.00 0.00
L 0.00 512.00
M 483.00 53.00 
C 487.97 56.41 491.91 59.67 494.92 65.08 C 497.93 70.49 500.10 78.90 498.00 85.00 C 495.91 91.10 492.13 95.32 486.77 98.77 C 481.41 102.22 474.60 103.83 468.33 105.33 C 462.06 106.82 456.12 109.27 449.78 110.78 C 443.44 112.29 436.24 114.37 429.98 115.98 C 423.71 117.58 416.56 120.37 410.33 121.33 C 404.10 122.29 396.79 126.75 390.93 126.93 C 385.06 127.10 376.15 134.10 371.00 132.00
C 379.13 157.05 339.76 162.72 322.99 165.99 C 306.22 169.27 271.78 189.23 259.00 169.00
C 257.96 167.35 256.43 166.29 256.00 164.00
C 244.98 166.59 234.95 170.04 223.93 172.93 C 212.91 175.82 201.68 178.00 190.33 180.33 C 178.98 182.66 167.63 185.24 155.93 186.93 C 144.23 188.62 130.94 190.18 119.00 191.00 C 107.06 191.82 92.80 194.22 81.00 194.00 C 69.20 193.78 51.65 195.78 41.00 195.00 C 30.35 194.22 9.84 199.95 8.00 187.00
C 5.98 172.74 33.01 169.39 44.08 165.08 C 55.15 160.76 75.24 152.57 87.00 149.00
C 88.00 145.34 79.54 139.95 77.75 136.25 C 75.97 132.54 70.63 127.83 68.23 123.77 C 65.83 119.71 60.97 115.96 58.25 111.75 C 55.52 107.54 51.91 103.42 48.75 99.25 C 45.59 95.08 41.40 90.71 39.00 86.00
C 48.32 85.33 57.41 83.67 67.00 84.00
C 78.82 82.86 91.10 81.58 100.25 89.75 C 109.39 97.93 116.40 101.66 125.75 107.25 C 135.09 112.85 142.01 121.98 152.00 125.00
C 175.75 115.02 202.88 108.89 227.69 98.69 C 252.50 88.50 278.73 80.41 304.07 71.07 C 329.42 61.74 355.36 51.77 381.00 43.00
C 391.13 39.53 401.94 37.00 413.00 37.00
C 417.69 36.55 423.60 35.57 429.00 36.00
C 448.29 37.53 467.25 42.20 483.00 53.00
M 257.00 232.00 
C 262.93 232.57 273.90 233.86 270.22 243.22 C 266.54 252.59 256.92 244.66 250.00 247.00 C 243.08 249.34 231.30 244.03 235.33 236.33 C 239.36 228.63 250.53 231.37 257.00 232.00
M 205.00 236.00 
C 213.03 237.83 210.99 251.17 202.99 250.99 C 194.99 250.81 188.45 257.49 180.33 255.67 C 172.21 253.84 174.27 241.13 182.01 241.01 C 189.75 240.89 196.99 234.17 205.00 236.00
M 422.00 237.00 
C 489.44 243.53 527.15 324.01 488.08 379.08 C 449.01 434.15 365.63 428.06 334.23 368.77 C 302.83 309.48 351.86 230.21 422.00 237.00
M 305.00 239.00 
C 312.54 239.95 317.96 243.80 326.07 245.93 C 334.18 248.05 328.34 264.18 320.00 260.00 C 311.66 255.82 306.70 257.44 298.78 253.22 C 290.85 249.01 296.35 237.91 305.00 239.00
M 148.00 255.00 
C 156.87 257.38 152.35 270.01 144.92 270.92 C 137.50 271.84 132.76 282.41 124.33 279.67 C 115.90 276.93 119.50 265.52 126.70 263.70 C 133.89 261.87 139.68 252.77 148.00 255.00
M 98.00 288.00 
C 106.58 290.88 100.30 302.55 94.75 305.75 C 89.20 308.96 84.85 320.43 76.33 316.67 C 67.81 312.91 73.67 302.99 79.25 299.25 C 84.82 295.51 90.01 285.32 98.00 288.00
M 50.00 465.00 
C 31.32 440.87 13.52 424.14 8.00 392.00 C 2.48 359.86 34.80 332.40 67.00 336.00
C 98.96 339.57 117.97 377.52 106.22 405.22 C 94.48 432.93 76.91 451.93 60.00 476.00
C 55.36 474.42 53.05 468.68 50.00 465.00 Z"/>
</g>
<g fill="None" fill-opacity="0.0" stroke="#A4E1FE" stroke-opacity="0.68" stroke-width="0.3"><path d="
M 413.00 37.00 
C 417.55 37.00 422.49 37.56 427.00 37.00
C 427.89 36.89 428.60 36.07 429.00 36.00
C 423.60 35.57 417.69 36.55 413.00 37.00 Z"/>
</g>
<g fill="None" fill-opacity="0.0" stroke="#B2DAFE" stroke-opacity="0.96" stroke-width="0.3"><path d="
M 427.00 37.00 
C 432.66 38.17 439.00 44.34 444.08 46.92 C 449.16 49.50 447.29 52.19 450.77 54.23 C 454.25 56.27 453.01 62.39 454.00 63.00
C 454.69 62.77 455.34 62.29 456.00 62.00
C 459.88 60.29 467.39 59.40 471.01 58.01 C 474.62 56.61 484.01 55.97 483.00 53.00
C 467.25 42.20 448.29 37.53 429.00 36.00
C 428.60 36.07 427.89 36.89 427.00 37.00 Z"/>
</g>
<g fill="None" fill-opacity="0.0" stroke="#F1F2FF" stroke-opacity="1.00" stroke-width="0.3"><path d="
M 381.00 43.00 
C 377.10 47.50 385.90 55.15 389.75 59.25 C 393.60 63.34 400.67 68.32 407.22 69.78 C 413.78 71.23 424.82 71.27 431.67 68.67 C 438.53 66.07 446.99 65.37 454.00 63.00
C 453.01 62.39 454.25 56.27 450.77 54.23 C 447.29 52.19 449.16 49.50 444.08 46.92 C 439.00 44.34 432.66 38.17 427.00 37.00
C 422.49 37.56 417.55 37.00 413.00 37.00
C 401.94 37.00 391.13 39.53 381.00 43.00 Z"/>
</g>
<g fill="None" fill-opacity="0.0" stroke="#67DEFF" stroke-opacity="0.99" stroke-width="0.3"><path d="
M 152.00 125.00 
C 147.14 127.04 140.11 130.74 134.00 133.00
C 118.37 138.77 102.85 144.19 87.00 149.00
C 75.24 152.57 55.15 160.76 44.08 165.08 C 33.01 169.39 5.98 172.74 8.00 187.00
C 10.68 182.57 22.90 187.62 28.00 186.00 C 33.10 184.38 41.79 185.34 48.00 185.00 C 54.21 184.66 62.50 184.44 69.00 184.00 C 75.50 183.56 81.23 182.38 88.00 182.00 C 94.77 181.62 100.04 180.20 107.02 179.02 C 114.01 177.84 117.73 178.27 125.67 176.67 C 133.61 175.07 134.05 174.97 144.01 173.01 C 153.97 171.05 168.55 168.10 178.22 165.22 C 187.90 162.34 188.49 163.22 196.01 161.01 C 203.53 158.79 205.46 157.40 212.02 156.02 C 218.59 154.65 223.31 153.27 229.22 151.22 C 235.14 149.18 240.40 149.19 246.02 147.02 C 251.65 144.86 257.59 144.71 263.00 142.00
C 286.97 130.01 317.90 124.37 344.00 118.00
C 347.30 117.19 350.54 117.47 354.00 117.00
C 360.07 116.17 365.12 113.03 371.22 112.22 C 377.33 111.42 383.25 108.36 389.22 107.22 C 395.20 106.09 401.25 103.28 407.08 102.08 C 412.90 100.87 418.79 98.91 424.23 97.23 C 429.67 95.55 437.37 94.71 442.08 92.08 C 446.78 89.44 452.20 85.56 454.25 81.25 C 456.31 76.94 459.94 65.42 456.00 62.00
C 455.34 62.29 454.69 62.77 454.00 63.00
C 446.99 65.37 438.53 66.07 431.67 68.67 C 424.82 71.27 413.78 71.23 407.22 69.78 C 400.67 68.32 393.60 63.34 389.75 59.25 C 385.90 55.15 377.10 47.50 381.00 43.00
C 355.36 51.77 329.42 61.74 304.07 71.07 C 278.73 80.41 252.50 88.50 227.69 98.69 C 202.88 108.89 175.75 115.02 152.00 125.00
M 368.00 69.00 
C 378.10 71.43 370.10 88.09 360.00 84.00 C 349.89 79.91 357.91 66.57 368.00 69.00
M 340.00 79.00 
C 350.08 81.42 342.18 98.20 332.00 94.00 C 321.82 89.79 329.98 76.59 340.00 79.00
M 312.00 89.00 
C 322.03 91.41 314.26 108.24 304.00 104.00 C 293.74 99.76 302.19 86.64 312.00 89.00
M 284.00 99.00 
C 294.22 101.24 286.33 118.48 276.00 114.00 C 265.66 109.52 274.52 96.93 284.00 99.00
M 258.00 110.00 
C 266.71 113.80 255.60 129.96 246.93 124.07 C 238.25 118.19 248.27 105.75 258.00 110.00
M 230.00 120.00 
C 238.76 123.42 227.74 140.31 218.93 134.07 C 210.11 127.83 220.54 116.31 230.00 120.00
M 202.00 130.00 
C 211.18 133.58 199.58 150.44 190.93 144.07 C 182.27 137.70 192.70 126.37 202.00 130.00
M 174.00 140.00 
C 183.24 143.60 171.38 160.74 162.78 154.22 C 154.17 147.71 164.93 136.46 174.00 140.00
M 146.00 150.00 
C 155.21 153.45 143.49 170.94 134.78 164.22 C 126.07 157.50 137.08 146.66 146.00 150.00
M 117.00 160.00 
C 127.19 162.58 118.99 178.95 109.00 175.00 C 99.01 171.05 106.68 157.39 117.00 160.00 Z"/>
</g>
<g fill="None" fill-opacity="0.0" stroke="#2DCFFC" stroke-opacity="0.97" stroke-width="0.3"><path d="
M 456.00 62.00 
C 459.94 65.42 456.31 76.94 454.25 81.25 C 452.20 85.56 446.78 89.44 442.08 92.08 C 437.37 94.71 429.67 95.55 424.23 97.23 C 418.79 98.91 412.90 100.87 407.08 102.08 C 401.25 103.28 395.20 106.09 389.22 107.22 C 383.25 108.36 377.33 111.42 371.22 112.22 C 365.12 113.03 360.07 116.17 354.00 117.00
C 361.42 118.06 368.74 125.03 371.00 132.00
C 376.15 134.10 385.06 127.10 390.93 126.93 C 396.79 126.75 404.10 122.29 410.33 121.33 C 416.56 120.37 423.71 117.58 429.98 115.98 C 436.24 114.37 443.44 112.29 449.78 110.78 C 456.12 109.27 462.06 106.82 468.33 105.33 C 474.60 103.83 481.41 102.22 486.77 98.77 C 492.13 95.32 495.91 91.10 498.00 85.00 C 500.10 78.90 497.93 70.49 494.92 65.08 C 491.91 59.67 487.97 56.41 483.00 53.00
C 484.01 55.97 474.62 56.61 471.01 58.01 C 467.39 59.40 459.88 60.29 456.00 62.00 Z"/>
</g>
<g fill="None" fill-opacity="0.0" stroke="#F1F2FF" stroke-opacity="1.00" stroke-width="0.3"><path d="
M 368.00 69.00 
C 357.91 66.57 349.89 79.91 360.00 84.00 C 370.10 88.09 378.10 71.43 368.00 69.00 Z"/>
</g>
<g fill="None" fill-opacity="0.0" stroke="#F1F2FF" stroke-opacity="1.00" stroke-width="0.3"><path d="
M 340.00 79.00 
C 329.98 76.59 321.82 89.79 332.00 94.00 C 342.18 98.20 350.08 81.42 340.00 79.00 Z"/>
</g>
<g fill="None" fill-opacity="0.0" stroke="#1176E8" stroke-opacity="0.95" stroke-width="0.3"><path d="
M 67.00 84.00 
C 64.86 86.18 74.96 91.65 78.08 93.92 C 81.20 96.19 88.32 101.13 92.25 103.75 C 96.17 106.38 101.50 110.77 106.08 112.92 C 110.65 115.07 115.21 121.53 120.08 122.92 C 124.95 124.30 129.76 132.27 134.00 133.00
C 140.11 130.74 147.14 127.04 152.00 125.00
C 142.01 121.98 135.09 112.85 125.75 107.25 C 116.40 101.66 109.39 97.93 100.25 89.75 C 91.10 81.58 78.82 82.86 67.00 84.00 Z"/>
</g>
<g fill="None" fill-opacity="0.0" stroke="#2991F9" stroke-opacity="0.98" stroke-width="0.3"><path d="
M 87.00 149.00 
C 102.85 144.19 118.37 138.77 134.00 133.00
C 129.76 132.27 124.95 124.30 120.08 122.92 C 115.21 121.53 110.65 115.07 106.08 112.92 C 101.50 110.77 96.17 106.38 92.25 103.75 C 88.32 101.13 81.20 96.19 78.08 93.92 C 74.96 91.65 64.86 86.18 67.00 84.00
C 57.41 83.67 48.32 85.33 39.00 86.00
C 41.40 90.71 45.59 95.08 48.75 99.25 C 51.91 103.42 55.52 107.54 58.25 111.75 C 60.97 115.96 65.83 119.71 68.23 123.77 C 70.63 127.83 75.97 132.54 77.75 136.25 C 79.54 139.95 88.00 145.34 87.00 149.00 Z"/>
</g>
<g fill="None" fill-opacity="0.0" stroke="#F1F2FF" stroke-opacity="1.00" stroke-width="0.3"><path d="
M 312.00 89.00 
C 302.19 86.64 293.74 99.76 304.00 104.00 C 314.26 108.24 322.03 91.41 312.00 89.00 Z"/>
</g>
<g fill="None" fill-opacity="0.0" stroke="#F1F2FF" stroke-opacity="1.00" stroke-width="0.3"><path d="
M 284.00 99.00 
C 274.52 96.93 265.66 109.52 276.00 114.00 C 286.33 118.48 294.22 101.24 284.00 99.00 Z"/>
</g>
<g fill="None" fill-opacity="0.0" stroke="#F1F2FF" stroke-opacity="1.00" stroke-width="0.3"><path d="
M 258.00 110.00 
C 248.27 105.75 238.25 118.19 246.93 124.07 C 255.60 129.96 266.71 113.80 258.00 110.00 Z"/>
</g>
<g fill="None" fill-opacity="0.0" stroke="#1176E8" stroke-opacity="0.96" stroke-width="0.3"><path d="
M 344.00 118.00 
C 342.42 119.47 354.21 128.89 351.99 134.01 C 349.77 139.13 348.04 147.58 340.77 148.77 C 333.50 149.96 327.00 152.82 319.98 153.98 C 312.96 155.13 306.73 158.93 299.93 159.93 C 293.12 160.92 285.47 164.33 279.00 165.00 C 272.52 165.66 264.94 172.43 259.00 169.00
C 271.78 189.23 306.22 169.27 322.99 165.99 C 339.76 162.72 379.13 157.05 371.00 132.00
C 368.74 125.03 361.42 118.06 354.00 117.00
C 350.54 117.47 347.30 117.19 344.00 118.00 Z"/>
</g>
<g fill="None" fill-opacity="0.0" stroke="#2992F9" stroke-opacity="1.00" stroke-width="0.3"><path d="
M 263.00 142.00 
C 256.79 147.41 254.47 155.78 256.00 164.00
C 256.43 166.29 257.96 167.35 259.00 169.00
C 264.94 172.43 272.52 165.66 279.00 165.00 C 285.47 164.33 293.12 160.92 299.93 159.93 C 306.73 158.93 312.96 155.13 319.98 153.98 C 327.00 152.82 333.50 149.96 340.77 148.77 C 348.04 147.58 349.77 139.13 351.99 134.01 C 354.21 128.89 342.42 119.47 344.00 118.00
C 317.90 124.37 286.97 130.01 263.00 142.00 Z"/>
</g>
<g fill="None" fill-opacity="0.0" stroke="#F1F2FF" stroke-opacity="1.00" stroke-width="0.3"><path d="
M 230.00 120.00 
C 220.54 116.31 210.11 127.83 218.93 134.07 C 227.74 140.31 238.76 123.42 230.00 120.00 Z"/>
</g>
<g fill="None" fill-opacity="0.0" stroke="#F1F2FF" stroke-opacity="1.00" stroke-width="0.3"><path d="
M 202.00 130.00 
C 192.70 126.37 182.27 137.70 190.93 144.07 C 199.58 150.44 211.18 133.58 202.00 130.00 Z"/>
</g>
<g fill="None" fill-opacity="0.0" stroke="#F1F2FF" stroke-opacity="1.00" stroke-width="0.3"><path d="
M 174.00 140.00 
C 164.93 136.46 154.17 147.71 162.78 154.22 C 171.38 160.74 183.24 143.60 174.00 140.00 Z"/>
</g>
<g fill="None" fill-opacity="0.0" stroke="#2DCFFC" stroke-opacity="0.96" stroke-width="0.3"><path d="
M 8.00 187.00 
C 9.84 199.95 30.35 194.22 41.00 195.00 C 51.65 195.78 69.20 193.78 81.00 194.00 C 92.80 194.22 107.06 191.82 119.00 191.00 C 130.94 190.18 144.23 188.62 155.93 186.93 C 167.63 185.24 178.98 182.66 190.33 180.33 C 201.68 178.00 212.91 175.82 223.93 172.93 C 234.95 170.04 244.98 166.59 256.00 164.00
C 254.47 155.78 256.79 147.41 263.00 142.00
C 257.59 144.71 251.65 144.86 246.02 147.02 C 240.40 149.19 235.14 149.18 229.22 151.22 C 223.31 153.27 218.59 154.65 212.02 156.02 C 205.46 157.40 203.53 158.79 196.01 161.01 C 188.49 163.22 187.90 162.34 178.22 165.22 C 168.55 168.10 153.97 171.05 144.01 173.01 C 134.05 174.97 133.61 175.07 125.67 176.67 C 117.73 178.27 114.01 177.84 107.02 179.02 C 100.04 180.20 94.77 181.62 88.00 182.00 C 81.23 182.38 75.50 183.56 69.00 184.00 C 62.50 184.44 54.21 184.66 48.00 185.00 C 41.79 185.34 33.10 184.38 28.00 186.00 C 22.90 187.62 10.68 182.57 8.00 187.00 Z"/>
</g>
<g fill="None" fill-opacity="0.0" stroke="#F1F2FF" stroke-opacity="1.00" stroke-width="0.3"><path d="
M 146.00 150.00 
C 137.08 146.66 126.07 157.50 134.78 164.22 C 143.49 170.94 155.21 153.45 146.00 150.00 Z"/>
</g>
<g fill="None" fill-opacity="0.0" stroke="#F1F2FF" stroke-opacity="1.00" stroke-width="0.3"><path d="
M 117.00 160.00 
C 106.68 157.39 99.01 171.05 109.00 175.00 C 118.99 178.95 127.19 162.58 117.00 160.00 Z"/>
</g>
<g fill="None" fill-opacity="0.0" stroke="#8F9BD1" stroke-opacity="0.90" stroke-width="0.3"><path d="
M 257.00 232.00 
C 250.53 231.37 239.36 228.63 235.33 236.33 C 231.30 244.03 243.08 249.34 250.00 247.00 C 256.92 244.66 266.54 252.59 270.22 243.22 C 273.90 233.86 262.93 232.57 257.00 232.00 Z"/>
</g>
<g fill="None" fill-opacity="0.0" stroke="#909CD1" stroke-opacity="0.90" stroke-width="0.3"><path d="
M 205.00 236.00 
C 196.99 234.17 189.75 240.89 182.01 241.01 C 174.27 241.13 172.21 253.84 180.33 255.67 C 188.45 257.49 194.99 250.81 202.99 250.99 C 210.99 251.17 213.03 237.83 205.00 236.00 Z"/>
</g>
<g fill="None" fill-opacity="0.0" stroke="#2A92FA" stroke-opacity="0.98" stroke-width="0.3"><path d="
M 422.00 237.00 
C 351.86 230.21 302.83 309.48 334.23 368.77 C 365.63 428.06 449.01 434.15 488.08 379.08 C 527.15 324.01 489.44 243.53 422.00 237.00
M 435.00 282.00 
C 421.69 285.90 406.31 286.02 393.00 282.00
C 396.88 273.45 401.23 253.38 414.02 253.02 C 426.82 252.66 432.23 273.09 435.00 282.00
M 388.00 257.00 
C 385.25 263.16 381.67 269.30 380.00 276.00
C 375.37 275.11 371.76 271.68 368.00 269.00
C 373.13 263.00 380.60 259.14 388.00 257.00
M 461.00 268.00 
C 457.96 271.68 453.49 274.58 449.00 276.00
C 446.84 269.45 443.30 263.46 441.00 257.00
C 448.27 259.25 454.70 263.74 461.00 268.00
M 376.00 290.00 
C 375.05 299.99 372.34 309.58 373.00 320.00
C 361.67 320.00 350.33 320.00 339.00 320.00
C 341.18 305.12 346.93 291.10 356.00 279.00
C 363.02 281.69 368.43 288.27 376.00 290.00
M 472.00 279.00 
C 481.82 290.62 488.13 304.80 489.00 320.00
C 478.00 320.00 467.00 320.00 456.00 320.00
C 458.59 311.96 451.01 299.22 453.00 292.00 C 454.99 284.78 467.95 285.15 472.00 279.00
M 439.00 296.00 
C 440.25 303.83 441.43 311.73 441.00 320.00
C 423.00 320.00 405.00 320.00 387.00 320.00
C 387.06 311.85 388.94 304.16 389.00 296.00
C 404.95 299.65 423.09 300.66 439.00 296.00
M 373.00 334.00 
C 372.49 344.39 374.39 354.13 376.00 364.00
C 366.52 368.38 356.50 379.88 350.70 367.30 C 344.90 354.73 339.64 348.14 340.00 334.00
C 351.00 334.00 362.00 334.00 373.00 334.00
M 441.00 334.00 
C 440.56 344.92 443.40 359.55 430.78 356.22 C 418.15 352.89 410.41 354.44 397.98 356.98 C 385.54 359.51 387.87 344.28 387.00 334.00
C 405.00 334.00 423.00 334.00 441.00 334.00
M 489.00 334.00 
C 488.74 349.66 481.21 363.76 472.00 376.00
C 468.44 369.03 455.51 370.24 453.08 362.92 C 450.66 355.59 458.38 342.14 456.00 334.00
C 467.00 334.00 478.00 334.00 489.00 334.00
M 435.00 372.00 
C 432.41 381.33 427.02 401.09 414.00 401.00 C 400.97 400.90 396.80 380.96 393.00 372.00
C 406.42 369.15 421.59 369.06 435.00 372.00
M 380.00 378.00 
C 381.69 384.66 384.87 390.82 388.00 397.00
C 380.54 395.79 374.54 390.47 368.00 387.00
C 369.49 382.05 375.88 380.19 380.00 378.00
M 461.00 387.00 
C 454.43 390.50 448.49 395.77 441.00 397.00
C 443.18 390.51 447.18 384.67 449.00 378.00
C 452.96 380.81 459.60 381.88 461.00 387.00 Z"/>
</g>
<g fill="None" fill-opacity="0.0" stroke="#909CD1" stroke-opacity="0.89" stroke-width="0.3"><path d="
M 305.00 239.00 
C 296.35 237.91 290.85 249.01 298.78 253.22 C 306.70 257.44 311.66 255.82 320.00 260.00 C 328.34 264.18 334.18 248.05 326.07 245.93 C 317.96 243.80 312.54 239.95 305.00 239.00 Z"/>
</g>
<g fill="None" fill-opacity="0.0" stroke="#4DD5FD" stroke-opacity="1.00" stroke-width="0.3"><path d="
M 435.00 282.00 
C 432.23 273.09 426.82 252.66 414.02 253.02 C 401.23 253.38 396.88 273.45 393.00 282.00
C 406.31 286.02 421.69 285.90 435.00 282.00 Z"/>
</g>
<g fill="None" fill-opacity="0.0" stroke="#909CD0" stroke-opacity="0.89" stroke-width="0.3"><path d="
M 148.00 255.00 
C 139.68 252.77 133.89 261.87 126.70 263.70 C 119.50 265.52 115.90 276.93 124.33 279.67 C 132.76 282.41 137.50 271.84 144.92 270.92 C 152.35 270.01 156.87 257.38 148.00 255.00 Z"/>
</g>
<g fill="None" fill-opacity="0.0" stroke="#63DBFE" stroke-opacity="1.00" stroke-width="0.3"><path d="
M 388.00 257.00 
C 380.60 259.14 373.13 263.00 368.00 269.00
C 371.76 271.68 375.37 275.11 380.00 276.00
C 381.67 269.30 385.25 263.16 388.00 257.00 Z"/>
</g>
<g fill="None" fill-opacity="0.0" stroke="#2CCDFB" stroke-opacity="1.00" stroke-width="0.3"><path d="
M 461.00 268.00 
C 454.70 263.74 448.27 259.25 441.00 257.00
C 443.30 263.46 446.84 269.45 449.00 276.00
C 453.49 274.58 457.96 271.68 461.00 268.00 Z"/>
</g>
<g fill="None" fill-opacity="0.0" stroke="#65DDFE" stroke-opacity="1.00" stroke-width="0.3"><path d="
M 376.00 290.00 
C 368.43 288.27 363.02 281.69 356.00 279.00
C 346.93 291.10 341.18 305.12 339.00 320.00
C 350.33 320.00 361.67 320.00 373.00 320.00
C 372.34 309.58 375.05 299.99 376.00 290.00 Z"/>
</g>
<g fill="None" fill-opacity="0.0" stroke="#2CCEFB" stroke-opacity="1.00" stroke-width="0.3"><path d="
M 472.00 279.00 
C 467.95 285.15 454.99 284.78 453.00 292.00 C 451.01 299.22 458.59 311.96 456.00 320.00
C 467.00 320.00 478.00 320.00 489.00 320.00
C 488.13 304.80 481.82 290.62 472.00 279.00 Z"/>
</g>
<g fill="None" fill-opacity="0.0" stroke="#909CD1" stroke-opacity="0.89" stroke-width="0.3"><path d="
M 98.00 288.00 
C 90.01 285.32 84.82 295.51 79.25 299.25 C 73.67 302.99 67.81 312.91 76.33 316.67 C 84.85 320.43 89.20 308.96 94.75 305.75 C 100.30 302.55 106.58 290.88 98.00 288.00 Z"/>
</g>
<g fill="None" fill-opacity="0.0" stroke="#4DD6FD" stroke-opacity="1.00" stroke-width="0.3"><path d="
M 439.00 296.00 
C 423.09 300.66 404.95 299.65 389.00 296.00
C 388.94 304.16 387.06 311.85 387.00 320.00
C 405.00 320.00 423.00 320.00 441.00 320.00
C 441.43 311.73 440.25 303.83 439.00 296.00 Z"/>
</g>
<g fill="None" fill-opacity="0.0" stroke="#65DCFE" stroke-opacity="1.00" stroke-width="0.3"><path d="
M 373.00 334.00 
C 362.00 334.00 351.00 334.00 340.00 334.00
C 339.64 348.14 344.90 354.73 350.70 367.30 C 356.50 379.88 366.52 368.38 376.00 364.00
C 374.39 354.13 372.49 344.39 373.00 334.00 Z"/>
</g>
<g fill="None" fill-opacity="0.0" stroke="#4DD5FD" stroke-opacity="1.00" stroke-width="0.3"><path d="
M 441.00 334.00 
C 423.00 334.00 405.00 334.00 387.00 334.00
C 387.87 344.28 385.54 359.51 397.98 356.98 C 410.41 354.44 418.15 352.89 430.78 356.22 C 443.40 359.55 440.56 344.92 441.00 334.00 Z"/>
</g>
<g fill="None" fill-opacity="0.0" stroke="#2CCDFB" stroke-opacity="1.00" stroke-width="0.3"><path d="
M 489.00 334.00 
C 478.00 334.00 467.00 334.00 456.00 334.00
C 458.38 342.14 450.66 355.59 453.08 362.92 C 455.51 370.24 468.44 369.03 472.00 376.00
C 481.21 363.76 488.74 349.66 489.00 334.00 Z"/>
</g>
<g fill="None" fill-opacity="0.0" stroke="#FE6060" stroke-opacity="0.99" stroke-width="0.3"><path d="
M 50.00 465.00 
C 54.23 465.11 57.61 454.28 61.30 451.30 C 65.00 448.32 69.01 440.63 72.25 436.25 C 75.49 431.88 79.33 426.54 82.25 421.25 C 85.18 415.97 89.29 410.62 91.31 404.31 C 93.32 397.99 96.98 391.90 96.00 384.00 C 95.01 376.10 96.30 370.95 91.68 362.32 C 87.05 353.69 76.17 339.18 67.00 336.00
C 34.80 332.40 2.48 359.86 8.00 392.00 C 13.52 424.14 31.32 440.87 50.00 465.00
M 53.00 368.00 
C 60.62 368.07 69.18 366.85 74.25 374.75 C 79.31 382.66 79.69 389.50 74.75 397.75 C 69.80 406.00 60.77 404.93 53.00 405.00
C 41.99 405.10 31.29 401.13 31.00 387.00 C 30.72 372.87 41.52 367.90 53.00 368.00 Z"/>
</g>
<g fill="None" fill-opacity="0.0" stroke="#E8333C" stroke-opacity="0.94" stroke-width="0.3"><path d="
M 50.00 465.00 
C 53.05 468.68 55.36 474.42 60.00 476.00
C 76.91 451.93 94.48 432.93 106.22 405.22 C 117.97 377.52 98.96 339.57 67.00 336.00
C 76.17 339.18 87.05 353.69 91.68 362.32 C 96.30 370.95 95.01 376.10 96.00 384.00 C 96.98 391.90 93.32 397.99 91.31 404.31 C 89.29 410.62 85.18 415.97 82.25 421.25 C 79.33 426.54 75.49 431.88 72.25 436.25 C 69.01 440.63 65.00 448.32 61.30 451.30 C 57.61 454.28 54.23 465.11 50.00 465.00 Z"/>
</g>
<g fill="None" fill-opacity="0.0" stroke="#E83940" stroke-opacity="1.00" stroke-width="0.3"><path d="
M 53.00 405.00 
C 35.24 399.46 35.14 373.42 53.00 368.00
C 41.52 367.90 30.72 372.87 31.00 387.00 C 31.29 401.13 41.99 405.10 53.00 405.00 Z"/>
</g>
<g fill="None" fill-opacity="0.0" stroke="#F3F1FD" stroke-opacity="1.00" stroke-width="0.3"><path d="
M 53.00 368.00 
C 35.14 373.42 35.24 399.46 53.00 405.00
C 60.77 404.93 69.80 406.00 74.75 397.75 C 79.69 389.50 79.31 382.66 74.25 374.75 C 69.18 366.85 60.62 368.07 53.00 368.00 Z"/>
</g>
<g fill="None" fill-opacity="0.0" stroke="#4DD5FD" stroke-opacity="1.00" stroke-width="0.3"><path d="
M 435.00 372.00 
C 421.59 369.06 406.42 369.15 393.00 372.00
C 396.80 380.96 400.97 400.90 414.00 401.00 C 427.02 401.09 432.41 381.33 435.00 372.00 Z"/>
</g>
<g fill="None" fill-opacity="0.0" stroke="#63DBFE" stroke-opacity="1.00" stroke-width="0.3"><path d="
M 380.00 378.00 
C 375.88 380.19 369.49 382.05 368.00 387.00
C 374.54 390.47 380.54 395.79 388.00 397.00
C 384.87 390.82 381.69 384.66 380.00 378.00 Z"/>
</g>
<g fill="None" fill-opacity="0.0" stroke="#2CCCFB" stroke-opacity="1.00" stroke-width="0.3"><path d="
M 461.00 387.00 
C 459.60 381.88 452.96 380.81 449.00 378.00
C 447.18 384.67 443.18 390.51 441.00 397.00
C 448.49 395.77 454.43 390.50 461.00 387.00 Z"/>
</g>
<g fill="#000000" fill-opacity="0.00" stroke="None">
<path d="
M 0.00 512.00 
L 512.00 512.00
L 512.00 0.00
L 0.00 0.00
L 0.00 512.00
M 483.00 53.00 
C 487.97 56.41 491.91 59.67 494.92 65.08 C 497.93 70.49 500.10 78.90 498.00 85.00 C 495.91 91.10 492.13 95.32 486.77 98.77 C 481.41 102.22 474.60 103.83 468.33 105.33 C 462.06 106.82 456.12 109.27 449.78 110.78 C 443.44 112.29 436.24 114.37 429.98 115.98 C 423.71 117.58 416.56 120.37 410.33 121.33 C 404.10 122.29 396.79 126.75 390.93 126.93 C 385.06 127.10 376.15 134.10 371.00 132.00
C 379.13 157.05 339.76 162.72 322.99 165.99 C 306.22 169.27 271.78 189.23 259.00 169.00
C 257.96 167.35 256.43 166.29 256.00 164.00
C 244.98 166.59 234.95 170.04 223.93 172.93 C 212.91 175.82 201.68 178.00 190.33 180.33 C 178.98 182.66 167.63 185.24 155.93 186.93 C 144.23 188.62 130.94 190.18 119.00 191.00 C 107.06 191.82 92.80 194.22 81.00 194.00 C 69.20 193.78 51.65 195.78 41.00 195.00 C 30.35 194.22 9.84 199.95 8.00 187.00
C 5.98 172.74 33.01 169.39 44.08 165.08 C 55.15 160.76 75.24 152.57 87.00 149.00
C 88.00 145.34 79.54 139.95 77.75 136.25 C 75.97 132.54 70.63 127.83 68.23 123.77 C 65.83 119.71 60.97 115.96 58.25 111.75 C 55.52 107.54 51.91 103.42 48.75 99.25 C 45.59 95.08 41.40 90.71 39.00 86.00
C 48.32 85.33 57.41 83.67 67.00 84.00
C 78.82 82.86 91.10 81.58 100.25 89.75 C 109.39 97.93 116.40 101.66 125.75 107.25 C 135.09 112.85 142.01 121.98 152.00 125.00
C 175.75 115.02 202.88 108.89 227.69 98.69 C 252.50 88.50 278.73 80.41 304.07 71.07 C 329.42 61.74 355.36 51.77 381.00 43.00
C 391.13 39.53 401.94 37.00 413.00 37.00
C 417.69 36.55 423.60 35.57 429.00 36.00
C 448.29 37.53 467.25 42.20 483.00 53.00
M 257.00 232.00 
C 262.93 232.57 273.90 233.86 270.22 243.22 C 266.54 252.59 256.92 244.66 250.00 247.00 C 243.08 249.34 231.30 244.03 235.33 236.33 C 239.36 228.63 250.53 231.37 257.00 232.00
M 205.00 236.00 
C 213.03 237.83 210.99 251.17 202.99 250.99 C 194.99 250.81 188.45 257.49 180.33 255.67 C 172.21 253.84 174.27 241.13 182.01 241.01 C 189.75 240.89 196.99 234.17 205.00 236.00
M 422.00 237.00 
C 489.44 243.53 527.15 324.01 488.08 379.08 C 449.01 434.15 365.63 428.06 334.23 368.77 C 302.83 309.48 351.86 230.21 422.00 237.00
M 305.00 239.00 
C 312.54 239.95 317.96 243.80 326.07 245.93 C 334.18 248.05 328.34 264.18 320.00 260.00 C 311.66 255.82 306.70 257.44 298.78 253.22 C 290.85 249.01 296.35 237.91 305.00 239.00
M 148.00 255.00 
C 156.87 257.38 152.35 270.01 144.92 270.92 C 137.50 271.84 132.76 282.41 124.33 279.67 C 115.90 276.93 119.50 265.52 126.70 263.70 C 133.89 261.87 139.68 252.77 148.00 255.00
M 98.00 288.00 
C 106.58 290.88 100.30 302.55 94.75 305.75 C 89.20 308.96 84.85 320.43 76.33 316.67 C 67.81 312.91 73.67 302.99 79.25 299.25 C 84.82 295.51 90.01 285.32 98.00 288.00
M 50.00 465.00 
C 31.32 440.87 13.52 424.14 8.00 392.00 C 2.48 359.86 34.80 332.40 67.00 336.00
C 98.96 339.57 117.97 377.52 106.22 405.22 C 94.48 432.93 76.91 451.93 60.00 476.00
C 55.36 474.42 53.05 468.68 50.00 465.00 Z"/>
</g>
<g fill="#A4E1FE" fill-opacity="0.68" stroke="None">
<path d="
M 413.00 37.00 
C 417.55 37.00 422.49 37.56 427.00 37.00
C 427.89 36.89 428.60 36.07 429.00 36.00
C 423.60 35.57 417.69 36.55 413.00 37.00 Z"/>
</g>
<g fill="#B2DAFE" fill-opacity="0.96" stroke="None">
<path d="
M 427.00 37.00 
C 432.66 38.17 439.00 44.34 444.08 46.92 C 449.16 49.50 447.29 52.19 450.77 54.23 C 454.25 56.27 453.01 62.39 454.00 63.00
C 454.69 62.77 455.34 62.29 456.00 62.00
C 459.88 60.29 467.39 59.40 471.01 58.01 C 474.62 56.61 484.01 55.97 483.00 53.00
C 467.25 42.20 448.29 37.53 429.00 36.00
C 428.60 36.07 427.89 36.89 427.00 37.00 Z"/>
</g>
<g fill="#F1F2FF" fill-opacity="1.00" stroke="None">
<path d="
M 381.00 43.00 
C 377.10 47.50 385.90 55.15 389.75 59.25 C 393.60 63.34 400.67 68.32 407.22 69.78 C 413.78 71.23 424.82 71.27 431.67 68.67 C 438.53 66.07 446.99 65.37 454.00 63.00
C 453.01 62.39 454.25 56.27 450.77 54.23 C 447.29 52.19 449.16 49.50 444.08 46.92 C 439.00 44.34 432.66 38.17 427.00 37.00
C 422.49 37.56 417.55 37.00 413.00 37.00
C 401.94 37.00 391.13 39.53 381.00 43.00 Z"/>
</g>
<g fill="#67DEFF" fill-opacity="0.99" stroke="None">
<path d="
M 152.00 125.00 
C 147.14 127.04 140.11 130.74 134.00 133.00
C 118.37 138.77 102.85 144.19 87.00 149.00
C 75.24 152.57 55.15 160.76 44.08 165.08 C 33.01 169.39 5.98 172.74 8.00 187.00
C 10.68 182.57 22.90 187.62 28.00 186.00 C 33.10 184.38 41.79 185.34 48.00 185.00 C 54.21 184.66 62.50 184.44 69.00 184.00 C 75.50 183.56 81.23 182.38 88.00 182.00 C 94.77 181.62 100.04 180.20 107.02 179.02 C 114.01 177.84 117.73 178.27 125.67 176.67 C 133.61 175.07 134.05 174.97 144.01 173.01 C 153.97 171.05 168.55 168.10 178.22 165.22 C 187.90 162.34 188.49 163.22 196.01 161.01 C 203.53 158.79 205.46 157.40 212.02 156.02 C 218.59 154.65 223.31 153.27 229.22 151.22 C 235.14 149.18 240.40 149.19 246.02 147.02 C 251.65 144.86 257.59 144.71 263.00 142.00
C 286.97 130.01 317.90 124.37 344.00 118.00
C 347.30 117.19 350.54 117.47 354.00 117.00
C 360.07 116.17 365.12 113.03 371.22 112.22 C 377.33 111.42 383.25 108.36 389.22 107.22 C 395.20 106.09 401.25 103.28 407.08 102.08 C 412.90 100.87 418.79 98.91 424.23 97.23 C 429.67 95.55 437.37 94.71 442.08 92.08 C 446.78 89.44 452.20 85.56 454.25 81.25 C 456.31 76.94 459.94 65.42 456.00 62.00
C 455.34 62.29 454.69 62.77 454.00 63.00
C 446.99 65.37 438.53 66.07 431.67 68.67 C 424.82 71.27 413.78 71.23 407.22 69.78 C 400.67 68.32 393.60 63.34 389.75 59.25 C 385.90 55.15 377.10 47.50 381.00 43.00
C 355.36 51.77 329.42 61.74 304.07 71.07 C 278.73 80.41 252.50 88.50 227.69 98.69 C 202.88 108.89 175.75 115.02 152.00 125.00
M 368.00 69.00 
C 378.10 71.43 370.10 88.09 360.00 84.00 C 349.89 79.91 357.91 66.57 368.00 69.00
M 340.00 79.00 
C 350.08 81.42 342.18 98.20 332.00 94.00 C 321.82 89.79 329.98 76.59 340.00 79.00
M 312.00 89.00 
C 322.03 91.41 314.26 108.24 304.00 104.00 C 293.74 99.76 302.19 86.64 312.00 89.00
M 284.00 99.00 
C 294.22 101.24 286.33 118.48 276.00 114.00 C 265.66 109.52 274.52 96.93 284.00 99.00
M 258.00 110.00 
C 266.71 113.80 255.60 129.96 246.93 124.07 C 238.25 118.19 248.27 105.75 258.00 110.00
M 230.00 120.00 
C 238.76 123.42 227.74 140.31 218.93 134.07 C 210.11 127.83 220.54 116.31 230.00 120.00
M 202.00 130.00 
C 211.18 133.58 199.58 150.44 190.93 144.07 C 182.27 137.70 192.70 126.37 202.00 130.00
M 174.00 140.00 
C 183.24 143.60 171.38 160.74 162.78 154.22 C 154.17 147.71 164.93 136.46 174.00 140.00
M 146.00 150.00 
C 155.21 153.45 143.49 170.94 134.78 164.22 C 126.07 157.50 137.08 146.66 146.00 150.00
M 117.00 160.00 
C 127.19 162.58 118.99 178.95 109.00 175.00 C 99.01 171.05 106.68 157.39 117.00 160.00 Z"/>
</g>
<g fill="#2DCFFC" fill-opacity="0.97" stroke="None">
<path d="
M 456.00 62.00 
C 459.94 65.42 456.31 76.94 454.25 81.25 C 452.20 85.56 446.78 89.44 442.08 92.08 C 437.37 94.71 429.67 95.55 424.23 97.23 C 418.79 98.91 412.90 100.87 407.08 102.08 C 401.25 103.28 395.20 106.09 389.22 107.22 C 383.25 108.36 377.33 111.42 371.22 112.22 C 365.12 113.03 360.07 116.17 354.00 117.00
C 361.42 118.06 368.74 125.03 371.00 132.00
C 376.15 134.10 385.06 127.10 390.93 126.93 C 396.79 126.75 404.10 122.29 410.33 121.33 C 416.56 120.37 423.71 117.58 429.98 115.98 C 436.24 114.37 443.44 112.29 449.78 110.78 C 456.12 109.27 462.06 106.82 468.33 105.33 C 474.60 103.83 481.41 102.22 486.77 98.77 C 492.13 95.32 495.91 91.10 498.00 85.00 C 500.10 78.90 497.93 70.49 494.92 65.08 C 491.91 59.67 487.97 56.41 483.00 53.00
C 484.01 55.97 474.62 56.61 471.01 58.01 C 467.39 59.40 459.88 60.29 456.00 62.00 Z"/>
</g>
<g fill="#F1F2FF" fill-opacity="1.00" stroke="None">
<path d="
M 368.00 69.00 
C 357.91 66.57 349.89 79.91 360.00 84.00 C 370.10 88.09 378.10 71.43 368.00 69.00 Z"/>
</g>
<g fill="#F1F2FF" fill-opacity="1.00" stroke="None">
<path d="
M 340.00 79.00 
C 329.98 76.59 321.82 89.79 332.00 94.00 C 342.18 98.20 350.08 81.42 340.00 79.00 Z"/>
</g>
<g fill="#1176E8" fill-opacity="0.95" stroke="None">
<path d="
M 67.00 84.00 
C 64.86 86.18 74.96 91.65 78.08 93.92 C 81.20 96.19 88.32 101.13 92.25 103.75 C 96.17 106.38 101.50 110.77 106.08 112.92 C 110.65 115.07 115.21 121.53 120.08 122.92 C 124.95 124.30 129.76 132.27 134.00 133.00
C 140.11 130.74 147.14 127.04 152.00 125.00
C 142.01 121.98 135.09 112.85 125.75 107.25 C 116.40 101.66 109.39 97.93 100.25 89.75 C 91.10 81.58 78.82 82.86 67.00 84.00 Z"/>
</g>
<g fill="#2991F9" fill-opacity="0.98" stroke="None">
<path d="
M 87.00 149.00 
C 102.85 144.19 118.37 138.77 134.00 133.00
C 129.76 132.27 124.95 124.30 120.08 122.92 C 115.21 121.53 110.65 115.07 106.08 112.92 C 101.50 110.77 96.17 106.38 92.25 103.75 C 88.32 101.13 81.20 96.19 78.08 93.92 C 74.96 91.65 64.86 86.18 67.00 84.00
C 57.41 83.67 48.32 85.33 39.00 86.00
C 41.40 90.71 45.59 95.08 48.75 99.25 C 51.91 103.42 55.52 107.54 58.25 111.75 C 60.97 115.96 65.83 119.71 68.23 123.77 C 70.63 127.83 75.97 132.54 77.75 136.25 C 79.54 139.95 88.00 145.34 87.00 149.00 Z"/>
</g>
<g fill="#F1F2FF" fill-opacity="1.00" stroke="None">
<path d="
M 312.00 89.00 
C 302.19 86.64 293.74 99.76 304.00 104.00 C 314.26 108.24 322.03 91.41 312.00 89.00 Z"/>
</g>
<g fill="#F1F2FF" fill-opacity="1.00" stroke="None">
<path d="
M 284.00 99.00 
C 274.52 96.93 265.66 109.52 276.00 114.00 C 286.33 118.48 294.22 101.24 284.00 99.00 Z"/>
</g>
<g fill="#F1F2FF" fill-opacity="1.00" stroke="None">
<path d="
M 258.00 110.00 
C 248.27 105.75 238.25 118.19 246.93 124.07 C 255.60 129.96 266.71 113.80 258.00 110.00 Z"/>
</g>
<g fill="#1176E8" fill-opacity="0.96" stroke="None">
<path d="
M 344.00 118.00 
C 342.42 119.47 354.21 128.89 351.99 134.01 C 349.77 139.13 348.04 147.58 340.77 148.77 C 333.50 149.96 327.00 152.82 319.98 153.98 C 312.96 155.13 306.73 158.93 299.93 159.93 C 293.12 160.92 285.47 164.33 279.00 165.00 C 272.52 165.66 264.94 172.43 259.00 169.00
C 271.78 189.23 306.22 169.27 322.99 165.99 C 339.76 162.72 379.13 157.05 371.00 132.00
C 368.74 125.03 361.42 118.06 354.00 117.00
C 350.54 117.47 347.30 117.19 344.00 118.00 Z"/>
</g>
<g fill="#2992F9" fill-opacity="1.00" stroke="None">
<path d="
M 263.00 142.00 
C 256.79 147.41 254.47 155.78 256.00 164.00
C 256.43 166.29 257.96 167.35 259.00 169.00
C 264.94 172.43 272.52 165.66 279.00 165.00 C 285.47 164.33 293.12 160.92 299.93 159.93 C 306.73 158.93 312.96 155.13 319.98 153.98 C 327.00 152.82 333.50 149.96 340.77 148.77 C 348.04 147.58 349.77 139.13 351.99 134.01 C 354.21 128.89 342.42 119.47 344.00 118.00
C 317.90 124.37 286.97 130.01 263.00 142.00 Z"/>
</g>
<g fill="#F1F2FF" fill-opacity="1.00" stroke="None">
<path d="
M 230.00 120.00 
C 220.54 116.31 210.11 127.83 218.93 134.07 C 227.74 140.31 238.76 123.42 230.00 120.00 Z"/>
</g>
<g fill="#F1F2FF" fill-opacity="1.00" stroke="None">
<path d="
M 202.00 130.00 
C 192.70 126.37 182.27 137.70 190.93 144.07 C 199.58 150.44 211.18 133.58 202.00 130.00 Z"/>
</g>
<g fill="#F1F2FF" fill-opacity="1.00" stroke="None">
<path d="
M 174.00 140.00 
C 164.93 136.46 154.17 147.71 162.78 154.22 C 171.38 160.74 183.24 143.60 174.00 140.00 Z"/>
</g>
<g fill="#2DCFFC" fill-opacity="0.96" stroke="None">
<path d="
M 8.00 187.00 
C 9.84 199.95 30.35 194.22 41.00 195.00 C 51.65 195.78 69.20 193.78 81.00 194.00 C 92.80 194.22 107.06 191.82 119.00 191.00 C 130.94 190.18 144.23 188.62 155.93 186.93 C 167.63 185.24 178.98 182.66 190.33 180.33 C 201.68 178.00 212.91 175.82 223.93 172.93 C 234.95 170.04 244.98 166.59 256.00 164.00
C 254.47 155.78 256.79 147.41 263.00 142.00
C 257.59 144.71 251.65 144.86 246.02 147.02 C 240.40 149.19 235.14 149.18 229.22 151.22 C 223.31 153.27 218.59 154.65 212.02 156.02 C 205.46 157.40 203.53 158.79 196.01 161.01 C 188.49 163.22 187.90 162.34 178.22 165.22 C 168.55 168.10 153.97 171.05 144.01 173.01 C 134.05 174.97 133.61 175.07 125.67 176.67 C 117.73 178.27 114.01 177.84 107.02 179.02 C 100.04 180.20 94.77 181.62 88.00 182.00 C 81.23 182.38 75.50 183.56 69.00 184.00 C 62.50 184.44 54.21 184.66 48.00 185.00 C 41.79 185.34 33.10 184.38 28.00 186.00 C 22.90 187.62 10.68 182.57 8.00 187.00 Z"/>
</g>
<g fill="#F1F2FF" fill-opacity="1.00" stroke="None">
<path d="
M 146.00 150.00 
C 137.08 146.66 126.07 157.50 134.78 164.22 C 143.49 170.94 155.21 153.45 146.00 150.00 Z"/>
</g>
<g fill="#F1F2FF" fill-opacity="1.00" stroke="None">
<path d="
M 117.00 160.00 
C 106.68 157.39 99.01 171.05 109.00 175.00 C 118.99 178.95 127.19 162.58 117.00 160.00 Z"/>
</g>
<g fill="#8F9BD1" fill-opacity="0.90" stroke="None">
<path d="
M 257.00 232.00 
C 250.53 231.37 239.36 228.63 235.33 236.33 C 231.30 244.03 243.08 249.34 250.00 247.00 C 256.92 244.66 266.54 252.59 270.22 243.22 C 273.90 233.86 262.93 232.57 257.00 232.00 Z"/>
</g>
<g fill="#909CD1" fill-opacity="0.90" stroke="None">
<path d="
M 205.00 236.00 
C 196.99 234.17 189.75 240.89 182.01 241.01 C 174.27 241.13 172.21 253.84 180.33 255.67 C 188.45 257.49 194.99 250.81 202.99 250.99 C 210.99 251.17 213.03 237.83 205.00 236.00 Z"/>
</g>
<g fill="#2A92FA" fill-opacity="0.98" stroke="None">
<path d="
M 422.00 237.00 
C 351.86 230.21 302.83 309.48 334.23 368.77 C 365.63 428.06 449.01 434.15 488.08 379.08 C 527.15 324.01 489.44 243.53 422.00 237.00
M 435.00 282.00 
C 421.69 285.90 406.31 286.02 393.00 282.00
C 396.88 273.45 401.23 253.38 414.02 253.02 C 426.82 252.66 432.23 273.09 435.00 282.00
M 388.00 257.00 
C 385.25 263.16 381.67 269.30 380.00 276.00
C 375.37 275.11 371.76 271.68 368.00 269.00
C 373.13 263.00 380.60 259.14 388.00 257.00
M 461.00 268.00 
C 457.96 271.68 453.49 274.58 449.00 276.00
C 446.84 269.45 443.30 263.46 441.00 257.00
C 448.27 259.25 454.70 263.74 461.00 268.00
M 376.00 290.00 
C 375.05 299.99 372.34 309.58 373.00 320.00
C 361.67 320.00 350.33 320.00 339.00 320.00
C 341.18 305.12 346.93 291.10 356.00 279.00
C 363.02 281.69 368.43 288.27 376.00 290.00
M 472.00 279.00 
C 481.82 290.62 488.13 304.80 489.00 320.00
C 478.00 320.00 467.00 320.00 456.00 320.00
C 458.59 311.96 451.01 299.22 453.00 292.00 C 454.99 284.78 467.95 285.15 472.00 279.00
M 439.00 296.00 
C 440.25 303.83 441.43 311.73 441.00 320.00
C 423.00 320.00 405.00 320.00 387.00 320.00
C 387.06 311.85 388.94 304.16 389.00 296.00
C 404.95 299.65 423.09 300.66 439.00 296.00
M 373.00 334.00 
C 372.49 344.39 374.39 354.13 376.00 364.00
C 366.52 368.38 356.50 379.88 350.70 367.30 C 344.90 354.73 339.64 348.14 340.00 334.00
C 351.00 334.00 362.00 334.00 373.00 334.00
M 441.00 334.00 
C 440.56 344.92 443.40 359.55 430.78 356.22 C 418.15 352.89 410.41 354.44 397.98 356.98 C 385.54 359.51 387.87 344.28 387.00 334.00
C 405.00 334.00 423.00 334.00 441.00 334.00
M 489.00 334.00 
C 488.74 349.66 481.21 363.76 472.00 376.00
C 468.44 369.03 455.51 370.24 453.08 362.92 C 450.66 355.59 458.38 342.14 456.00 334.00
C 467.00 334.00 478.00 334.00 489.00 334.00
M 435.00 372.00 
C 432.41 381.33 427.02 401.09 414.00 401.00 C 400.97 400.90 396.80 380.96 393.00 372.00
C 406.42 369.15 421.59 369.06 435.00 372.00
M 380.00 378.00 
C 381.69 384.66 384.87 390.82 388.00 397.00
C 380.54 395.79 374.54 390.47 368.00 387.00
C 369.49 382.05 375.88 380.19 380.00 378.00
M 461.00 387.00 
C 454.43 390.50 448.49 395.77 441.00 397.00
C 443.18 390.51 447.18 384.67 449.00 378.00
C 452.96 380.81 459.60 381.88 461.00 387.00 Z"/>
</g>
<g fill="#909CD1" fill-opacity="0.89" stroke="None">
<path d="
M 305.00 239.00 
C 296.35 237.91 290.85 249.01 298.78 253.22 C 306.70 257.44 311.66 255.82 320.00 260.00 C 328.34 264.18 334.18 248.05 326.07 245.93 C 317.96 243.80 312.54 239.95 305.00 239.00 Z"/>
</g>
<g fill="#4DD5FD" fill-opacity="1.00" stroke="None">
<path d="
M 435.00 282.00 
C 432.23 273.09 426.82 252.66 414.02 253.02 C 401.23 253.38 396.88 273.45 393.00 282.00
C 406.31 286.02 421.69 285.90 435.00 282.00 Z"/>
</g>
<g fill="#909CD0" fill-opacity="0.89" stroke="None">
<path d="
M 148.00 255.00 
C 139.68 252.77 133.89 261.87 126.70 263.70 C 119.50 265.52 115.90 276.93 124.33 279.67 C 132.76 282.41 137.50 271.84 144.92 270.92 C 152.35 270.01 156.87 257.38 148.00 255.00 Z"/>
</g>
<g fill="#63DBFE" fill-opacity="1.00" stroke="None">
<path d="
M 388.00 257.00 
C 380.60 259.14 373.13 263.00 368.00 269.00
C 371.76 271.68 375.37 275.11 380.00 276.00
C 381.67 269.30 385.25 263.16 388.00 257.00 Z"/>
</g>
<g fill="#2CCDFB" fill-opacity="1.00" stroke="None">
<path d="
M 461.00 268.00 
C 454.70 263.74 448.27 259.25 441.00 257.00
C 443.30 263.46 446.84 269.45 449.00 276.00
C 453.49 274.58 457.96 271.68 461.00 268.00 Z"/>
</g>
<g fill="#65DDFE" fill-opacity="1.00" stroke="None">
<path d="
M 376.00 290.00 
C 368.43 288.27 363.02 281.69 356.00 279.00
C 346.93 291.10 341.18 305.12 339.00 320.00
C 350.33 320.00 361.67 320.00 373.00 320.00
C 372.34 309.58 375.05 299.99 376.00 290.00 Z"/>
</g>
<g fill="#2CCEFB" fill-opacity="1.00" stroke="None">
<path d="
M 472.00 279.00 
C 467.95 285.15 454.99 284.78 453.00 292.00 C 451.01 299.22 458.59 311.96 456.00 320.00
C 467.00 320.00 478.00 320.00 489.00 320.00
C 488.13 304.80 481.82 290.62 472.00 279.00 Z"/>
</g>
<g fill="#909CD1" fill-opacity="0.89" stroke="None">
<path d="
M 98.00 288.00 
C 90.01 285.32 84.82 295.51 79.25 299.25 C 73.67 302.99 67.81 312.91 76.33 316.67 C 84.85 320.43 89.20 308.96 94.75 305.75 C 100.30 302.55 106.58 290.88 98.00 288.00 Z"/>
</g>
<g fill="#4DD6FD" fill-opacity="1.00" stroke="None">
<path d="
M 439.00 296.00 
C 423.09 300.66 404.95 299.65 389.00 296.00
C 388.94 304.16 387.06 311.85 387.00 320.00
C 405.00 320.00 423.00 320.00 441.00 320.00
C 441.43 311.73 440.25 303.83 439.00 296.00 Z"/>
</g>
<g fill="#65DCFE" fill-opacity="1.00" stroke="None">
<path d="
M 373.00 334.00 
C 362.00 334.00 351.00 334.00 340.00 334.00
C 339.64 348.14 344.90 354.73 350.70 367.30 C 356.50 379.88 366.52 368.38 376.00 364.00
C 374.39 354.13 372.49 344.39 373.00 334.00 Z"/>
</g>
<g fill="#4DD5FD" fill-opacity="1.00" stroke="None">
<path d="
M 441.00 334.00 
C 423.00 334.00 405.00 334.00 387.00 334.00
C 387.87 344.28 385.54 359.51 397.98 356.98 C 410.41 354.44 418.15 352.89 430.78 356.22 C 443.40 359.55 440.56 344.92 441.00 334.00 Z"/>
</g>
<g fill="#2CCDFB" fill-opacity="1.00" stroke="None">
<path d="
M 489.00 334.00 
C 478.00 334.00 467.00 334.00 456.00 334.00
C 458.38 342.14 450.66 355.59 453.08 362.92 C 455.51 370.24 468.44 369.03 472.00 376.00
C 481.21 363.76 488.74 349.66 489.00 334.00 Z"/>
</g>
<g fill="#FE6060" fill-opacity="0.99" stroke="None">
<path d="
M 50.00 465.00 
C 54.23 465.11 57.61 454.28 61.30 451.30 C 65.00 448.32 69.01 440.63 72.25 436.25 C 75.49 431.88 79.33 426.54 82.25 421.25 C 85.18 415.97 89.29 410.62 91.31 404.31 C 93.32 397.99 96.98 391.90 96.00 384.00 C 95.01 376.10 96.30 370.95 91.68 362.32 C 87.05 353.69 76.17 339.18 67.00 336.00
C 34.80 332.40 2.48 359.86 8.00 392.00 C 13.52 424.14 31.32 440.87 50.00 465.00
M 53.00 368.00 
C 60.62 368.07 69.18 366.85 74.25 374.75 C 79.31 382.66 79.69 389.50 74.75 397.75 C 69.80 406.00 60.77 404.93 53.00 405.00
C 41.99 405.10 31.29 401.13 31.00 387.00 C 30.72 372.87 41.52 367.90 53.00 368.00 Z"/>
</g>
<g fill="#E8333C" fill-opacity="0.94" stroke="None">
<path d="
M 50.00 465.00 
C 53.05 468.68 55.36 474.42 60.00 476.00
C 76.91 451.93 94.48 432.93 106.22 405.22 C 117.97 377.52 98.96 339.57 67.00 336.00
C 76.17 339.18 87.05 353.69 91.68 362.32 C 96.30 370.95 95.01 376.10 96.00 384.00 C 96.98 391.90 93.32 397.99 91.31 404.31 C 89.29 410.62 85.18 415.97 82.25 421.25 C 79.33 426.54 75.49 431.88 72.25 436.25 C 69.01 440.63 65.00 448.32 61.30 451.30 C 57.61 454.28 54.23 465.11 50.00 465.00 Z"/>
</g>
<g fill="#E83940" fill-opacity="1.00" stroke="None">
<path d="
M 53.00 405.00 
C 35.24 399.46 35.14 373.42 53.00 368.00
C 41.52 367.90 30.72 372.87 31.00 387.00 C 31.29 401.13 41.99 405.10 53.00 405.00 Z"/>
</g>
<g fill="#F3F1FD" fill-opacity="1.00" stroke="None">
<path d="
M 53.00 368.00 
C 35.14 373.42 35.24 399.46 53.00 405.00
C 60.77 404.93 69.80 406.00 74.75 397.75 C 79.69 389.50 79.31 382.66 74.25 374.75 C 69.18 366.85 60.62 368.07 53.00 368.00 Z"/>
</g>
<g fill="#4DD5FD" fill-opacity="1.00" stroke="None">
<path d="
M 435.00 372.00 
C 421.59 369.06 406.42 369.15 393.00 372.00
C 396.80 380.96 400.97 400.90 414.00 401.00 C 427.02 401.09 432.41 381.33 435.00 372.00 Z"/>
</g>
<g fill="#63DBFE" fill-opacity="1.00" stroke="None">
<path d="
M 380.00 378.00 
C 375.88 380.19 369.49 382.05 368.00 387.00
C 374.54 390.47 380.54 395.79 388.00 397.00
C 384.87 390.82 381.69 384.66 380.00 378.00 Z"/>
</g>
<g fill="#2CCCFB" fill-opacity="1.00" stroke="None">
<path d="
M 461.00 387.00 
C 459.60 381.88 452.96 380.81 449.00 378.00
C 447.18 384.67 443.18 390.51 441.00 397.00
C 448.49 395.77 454.43 390.50 461.00 387.00 Z"/>
</g>
</svg>