<svg xmlns="http://www.w3.org/2000/svg" shape-rendering="geometricPrecision" text-rendering="geometricPrecision" image-rendering="optimizeQuality" fill-rule="evenodd" clip-rule="evenodd" viewBox="0 0 492 512.324"><circle fill="#F33" cx="231.181" cy="231.181" r="231.181"/><path fill="#B22424" d="M437.687 127.17C471.6 167.894 492 220.259 492 277.396c0 129.745-105.183 234.928-234.928 234.928-103.431 0-191.249-66.843-222.619-159.684 40.74 65.851 113.605 109.722 196.728 109.722 127.682 0 231.181-103.499 231.181-231.181 0-37.413-8.899-72.75-24.675-104.011z"/><path fill="#fff" d="M153.667 260.865l73.416-73.454c3.881-3.88 4.37-4.043 8.395 0l73.218 73.454v73.671H254.3v-49.773a6.13 6.13 0 00-6.111-6.112l-33.979.002a6.126 6.126 0 00-6.11 6.109v49.774h-54.397v-73.671h-.036zm75.212-131.439L119.778 231.872l26.908 14.125 77.061-77.714c6.6-6.637 6.673-6.782 13.218-.291l78.712 77.969 26.908-14.125-109.264-102.574c-1.959-1.814-2.249-2.05-4.442.163v.001z"/></svg>